<svg xmlns="http://www.w3.org/2000/svg" viewBox="0 0 162.82 200.84"><defs><style>.cls-1,.cls-2{fill:#0093ba;}.cls-2{font-size:13.14px;font-family:GuttmanMantovaBold, Guttman Mantova;}</style></defs><g id="Layer_2" data-name="Layer 2"><g id="Icons_and_Form_Fields" data-name="Icons and Form Fields"><path class="cls-1" d="M60.67,2c1,0,1.54,1.13,1.54,3.41A13.39,13.39,0,0,1,61.49,9a3.77,3.77,0,0,0-2-.61,2.25,2.25,0,0,0-1.78,1.2l-2.87,4.15a8.19,8.19,0,0,0,2.88,1.51l-.86,5.57a7.37,7.37,0,0,1-3.66.92H49a1.85,1.85,0,0,0-1.94,1.13l-1.24-.37,1.38-5.66a2.72,2.72,0,0,1,.68-1.42A2.24,2.24,0,0,1,49.38,15h1.88a6.68,6.68,0,0,0,2.06-.27l-2.23-5a1.79,1.79,0,0,0-1.82-1h-.79A2.61,2.61,0,0,1,46.53,8L45.81.72l1-.21c.28,1,1.06,1.44,2.36,1.44h1.5a2.15,2.15,0,0,1,1.74.61,3.83,3.83,0,0,1,.51,1.71,8,8,0,0,1-.1,1.34c-.09.79-.14,1.31-.14,1.54a9.93,9.93,0,0,0,1.48,5.57,14.85,14.85,0,0,0,2.77-8.58A11.26,11.26,0,0,0,56.46.75L57.62.51a1.41,1.41,0,0,0,.72,1.06A2.21,2.21,0,0,0,59.61,2Zm8.49-1a2,2,0,0,1,1.14,2,1.88,1.88,0,0,1-.42,1.16L65.44,9.79a.62.62,0,0,1-.52.28l-.34,0c-.28-.27-.42-.48-.42-.61s.81-2.53,2.21-7.3A1.68,1.68,0,0,1,68.16.86a2.59,2.59,0,0,1,1,.13Zm5.66,0A2,2,0,0,1,75.88,2.9a2,2,0,0,1-.45,1.2L71.05,9.8a.63.63,0,0,1-.52.27l-.34,0a1,1,0,0,1-.31-.88l2.13-7A1.66,1.66,0,0,1,73.79.86a2.7,2.7,0,0,1,1,.13Zm15.68.93a7.39,7.39,0,0,1,3.15.72l-.58,5a2.85,2.85,0,0,0-1.75.7A3.36,3.36,0,0,0,91,10.21a9.59,9.59,0,0,0,2,6.4,11.55,11.55,0,0,1-2.42,5.51h-.51A16.21,16.21,0,0,1,89.16,17c0-.75,0-1.89.12-3.4s.12-2.64.12-3.4a3.23,3.23,0,0,0-.13-1.13,1,1,0,0,0-1-.48H80.82a2.7,2.7,0,0,1-1.93-1L78,.34,79,0c.19,1.28,1,1.92,2.53,1.92Zm21.75,13.56-1,5.44a10,10,0,0,1-3.84.79H98.92a2.94,2.94,0,0,0-2.6,1.34l-.72-.34,1.51-6.37c.2-.9,1-1.34,2.53-1.34h7.47a3.22,3.22,0,0,0,1-.1,9.48,9.48,0,0,0,.58-3.43c0-1.87-.83-2.81-2.47-2.81h-5.64c-1.55,0-2.6-.41-3.12-1.23L97.11.75l1.1-.3c.25,1,1,1.5,2.36,1.5h7.7c1.58,0,2.33,1.09,2.26,3.26l-.27,7.94a2.31,2.31,0,0,0,.59,1.52A2.15,2.15,0,0,0,112.25,15.48Z"/><path class="cls-1" d="M3.89,38a3.14,3.14,0,0,1,.89,2.53,3.72,3.72,0,0,1-.32,1.51L1,49.45c-.1.24-.24.36-.4.36l-.27,0A1.9,1.9,0,0,1,0,49c.05-.11.63-3.28,1.72-9.48.2-1.1.66-1.65,1.4-1.65a1.22,1.22,0,0,1,.77.18Zm4.42,0a3.15,3.15,0,0,1,.83,2.49,3.69,3.69,0,0,1-.35,1.55L5.37,49.46c-.11.23-.24.35-.4.35l-.27,0a2.05,2.05,0,0,1-.24-1.16l1.66-9.13c.19-1.1.66-1.65,1.39-1.65a1.31,1.31,0,0,1,.8.18Zm8.17,13.45a16.79,16.79,0,0,0,1.36,6.9,12.81,12.81,0,0,1-2.1,7.08l-.46,0a38.9,38.9,0,0,1-.35-5.16q0-1.51.18-4.59c.11-2,.17-3.57.17-4.58a18.61,18.61,0,0,0-.11-2.68.55.55,0,0,0-.59-.49H13.06a1.54,1.54,0,0,1-1.52-1.29l-.72-9.39.75-.22c.33,1.45.85,2.18,1.55,2.18h2.45c1.05,0,1.58,1,1.58,2.94A25.23,25.23,0,0,1,17,44.82c-.18,1.58-.28,2.45-.29,2.63-.15,1.75-.22,3.09-.22,4Zm15.12-.94a19.88,19.88,0,0,0,1.58,7.88,24.25,24.25,0,0,1-1.84,7.26l-.47-.18a41.32,41.32,0,0,1-.66-8.06c0-1.36,0-2.62.05-3.78q0-.31.06-1.56c0-.65,0-1.17,0-1.56,0-1.69-.32-2.54-1-2.54h-6.8q-2.41,0-2.79-1.11l-.53-9.75.69-.31c.2,1.63.87,2.45,2,2.45h8.65a3,3,0,0,1,2.25,1l-.41,7.21c-.57,0-.85,1-.85,3Zm-9.83,1.69A12.58,12.58,0,0,0,23,58.36a16.31,16.31,0,0,1-2,7.08h-.48a36.5,36.5,0,0,1-.43-6.5,50.41,50.41,0,0,1,.64-7.84l1.18,0-.08,1.06ZM40.9,41.62a25.06,25.06,0,0,1,.29,4.54,21.61,21.61,0,0,1-1.68,7.57l-.94-.94a11.14,11.14,0,0,0,.88-3.11c0-1.13-.42-1.7-1.26-1.7h-.94a1.88,1.88,0,0,1-1.75-1.24l-.72-9.22.75-.26c.24,1.33.68,2,1.3,2h2c1,0,1.69.79,2,2.36Zm12.28-2.36q2.43,0,2.43,6.45a39.65,39.65,0,0,1-1.76,12q-2,6.51-5.39,7.93l-.43-1c.18-1.86.27-3.48.27-4.87,0-.8,0-1.78-.11-3q5.75-1.56,5.74-5.77c0-2.06-.68-3.09-2-3.09H45.66a1.82,1.82,0,0,1-1.9-1.2,3.34,3.34,0,0,1-.16-1.15l-.7-14.87-.08-1.65a2.14,2.14,0,0,1,.83-2l1.54-.56a1.33,1.33,0,0,0,.89-1.27l.59.09v4.88c0,1.06-.25,1.7-.75,1.94l-1.29.66a2.65,2.65,0,0,0-.56,1.93,8.43,8.43,0,0,0,.11,1.08,7.33,7.33,0,0,0,.74,2.66,1.76,1.76,0,0,0,1.61.7Zm16.21,0a2.1,2.1,0,0,1,1.84.71l-.77,7.83a5.14,5.14,0,0,0-2.62-.58q-1.17,0-1.71,2.73l3.27,4.64a8.61,8.61,0,0,1,1.44,5,13.77,13.77,0,0,1-.42,3.08c-.27.95-.52,1.9-.77,2.85H69a6.81,6.81,0,0,0-1.42-3.88L60.07,50.84a5.44,5.44,0,0,0-.72,3.22,5.42,5.42,0,0,0,.38,2.07,1.79,1.79,0,0,0,1,1.14,1.88,1.88,0,0,0,.74.13c1.19,0,1.89.24,2.11.72l0,.27-.8,6.87a7.09,7.09,0,0,0-2.76-.58,4.46,4.46,0,0,0-2.41.71L57.3,64l.85-1.16a15,15,0,0,1-.43-3.2l.06-.62.91-10.29a11.48,11.48,0,0,1-1.18-4.63,5,5,0,0,1,.16-1L59,37.3l.75,0a9.48,9.48,0,0,0,1.53,5.5l4.12,5.94A42.26,42.26,0,0,0,66,41.89c0-.24,0-1.75-.08-4.54l.69-.4c.31,1.51.81,2.27,1.5,2.27ZM95.52,50.79a24.7,24.7,0,0,0,1.07,7.61A31.53,31.53,0,0,1,95,65.66l-.63,0A38,38,0,0,1,94,60.14c0-1,.06-2.39.19-4.32s.19-3.37.19-4.32c0-2.34-.42-3.52-1.26-3.52H86a17.7,17.7,0,0,0-.29,3.41c0,3,.41,4.76,1.23,5.14l-.32,5.3a8.65,8.65,0,0,1-.1,1.11,2.2,2.2,0,0,1-2.24,2h-.82c-.45,0-.82.49-1.13,1.38l-.64-.49,1-7.66c.11-.83.41-1.33.91-1.51l1.29-.44-.34-5.81q0-.36,0-1c-.15-1.82-.66-3-1.55-3.53a28,28,0,0,0,.78-6.12,19.84,19.84,0,0,0-.17-2.4l1-.58c.35,1.63,1.08,2.45,2.19,2.45h7c1.62,0,2.43,1.08,2.43,3.25,0,.33-.13,1.88-.39,4.67-.13,1.49-.2,2.69-.2,3.61Zm11.1-11.53q4.26,0,4.26,12.82c0,2.35,0,3.61,0,3.79-.08.8-.23,1.82-.44,3.07l-.65,3.91a4.8,4.8,0,0,1-4,2.1h-4.78a2.39,2.39,0,0,0-2,1.38l-.56-.4,1-6.24a7.8,7.8,0,0,1,.7-2.53,1.68,1.68,0,0,1,1.55-.94h5.23a3.57,3.57,0,0,0,2.86-1.33,37.49,37.49,0,0,0-.85-5.48,1.7,1.7,0,0,0-.76-1A2.06,2.06,0,0,0,107,48h-5.29a2,2,0,0,1-2-1.29l-.53-8.9.75-.27c.26,1.16.87,1.74,1.81,1.74ZM122.74,50.7A22.41,22.41,0,0,0,124,58.4a20.39,20.39,0,0,1-1.91,7.21h-.65a31.86,31.86,0,0,1-.3-4.45c0-1,.07-2.5.19-4.49s.19-3.49.19-4.5a12.75,12.75,0,0,0-.24-3.12A1.53,1.53,0,0,0,119.67,48h-5.24c-.78,0-1.36-.51-1.73-1.55l-.32-8.82.82-.31c.11,1.31.65,2,1.61,2h5.26c1.35,0,2.24.82,2.67,2.45a11.85,11.85,0,0,1,.21,2.62c0,.72,0,1.78-.1,3.19s-.11,2.47-.11,3.18Zm15.92,6.14-.8,7.08a5.27,5.27,0,0,1-3,1h-6.6c-.89,0-1.57.58-2,1.73l-.56-.44L126.85,58a1.8,1.8,0,0,1,2-1.74h5.82a1.54,1.54,0,0,0,.8-.13,19,19,0,0,0,.46-4.45c0-2.44-.64-3.66-1.93-3.66h-4.39a2.37,2.37,0,0,1-2.44-1.6l-.3-8.68.86-.4c.19,1.31.81,2,1.84,2h6q1.84,0,1.76,4.23l-.21,10.33a4.3,4.3,0,0,0,.46,2C137.88,56.41,138.24,56.76,138.66,56.84ZM144.24,38a3.17,3.17,0,0,1,.88,2.53,3.56,3.56,0,0,1-.32,1.51l-3.46,7.4c-.11.24-.24.36-.41.36l-.26,0a1.82,1.82,0,0,1-.33-.81c.06-.11.63-3.28,1.72-9.48.2-1.1.66-1.65,1.4-1.65a1.26,1.26,0,0,1,.78.18Zm4.41,0a3.15,3.15,0,0,1,.83,2.49,3.69,3.69,0,0,1-.35,1.55l-3.42,7.41c-.1.23-.24.35-.4.35l-.27,0a2.05,2.05,0,0,1-.24-1.16l1.66-9.13c.2-1.1.66-1.65,1.39-1.65a1.29,1.29,0,0,1,.8.18Z"/><text class="cls-2" transform="matrix(-0.61, 0.79, -0.99, -0.77, 151.42, 176.69)">&quot;</text><path class="cls-1" d="M130.46,191.54c2.18.78,1.19,1.27-.77,2s-22.1,7.9-51,7.22-38.93-3.49-43.77-4.68-6.38-2.46-5.19-3.57,9-9.77,48.53-8.37,48.79,6.13,52.19,7.36"/><path class="cls-1" d="M27.53,192.81s-1.61-.51-1.78-1.7.85-3.15,4.16-4.67,19.72-6.89,42-6.8,45.64,3.31,53.29,5.77,7.14,3,7.73,3.75a1.88,1.88,0,0,1,0,1.86s-5.61-3.57-23.54-6-35.1-2.63-53.89-1.78-27.34,7.53-28,9.52"/><path class="cls-1" d="M27.11,181.08c-2.48.95-3.06-3.31-.6-4.17s4,.26,3.4,1.54-.36,1.7-2.8,2.63"/><path class="cls-1" d="M132,180.23c-2.62,2-3.57-2.29-1.36-3.32s3.74,1.54,1.36,3.32"/><path class="cls-1" d="M132.07,168.33c2.23.78.94,3.74-.59,3.06s-13-5.27-32.47-8.33-31.36-2.12-46.23.94S29.14,170.45,27,171.47s-2.81-2.12-.17-3.65,23.54-9.35,52.7-8.59,46.91,7.15,52.52,9.1"/><path class="cls-1" d="M133.52,156.94l.76-.08s-.08,3.23-1.61,4.84-4.08,1.27-3.57,2.13a6.8,6.8,0,0,1,.68,2.2s-2.89-.84-5.45-1.78l-2.54-.94a9.89,9.89,0,0,1-1.36-3c-.68-2.13-.85-3.14-1.45-2s-2.38,4.93-7.39,3.57-5.61-6.54-6.38-5.69-2,4.59-6.37,3.4-5.53-6.46-6.37-5.36-2.13,4.42-5.78,3.91-6-3.82-6.63-4.42-1.11-.17-2,.85-1.95,3.06-5.18,3.23a7.34,7.34,0,0,1-5.87-2.8c-.85-.86-1.19-.43-2,.68a6.35,6.35,0,0,1-4.17,3c-2.46.59-5.6-1.7-7.3-3.06s-1.11.77-3.41,2.89-3.82,2.64-6.88,2.89-4.42-2.89-5.1-1.19-2.21,3.49-6,4.42-5-.76-6.63-2.64-1.18-2.37.26-1.1,4.76,3.15,7.31,1a9.6,9.6,0,0,0,3.14-4.59c.34-.59,2.38-.93,3.32,0a6.17,6.17,0,0,0,6.2,1,8.25,8.25,0,0,0,4.68-6.37c.51-3,1.36-3.23,3-1.1s4.67,5,7.31,4.5a7.3,7.3,0,0,0,4.75-3.82c.6-1.11,1.79-.68,2.72.93a4.12,4.12,0,0,0,6.29.85,9.76,9.76,0,0,0,3.66-6.12c0-1,2.37-.94,2.63.25s2.13,6.89,5.35,7,6-4.25,6.55-5.1,1.87-.68,1.87,1.19.42,5.36,4.33,4.93,6.81-4,7.48-5.52,1.62-1.53,1.53.17,0,6.71,4.08,7.47,6.63-3.05,7-3.73,2.21-.17,2.21,1.1.68,6.63,5.53,6.12a9,9,0,0,0,6.8-4.08"/><path class="cls-1" d="M132.33,166.72l-1.19-.51-.34-1.79a7.78,7.78,0,0,1,1.27-.77c.85-.42.94-.76.94-.76s-.94,2.55-.68,3.83"/><polygon class="cls-1" points="120.09 163.06 117.71 162.13 119.07 160.77 120.09 163.06"/><polygon class="cls-1" points="106.83 160.43 103.77 159.83 105.39 158.39 106.83 160.43"/><polygon class="cls-1" points="91.02 158.04 92.72 156.18 94.59 158.55 91.02 158.04"/><polygon class="cls-1" points="82.09 157.71 77 157.71 79.63 155.41 82.09 157.71"/><polygon class="cls-1" points="67.99 157.71 64.59 157.96 66.29 156.43 67.99 157.71"/><polygon class="cls-1" points="55.66 158.81 50.91 159.66 53.03 157.37 55.66 158.81"/><polygon class="cls-1" points="38.41 162.38 39.77 161.95 38.83 161.44 38.41 162.38"/><polygon class="cls-1" points="27.53 166.12 27.45 165.27 28.46 165.78 27.53 166.12"/><path class="cls-1" d="M139.21,141.22a57.86,57.86,0,0,0-1.53-6.12,30.31,30.31,0,0,0-1.79-4.59c-.33-.59,0-1.53,1.45-2.8s7.31-8.16,7.31-16.15-3-14.28-11-18.36-15.39-1.7-17.85.25-2.72,2.13-2.72,2.13L111,93.37s2.81-3.83,6.89-5,14.62-.17,21.41,5.43,8.93,15.13,6,24.23-7.48,10.62-6.63,13.34,1.61,4.93,1.19,8-.68,1.87-.68,1.87"/><polygon class="cls-1" points="43.09 128.72 43.09 127.79 44.44 127.79 49.12 131.36 48.52 132.97 43.09 128.72"/><path class="cls-1" d="M49.63,129.57l-.85-.42s.25-3.65.34-4.5-.59-2.64-1.27-5.28-2.73-9.77.08-16.31,5.61-9.52,10-10.54,13.26,3.06,15.3,9.69,3,20.48,3,20.48l-1.7-2.8s-.25-10.37-2-15.39S65.1,94.73,62,94.39s-7.65.68-10.29,6.12a24.12,24.12,0,0,0-2.29,15,35.07,35.07,0,0,0,2.12,8Z"/><path class="cls-1" d="M77.25,124.39v-2l2.29,2.55,5.19-5.1s-.43-10.88,3.23-19,9.35-11.48,15.56-9.94,10.53,5.94,11.81,13.34-1.79,13.17-2.73,15.13-1.69,3.31-1.69,3.31a4,4,0,0,1,1.87,2.38,5.27,5.27,0,0,1,.17,3.31s1.27,1.11.42,2.21-2-1.1-2-1.1a15.22,15.22,0,0,0-.51-3.82c-.51-1.62-1.19-1.87-1.19-1.87l-.43-2.72a23.73,23.73,0,0,0,4-9.1c1-5.27,0-11.81-1.7-14.36a12.69,12.69,0,0,0-12.75-4.85c-6,1.36-9.69,7.82-11.3,14a42.79,42.79,0,0,0-1,12.83L79.46,128Z"/><path class="cls-1" d="M66.8,149.63a1.7,1.7,0,0,0-.85.09l-.51.17a2.42,2.42,0,0,1-.68-2.81c.68-1.78,2-1.53,2.38-.25a5,5,0,0,1-.34,2.8"/><path class="cls-1" d="M38.24,155.15a2.19,2.19,0,0,0-.85,0,1.58,1.58,0,0,0-.93.52,1.84,1.84,0,0,1-.68-2.46c.68-1.79,2.46-1.54,2.8-.18a2.38,2.38,0,0,1-.34,2.12"/><path class="cls-1" d="M23.79,159.15c-1.05.47-1.78.43-2.29-1s0-2.46.93-2.72,1.79.17,2.47,1.45-.34,1.95-1.11,2.29"/><path class="cls-1" d="M51.24,148.36c-2.35.11-3.14-3.74-.25-4s2,3.91.25,4"/><path class="cls-1" d="M79.38,145.3a2.18,2.18,0,0,1-2-2.81c.34-.93,3-2,3.66-.59s.16,3.57-1.7,3.4"/><path class="cls-1" d="M93.82,147.51c-1.46,0-1.44-3.74.43-3.15a1.6,1.6,0,0,1-.43,3.15"/><path class="cls-1" d="M107.59,147.17c-2.56-.1-1.69-3.91.68-3.49s1.53,3.57-.68,3.49"/><path class="cls-1" d="M120.68,152.44c-2.33-.77-1.87-3.74.6-2.81s.93,3.32-.6,2.81"/><path class="cls-1" d="M138.11,152.44c2.19.73,1.74,4-1.11,3.23-2.12-.6-.42-3.74,1.11-3.23"/><path class="cls-1" d="M47.93,124.31l-.51,4.16-2-1.44s2.47-.6,2.55-2.72"/><path class="cls-1" d="M46.91,123.71a3.83,3.83,0,0,1-3.23,2.63c-2,.43-2.3-1.69-2.3-3.56s.69-3.49,3.15-3.15,3.15,1.87,2.38,4.08"/><path class="cls-1" d="M44.36,118.44a10.1,10.1,0,0,0-1.87.17l-.68.17a2.05,2.05,0,0,1-1.36-2.29A2.89,2.89,0,0,1,44.19,114c1.78.59,2.29,3,.17,4.41"/><polygon class="cls-1" points="46.57 118.95 45.63 118.53 46.4 117.34 46.57 118.95"/><path class="cls-1" d="M44.61,112.83a3.13,3.13,0,0,0-1.61-.08c-1,.17-1.45.26-1.45.26a3,3,0,0,1-1.44-3.15c.51-2,2.89-2.89,4.16-2a3.5,3.5,0,0,1,.34,5"/><path class="cls-1" d="M45,107.05a3,3,0,0,0-.93-.51,2.26,2.26,0,0,0-1.28-.08,2.82,2.82,0,0,1-1.11-2.89,2.16,2.16,0,0,1,2-2.13,4.06,4.06,0,0,0,1.36.68,3.61,3.61,0,0,0,1.45.17s.68,3.57-1.53,4.76"/><path class="cls-1" d="M21.24,143.4a57.86,57.86,0,0,1,1.53-6.12,32,32,0,0,1,1.78-4.59c.34-.59,0-1.53-1.44-2.8s-7.31-8.16-7.31-16.15,3-14.28,11-18.36,15.38-1.7,17.85.25,2.72,2.13,2.72,2.13l2.12-2.21s-2.8-3.83-6.88-5S28,90.37,21.15,96s-8.92,15.12-6,24.22,7.48,10.62,6.63,13.34-1.62,4.93-1.2,8,.69,1.87.69,1.87"/><path class="cls-1" d="M48.44,99.23c-.94,1.62-2,2.64-4,1.28a2.67,2.67,0,0,1,.68-4.68,2.35,2.35,0,0,1,3.06,1.45,3.7,3.7,0,0,1,.26,2"/><path class="cls-1" d="M17.83,133.14a2.22,2.22,0,0,0-1.17,4.26,2.22,2.22,0,0,0,1.17-4.26"/><path class="cls-1" d="M12.83,126.52a2.91,2.91,0,0,0,0,5.78,2.91,2.91,0,0,0,0-5.78"/><path class="cls-1" d="M12.23,120.82a2.7,2.7,0,0,0-2.46-2.89,2.93,2.93,0,0,0,0,5.78,2.7,2.7,0,0,0,2.46-2.89"/><path class="cls-1" d="M9,115.64c1.41,0,2.55-1.42,2.55-3.15A2.89,2.89,0,0,0,9,109.35a2.9,2.9,0,0,0-2.55,3.14c0,1.73,1.15,3.15,2.55,3.15"/><path class="cls-1" d="M9.85,107.31a3.36,3.36,0,0,0,0-6.63,3.36,3.36,0,0,0,0,6.63"/><path class="cls-1" d="M13.59,99.74a3.19,3.19,0,0,0,0-6.29,3.2,3.2,0,0,0,0,6.29"/><path class="cls-1" d="M19.54,88.61a2.56,2.56,0,1,0,2.38,2.55,2.47,2.47,0,0,0-2.38-2.55"/><path class="cls-1" d="M26.77,84.11A2.9,2.9,0,1,0,29.91,87a3,3,0,0,0-3.14-2.89"/><path class="cls-1" d="M34.5,82.06a2.73,2.73,0,1,0,2.55,2.72,2.65,2.65,0,0,0-2.55-2.72"/><path class="cls-1" d="M41.3,83.17A2.56,2.56,0,1,0,44,85.72a2.64,2.64,0,0,0-2.72-2.55"/><path class="cls-1" d="M48.87,84.53a2.33,2.33,0,1,0,2.71,2.29,2.55,2.55,0,0,0-2.71-2.29"/><path class="cls-1" d="M54.82,86.31a1.55,1.55,0,1,0,1.78,1.54,1.68,1.68,0,0,0-1.78-1.54"/><path class="cls-1" d="M141.25,131.53a2.17,2.17,0,1,1,2.17,2.17,2.17,2.17,0,0,1-2.17-2.17"/><path class="cls-1" d="M144.69,126.56a1.79,1.79,0,1,1,3.57,0,1.79,1.79,0,0,1-3.57,0"/><path class="cls-1" d="M147,121a1.79,1.79,0,1,1,1.78,1.78A1.78,1.78,0,0,1,147,121"/><path class="cls-1" d="M148.39,114.83a2,2,0,1,1,2,2,2,2,0,0,1-2-2"/><path class="cls-1" d="M148.65,107.94a2.29,2.29,0,1,1,2.29,2.3,2.29,2.29,0,0,1-2.29-2.3"/><path class="cls-1" d="M147.62,100.68a2.43,2.43,0,1,1,2.43,2.42,2.43,2.43,0,0,1-2.43-2.42"/><path class="cls-1" d="M145,94.81A2.17,2.17,0,1,1,147.11,97,2.16,2.16,0,0,1,145,94.81"/><path class="cls-1" d="M139.72,90.09a2.3,2.3,0,1,1,2.3,2.3,2.3,2.3,0,0,1-2.3-2.3"/><path class="cls-1" d="M133.86,87A1.91,1.91,0,1,1,135.77,89,1.92,1.92,0,0,1,133.86,87"/><path class="cls-1" d="M126.84,84.49A2.55,2.55,0,1,1,129.4,87a2.56,2.56,0,0,1-2.56-2.54"/><path class="cls-1" d="M120.22,83.85a1.91,1.91,0,1,1,1.91,1.91,1.9,1.9,0,0,1-1.91-1.91"/><path class="cls-1" d="M113.08,84.49a2.29,2.29,0,1,1,2.29,2.29,2.29,2.29,0,0,1-2.29-2.29"/><path class="cls-1" d="M114.35,127.58a1.28,1.28,0,1,1,1.28,1.27,1.28,1.28,0,0,1-1.28-1.27"/><path class="cls-1" d="M115.37,123.88a1.79,1.79,0,1,1,1.78,1.66,1.72,1.72,0,0,1-1.78-1.66"/><path class="cls-1" d="M116.64,119.17a2,2,0,1,1,2,1.91,2,2,0,0,1-2-1.91"/><path class="cls-1" d="M117,112.92a2.3,2.3,0,1,1,2.29,2.17,2.23,2.23,0,0,1-2.29-2.17"/><path class="cls-1" d="M117.66,106.29a2.3,2.3,0,1,1,2.3,2.32,2.32,2.32,0,0,1-2.3-2.32"/><path class="cls-1" d="M117,100.42a1.91,1.91,0,1,1,1.91,1.79,1.85,1.85,0,0,1-1.91-1.79"/><path class="cls-1" d="M115.4,95.07a1.89,1.89,0,1,1,1.88,1.73,1.81,1.81,0,0,1-1.88-1.73"/><path class="cls-1" d="M110.65,91.32a2.24,2.24,0,1,1,2.24,2.24,2.24,2.24,0,0,1-2.24-2.24"/><path class="cls-1" d="M105.56,87.67a2.17,2.17,0,1,1,2.16,2.3,2.23,2.23,0,0,1-2.16-2.3"/><path class="cls-1" d="M98.42,86.78a2.29,2.29,0,1,1,2.29,2.43,2.36,2.36,0,0,1-2.29-2.43"/><path class="cls-1" d="M91.4,88.57a2.3,2.3,0,1,1,2.29,2.29,2.3,2.3,0,0,1-2.29-2.29"/><path class="cls-1" d="M79.8,117.89a2,2,0,1,0-2-2A2,2,0,0,0,79.8,117.89Z"/><path class="cls-1" d="M78.62,113a3.31,3.31,0,0,1-.13-6A3.36,3.36,0,0,1,76,103.86a3.18,3.18,0,0,1,1.29-2.51,3.24,3.24,0,0,1-2.06-2.84,3.37,3.37,0,0,1,2.45-3c-.25-.13-.32-.88-.32-.88H74.45a9,9,0,0,1-5.78-2c-1.53-1-7.57-1.1-7.57-1.1,7.91,2,11.9,4.92,13.78,12a83.81,83.81,0,0,1,2,11.48A3.07,3.07,0,0,1,78.62,113Z"/><path class="cls-1" d="M88.9,93.54A41.3,41.3,0,0,1,84,94.3s-.08,1.79-.5,1.79-.68-1.7-.68-1.7H78.36a3.4,3.4,0,0,1-.45,1,4.92,4.92,0,0,1,1.51-.24c2.32,0,4.21,1.48,4.21,3.31a3.17,3.17,0,0,1-1.76,2.69,3.22,3.22,0,0,1,1.5,2.66,3.33,3.33,0,0,1-2.23,3,3.31,3.31,0,0,1,0,6.18,3.06,3.06,0,0,1-1.3,5.83,3,3,0,0,1-2.71-1.72c.17,1.84.25,3,.25,3l2.46,2.47,3.31-3.14a41.55,41.55,0,0,1,1.62-14c3-10,7.4-13.17,7.4-13.17A12.15,12.15,0,0,1,88.9,93.54Z"/><path class="cls-1" d="M77.64,110a2.29,2.29,0,1,1,2.29,2.3,2.29,2.29,0,0,1-2.29-2.3"/><path class="cls-1" d="M77,103.86a2.71,2.71,0,1,1,2.67,2.3,2.51,2.51,0,0,1-2.67-2.3"/><path class="cls-1" d="M76.23,98.51c0-1.26,1.43-2.29,3.19-2.29s3.19,1,3.19,2.29-1.43,2.29-3.19,2.29-3.19-1-3.19-2.29"/><path class="cls-1" d="M47.24,92.77a2.86,2.86,0,1,1,2.86,2.85,2.86,2.86,0,0,1-2.86-2.85"/><path class="cls-1" d="M53.26,89A2.69,2.69,0,1,1,56,91.72,2.7,2.7,0,0,1,53.26,89"/><path class="cls-1" d="M59.28,88.7a1.91,1.91,0,1,1,1.91,1.78,1.86,1.86,0,0,1-1.91-1.78"/><path class="cls-1" d="M64.25,89.08c0-.85.91-1.54,2-1.54s2,.69,2,1.54-.92,1.53-2,1.53-2-.69-2-1.53"/><path class="cls-1" d="M128,179.12c-.51-3.31,3.32-3.74,3.32-3.74v-2.12a34.88,34.88,0,0,0-5.19-2.46c-3.91-1.62-28.38-8.59-53.37-7.91a127.61,127.61,0,0,0-45.39,10.2l.09,2.12s3.82-.34,4,2.81-3.74,4.42-3.74,4.42l.26,3.14c16-5.69,32.21-9.18,61.45-7.05s41.81,7.39,41.81,7.39l.26-4A3,3,0,0,1,128,179.12ZM42.45,179l-.5.57-.34-.67a5.87,5.87,0,0,0-1.87-1.84,12.45,12.45,0,0,0-2.55-1.35l-.93-.31.79-.58s2.58-1.93,3.11-4.29l.32-1.37.64,1.25A7.94,7.94,0,0,0,43,172.57a11.11,11.11,0,0,0,2.67,1.7l.66.27Zm11.34-3.9a3.57,3.57,0,1,1,3.57-3.57A3.57,3.57,0,0,1,53.79,175.13Zm17.95-3.88a7.84,7.84,0,0,0-2.25,1.91L68,175l-.39-.37a31.75,31.75,0,0,0-4.38-3.38l-.82-.5.87-.4a8.53,8.53,0,0,0,2.63-2.16l1.4-1.66.46-.54.36.6a12.2,12.2,0,0,0,2.32,2.68l2,1.65Zm8.57,2.48a3.57,3.57,0,1,1,3.57-3.57A3.57,3.57,0,0,1,80.31,173.73Zm17.12-1.3a9.5,9.5,0,0,0-4,3L93,176l-.39-.63a13.81,13.81,0,0,0-1.84-2.32c-1.11-1.12-2-1.88-2-1.89l-.59-.5.69-.34s1-.51,2.76-1.63a6.09,6.09,0,0,0,2.11-2l.64-1.22.32,1.34a9,9,0,0,0,1.57,2.87l1.4,1.91.41.57Zm8.25,3.46a3.7,3.7,0,1,1,3.44-3.69A3.58,3.58,0,0,1,105.68,175.89Zm16,.23a10.69,10.69,0,0,0-2.53,1.46l-1.53,1.14-.76.57,0-.95c0-.09-.18-2.33-3-4.19L112.14,173l2,.19a5.47,5.47,0,0,0,2.64-.84l1.91-1,.43-.22.25.41s.76,1.28,1.63,2.52l1.29,1.84Z"/><path class="cls-1" d="M40.83,171.79a10.59,10.59,0,0,0,1.55,1.56,12.88,12.88,0,0,0,2.3,1.56c-.56.66-2,2.31-2.57,3a7.94,7.94,0,0,0-1.8-1.64,15,15,0,0,0-2-1.12,10,10,0,0,0,2.51-3.32"/><path class="cls-1" d="M66.68,168.83l1-1.14A12.82,12.82,0,0,0,69.79,170s.44.37.85.69a9.24,9.24,0,0,0-1.94,1.78l-.81,1a33.45,33.45,0,0,0-3.44-2.68,10.41,10.41,0,0,0,2.23-2"/><path class="cls-1" d="M92.19,169.57A8.79,8.79,0,0,0,94.05,168a14.19,14.19,0,0,0,1.4,2.32l1,1.4a10.86,10.86,0,0,0-3.36,2.56,14.65,14.65,0,0,0-1.61-1.94c-.62-.62-1.15-1.11-1.52-1.45.48-.27,1.21-.7,2.2-1.33"/><path class="cls-1" d="M117.27,173.28l1.49-.79c.3.49.83,1.33,1.42,2.17,0,0,.28.39.53.76a12.09,12.09,0,0,0-2.2,1.34l-.89.67a7,7,0,0,0-2.26-3.36,9,9,0,0,0,1.91-.79"/><path class="cls-1" d="M51.24,171.56a2.55,2.55,0,1,1,2.55,2.55,2.55,2.55,0,0,1-2.55-2.55"/><path class="cls-1" d="M77.76,170.16a2.55,2.55,0,1,1,2.55,2.55,2.55,2.55,0,0,1-2.55-2.55"/><path class="cls-1" d="M103.26,172.2a2.43,2.43,0,1,1,2.42,2.67,2.56,2.56,0,0,1-2.42-2.67"/><path class="cls-1" d="M54.65,139.56a4.71,4.71,0,1,0-5,4.84,4.65,4.65,0,0,1,.56-.34.87.87,0,0,1,.79-.69.78.78,0,0,1,.68.4,3.54,3.54,0,0,1,.45.08,4.69,4.69,0,0,0,2.53-4.29"/><path class="cls-1" d="M43.71,143.93a4.71,4.71,0,1,0,5.56,4.19,4.11,4.11,0,0,1-.42-.5A.87.87,0,0,1,48,147a.77.77,0,0,1,.3-.73,2.36,2.36,0,0,1,0-.46,4.67,4.67,0,0,0-4.63-1.83"/><path class="cls-1" d="M58.19,141.86a4.71,4.71,0,1,1-5.25,4.57,4.7,4.7,0,0,0,.38-.53.86.86,0,0,0,.76-.73.78.78,0,0,0-.34-.71,3.57,3.57,0,0,0,0-.46,4.67,4.67,0,0,1,4.49-2.14"/><path class="cls-1" d="M104.93,138.63a4.7,4.7,0,1,1,4.75,5.09,4,4,0,0,0-.55-.36.87.87,0,0,0-.74-.74.8.8,0,0,0-.7.37,3.41,3.41,0,0,0-.46,0,4.65,4.65,0,0,1-2.3-4.41"/><path class="cls-1" d="M115.62,143.57a4.71,4.71,0,1,1-5.77,3.89,2.51,2.51,0,0,0,.44-.48.86.86,0,0,0,.85-.62.79.79,0,0,0-.26-.75,3.46,3.46,0,0,0,0-.46,4.67,4.67,0,0,1,4.72-1.58"/><path class="cls-1" d="M101.27,140.74a4.71,4.71,0,1,0,5,4.84,3.7,3.7,0,0,1-.36-.55.87.87,0,0,1-.72-.76.76.76,0,0,1,.38-.69,3.4,3.4,0,0,1,.06-.46,4.67,4.67,0,0,0-4.37-2.38"/><path class="cls-1" d="M84.28,137a4.71,4.71,0,1,0-5.7,4,3.41,3.41,0,0,1,.6-.24.87.87,0,0,1,.89-.57.78.78,0,0,1,.6.51c.16,0,.29.1.44.14A4.66,4.66,0,0,0,84.28,137"/><path class="cls-1" d="M72.79,139.56a4.7,4.7,0,1,0,4.84,5,4.08,4.08,0,0,1-.34-.57.86.86,0,0,1-.69-.78.79.79,0,0,1,.4-.68,3.25,3.25,0,0,1,.08-.45,4.65,4.65,0,0,0-4.29-2.53"/><path class="cls-1" d="M87.42,139.77a4.71,4.71,0,1,1-5.91,3.69A4.08,4.08,0,0,0,82,143a.86.86,0,0,0,.86-.6.76.76,0,0,0-.23-.75,3.57,3.57,0,0,0,0-.46,4.67,4.67,0,0,1,4.77-1.42"/><path class="cls-1" d="M129.47,147.94a4.71,4.71,0,1,0,4.66,5.18,3.28,3.28,0,0,1-.32-.58.86.86,0,0,1-.67-.81.78.78,0,0,1,.43-.66c0-.16.07-.3.09-.45a4.66,4.66,0,0,0-4.19-2.68"/><path class="cls-1" d="M138.81,144.6a4.68,4.68,0,0,0-4.35,2.94,4.53,4.53,0,0,0,.15,3.75,7.21,7.21,0,0,0,4-5.16,9.21,9.21,0,0,0,.21-1.53"/><path class="cls-1" d="M28.52,150.3a4.7,4.7,0,1,1-1.69,6.75,3.64,3.64,0,0,0,0-.66.85.85,0,0,0,.21-1,.78.78,0,0,0-.69-.39c-.08-.13-.2-.23-.29-.36a4.65,4.65,0,0,1,2.45-4.32"/><path class="cls-1" d="M18.45,144.6a4.7,4.7,0,0,1,4.3,3,4.61,4.61,0,0,1-.22,3.75,7.21,7.21,0,0,1-3.9-5.22,8.38,8.38,0,0,1-.18-1.54"/><path class="cls-1" d="M79.84,94.65a8.83,8.83,0,1,0-9.23-8.82,9,9,0,0,0,9.23,8.82"/></g></g></svg>