<svg id="Layer_2" data-name="Layer 2" xmlns="http://www.w3.org/2000/svg" viewBox="0 0 1080 1080"><defs><style>.cls-1{fill:#e1ecff;}.cls-2{fill:#c7dcf9;}.cls-3{fill:#ff97c9;}.cls-4{fill:#1c3177;}.cls-5{fill:none;stroke:#1c3177;stroke-linecap:round;stroke-miterlimit:10;stroke-width:11.95px;}.cls-6{fill:#fec272;}.cls-7{fill:#fea691;}.cls-8{fill:#99adf9;opacity:0.65;}</style></defs><path class="cls-1" d="M544.53,608,432.89,654.13l-90.1-80.48a256.63,256.63,0,0,1-82-234.4L294,144.1l438.66,74.6L699.43,413.86A256.59,256.59,0,0,1,544.53,608Z"/><path class="cls-1" d="M527.81,948.12l-55.34-49.07A119,119,0,0,1,434.1,790L471,573.36l-52.53-8.93L381.57,781.08a119,119,0,0,1-72.26,90.22l-68.44,28c-12.37,5.06-10.37,23.15,2.8,25.39l273.09,46.45C529.93,973.4,537.8,957,527.81,948.12Z"/><ellipse class="cls-2" cx="513.29" cy="181.4" rx="63.36" ry="222.48" transform="translate(248.4 657.01) rotate(-80.35)"/><path class="cls-3" d="M640.24,407.66h0l.24-1.39c2.21-13.56,2.52-33.63-10.92-32.7-13.92,1-41.76,33.12-61.44,22.08s6.24-52.8,12-62.4,18.72-41.28-26.88-42.72S421.72,319.32,382.84,339a102.51,102.51,0,0,1-63.39,9.45l-2,11.76A188.11,188.11,0,0,0,377.58,532l66,59,81.84-33.84A188.1,188.1,0,0,0,639,414.9l1.23-7.24Z"/><circle class="cls-4" cx="386.47" cy="422.42" r="22.74"/><circle class="cls-4" cx="560.15" cy="450.53" r="22.74"/><path class="cls-5" d="M495.17,471.09s-8.28,15.67-29.78,12.19-23.74-20.85-23.74-20.85"/><path class="cls-6" d="M881.57,486.27l3,2.13a6.72,6.72,0,0,1,0,11l-3,2.13a81,81,0,0,0-27.75,34.62l-1,2.37a6.72,6.72,0,0,1-12.39,0l-1-2.37a81,81,0,0,0-27.75-34.62l-3-2.13a6.72,6.72,0,0,1,0-11l3-2.13a81.12,81.12,0,0,0,27.75-34.62l1-2.37a6.72,6.72,0,0,1,12.39,0l1,2.37A81.12,81.12,0,0,0,881.57,486.27Z"/><path class="cls-7" d="M754.61,555.58l1.89,1.34a4.24,4.24,0,0,1,0,6.9l-1.89,1.34A51,51,0,0,0,737.15,587l-.63,1.48a4.23,4.23,0,0,1-7.8,0L728.1,587a51,51,0,0,0-17.47-21.8l-1.89-1.34a4.24,4.24,0,0,1,0-6.9l1.89-1.34a51,51,0,0,0,17.47-21.79l.62-1.49a4.23,4.23,0,0,1,7.8,0l.63,1.49A51,51,0,0,0,754.61,555.58Z"/><circle class="cls-8" cx="772.92" cy="413.76" r="14.64"/></svg>