<?xml version="1.0" encoding="utf-8"?>
<!-- Generator: Adobe Illustrator 19.0.0, SVG Export Plug-In . SVG Version: 6.00 Build 0)  -->
<svg version="1.1" xmlns="http://www.w3.org/2000/svg" xmlns:xlink="http://www.w3.org/1999/xlink" x="0px" y="0px"
	 viewBox="0 0 600 600" enable-background="new 0 0 600 600" xml:space="preserve">
<g id="FLOOR">
	<ellipse id="XMLID_95_" fill="#99ADF9" cx="313.2" cy="486.1" rx="88.8" ry="5.5"/>
</g>
<g id="DUST_1">
	<g id="XMLID_292_">
		<path id="XMLID_294_" fill="#FFEBD2" d="M160.8,492.3c-23-0.4-49.2,1.5-50.5-3c-1.3-4.6,8-7.8,13.7-8.2c5.7-0.4,9.7,0.9,9.7,0.9
			s-7-7.4-2.1-11.2c4.9-3.8,19.7,4.4,19.7,4.4s-9.1-9.1,4.2-18.2s27.5,6.1,30,11.6c2.5,5.5,2.8,8.5,2.8,8.5s0.5-3.2,4.7-2.9
			c4.1,0.4,12.9,11.7,11.3,14.4C202.8,491.3,186.8,492.8,160.8,492.3z"/>
	</g>
</g>
<g id="DUST_2">
	<path id="XMLID_103_" fill="#FFEBD2" d="M255.5,510.9c-12.8,0.2-43.5,0.3-48.3-1.9s-3.7-9.3,6.4-13.2c10.1-4,24.1-0.6,24.1-0.6
		s-12.2-8.4-6-14.6c6.3-6.3,17.8-3.8,27.3,4.1c6.6,5.5,8.8,12.5,8.8,12.5s-1.6-8,4.3-9.8c5.8-1.9,20.5,12.7,20.5,15.2
		C292.4,509.7,287,510.6,255.5,510.9z"/>
</g>
<g id="DUST_3">
	<path id="XMLID_290_" fill="#FFEBD2" d="M425.8,478.6c0,0-8.2-2.5-12.9,0.6c-4.7,3-3.8,6.8,0.2,7.6c4,0.8,32.5,1.5,52.9,1.3
		s26.4-0.9,26.2-4.9c-0.6-10.1-20.7-20.3-37.4-26.8c-12.6-4.9-19.5,1.3-20.3,4.9s0.8,5.7,0.8,5.7s-8.4-3.2-11.8,0.6
		C420.1,471.4,425.8,478.6,425.8,478.6z"/>
</g>
<g id="ORNAMENT_3">
	<g id="XMLID_78_">
		<circle id="XMLID_91_" fill="#E1EAF6" cx="176.3" cy="133.7" r="6.3"/>
		<circle id="XMLID_96_" fill="#E1EAF6" cx="285.1" cy="138.2" r="3.4"/>
		<circle id="XMLID_97_" fill="#E1EAF6" cx="367.3" cy="119.7" r="5.1"/>
		<circle id="XMLID_98_" fill="#E1EAF6" cx="418.2" cy="333" r="3.1"/>
		<circle id="XMLID_99_" fill="#E1EAF6" cx="197.1" cy="335.5" r="3.1"/>
		<circle id="XMLID_100_" fill="#E1EAF6" cx="212.8" cy="267.5" r="3.1"/>
	</g>
</g>
<g id="SPARKLING_1">
	<g id="XMLID_263_">
		<g id="XMLID_270_">
			<path id="XMLID_272_" fill="#FEC272" d="M246.7,192.4c-1.3,1-3.7,3.3-5.6,6.8c-1.6,2.9-2.9,5.5-3.7,7.2c-0.2,0.4-0.6,0.6-0.9,0.6
				c-0.4,0-0.8-0.2-1-0.6c-1.2-2.3-3.3-5.9-5.2-8.2c-2.1-2.4-4.1-4.6-5.1-5.7c-0.4-0.4-0.4-1.1,0-1.5c1.1-1.1,3.4-3.5,6-6.5
				c1.8-2.1,3.4-5.4,4.3-7.7c0.2-0.5,0.6-0.7,1-0.7c0.4,0,0.8,0.2,0.9,0.6c0.9,2.2,2.4,5.4,4.1,7.6c1.9,2.7,4.1,5.2,5.3,6.5
				C247.2,191.4,247.2,192.1,246.7,192.4z"/>
			<path id="XMLID_271_" fill="#FBB76C" d="M236.5,176.1l-0.1,30.9c-0.4,0-0.8-0.2-1-0.6c-1.2-2.3-3.3-5.9-5.2-8.2
				c-2.1-2.4-4.1-4.6-5.1-5.7c-0.4-0.4-0.4-1.1,0-1.5c1.1-1.1,3.4-3.5,6-6.5c1.8-2.1,3.4-5.4,4.3-7.7
				C235.6,176.3,236.1,176.1,236.5,176.1z"/>
		</g>
		<g id="XMLID_267_">
			<path id="XMLID_269_" fill="#FEC272" d="M397.2,325.4c-0.9,0.7-2.5,2.3-3.9,4.7c-1.1,2-2,3.8-2.6,5c-0.1,0.3-0.4,0.4-0.6,0.4
				c-0.3,0-0.6-0.1-0.7-0.4c-0.8-1.6-2.3-4.1-3.6-5.7c-1.5-1.7-2.8-3.2-3.5-4c-0.3-0.3-0.3-0.7,0-1c0.8-0.8,2.3-2.4,4.2-4.5
				c1.3-1.5,2.4-3.8,3-5.4c0.1-0.3,0.4-0.5,0.7-0.5c0.3,0,0.5,0.2,0.7,0.5c0.7,1.5,1.7,3.7,2.8,5.3c1.3,1.8,2.9,3.6,3.7,4.5
				C397.6,324.6,397.5,325.1,397.2,325.4z"/>
			<path id="XMLID_268_" fill="#FBB76C" d="M390.1,314.1v21.4c-0.3,0-0.6-0.1-0.7-0.4c-0.8-1.6-2.3-4.1-3.6-5.7
				c-1.5-1.7-2.8-3.2-3.5-4c-0.3-0.3-0.3-0.7,0-1c0.8-0.8,2.3-2.4,4.2-4.5c1.3-1.5,2.4-3.8,3-5.4
				C389.5,314.2,389.8,314.1,390.1,314.1z"/>
		</g>
		<g id="XMLID_264_">
			<path id="XMLID_266_" fill="#FEC272" d="M234.6,358.1c-0.6,0.5-1.7,1.5-2.6,3.1c-0.8,1.3-1.4,2.5-1.7,3.3
				c-0.1,0.2-0.3,0.3-0.5,0.3c-0.2,0-0.4-0.1-0.4-0.3c-0.6-1-1.5-2.8-2.4-3.8c-1-1.1-1.9-2.1-2.4-2.7c-0.2-0.2-0.2-0.5,0-0.7
				c0.5-0.5,1.6-1.6,2.8-3c0.9-1,1.6-2.5,2-3.6c0.1-0.2,0.3-0.3,0.4-0.3c0.2,0,0.4,0.1,0.5,0.3c0.4,1,1.1,2.5,1.9,3.5
				c0.9,1.2,1.9,2.4,2.4,3C234.9,357.6,234.9,357.9,234.6,358.1z"/>
			<path id="XMLID_265_" fill="#FBB76C" d="M229.9,350.6v14.3c-0.2,0-0.4-0.1-0.4-0.3c-0.6-1-1.5-2.8-2.4-3.8
				c-1-1.1-1.9-2.1-2.4-2.7c-0.2-0.2-0.2-0.5,0-0.7c0.5-0.5,1.6-1.6,2.8-3c0.9-1,1.6-2.5,2-3.6C229.5,350.7,229.7,350.6,229.9,350.6
				z"/>
		</g>
	</g>
</g>
<g id="ORNAMENT_2">
	<g id="XMLID_74_">
		<path id="XMLID_83_" fill="#1C3177" d="M429.8,140.5l-3.8,3.3c-0.8,0.7-1,1.8-0.5,2.7c0.8,1.4,2.1,3.3,4,4.8
			c2,1.5,4.5,2.2,6.2,2.6c1,0.2,2.1-0.4,2.5-1.4l2.2-5.5c0.2-0.6-0.2-1.3-0.8-1.4c-1.1-0.1-2.9-0.5-4.8-1.8
			c-1.9-1.3-2.9-2.5-3.4-3.3C431,140.2,430.3,140.1,429.8,140.5z"/>
		<path id="XMLID_84_" fill="#1C3177" d="M427.2,219.9c-0.8,0.8-0.9,2.1-0.1,2.9c1.6,1.7,4.1,4.5,5.6,7.5c1.1,2.2,1.9,4.5,2.4,6.3
			c0.4,1.5,2.2,2,3.3,1l5.7-5.2c0.5-0.5,0.8-1.1,0.7-1.8c-0.3-1.7-1-5.2-2.7-8.9c-1.7-3.5-4.5-6.1-6.3-7.5c-0.8-0.6-1.9-0.6-2.7,0.1
			L427.2,219.9z"/>
		<path id="XMLID_86_" fill="#1C3177" d="M162.5,229.7l-6.5,7.7c-0.4,0.5-0.5,1.2-0.2,1.8c0.8,1.5,2.7,4.6,6.5,7.8
			c3.7,3.1,7.1,4.7,8.9,5.5c0.8,0.3,1.7,0,2.1-0.7l5.2-9.2c0.5-0.9,0.1-2.1-0.9-2.4c-2.1-0.7-5.4-2-8.1-4.4
			c-2.2-1.9-3.4-4.1-4.1-5.7C164.8,229,163.3,228.8,162.5,229.7z"/>
	</g>
</g>
<g id="ORNAMENT_1">
	<g id="XMLID_248_">
		<path id="XMLID_252_" fill="#F396BF" d="M341.8,139.5l-3.8,4.9c-0.8,1-1.1,2.4-0.7,3.6c0.6,2,2,4.9,5.5,7.1
			c4.1,2.6,8.7,3.2,11,3.4c0.9,0.1,1.7-0.5,2-1.3l2.9-7.1c0.5-1.2-0.2-2.5-1.5-2.8c-1.9-0.4-4.8-1.3-7.7-2.8c-2.3-1.2-3.6-3-4.3-4.6
			C344.7,138.5,342.8,138.2,341.8,139.5z"/>
		<path id="XMLID_251_" fill="#F396BF" d="M178.7,357.6c-0.3,0.6-0.1,1.4,0.6,1.7c1.4,0.7,3.6,1.9,5.3,3.4c1.3,1.1,2.3,2.5,3.1,3.5
			c0.6,0.8,1.7,0.7,2.2-0.2l2.2-4.2c0.4-0.7,0.3-1.5-0.1-2.2c-0.7-1.1-1.8-2.8-3.5-4.4c-1.9-1.8-4.4-2.8-5.7-3.2
			c-0.6-0.2-1.2,0.1-1.5,0.7L178.7,357.6z"/>
		<path id="XMLID_250_" fill="#F396BF" d="M414.3,373.1c-1.1-0.6-2.6-0.2-3.2,0.9c-1.1,2-3,5.1-5.2,7.4c-1.6,1.6-3.4,3-4.9,4
			c-1.5,1-1.4,3.1,0.1,4l6.1,3.5c0.7,0.4,1.5,0.4,2.2,0c1.6-0.8,4.5-2.5,7.4-5.2c2.7-2.5,4.3-5.9,5.1-8c0.4-1.1,0-2.3-1.1-2.9
			L414.3,373.1z"/>
		<path id="XMLID_249_" fill="#F396BF" d="M223.3,137l2.6,3.7c0.5,0.6,1.3,0.8,2,0.4c1.1-0.8,2.8-2.2,3.9-4.1
			c1.3-2.2,1.3-4.2,1.3-5.1c0-0.4-0.2-0.7-0.5-0.9l-3.5-3.1c-0.6-0.5-1.5-0.2-1.6,0.5c-0.3,1.3-0.8,3-1.6,4.3
			c-0.8,1.2-1.6,1.9-2.3,2.4C223,135.5,222.9,136.4,223.3,137z"/>
	</g>
</g>
<g id="LINE_2">
	<g id="XMLID_67_">
		<path id="XMLID_446_" fill="#F26F59" d="M436.6,288.6l-6.5,13c-0.7,1.4-2,2.4-3.6,2.6c-0.8,0.1-1.8,0.2-3,0.3
			c-3.5,0-7.9-0.9-11.5-4.9c-2.2-2.4-3.4-4.9-4-7.4c-1.4-5.6,0.3-11.1,1.2-14.4c1.2-4.7-3.2-5.5-8-1.3c-4.8,4.2-16.5,24.2-26.2,34.3
			c-6.4,6.7-13.7,6.4-19.3,4.5c-2.8-0.9-5.2-2.3-6.8-3.4c-4.6-3.1-7.3-5.5-7.3-5.5l0.9-17.2c0,0,4.6,5,12.6,5c1,0,2.2-0.1,3.3-0.3
			c10.1-1.7,23-26.4,35.9-37.6c12.9-11.2,19.2-11.2,26.2-7c5.3,3.2,5.7,10.6,4.4,21.8c0,0.1,0,0.2,0,0.3
			c-1.2,10.3,1.1,13.9,5.7,14.5c0.3,0,0.6,0.1,0.9,0.1c1.2,0,2.2,0,3.1-0.2C436.1,285.6,437.3,287.2,436.6,288.6z"/>
		<path id="XMLID_87_" fill="#E55441" d="M430.7,286c-0.6,1.5-1.2,3-1.9,4.4c-2.4,5.2-3.2,10.5-5.1,14.1c-3.5,0-7.9-0.9-11.5-4.9
			c-1-1-1.3-2.4-1.4-3.7c-0.2-3.2,0.8-6.4,2.6-9c4-5.5,8.3-11.6,11.6-15.5C423.7,281.8,426,285.4,430.7,286z"/>
		<path id="XMLID_408_" fill="#E55441" d="M355.7,315.4c-2.8-0.9-5.2-2.3-6.8-3.4c-4.6-3.1-7.3-5.5-7.3-5.5l0.9-17.2
			c0,0,4.6,5,12.6,5C355.4,299.7,355.6,309.5,355.7,315.4z"/>
	</g>
</g>
<g id="LEFT_ARM">
	<g id="XMLID_222_">
		<g id="XMLID_226_">
			<g id="XMLID_241_">
				<path id="XMLID_243_" fill="#F7A491" d="M392.1,173.5c0,0-1.5,5.9-7.8,22c-6.3,16.1-16.8,35.2-23.9,43.3
					c-3.8,4.3-7.5,5-10.7,3.9c-3.6-1.1-6.5-4.5-7.6-7.1c-3.8-8.8,6.3-14.9,15.7-25.8c9.4-10.9,25.8-34.9,27.2-37.2
					c1.4-2.3,2.9-3.1,5.3-2.3c1.1,0.4,1.6,1.1,1.7,1.7v0C392.3,172.8,392.1,173.5,392.1,173.5z"/>
				<path id="XMLID_242_" fill="#F48B77" d="M392.1,173.5c0,0-1.5,5.9-7.8,22c-6.3,16.1-16.8,35.2-23.9,43.3
					c-3.8,4.3-7.5,5-10.7,3.9c2.8-3.1,14.7-16.7,25.1-35.8c8.6-15.7,14.5-28.7,17.2-34.9C392.3,172.8,392.1,173.5,392.1,173.5z"/>
			</g>
			<g id="XMLID_227_">
				<path id="XMLID_240_" fill="#F7A491" d="M394.9,175.1c-2.8,1.2-4.7,0.7-6.3-0.2c-0.8-0.4-1.5-0.9-2.3-1.3
					c-3-1.7-2.4-7.1-0.6-11.6c1.8-4.5,3.8-6.1,6-7.4c2-1.2,8.2,4.5,10.1,7c0.2,0.3,0.4,0.6,0.4,0.8
					C403,164.2,399.1,173.4,394.9,175.1z"/>
				<path id="XMLID_239_" fill="#F48B77" d="M394.9,175.1c-2.8,1.2-4.7,0.7-6.3-0.2l-0.4-0.3c0,0,4.6,1.3,8.3-2.5
					c2.5-2.6,4.4-7.6,5.3-10.5c0.2,0.3,0.4,0.6,0.4,0.8C403,164.2,399.1,173.4,394.9,175.1z"/>
				<path id="XMLID_238_" fill="#F48B77" d="M390.1,157.6l10.2,6c0,0-2,0.9-5.4,3.2c-2.9,2-5.6,3.7-5.6,3.7S391.4,161.3,390.1,157.6
					z"/>
				<g id="XMLID_229_">
					<path id="XMLID_237_" fill="#F7A491" d="M392.7,161.9c-1,0.2-2.6-0.1-2.8-1.8c0-0.1,0-0.2,0-0.4c-0.2-1.9-0.3-6.2,0.8-7.3
						c0.7-0.7,2.3-0.3,3.3,0.4c0.2,0.1,0.3,0.2,0.4,0.4C395.2,154.1,393.7,161.6,392.7,161.9z"/>
					<path id="XMLID_236_" fill="#F48B77" d="M392.7,161.9c-1,0.2-2.6-0.1-2.8-1.8c0-0.1,0-0.2,0-0.4c0.7,0.2,1.7,0.5,2.5,0.4
						c0.9-0.2,1.4-5.2,1.6-7.3c0.2,0.1,0.3,0.2,0.4,0.4C395.2,154.1,393.7,161.6,392.7,161.9z"/>
					<path id="XMLID_235_" fill="#F7A491" d="M396.8,162.5c-1.1,0.8-2.4,0.8-2.9-0.5c-0.1-0.2-0.1-0.4-0.1-0.7
						c-0.1-1.5,0.5-4.1,0.8-5.4c0.3-1.6,0.6-2.2,1.6-2.7c0.9-0.4,2,0.1,2.5,1c0.2,0.3,0.3,0.7,0.4,1.1
						C399.2,156.7,397.9,161.7,396.8,162.5z"/>
					<path id="XMLID_234_" fill="#F48B77" d="M396.8,162.5c-1.1,0.8-2.4,0.8-2.9-0.5c-0.1-0.2-0.1-0.4-0.1-0.7
						c0.6,0.7,1.4,1.2,2.4,0.4c0.9-0.7,2.3-6.2,2.6-7.5c0.2,0.3,0.3,0.7,0.4,1.1C399.2,156.7,397.9,161.7,396.8,162.5z"/>
					<path id="XMLID_233_" fill="#F7A491" d="M401,162.5c-1.2,1.9-3,2.1-3.8,1.7c-0.4-0.2-0.5-0.6-0.5-1.2c0-0.7,0.2-1.5,0.5-2.2
						c0.5-1.3,1.1-2.5,1.6-3.1c0.7-0.8,2.3-0.8,3,0.3c0.1,0.1,0.1,0.2,0.2,0.3C402.4,159.4,402.1,160.8,401,162.5z"/>
					<path id="XMLID_232_" fill="#F48B77" d="M401,162.5c-1.2,1.9-3,2.1-3.8,1.7c-0.4-0.2-0.5-0.6-0.5-1.2c0.4,0.4,1.3,1,2.3,0.4
						c0.7-0.4,2.2-3.6,2.9-5C402.4,159.4,402.1,160.8,401,162.5z"/>
					<path id="XMLID_231_" fill="#F7A491" d="M403.4,163.1c-0.2,1.1-1.4,3.5-3,4.1c-0.6,0.2-1.1,0.2-1.4,0c-0.5-0.3-0.6-1.1-0.4-1.8
						c0.3-1.2,1.6-3.7,3.2-4.3c0.6-0.2,1,0,1.3,0.4C403.4,161.9,403.5,162.5,403.4,163.1z"/>
					<path id="XMLID_230_" fill="#F48B77" d="M403.4,163.1c-0.2,1.1-1.4,3.5-3,4.1c-0.6,0.2-1.1,0.2-1.4,0c0.3,0,0.6-0.1,1-0.3
						c0.7-0.5,2.5-4.2,3.1-5.4C403.4,161.9,403.5,162.5,403.4,163.1z"/>
				</g>
				<path id="XMLID_228_" fill="#F7A491" d="M390.3,164.1c-0.2-1.9-1.1-4.6-1.1-4.6s2.5,2.2,4.8,2.6s3.5-0.5,2.8-2
					c-0.7-1.5-5.3-5.1-6.9-5.9c-1.7-0.8-3.5-0.7-4.9,2.4c-1.4,3-1.6,9.2-1.2,11.9s1.1,3.9,2.9,4.1
					C388.5,172.6,391.1,170.9,390.3,164.1z"/>
			</g>
		</g>
		<g id="XMLID_223_">
			<path id="XMLID_225_" fill="#FEC272" d="M360.6,242.5c0,0-1.1,2.4-6,10c-4.8,7.5-13.5,19.6-13.5,19.6s-6.6-0.5-12.9-4.6
				c-2.9-1.9-5.7-4.5-7.8-8.1c-6.8-11.7-2.2-24.9-2.2-24.9c15.4-6.6,28.8-16.3,28.8-16.3s3.9,3.1,8.2,8.8c1.5,2,2.7,4.6,3.5,7
				C360.1,238.4,360.6,242.5,360.6,242.5z"/>
			<path id="XMLID_224_" fill="#FBB76C" d="M360.6,242.5c0,0-1.1,2.4-6,10c-4.8,7.5-13.5,19.6-13.5,19.6s-6.6-0.5-12.9-4.6
				c2.3-1.4,4.8-3.2,7-5.4c5.1-4.9,18.6-21.9,23.4-28.1C360.1,238.4,360.6,242.5,360.6,242.5z"/>
		</g>
	</g>
</g>
<g id="LEFT_LEG_2">
	<g id="XMLID_125_">
		<g id="XMLID_79_">
			<path id="XMLID_414_" fill="#273675" d="M228.8,398.4c-1.8,5.7-3.8,7.3-9.8,13.9c-1.5,1.7-3,3.5-4.5,5.3c-3,3.8-5.7,7.3-7.8,8.6
				c-0.7,0.5-1.4,0.6-2,0.5c-4.7-1.5-4.9-6.3-1.3-17.1c3.6-10.8,9.5-17.7,13.1-20c0.9-0.6,2-0.8,3.1-0.9c1,0,1.9,0.1,2.6,0.3
				c1.7,0.4,3.2,1.4,4.5,2.5C229.3,393.5,229.6,395.9,228.8,398.4z"/>
			<path id="XMLID_409_" fill="#212E60" d="M228.8,398.4c-1.8,5.7-3.8,7.3-9.8,13.9c-1.5,1.7-3,3.5-4.5,5.3
				c-1.5-2.1-1.2-7.1,1.6-15.6c1.8-5.3,4-9.7,6.1-13.1c1.7,0.4,3.2,1.4,4.5,2.5C229.3,393.5,229.6,395.9,228.8,398.4z"/>
			<path id="XMLID_411_" fill="#9DABD7" d="M219.7,388.7c-2,1.6-6.1,5.6-10.5,13.5c-6.1,11-6.4,17.6-6,20.3c0.3,2.3,2.1,3.4,3.5,3.7
				c-0.7,0.5-1.4,0.6-2,0.5c-4.7-1.5-4.9-6.3-1.3-17.1c3.6-10.8,9.5-17.7,13.1-20C217.5,389,218.6,388.7,219.7,388.7z"/>
		</g>
		<g id="XMLID_76_">
			<path id="XMLID_416_" fill="#D0E0F1" d="M303.1,425.5c-1,4.2-4.7,7.2-11.6,8.3c-9.1,1.5-33.6-5.1-45.5-12.7
				c-12-7.6-23-16.3-23-16.3s-3.6-2.2-2.7-6.3c0.1-0.3,0.1-0.5,0.3-0.7c0.4-0.9,1.2-1.7,2-2.4c1.7-1.3,3.9-1.5,5.8-0.6
				c3.6,1.7,11.2,4.9,22.3,8.4c16.3,5.1,29,6.5,34.9,7.4c7,1,16.4,3,17.5,10.4C303.4,422.7,303.4,424.2,303.1,425.5z"/>
			<path id="XMLID_404_" fill="#E1ECFF" d="M303.1,425.5c-11.6-0.4-28.3-3.9-41.6-8.7c-15.6-5.7-33.1-14.7-40.9-18.9
				c0.4-0.9,1.2-1.7,2-2.4c1.7-1.3,3.9-1.5,5.8-0.6c3.6,1.7,11.2,4.9,22.3,8.4c16.3,5.1,29,6.5,34.9,7.4c7,1,16.4,3,17.5,10.4
				C303.4,422.7,303.4,424.2,303.1,425.5z"/>
		</g>
	</g>
</g>
<g id="LEFT_LEG_1">
	<g id="XMLID_211_">
		<path id="XMLID_213_" fill="#D0E0F1" d="M324.9,395.5c-5,9.8-9.5,17.3-13.6,22.9c-9.9,13.5-17.8,16.6-24.7,15
			c-1.1-0.3-2.1-0.6-3-0.9c-7.2-3.1-7.9-10.8-3.9-28.7c4.6-20.1,11.6-54.6,19.4-68.3c10.6-18.8,39.1-22.1,43.8,0
			C346.1,350.3,336.7,372.4,324.9,395.5z"/>
		<path id="XMLID_212_" fill="#E1ECFF" d="M311.3,418.5c-9.9,13.5-17.8,16.6-24.7,15c-1.1-0.3-2.1-0.6-3-0.9
			c-1.2-3.6,8.1-9,14.9-14.1C307.5,411.9,311.3,418.5,311.3,418.5z"/>
	</g>
</g>
<g id="RIGHT_LEG_2">
	<g id="XMLID_123_">
		<g id="XMLID_81_">
			<path id="XMLID_405_" fill="#E1ECFF" d="M389.4,479.9c-0.1,0.7-0.5,1.4-1.1,1.8c-1.3,1.1-3.4,1.4-5,0.6
				c-2.3-1.1-5.3-3.3-11.2-8.7c-6-5.4-19.4-21.8-28-35.4c-8.3-13-10.1-22.3-6.5-27c0.2-0.2,0.4-0.4,0.5-0.6
				c8.3-8.5,16.7-4.3,20.7,2.4c4,6.7,25.3,49.8,28.3,56.6C389.9,476.5,389.8,477.5,389.4,479.9z"/>
			<path id="XMLID_401_" fill="#D0E0F1" d="M388.3,481.8c-1.3,1.1-3.4,1.4-5,0.6c-2.3-1.1-5.3-3.3-11.2-8.7
				c-6-5.4-19.4-21.8-28-35.4c-8.3-13-10.1-22.3-6.5-27c10.4,17.8,25.1,42,34.2,53.3C377.5,472,383.3,477.6,388.3,481.8z"/>
		</g>
		<g id="XMLID_90_">
			<path id="XMLID_92_" fill="#273675" d="M405.5,465.4c-5.4,7.3-13.7,19.9-20.6,21.8c-1.8,0.5-3.2,0.1-4.4-0.8
				c-2.2-1.7-3.3-4.9-4.3-6.9c-1.4-3,6.3-18.1,12.9-26.9c6.5-8.7,16.1-9.2,20.8-6.5c0.1,0,0.2,0.1,0.3,0.1
				C414.9,449.1,410.9,458.2,405.5,465.4z"/>
			<path id="XMLID_410_" fill="#9DABD7" d="M405.5,465.4c-5.4,7.2-13.7,19.9-20.6,21.8c-0.5,0.1-1,0.2-1.4,0.2c-1.2,0-2.1-0.4-2.9-1
				c0.2-4.4,2.4-11.3,11.7-25.2c8.4-12.5,14.3-15.1,17.8-15.1c0.1,0,0.2,0.1,0.3,0.1c0.5,0.3,0.9,0.7,1.2,1.2
				C414,451.1,410.3,459,405.5,465.4z"/>
			<path id="XMLID_407_" fill="#8096CC" d="M405.5,465.4c-5.4,7.2-13.7,19.9-20.6,21.8c-0.5,0.1-1,0.2-1.4,0.2
				c0.5-4.6,3.2-11.7,12-24.8c7-10.4,12.3-14.2,16-15.2C414,451.1,410.3,459,405.5,465.4z"/>
		</g>
	</g>
</g>
<g id="RIGHT_LEG_1">
	<g id="XMLID_197_">
		<g id="XMLID_199_">
			<path id="XMLID_202_" fill="#E1ECFF" d="M355.2,423.7c-0.4,0.3-0.7,0.6-1,0.9c-6,5.1-11,2.7-21.7-2.6
				c-11.4-5.7-44.3-17.9-57.2-42.4c-5.9-11.2-8.8-20.8-9.6-28.8c-1.5-15,4.7-23.6,13.4-23.9c2-0.1,4.2,0.3,6.5,1.2
				c16.8,6.5,23.6,17.1,30.2,24.8c0.1,0.1,0.2,0.3,0.3,0.4c5.9,7,12.5,16.7,24.9,32.8c1.3,1.7,2.7,3.4,4.1,5.2
				c6,7.7,9.9,13.4,12,17.8C360.2,416,359.2,419.9,355.2,423.7z"/>
			<path id="XMLID_201_" fill="#D0E0F1" d="M354.2,424.7c-6,5.1-11,2.7-21.7-2.6c-11.4-5.7-44.3-17.9-57.2-42.4
				c-17-32.3-9.5-52.2,3.8-52.7c-0.2,1.3-5,28.1,8.7,46.6C300.9,391.3,344.2,418.8,354.2,424.7z"/>
			<path id="XMLID_200_" fill="#D0E0F1" d="M316,353.2c-4.9,0.6-10.3,1.1-16.3,1.3c-14.7,0.5-26.4-1.6-34.1-3.7
				c-1.5-15,4.7-23.6,13.4-23.9c2-0.1,4.2,0.3,6.5,1.2c16.8,6.5,23.6,17.1,30.2,24.8C315.7,353,315.9,353.1,316,353.2z"/>
		</g>
		<path id="XMLID_198_" fill="#D0E0F1" d="M357,409.1c-0.2,0.3-0.5,0.5-0.8,0.7c-6.3,3.3-11.5,1.4-19.4-8.6c-7.8-10,0.7-14.7,4-15.1
			c0,0,0.1,0,0.1,0c1.3,1.7,2.7,3.4,4.1,5.2C351,399,354.9,404.7,357,409.1z"/>
	</g>
</g>
<g id="BODY">
	<g id="XMLID_26_">
		<g id="XMLID_37_">
			<path id="XMLID_391_" fill="#FEC272" d="M353.8,331.2c0,2.7-12.5,14-37.6,17.1c-15.4,1.9-29.4-1.2-39.6-4.9
				c-6.4-2.3-11.3-4.9-14.1-6.7c-7.2-4.6-2.7-11.8,1-25.1c1.9-6.7,4.7-25.9,7-43.3c1.2-9.2,2.3-17.9,3.1-24c0.6-4.6,4.8-7.8,9.4-7
				c4.3,0.7,9.8,1.3,14.8,1c10.8-0.6,19.4-3.6,21.6-4c2.3-0.4,11.8,6.5,21.8,34.5C351.3,296.8,353.8,328.5,353.8,331.2z"/>
			<path id="XMLID_388_" fill="#FBB76C" d="M280.8,298.6c-0.6,17.5-2.5,33.5-4.2,44.8c-6.4-2.3-11.3-4.9-14.1-6.7
				c-7.2-4.6-2.7-11.8,1-25.1c1.9-6.7,4.7-25.9,7-43.3l3.5-0.8C274.1,267.4,281.8,269.5,280.8,298.6z"/>
		</g>
		<g id="XMLID_61_">
			<ellipse id="XMLID_286_" fill="#FBB76C" cx="304.1" cy="246.7" rx="12.8" ry="6.5"/>
			<ellipse id="XMLID_288_" fill="#F7A491" cx="304.9" cy="246.3" rx="7.9" ry="4"/>
		</g>
	</g>
</g>
<g id="RIGHT_ARM">
	<g id="XMLID_168_">
		<g id="XMLID_172_">
			<g id="XMLID_187_">
				<path id="XMLID_189_" fill="#F7A491" d="M256.1,246.7c-0.8,1.2-1.6,2.1-2.4,2.8c-4.1,3.6-8.3,2.6-10.4,1.9
					c-2.6-0.9-7.7-3.2-24.3-16.5c-16.4-13.1-31.4-29-36.4-35.7c-1.2-1.6-1.7-3-1.7-4.1c-0.1-3.6,4.4-4.9,6.3-3.7
					c2.4,1.6,10.2,9.3,25.9,18.9c15.6,9.7,38.1,20.6,38.1,20.6C256.1,234.3,260.8,239.8,256.1,246.7z"/>
				<path id="XMLID_188_" fill="#F48B77" d="M253.7,249.4c-4.1,3.6-8.3,2.6-10.4,1.9c-2.6-0.9-7.7-3.2-24.3-16.5
					c-16.4-13.1-31.4-29-36.4-35.7c-1.2-1.6-1.7-3-1.7-4.1c8.2,7.7,27.3,25,43.9,36.6C236,239.4,246.4,245.5,253.7,249.4z"/>
			</g>
			<g id="XMLID_173_">
				<path id="XMLID_186_" fill="#F7A491" d="M178.3,198.7c3.4,0.7,5.4-0.2,7.2-1.5c0.8-0.6,1.6-1.3,2.3-2c3.1-2.6,1.3-8.6-1.7-13.3
					c-2.9-4.7-5.5-6.1-8.3-7.2c-2.5-1-8.5,6.7-10,10c-0.2,0.4-0.3,0.7-0.4,0.9C166.9,188,173.2,197.6,178.3,198.7z"/>
				<path id="XMLID_185_" fill="#F48B77" d="M178.3,198.7c3.4,0.7,5.4-0.2,7.2-1.5l0.4-0.4c0,0-5,2.4-9.9-1.2
					c-3.4-2.4-6.5-7.7-8.1-10.8c-0.2,0.4-0.3,0.7-0.4,0.9C166.9,188,173.2,197.6,178.3,198.7z"/>
				<path id="XMLID_184_" fill="#F48B77" d="M180.2,177.8l-10.4,8.9c0,0,2.5,0.7,6.7,2.6c3.7,1.7,7,3.1,7,3.1
					S179.5,182.3,180.2,177.8z"/>
				<g id="XMLID_175_">
					<path id="XMLID_183_" fill="#F7A491" d="M178.1,183.3c1.2,0,2.9-0.7,2.9-2.6c0-0.1,0-0.3,0-0.4c-0.1-2.2-0.9-7.1-2.4-8.2
						c-0.9-0.6-2.7,0.1-3.6,1.1c-0.2,0.2-0.3,0.3-0.4,0.5C173.7,175,176.9,183.2,178.1,183.3z"/>
					<path id="XMLID_182_" fill="#F48B77" d="M178.1,183.3c1.2,0,2.9-0.7,2.9-2.6c0-0.1,0-0.3,0-0.4c-0.7,0.4-1.9,1-2.7,0.9
						c-1.1,0-2.7-5.6-3.3-8c-0.2,0.2-0.3,0.3-0.4,0.5C173.7,175,176.9,183.2,178.1,183.3z"/>
					<path id="XMLID_181_" fill="#F7A491" d="M173.6,184.8c1.4,0.7,2.9,0.4,3.3-1.1c0.1-0.2,0.1-0.5,0-0.8c-0.1-1.7-1.4-4.5-1.9-6
						c-0.6-1.8-1.1-2.4-2.4-2.7c-1.1-0.3-2.2,0.5-2.7,1.7c-0.2,0.4-0.2,0.8-0.2,1.3C169.7,178.7,172.2,184.1,173.6,184.8z"/>
					<path id="XMLID_180_" fill="#F48B77" d="M173.6,184.8c1.4,0.7,2.9,0.4,3.3-1.1c0.1-0.2,0.1-0.5,0-0.8c-0.5,0.9-1.3,1.6-2.6,0.9
						c-1.1-0.6-3.8-6.6-4.4-8c-0.2,0.4-0.2,0.8-0.2,1.3C169.7,178.7,172.2,184.1,173.6,184.8z"/>
					<path id="XMLID_179_" fill="#F7A491" d="M168.9,185.7c1.8,2,3.9,1.8,4.7,1.2c0.4-0.3,0.4-0.8,0.3-1.5c-0.1-0.7-0.5-1.6-1-2.4
						c-0.8-1.3-1.8-2.6-2.5-3.2c-1-0.8-2.8-0.5-3.3,0.9c-0.1,0.1-0.1,0.3-0.1,0.4C166.6,182.4,167.3,183.9,168.9,185.7z"/>
					<path id="XMLID_178_" fill="#F48B77" d="M168.9,185.7c1.8,2,3.9,1.8,4.7,1.2c0.4-0.3,0.4-0.8,0.3-1.5c-0.4,0.5-1.2,1.4-2.6,0.9
						c-0.8-0.4-3.2-3.6-4.3-5.1C166.6,182.4,167.3,183.9,168.9,185.7z"/>
					<path id="XMLID_177_" fill="#F7A491" d="M166.2,186.8c0.4,1.2,2.3,3.7,4.2,4.1c0.7,0.1,1.3,0,1.5-0.3c0.5-0.5,0.5-1.3,0.1-2.1
						c-0.6-1.3-2.5-3.9-4.5-4.3c-0.7-0.1-1.1,0.2-1.4,0.7C165.9,185.5,165.9,186.2,166.2,186.8z"/>
					<path id="XMLID_176_" fill="#F48B77" d="M166.2,186.8c0.4,1.2,2.3,3.7,4.2,4.1c0.7,0.1,1.3,0,1.5-0.3c-0.3,0.1-0.8,0.1-1.2-0.1
						c-0.9-0.4-3.7-4.2-4.6-5.5C165.9,185.5,165.9,186.2,166.2,186.8z"/>
				</g>
				<path id="XMLID_174_" fill="#F7A491" d="M181.2,185.3c-0.1-2.2,0.3-5.4,0.3-5.4s-2.4,3-4.9,3.9s-4,0.2-3.6-1.7
					c0.4-1.9,5-6.8,6.7-8.1s3.8-1.4,6,1.7c2.2,3.2,3.6,10.1,3.7,13.2c0.1,3.1-0.4,4.7-2.5,5.2C185,194.7,181.7,193.2,181.2,185.3z"
					/>
			</g>
		</g>
		<g id="XMLID_169_">
			<path id="XMLID_171_" fill="#FEC272" d="M285.2,266.9c-1.6,3.6-3.9,6.3-6.3,8.3c-4.7,4-9.7,5.3-9.7,5.3s0.4-3.7-11.5-13.2
				c-12-9.5-23.3-16.7-23.3-16.7s1-4.4,4-9.9c0.9-1.6,1.9-3.3,3.2-5c5.5-7.5,9.4-8.2,9.4-8.2s27,8.7,32.2,9.6
				C282.9,237.2,292,251.5,285.2,266.9z"/>
			<path id="XMLID_170_" fill="#FBB76C" d="M269.1,280.5c0,0,0.4-3.7-11.5-13.2c-12-9.5-23.3-16.7-23.3-16.7s1-4.4,4-9.9
				c9,4.4,30,15.3,36.1,24.6c2.1,3.2,3.6,6.6,4.6,9.8C274.1,279.2,269.1,280.5,269.1,280.5z"/>
		</g>
	</g>
</g>
<g id="HEAD">
	<g id="XMLID_57_">
		<g id="XMLID_280_">
			<path id="XMLID_66_" fill="#F7A491" d="M307.2,248c-2.6,0.9-5.2,0.9-6.4-1.6c-0.6-1.2-2.1-4.7-3.6-7.9c-1.5-3.3-2.9-6.3-2.9-6.3
				l12.4-1c0,0,0.4,2.5,1.2,6.4c0.1,0.6,0.2,1.2,0.3,1.8C309.3,244.1,309.7,247,307.2,248z"/>
			<path id="XMLID_64_" fill="#F48B77" d="M308,237.5c-1,0.6-2.2,1.1-3.7,1.4c-2.4,0.4-4.9,0.1-7-0.4c-1.5-3.3-2.9-6.3-2.9-6.3
				l12.4-1C306.8,231.1,307.2,233.6,308,237.5z"/>
		</g>
		<g id="XMLID_283_">
			<path id="XMLID_386_" fill="#F7A491" d="M314.1,228.7c-2.9,2.8-6,4.8-9.5,5.7c-8.6,2.4-18.5-1.3-25.3-11.2
				c-9.5-13.9-11.2-30.3-1.7-39.7c0,0,0.1-0.1,0.1-0.1c9.5-9.1,23.8-6.7,31,1.5C318.5,195.8,324.1,219.1,314.1,228.7z"/>
			<path id="XMLID_303_" fill="#F48B77" d="M304.6,234.4c-8.6,2.4-18.5-1.3-25.3-11.2c-9.5-13.9-11.2-30.3-1.7-39.7
				c0,0,0.1-0.1,0.1-0.1c0.4,9.8,2.6,29.7,13.2,42C296.4,231.7,301,234,304.6,234.4z"/>
			<path id="XMLID_27_" fill="#1C3177" d="M285.7,230.1c0,0-12.8-3.4-18.6-20.2c-5.8-16.8,0.6-31.2,17.2-34.6
				c18.4-3.8,27.4,14,27.4,14s-3-7.9-16.8-6.7c-13.8,1.1-21.7,15.3-19.1,29.5C278.2,224.9,285.7,230.1,285.7,230.1z"/>
			<path id="XMLID_30_" fill="#F48B77" d="M273.6,209.4c-0.3-1.1-1.3-1.8-2.6-1.8c-2.7,0-6.9,0.9-7.4,6.4
				c-0.8,8.1,9.9,11.3,12.5,11.6s3.7-2,3.3-3C278.9,221.7,275,215.2,273.6,209.4z"/>
			<path id="XMLID_31_" fill="#F26F59" d="M268,211.3c-1.6,1-3,3.7-0.6,7.5c1.8,2.8,5.8,3.5,7.5,3.2c1.6-0.3,1.5-4.2-0.5-4.1
				c-1.2,0-2.9-2-1.7-3.5c0.6-0.8-0.1-1.7-0.6-2.7C271.5,210.6,269.8,210.2,268,211.3z"/>
			<path id="XMLID_32_" fill="#F26F59" d="M303.3,202.1c-0.6-0.5-1.5-0.2-1.5,0.6c-0.2,2.8-0.6,8.1-0.6,9.9c0,2.6,2.6,4.6,6,3.8
				c4-0.9,3.2-5.1,0.8-9C306.4,205,304.5,203.2,303.3,202.1z"/>
		</g>
	</g>
</g>
<g id="HAIR">
	<g id="XMLID_144_">
		<g id="XMLID_150_">
			<path id="XMLID_152_" fill="#1C3177" d="M310.9,187.9c0,0,10.2-15.5,1.9-22.5c-7-5.8-14.8,0.7-16.1,6c-1.3,5.3-1.3,8.6-1.3,8.6
				S305.8,180.6,310.9,187.9z"/>
			<path id="XMLID_151_" fill="#485B95" d="M314.3,168.7c-2.2-3.5-6.8-7.2-8.4-3.6c-1.2,2.7,5.4,10,7.4,10.1
				C315.7,175.4,316.8,172.8,314.3,168.7z"/>
		</g>
		<g id="XMLID_145_">
			<path id="XMLID_147_" fill="#1C3177" d="M284,184.3c0,0-10.8-9.1-9.8-17.3c0.9-8.3,10.9-9,17.8-4.3s8.4,17.7,8.4,17.7L284,184.3z
				"/>
			<path id="XMLID_146_" fill="#485B95" d="M290.1,163.2c-3.2-2.4-8.6-4-8.8-0.3c-0.1,2.8,8.4,7.1,10.2,6.5
				C293.7,168.7,293.8,166,290.1,163.2z"/>
		</g>
	</g>
</g>
<g id="MOUTH">
	<g id="XMLID_2_">
		<path id="XMLID_60_" fill="#293475" d="M309.6,225.1c-1,1.4-2.4,2.5-4.4,2.8c-2.3,0.4-4.2-0.8-5.5-2.4c-2.4-2.8-3.3-7.2-2.7-7.7
			c0.9-0.8,2.8,0.7,6.7,1.6c3.8,0.9,6.6-1.4,6.6-1.4C311.5,217.4,311.8,221.9,309.6,225.1z"/>
		<path id="XMLID_58_" fill="#FF97C9" d="M309.6,225.1c-1,1.4-2.4,2.5-4.4,2.8c-2.3,0.4-4.2-0.8-5.5-2.4c0.7-0.7,2.4-2.3,5.1-2.2
			C307.2,223.4,308.8,224.5,309.6,225.1z"/>
	</g>
</g>
<g id="EYE">
	<g id="XMLID_138_">
		
			<ellipse id="XMLID_140_" transform="matrix(0.9762 -0.2168 0.2168 0.9762 -37.231 68.2374)" fill="#283575" cx="292.4" cy="203.8" rx="2.4" ry="3.4"/>
		
			<ellipse id="XMLID_139_" transform="matrix(0.9762 -0.2168 0.2168 0.9762 -35.8146 71.8501)" fill="#283575" cx="309.6" cy="199.2" rx="2.1" ry="3"/>
	</g>
</g>
<g id="EYEBROW">
	<g id="XMLID_11_">
		<path id="XMLID_36_" fill="#1C3177" d="M286.3,200.5c1.6-0.6-0.3-4,3.3-5.2c3.1-1,4,2.6,5.5,1.9s-0.5-3.9-3.3-4.5
			c-2.5-0.5-5.9,1.1-6.7,4C284.1,199.6,285.1,200.9,286.3,200.5z"/>
		<path id="XMLID_282_" fill="#1C3177" d="M304.1,195.6c1.3-0.3-0.1-3.1,2.4-3.9c2.5-0.8,3,2.4,4.3,1.9c1.3-0.5-0.1-3.1-2.3-3.8
			c-1.9-0.6-4.4,0.2-5.3,2.4C302.2,194.5,303.1,195.8,304.1,195.6z"/>
	</g>
</g>
<g id="LINE_1">
	<g id="XMLID_101_">
		<path id="XMLID_108_" fill="#F26F59" d="M349.7,300.9c0,0-25.7,17.2-55.1,23.6c-29.5,6.4-48.7,2.4-56.9-3.4
			c-4.5-3.2-6.7-4.9-7.3-6.8c-0.5-1.5,0.1-3.1,1.6-5.6c3.1-5.4,2.6-8.5-1.7-9.7c-0.1,0-0.2,0-0.4-0.1c-5.1-0.5-28.1,10.3-43.6,15.9
			c-15.9,5.7-27.9,9.7-36,6c-4.7-2.1-6.3-8.1-6.7-13.7c-0.3-4.2,0-8.3,0.2-10.5c0.4-5.3-1.3-7.1-4.6-6.7c-0.3,0-0.6,0.1-0.9,0.2
			c-2.3,0.9-2,4-2,4s-2.3,2.7-3.3-1c-0.6-2.3,0.2-9.4,0.9-14.5c0.5-3.7,3-6.9,6.5-8.2c0.1,0,0.2-0.1,0.3-0.1
			c2.1-0.8,4.3-1.4,6.1-1.3c4.6,0.3,4.6,1.8,3.7,9.5c-0.4,4-1.3,7.3-1.2,10.5c0,2.9,0.8,5.7,3.4,8.7c5.3,6.4,21.2-2.6,37.7-7.1
			c14.5-4,33.1-10,44.4-11.2c1.5-0.2,2.9-0.2,4.2-0.2c10.2,0.3,9.8,7.5,8.3,12.1c-0.9,2.5-1.1,4.6-0.1,6.5c0.8,1.5,2.4,2.8,5.1,3.8
			c6,2.1,29.2,2.4,48.1-3.3c18.9-5.7,44.4-19.4,44.4-19.4s1.4,5.1,2.8,10.8C348.9,295.4,349.7,300.9,349.7,300.9z"/>
		<path id="XMLID_107_" fill="#E55441" d="M247.2,291.3c-0.9,2.5-1.1,4.6-0.1,6.5c-2.4,2-12,10.3-16.7,16.5
			c-0.5-1.5,0.1-3.1,1.6-5.6c3.1-5.4,2.6-8.5-1.7-9.7c-0.1,0-0.2,0-0.4-0.1c1.5-3.5,2.8-7,3.5-10.2c0.9-4,1.3-7.1,1.4-9.3
			c1.5-0.2,2.9-0.2,4.2-0.2C249.2,279.5,248.7,286.8,247.2,291.3z"/>
		<path id="XMLID_106_" fill="#E55441" d="M150.5,278.5c-0.4,4-1.3,7.3-1.2,10.5c-1.2,2.6-2.8,6.5-4.3,12c-0.6,2.2-1.1,4.3-1.5,6.1
			c-0.3-4.2,0-8.3,0.2-10.5c0.4-5.3-1.3-7.1-4.6-6.7c-0.3,0-0.6,0.1-0.9,0.2c-0.4-6.1-1.1-14.3,2.4-19.9c2.1-0.8,4.3-1.4,6.1-1.3
			C151.4,269.3,151.4,270.9,150.5,278.5z"/>
	</g>
</g>
</svg>
