<svg width="242" height="310" viewBox="0 0 242 310" fill="none" xmlns="http://www.w3.org/2000/svg">
<path d="M126.181 140.305V52.3593C126.181 52.3593 171.295 55.7925 168.906 76.2275C167.032 92.2513 139.843 112.948 139.843 112.948C139.843 112.948 168.906 110.378 176.778 140.305" stroke="black" stroke-width="3"/>
<path d="M64.2725 52.3593C64.1183 89.9286 60.5952 82.2406 86.8583 101.645M86.8583 101.645C113.121 82.2406 109.598 89.9286 109.444 52.3593M86.8583 101.645C86.8583 116.743 86.8583 140.305 86.8583 140.305" stroke="black" stroke-width="3"/>
<path d="M92.2963 204.63H91.2755C91.0172 204.63 90.8883 204.49 90.8883 204.208V196.082L84.0599 182.433C83.9191 182.151 84.0011 182.011 84.3063 182.011H85.5734C85.7846 182.011 85.9487 182.151 86.0662 182.433L91.6979 193.936H91.8739L97.4704 182.433C97.5876 182.151 97.752 182.011 97.9632 182.011H99.2655C99.5235 182.011 99.6056 182.151 99.5119 182.433L92.6482 196.082V204.208C92.6482 204.49 92.5308 204.63 92.2963 204.63ZM104.305 204.63H103.284C103.049 204.63 102.932 204.49 102.932 204.208V182.433C102.932 182.151 103.049 182.011 103.284 182.011H104.234C104.445 182.011 104.586 182.081 104.657 182.222L115.462 200.796H115.603V182.433C115.603 182.151 115.732 182.011 115.99 182.011H116.976C117.234 182.011 117.363 182.151 117.363 182.433V204.208C117.363 204.49 117.234 204.63 116.976 204.63H116.166C115.955 204.63 115.768 204.501 115.603 204.243L104.833 185.81H104.692V204.208C104.692 204.49 104.563 204.63 104.305 204.63ZM127.504 203.047H131.516C132.596 203.047 133.417 202.754 133.98 202.168C134.567 201.558 134.86 200.69 134.86 199.565V187.076C134.86 185.951 134.567 185.095 133.98 184.508C133.417 183.899 132.596 183.594 131.516 183.594H127.504C126.424 183.594 125.603 183.899 125.04 184.508C124.477 185.118 124.195 185.974 124.195 187.076V199.565C124.195 200.667 124.477 201.523 125.04 202.133C125.603 202.742 126.424 203.047 127.504 203.047ZM131.692 204.63H127.363C125.838 204.63 124.629 204.185 123.737 203.294C122.869 202.402 122.435 201.183 122.435 199.635V187.006C122.435 185.458 122.869 184.239 123.737 183.347C124.629 182.456 125.838 182.011 127.363 182.011H131.692C133.218 182.011 134.414 182.456 135.283 183.347C136.174 184.239 136.62 185.458 136.62 187.006V199.635C136.62 201.183 136.174 202.402 135.283 203.294C134.414 204.185 133.218 204.63 131.692 204.63ZM143.087 204.63H142.067C141.832 204.63 141.715 204.49 141.715 204.208V182.433C141.715 182.151 141.832 182.011 142.067 182.011H143.017C143.228 182.011 143.369 182.081 143.439 182.222L154.245 200.796H154.386V182.433C154.386 182.151 154.515 182.011 154.773 182.011H155.759C156.017 182.011 156.146 182.151 156.146 182.433V204.208C156.146 204.49 156.017 204.63 155.759 204.63H154.949C154.738 204.63 154.55 204.501 154.386 204.243L143.615 185.81H143.474V204.208C143.474 204.49 143.345 204.63 143.087 204.63Z" fill="black"/>
<path d="M50.438 257.398H49.4173C49.1826 257.398 49.0653 257.257 49.0653 256.975V235.2C49.0653 234.919 49.1826 234.778 49.4173 234.778H57.4425C58.9677 234.778 60.1763 235.224 61.0679 236.115C61.9595 237.006 62.4054 238.225 62.4054 239.773V243.115C62.4054 244.428 62.0651 245.507 61.3847 246.352C60.7276 247.196 59.8243 247.735 58.6744 247.97V248.111L62.863 256.975C63.0038 257.257 62.9217 257.398 62.6166 257.398H61.5255C61.2204 257.398 61.0092 257.257 60.8919 256.975L56.7385 248.111H51.1772C50.9425 248.111 50.8252 248.216 50.8252 248.427V256.975C50.8252 257.257 50.6961 257.398 50.438 257.398ZM51.1772 246.598H57.2665C58.346 246.598 59.1789 246.305 59.7656 245.718C60.3523 245.109 60.6455 244.253 60.6455 243.15V239.844C60.6455 238.741 60.3523 237.885 59.7656 237.276C59.1789 236.666 58.346 236.361 57.2665 236.361H51.1772C50.9425 236.361 50.8252 236.467 50.8252 236.678V246.281C50.8252 246.492 50.9425 246.598 51.1772 246.598ZM66.7412 257.398H65.65C65.3918 257.398 65.3097 257.257 65.4037 256.975L72.4081 235.2C72.4785 234.919 72.6426 234.778 72.9009 234.778H74.5552C74.7897 234.778 74.954 234.919 75.048 235.2L82.0524 256.975C82.1228 257.257 82.0405 257.398 81.806 257.398H80.6797C80.445 257.398 80.2925 257.257 80.2221 256.975L78.3214 251.347H69.0995L67.1988 256.975C67.1048 257.257 66.9524 257.398 66.7412 257.398ZM73.64 236.713L69.5922 249.764H77.8638L73.7808 236.713H73.64ZM94.59 257.398H90.155C88.6299 257.398 87.4215 256.952 86.5296 256.061C85.6616 255.17 85.2273 253.95 85.2273 252.402V239.773C85.2273 238.225 85.6616 237.006 86.5296 236.115C87.4215 235.224 88.6299 234.778 90.155 234.778H94.59C96.1154 234.778 97.3122 235.224 98.1802 236.115C99.0721 237.006 99.5178 238.225 99.5178 239.773V241.497C99.5178 241.778 99.3888 241.919 99.1306 241.919H98.145C97.887 241.919 97.7579 241.778 97.7579 241.497V239.844C97.7579 238.718 97.4646 237.862 96.8779 237.276C96.3147 236.666 95.4935 236.361 94.414 236.361H90.2958C89.2166 236.361 88.3951 236.666 87.832 237.276C87.2688 237.885 86.9872 238.741 86.9872 239.844V252.332C86.9872 253.434 87.2688 254.29 87.832 254.9C88.3951 255.51 89.2166 255.815 90.2958 255.815H94.414C95.4935 255.815 96.3147 255.521 96.8779 254.935C97.4646 254.325 97.7579 253.458 97.7579 252.332V250.679C97.7579 250.397 97.887 250.256 98.145 250.256H99.1306C99.3888 250.256 99.5178 250.397 99.5178 250.679V252.402C99.5178 253.95 99.0721 255.17 98.1802 256.061C97.3122 256.952 96.1154 257.398 94.59 257.398ZM105.501 257.398H104.48C104.246 257.398 104.129 257.257 104.129 256.975V235.2C104.129 234.919 104.246 234.778 104.48 234.778H105.501C105.759 234.778 105.888 234.919 105.888 235.2V244.804C105.888 245.015 106.006 245.12 106.24 245.12H116.096C116.331 245.12 116.448 245.015 116.448 244.804V235.2C116.448 234.919 116.565 234.778 116.8 234.778H117.821C118.079 234.778 118.208 234.919 118.208 235.2V256.975C118.208 257.257 118.079 257.398 117.821 257.398H116.8C116.565 257.398 116.448 257.257 116.448 256.975V247.02C116.448 246.809 116.331 246.703 116.096 246.703H106.24C106.006 246.703 105.888 246.809 105.888 247.02V256.975C105.888 257.257 105.759 257.398 105.501 257.398ZM123.076 257.398H121.985C121.727 257.398 121.645 257.257 121.739 256.975L128.743 235.2C128.813 234.919 128.978 234.778 129.236 234.778H130.89C131.125 234.778 131.289 234.919 131.383 235.2L138.387 256.975C138.458 257.257 138.376 257.398 138.141 257.398H137.015C136.78 257.398 136.627 257.257 136.557 256.975L134.656 251.347H125.434L123.534 256.975C123.44 257.257 123.287 257.398 123.076 257.398ZM129.975 236.713L125.927 249.764H134.199L130.116 236.713H129.975ZM158.176 234.778H160.077C160.311 234.778 160.428 234.919 160.428 235.2V256.975C160.428 257.257 160.311 257.398 160.077 257.398H159.056C158.798 257.398 158.669 257.257 158.669 256.975V237.487H158.528L152.298 252.086C152.157 252.344 151.981 252.473 151.77 252.473H150.608C150.374 252.473 150.209 252.344 150.115 252.086L143.78 237.452H143.639V256.975C143.639 257.257 143.522 257.398 143.287 257.398H142.266C142.032 257.398 141.914 257.257 141.914 256.975V235.2C141.914 234.919 142.032 234.778 142.266 234.778H144.167C144.331 234.778 144.437 234.848 144.484 234.989L151.101 250.432H151.242L157.859 234.989C157.906 234.848 158.012 234.778 158.176 234.778ZM167.83 235.2V256.975C167.83 257.257 167.701 257.398 167.443 257.398H166.423C166.188 257.398 166.071 257.257 166.071 256.975V235.2C166.071 234.919 166.188 234.778 166.423 234.778H167.443C167.701 234.778 167.83 234.919 167.83 235.2ZM189.74 234.778H191.641C191.875 234.778 191.993 234.919 191.993 235.2V256.975C191.993 257.257 191.875 257.398 191.641 257.398H190.62C190.362 257.398 190.233 257.257 190.233 256.975V237.487H190.092L183.862 252.086C183.721 252.344 183.545 252.473 183.334 252.473H182.173C181.938 252.473 181.774 252.344 181.68 252.086L175.344 237.452H175.203V256.975C175.203 257.257 175.086 257.398 174.851 257.398H173.831C173.596 257.398 173.479 257.257 173.479 256.975V235.2C173.479 234.919 173.596 234.778 173.831 234.778H175.731C175.895 234.778 176.001 234.848 176.048 234.989L182.665 250.432H182.806L189.423 234.989C189.47 234.848 189.576 234.778 189.74 234.778Z" fill="black"/>
<path d="M34.9279 218.579H207.072" stroke="black" stroke-width="3"/>
</svg>
