<?xml version="1.0" encoding="utf-8"?>
<!-- Generator: Adobe Illustrator 19.0.0, SVG Export Plug-In . SVG Version: 6.00 Build 0)  -->
<svg version="1.1" xmlns="http://www.w3.org/2000/svg" xmlns:xlink="http://www.w3.org/1999/xlink" x="0px" y="0px"
	 viewBox="0 0 600 600" enable-background="new 0 0 600 600" xml:space="preserve">
<g id="PAPER">
	<g id="XMLID_365_">
		<g id="XMLID_362_">
			<path id="XMLID_4_" fill="#CDE0FC" d="M207.4,271.7l119-26.8c1.7-0.4,2.6-2.2,2.1-3.8c-1.2-3.3-3.1-12.1-3.3-19.2
				c-0.3-11.2,6.1-17.3,6.1-17.3s-87.9,15.6-116.8,22.5c-15.5,3.6-20.4,15.7-11.4,42.3C203.6,271.1,205.5,272.2,207.4,271.7z"/>
			<path id="XMLID_5_" fill="#E1ECFF" d="M213.4,227.3c0,0,8.4,5,18.4,38.7c10,33.7,25.9,90.6,37.3,123.3
				c11.4,32.8,25,42.3,39.6,41.4s105.1-31.9,105.1-31.9s-34.1-107-45.5-142.9c-11.4-36-22.3-54.5-38.9-51.7
				C263.7,215.5,213.4,227.3,213.4,227.3z"/>
			<path id="XMLID_3_" fill="#CDE0FC" d="M302.4,430.5c0,0,11.7-0.5,21.7-11.5c6.9-7.7,7.1-19.5,6.5-26c-0.2-2.8,1.6-5.4,4.3-6.1
				l88.3-24.5c1.6-0.4,3.3,0.4,3.9,1.9c1.5,3.4,3.6,9.9,3,17.9c-0.9,11.8-6.7,15.6-15.8,18.9S318.1,435.8,302.4,430.5z"/>
			<g id="XMLID_7_">
				<path id="XMLID_19_" fill="#CDE0FC" d="M309.9,255.7l0.1,0.4c0.7,2-0.4,4.2-2.5,4.6l-47,10.6c-1.8,0.4-3.5-0.6-4.1-2.3l-0.3-0.8
					c-0.6-2,0.6-4.1,2.6-4.5l47.1-10.1C307.6,253.1,309.3,254.1,309.9,255.7z"/>
				<path id="XMLID_364_" fill="#FFFFFF" d="M326.3,210.5l0.1,0.4c0.7,2-0.4,4.2-2.5,4.6L229,235.8c-1.8,0.4-3.5-0.6-4.1-2.3
					l-0.3-0.8c-0.6-2,0.6-4.1,2.6-4.5l95-19.9C324,207.9,325.7,208.8,326.3,210.5z"/>
				<path id="XMLID_20_" fill="#CDE0FC" d="M345.6,252.1l-20.1,4.5c-1.7,0.4-3.5-0.6-4.1-2.2l-0.1-0.2c-0.7-2,0.5-4.2,2.6-4.6
					l20.2-4.3c1.7-0.4,3.4,0.6,4,2.2l0,0C348.8,249.5,347.6,251.7,345.6,252.1z"/>
				<path id="XMLID_9_" fill="#CDE0FC" d="M271,295.6l84.1-19.9c1.7-0.4,3.4,0.5,4.1,2.1l0,0c0.8,2-0.4,4.1-2.4,4.7l-83.8,20.7
					c-1.8,0.4-3.6-0.6-4.2-2.3l-0.3-0.8C267.8,298.2,269,296.1,271,295.6z"/>
				<path id="XMLID_10_" fill="#CDE0FC" d="M324.7,317.3l42.4-10.5c1.7-0.4,3.4,0.5,4.1,2.1l0,0c0.8,2-0.3,4.1-2.4,4.7l-42.1,11.4
					c-1.8,0.5-3.6-0.5-4.2-2.2l-0.3-0.8C321.5,319.9,322.7,317.8,324.7,317.3z"/>
				<path id="XMLID_11_" fill="#CDE0FC" d="M345.2,346l33.8-8.6c1.7-0.4,3.5,0.5,4.1,2.1l0,0c0.7,1.9-0.4,4.1-2.4,4.6l-33.5,9.4
					c-1.8,0.5-3.6-0.5-4.2-2.3l-0.3-0.9C342.1,348.6,343.2,346.5,345.2,346z"/>
			</g>
		</g>
		<path id="XMLID_366_" fill="#B0D0F7" d="M344.9,413l70.9-22.6c1.7-0.5,3.5,0.3,4.2,1.8l0,0c0.9,1.9-0.1,4.2-2.1,4.8l-70.5,23.4
			c-1.7,0.6-3.6-0.3-4.3-2l-0.3-0.8C341.9,415.8,343,413.7,344.9,413z"/>
	</g>
</g>
<g id="MEDAL">
	<g id="XMLID_368_">
		<g id="XMLID_356_">
			<path id="XMLID_357_" fill="#CDE0FC" d="M287.7,377.4l10.1,28.6c0.7,2,3.5,2.3,4.5,0.4l5.8-10.4c1.3-2.4,4.2-3.5,6.8-2.7l9.5,3.1
				c1.9,0.6,3.8-1.2,3.1-3.2l-9.2-27.3L287.7,377.4z"/>
			<path id="XMLID_16_" fill="#99ADF9" d="M288.5,374.6l10.1,28.6c0.7,2,3.5,2.3,4.5,0.4l5.8-10.4c1.3-2.4,4.2-3.5,6.8-2.7l9.5,3.1
				c1.9,0.6,3.8-1.2,3.1-3.2l-9.2-27.3L288.5,374.6z"/>
		</g>
		<g id="XMLID_358_">
			<g id="XMLID_8_">
				<ellipse id="XMLID_15_" fill="#FFAE55" cx="296.9" cy="355.9" rx="28.7" ry="27.8"/>
				<path id="XMLID_26_" fill="#FEC272" d="M325.4,353.1c0,15.4-12.9,27.8-28.7,27.8c-3.9,0-7.5-0.7-10.9-2.1c-4-1.6-7.6-4-10.4-7.1
					c-4.6-4.9-7.4-11.5-7.4-18.6c0-15.4,12.9-27.8,28.7-27.8c4.4,0,8.6,1,12.3,2.7c3.4,1.6,6.4,3.7,8.9,6.4
					C322.6,339.3,325.4,345.9,325.4,353.1z"/>
				<path id="XMLID_22_" fill="#FFD29C" d="M317.9,334.4l-32.1,44.5c-4-1.6-7.6-4-10.4-7.1L309,328
					C312.4,329.6,315.4,331.7,317.9,334.4z"/>
				<ellipse id="XMLID_12_" fill="#FFAE55" cx="296.7" cy="353.1" rx="22.3" ry="21.5"/>
				<path id="XMLID_367_" fill="#FEC272" d="M316.5,353.1c0,10.6-8.9,19.2-19.8,19.2c-2,0-3.8-0.3-5.6-0.8
					c-4.1-1.2-7.7-3.6-10.3-6.9c-2.5-3.2-4-7.2-4-11.5c0-10.6,8.9-19.2,19.8-19.2c2.4,0,4.7,0.4,6.9,1.2c3.6,1.3,6.8,3.6,9.1,6.6
					C315.1,344.9,316.5,348.8,316.5,353.1z"/>
				<path id="XMLID_363_" fill="#FFD29C" d="M312.6,341.7l-21.5,29.8c-4.1-1.2-7.7-3.6-10.3-6.9l22.7-29.5
					C307.2,336.4,310.4,338.7,312.6,341.7z"/>
			</g>
			<g id="XMLID_359_">
				<path id="XMLID_361_" fill="#FFD29C" d="M296.7,379.3c-0.6,0-1-0.5-1-1s0.5-1,1-1c13.7,0,24.9-10.8,24.9-24.1
					c0-5.2-1.7-10.1-4.9-14.3c-0.4-0.5-0.3-1.1,0.2-1.5c0.5-0.4,1.1-0.3,1.5,0.2c3.5,4.5,5.3,9.9,5.3,15.6
					C323.7,367.6,311.6,379.3,296.7,379.3z"/>
			</g>
			<g id="XMLID_13_">
				<path id="XMLID_360_" fill="#FFD29C" d="M275.9,369.2c-0.3,0-0.6-0.1-0.8-0.4c-3.5-4.5-5.4-10-5.4-15.7
					c0-14.4,12.1-26.2,27-26.2c0.6,0,1,0.5,1,1s-0.5,1-1,1c-13.7,0-24.9,10.8-24.9,24.1c0,5.2,1.7,10.2,5,14.4
					c0.4,0.5,0.3,1.1-0.2,1.5C276.4,369.2,276.2,369.2,275.9,369.2z"/>
			</g>
		</g>
	</g>
</g>
<g id="ORNAMENT_3">
	<g id="XMLID_30_">
		<circle id="XMLID_14_" fill="#E1ECFF" cx="404.3" cy="285" r="5.2"/>
		<circle id="XMLID_17_" fill="#E1ECFF" cx="466.8" cy="353.3" r="9.7"/>
		<circle id="XMLID_18_" fill="#E1ECFF" cx="370.2" cy="445.8" r="6.4"/>
		<circle id="XMLID_21_" fill="#E1ECFF" cx="293.8" cy="482.2" r="7.7"/>
		<circle id="XMLID_23_" fill="#E1ECFF" cx="242.9" cy="373.6" r="7.3"/>
		<circle id="XMLID_24_" fill="#E1ECFF" cx="175.1" cy="318.9" r="9.1"/>
		<circle id="XMLID_6_" fill="#E1ECFF" cx="215.7" cy="288.3" r="5.1"/>
		<circle id="XMLID_25_" fill="#E1ECFF" cx="168.8" cy="237.2" r="7.9"/>
		<circle id="XMLID_27_" fill="#E1ECFF" cx="234.5" cy="196.8" r="5.5"/>
		<circle id="XMLID_28_" fill="#E1ECFF" cx="304.2" cy="186.3" r="5"/>
		<circle id="XMLID_29_" fill="#E1ECFF" cx="327" cy="131.3" r="8.2"/>
	</g>
</g>
<g id="SPARKLING_1">
	<g id="XMLID_354_">
		<g id="XMLID_31_">
			<path id="XMLID_33_" fill="#F74F3E" d="M411.5,193.2c-2.9-2.9-5-6.8-6.5-10.1c-1-2.2-4-2.2-5,0c-1.5,3.3-3.6,7.2-6.5,10.1
				c-3.4,3.5-7.1,6.1-9.8,7.9c-1.7,1.1-1.7,3.5,0,4.6c2.7,1.7,6.4,4.4,9.8,7.9c2.9,2.9,5,6.8,6.5,10.1c1,2.2,4,2.2,5,0
				c1.5-3.3,3.6-7.2,6.5-10.1c3.4-3.5,7.1-6.1,9.8-7.9c1.7-1.1,1.7-3.5,0-4.6C418.6,199.3,415,196.7,411.5,193.2z"/>
			<path id="XMLID_32_" fill="#F76F59" d="M410.8,192.4c-2.5-2.6-4.6-6.6-5.9-9.5c-0.9-1.9-3.9-1.9-4.8,0c-1.3,2.9-3.5,7.1-6.1,9.7
				c-3,3.1-5.5,5.3-7.9,6.8c-1.5,1-1.8,2.5-0.3,3.5c2.4,1.5,5.6,3.9,8.7,7c2.5,2.6,4.4,6,5.8,8.9c0.9,1.9,3.6,1.9,4.4,0
				c1.3-2.9,3.2-6.4,5.8-8.9c3-3.1,6.3-5.4,8.7-7c1.5-1,1.2-2.5-0.3-3.5C416.5,197.9,413.8,195.5,410.8,192.4z"/>
		</g>
		<g id="XMLID_35_">
			<path id="XMLID_37_" fill="#F74F3E" d="M218.4,146.4c-2-2-3.4-4.6-4.4-6.9c-0.7-1.5-2.7-1.5-3.4,0c-1,2.3-2.5,4.9-4.4,6.9
				c-2.3,2.4-4.8,4.2-6.7,5.4c-1.1,0.7-1.1,2.4,0,3.1c1.8,1.2,4.3,3,6.7,5.4c2,2,3.4,4.6,4.4,6.9c0.7,1.5,2.7,1.5,3.4,0
				c1-2.3,2.5-4.9,4.4-6.9c2.3-2.4,4.8-4.2,6.7-5.4c1.1-0.7,1.1-2.4,0-3.1C223.2,150.6,220.7,148.8,218.4,146.4z"/>
			<path id="XMLID_36_" fill="#F76F59" d="M217.9,145.9c-1.7-1.8-3.1-4.5-4-6.5c-0.6-1.3-2.7-1.3-3.3,0c-0.9,2-2.4,4.9-4.1,6.6
				c-2.1,2.1-3.8,3.6-5.4,4.6c-1,0.6-1.2,1.7-0.2,2.4c1.6,1,3.8,2.6,5.9,4.7c1.7,1.8,3,4.1,3.9,6.1c0.6,1.3,2.4,1.3,3,0
				c0.9-2,2.2-4.3,3.9-6.1c2.1-2.1,4.3-3.7,5.9-4.7c1-0.6,0.8-1.7-0.2-2.4C221.7,149.6,219.9,148,217.9,145.9z"/>
		</g>
		<g id="XMLID_38_">
			<path id="XMLID_40_" fill="#F74F3E" d="M204,378.6c-2.6-2.6-4.5-6.2-5.9-9.1c-0.9-2-3.7-2-4.5,0c-1.3,3-3.3,6.5-5.9,9.1
				c-3.1,3.2-6.4,5.6-8.9,7.1c-1.5,1-1.5,3.2,0,4.2c2.4,1.6,5.8,4,8.9,7.1c2.6,2.6,4.5,6.2,5.9,9.1c0.9,2,3.7,2,4.5,0
				c1.3-3,3.3-6.5,5.9-9.1c3.1-3.2,6.4-5.6,8.9-7.1c1.5-1,1.5-3.2,0-4.2C210.5,384.1,207.1,381.7,204,378.6z"/>
			<path id="XMLID_39_" fill="#F76F59" d="M203.4,377.9c-2.3-2.3-4.1-6-5.3-8.6c-0.8-1.7-3.6-1.7-4.3,0c-1.2,2.6-3.2,6.5-5.5,8.8
				c-2.8,2.8-5,4.8-7.2,6.2c-1.3,0.9-1.6,2.3-0.3,3.2c2.2,1.4,5.1,3.5,7.9,6.3c2.3,2.3,4,5.4,5.2,8.1c0.8,1.7,3.2,1.7,4,0
				c1.2-2.6,2.9-5.8,5.2-8.1c2.8-2.8,5.7-4.9,7.9-6.3c1.3-0.9,1.1-2.3-0.3-3.2C208.5,382.8,206.1,380.7,203.4,377.9z"/>
		</g>
		<g id="XMLID_41_">
			<path id="XMLID_43_" fill="#F74F3E" d="M438.2,433.4c-1.5-1.6-2.7-3.6-3.5-5.4c-0.5-1.2-2.2-1.2-2.7,0c-0.8,1.8-2,3.8-3.5,5.4
				c-1.8,1.9-3.8,3.3-5.2,4.2c-0.9,0.6-0.9,1.9,0,2.5c1.4,0.9,3.4,2.3,5.2,4.2c1.5,1.6,2.7,3.6,3.5,5.4c0.5,1.2,2.2,1.2,2.7,0
				c0.8-1.8,2-3.8,3.5-5.4c1.8-1.9,3.8-3.3,5.2-4.2c0.9-0.6,0.9-1.9,0-2.5C442,436.7,440,435.3,438.2,433.4z"/>
			<path id="XMLID_42_" fill="#F76F59" d="M437.8,433c-1.4-1.4-2.4-3.5-3.2-5.1c-0.5-1-2.1-1-2.6,0c-0.7,1.6-1.9,3.8-3.2,5.2
				c-1.6,1.7-3,2.8-4.2,3.6c-0.8,0.5-0.9,1.4-0.1,1.9c1.3,0.8,3,2.1,4.6,3.7c1.4,1.4,2.4,3.2,3.1,4.8c0.5,1,1.9,1,2.4,0
				c0.7-1.6,1.7-3.4,3.1-4.8c1.6-1.7,3.4-2.9,4.6-3.7c0.8-0.5,0.6-1.4-0.2-1.9C440.8,436,439.4,434.7,437.8,433z"/>
		</g>
	</g>
</g>
<g id="SPARKLING_2">
	<g id="XMLID_355_">
		<g id="XMLID_56_">
			<path id="XMLID_58_" fill="#FFFFFF" d="M268.4,325.4c-1.5-0.8-2.8-2-3.8-3.1c-0.7-0.7-1.8-0.3-1.9,0.7c-0.1,1.5-0.5,3.3-1.2,4.8
				c-0.9,1.8-1.9,3.3-2.8,4.3c-0.5,0.6-0.2,1.6,0.6,1.8c1.3,0.3,3,0.9,4.8,1.8c1.5,0.8,2.8,2,3.8,3.1c0.7,0.7,1.8,0.3,1.9-0.7
				c0.1-1.5,0.5-3.3,1.2-4.8c0.9-1.8,1.9-3.3,2.8-4.3c0.5-0.6,0.2-1.6-0.6-1.8C271.9,326.9,270.2,326.3,268.4,325.4z"/>
			<path id="XMLID_57_" fill="#FFFFFF" d="M268,325.2c-1.3-0.7-2.6-2-3.5-2.9c-0.6-0.6-1.8-0.2-1.9,0.6c-0.1,1.3-0.4,3.2-1.1,4.6
				c-0.8,1.6-1.5,2.8-2.2,3.7c-0.5,0.6-0.4,1.2,0.3,1.4c1.1,0.3,2.7,0.8,4.3,1.6c1.3,0.7,2.5,1.7,3.4,2.7c0.6,0.6,1.6,0.3,1.7-0.6
				c0.1-1.3,0.4-2.9,1.1-4.2c0.8-1.6,1.7-2.9,2.4-3.8c0.5-0.6,0.1-1.1-0.6-1.3C270.9,326.6,269.6,326,268,325.2z"/>
		</g>
		<g id="XMLID_59_">
			<path id="XMLID_61_" fill="#FFFFFF" d="M339.5,362.1c-1-0.5-1.8-1.3-2.5-2c-0.4-0.5-1.2-0.2-1.2,0.4c-0.1,0.9-0.3,2.1-0.8,3.1
				c-0.6,1.2-1.3,2.1-1.8,2.8c-0.3,0.4-0.1,1,0.4,1.1c0.8,0.2,2,0.6,3.1,1.1c1,0.5,1.8,1.3,2.5,2c0.4,0.5,1.2,0.2,1.2-0.4
				c0.1-0.9,0.3-2.1,0.8-3.1c0.6-1.2,1.3-2.1,1.8-2.8c0.3-0.4,0.1-1-0.4-1.1C341.8,363,340.7,362.7,339.5,362.1z"/>
			<path id="XMLID_60_" fill="#FFFFFF" d="M339.3,362c-0.8-0.4-1.7-1.3-2.3-1.9c-0.4-0.4-1.1-0.1-1.2,0.4c-0.1,0.8-0.3,2.1-0.7,2.9
				c-0.5,1-0.9,1.8-1.4,2.4c-0.3,0.4-0.2,0.8,0.2,0.9c0.7,0.2,1.7,0.5,2.7,1c0.8,0.4,1.6,1.1,2.2,1.7c0.4,0.4,1.1,0.2,1.1-0.4
				c0.1-0.8,0.3-1.9,0.7-2.7c0.5-1,1.1-1.9,1.6-2.5c0.3-0.4,0.1-0.7-0.4-0.8C341.2,362.9,340.3,362.5,339.3,362z"/>
		</g>
	</g>
</g>
<g id="ORNAMENT_1">
	<g id="XMLID_353_">
		<path id="XMLID_45_" fill="#FEC272" d="M351.1,177.3L351.1,177.3c-1.6-0.9-2-2.7-1.3-4.7c0,0,3.9-9,9.7-19
			c6.4-11.1,10-15.7,10-15.7c0.9-1.6,3-2.2,4.7-1.3l0,0c1.6,0.9,2.4,2.5,1.5,4.6c0,0-3,6.3-9.2,17.2c-5.4,9.4-10.7,17.5-10.7,17.5
			C354.7,177.7,352.8,178.2,351.1,177.3z"/>
		<path id="XMLID_47_" fill="#FEC272" d="M435.5,314L435.5,314c0-1.9,1.4-3.1,3.4-3.4c0,0,9.7-1.1,21.3-1.1
			c12.8,0,18.6,0.8,18.6,0.8c1.9,0,3.4,1.5,3.4,3.4l0,0c0,1.9-1,3.3-3.2,3.6c0,0-7,0.6-19.6,0.6c-10.8,0-20.5-0.6-20.5-0.6
			C436.9,317.2,435.5,315.9,435.5,314z"/>
		<path id="XMLID_49_" fill="#FEC272" d="M395.9,436.8L395.9,436.8c1.5-1.1,3.3-0.6,4.8,0.9c0,0,6.4,7.4,12.9,17
			c7.3,10.6,9.8,15.8,9.8,15.8c1.1,1.5,0.7,3.7-0.9,4.8h0c-1.5,1.1-3.3,1.1-4.8-0.6c0,0-4.4-5.4-11.6-15.8
			c-6.1-8.9-11.1-17.2-11.1-17.2C394.1,439.8,394.4,437.9,395.9,436.8z"/>
		<path id="XMLID_51_" fill="#FEC272" d="M281.5,440.7L281.5,440.7c1.7,0.9,2.1,2.7,1.4,4.6c0,0-3.7,9.1-9.2,19.3
			c-6.1,11.3-9.5,16-9.5,16c-0.9,1.7-3,2.3-4.6,1.4l0,0c-1.7-0.9-2.5-2.4-1.7-4.6c0,0,2.8-6.4,8.7-17.5c5.1-9.5,10.2-17.8,10.2-17.8
			C278,440.4,279.9,439.8,281.5,440.7z"/>
		<path id="XMLID_53_" fill="#FEC272" d="M185.9,346.2L185.9,346.2c0.5,1.8-0.4,3.4-2.3,4.3c0,0-9,3.8-20.1,7.1
			c-12.3,3.7-18,4.5-18,4.5c-1.8,0.5-3.7-0.5-4.3-2.3l0,0c-0.5-1.8,0-3.4,2.1-4.4c0,0,6.5-2.5,18.6-6.2c10.3-3.1,19.8-5.3,19.8-5.3
			C183.6,343.5,185.3,344.4,185.9,346.2z"/>
		<path id="XMLID_55_" fill="#FEC272" d="M190.6,205.2L190.6,205.2c-0.9,1.6-2.7,2.1-4.6,1.4c0,0-9-3.8-19.2-9.4
			c-11.2-6.2-15.8-9.8-15.8-9.8c-1.6-0.9-2.3-3-1.4-4.6l0,0c0.9-1.6,2.4-2.4,4.6-1.6c0,0,6.4,2.9,17.4,9
			c9.4,5.2,17.6,10.5,17.6,10.5C190.9,201.7,191.5,203.6,190.6,205.2z"/>
	</g>
</g>
<g id="ORNAMENT_2">
	<g id="XMLID_1_">
		<path id="XMLID_34_" fill="#FEC272" d="M268.9,164.7L268.9,164.7c-0.9,0.2-1.6-0.3-2-1.3c0,0-1.5-4.5-2.7-10
			c-1.3-6.1-1.6-8.9-1.6-8.9c-0.2-0.9,0.4-1.8,1.3-2l0,0c0.9-0.2,1.7,0.1,2.1,1.2c0,0,1,3.2,2.3,9.2c1.1,5.1,1.9,9.8,1.9,9.8
			C270.3,163.7,269.8,164.5,268.9,164.7z"/>
		<path id="XMLID_46_" fill="#FEC272" d="M424.2,259.5L424.2,259.5c-0.6-0.9-0.3-2,0.7-2.8c0,0,4.6-3.5,10.4-7
			c6.5-3.9,9.6-5.2,9.6-5.2c0.9-0.6,2.2-0.3,2.8,0.7l0,0c0.6,0.9,0.5,2-0.5,2.8c0,0-3.3,2.4-9.7,6.3c-5.4,3.3-10.5,6-10.5,6
			C425.9,260.7,424.8,260.4,424.2,259.5z"/>
		<path id="XMLID_48_" fill="#FEC272" d="M450,396.9L450,396.9c0.6-1,1.8-1.2,2.9-0.7c0,0,5.5,2.7,11.6,6.6c6.8,4.3,9.5,6.7,9.5,6.7
			c1,0.6,1.3,2,0.7,2.9l0,0c-0.6,1-1.6,1.4-2.9,0.8c0,0-3.9-2-10.5-6.3c-5.7-3.6-10.6-7.2-10.6-7.2
			C449.7,399.1,449.4,397.9,450,396.9z"/>
		<path id="XMLID_50_" fill="#FEC272" d="M329.7,450.7L329.7,450.7c1-0.1,1.8,0.6,2.1,1.7c0,0,1.2,5.3,1.8,11.6
			c0.8,7,0.6,10.2,0.6,10.2c0.1,1-0.6,2-1.7,2.1v0c-1,0.1-1.9-0.3-2.2-1.6c0,0-0.7-3.8-1.5-10.7c-0.6-5.9-0.9-11.3-0.9-11.3
			C328,451.7,328.7,450.8,329.7,450.7z"/>
		<path id="XMLID_52_" fill="#FEC272" d="M231.5,419.1L231.5,419.1c0.8,0.8,0.7,2-0.1,3c0,0-3.9,4.6-9.1,9.4
			c-5.8,5.4-8.7,7.4-8.7,7.4c-0.8,0.8-2.2,0.8-3-0.1l0,0c-0.8-0.8-1-1.9-0.1-3c0,0,2.9-3.2,8.5-8.5c4.8-4.5,9.4-8.3,9.4-8.3
			C229.5,418.3,230.7,418.3,231.5,419.1z"/>
		<path id="XMLID_54_" fill="#FEC272" d="M173,286.6L173,286.6c-0.1,1.1-1,1.7-2.2,1.8c0,0-5.7,0-12.4-0.6
			c-7.4-0.8-10.7-1.6-10.7-1.6c-1.1-0.1-1.9-1.1-1.8-2.2l0,0c0.1-1.1,0.7-1.9,2.1-1.9c0,0,4.1,0.1,11.4,0.8
			c6.3,0.6,11.8,1.5,11.8,1.5C172.3,284.6,173.1,285.5,173,286.6z"/>
	</g>
</g>
</svg>
