<?xml version="1.0" encoding="utf-8"?>
<!-- Generator: Adobe Illustrator 19.0.0, SVG Export Plug-In . SVG Version: 6.00 Build 0)  -->
<svg version="1.1" xmlns="http://www.w3.org/2000/svg" xmlns:xlink="http://www.w3.org/1999/xlink" x="0px" y="0px"
	 viewBox="0 0 600 600" enable-background="new 0 0 600 600" xml:space="preserve">
<g id="FLOOR">
	
		<ellipse id="XMLID_24_" transform="matrix(0.9998 -2.077483e-002 2.077483e-002 0.9998 -9.4777 6.7399)" fill="#E1ECFF" cx="319.7" cy="459.5" rx="106.3" ry="22.4"/>
</g>
<g id="LINE">
	<g id="XMLID_146_">
		<g id="XMLID_77_">
			<path id="XMLID_78_" fill="#1C3177" d="M288.7,183.3c-1.6,0-3.1-1-3.7-2.6c-0.3-0.9-7.7-22.2,1.9-39.9
				c5.5-10.1,17.9-18,31.6-20.1c13.3-2,25.7,1.8,34.8,10.8c2.7,2.7,5.3,5.3,7.9,7.9c15.7,16,28,28.6,44.1,22.9
				c16.8-6,9.5-28.6,9.1-29.5c-0.7-2.1,0.4-4.3,2.5-5c2.1-0.7,4.3,0.4,5,2.5c3.6,10.6,5.2,32.6-13.9,39.4
				c-20.8,7.4-36.1-8.2-52.3-24.8c-2.5-2.6-5.1-5.2-7.8-7.8c-7.3-7.2-17.3-10.2-28.1-8.6c-11.2,1.7-21.6,8.1-25.8,16
				c-7.9,14.7-1.5,33.3-1.4,33.5c0.7,2-0.3,4.3-2.4,5C289.5,183.3,289.1,183.3,288.7,183.3z"/>
		</g>
	</g>
</g>
<g id="BOX">
	<g id="XMLID_66_">
		<g id="XMLID_29_">
			<g id="XMLID_101_">
				<path id="XMLID_119_" fill="#99ADF9" d="M305.5,192.7l-20.6,3.7l-9.7,1.7l-2.1-16.5c0,0,2.3-3.1,8-5.3c1.6-0.6,3.4-1.1,5.5-1.5
					c9.8-1.8,15.2,2.1,15.2,2.1L305.5,192.7z"/>
				<path id="XMLID_116_" fill="#7097ED" d="M285,196.3l-9.7,1.7l-2.1-16.5c0,0,2.3-3.1,8-5.3L285,196.3z"/>
			</g>
		</g>
		<g id="XMLID_28_">
			<path id="XMLID_115_" fill="#7097ED" d="M274.3,464.8c0,0-17.6,2.3-29.5,3.3c-3.6,0.3-6.6,0.5-8.5,0.5c-8.2,0-13.5-4.8-14.5-19.1
				c-1-14.2-14.7-184.6-14.7-204.3s1-19.7,4.1-23.7c1-1.4,2.8-3.5,5-5.8c4.3-4.6,9.7-10,12.5-11.5c4.1-2.2,7.8-2.9,7.8-2.9
				L274.3,464.8z"/>
			<path id="XMLID_589_" fill="#E1ECFF" d="M407,437c-2.5,0.9-6.9,2.2-12.4,3.6c-0.7,0.2-1.5,0.4-2.2,0.6c-22.5,5.8-59.8,14-59.8,14
				c-18.2,3.3-35.2,7.1-49.1,8.8c-0.8,0.1-1.6,0.2-2.3,0.3c-15.8,1.7-27.4,0.3-32.1-8.4c-4.6-8.6-10.5-53.3-15.6-101.1
				c-5.9-55.1-10.6-114.3-10.9-126.6c-0.5-23.1,2.9-25.5,22.6-28.5c19.7-2.9,80.2-9.8,99.6-12.1c19.3-2.3,24.9-4.6,29.8,9.5
				c3,8.6,16.3,79.8,26.8,137.6c6.6,36.6,12.1,67.9,13.1,74.3C416.8,425.7,419.5,432.3,407,437z"/>
			<path id="XMLID_113_" fill="#1C3177" d="M244.7,468.1c-3.6,0.3-6.6,0.5-8.5,0.5c-8.2,0-13.5-4.8-14.5-19.1
				c-1-14.2-14.7-184.6-14.7-204.3s1-19.7,4.1-23.7c1-1.4,2.8-3.5,5-5.8c-1.1,9.6-2,28.4,0.4,61.3c3.9,53.7,13.4,147,15.4,163.4
				C233.9,456.2,236.7,463.7,244.7,468.1z"/>
			<path id="XMLID_112_" fill="#99ADF9" d="M401.3,334.7c-18.5-20.1-51.1-46.7-90.5-41.6c-42.4,5.5-66.4,40.2-77.4,61.8
				c-5.9-55.1-10.6-114.3-10.9-126.6c-0.5-23.1,2.9-25.5,22.6-28.5c19.7-2.9,80.2-9.8,99.6-12.1c19.3-2.3,24.9-4.6,29.8,9.5
				C377.5,205.7,390.8,276.9,401.3,334.7z"/>
			<path id="XMLID_587_" fill="#AED3FF" d="M394.6,440.6c-0.7,0.2-1.5,0.4-2.2,0.6c-0.6,0.1-1.1,0.3-1.7,0.4
				c-22.7,5.8-58.1,13.5-58.1,13.5c-18.2,3.3-35.2,7.1-49.1,8.8c-3.6-23.9-11-73.8-12.8-97.7c-1.8-23.9,4-43.8,21.4-53.9
				c5.9-3.5,13.2-5.8,22-6.8c34.6-3.9,54.9,19.8,66.3,68.9C386.7,402,391.6,425.4,394.6,440.6z"/>
			<path id="XMLID_510_" fill="#CAE0FF" d="M390.7,441.7c-22.7,5.8-58.1,13.5-58.1,13.5c-18.2,3.3-35.2,7.1-49.1,8.8
				c-3.6-23.9-11-73.8-12.8-97.7c-1.8-23.9,4-43.8,21.4-53.9c5.2-2.4,11.2-4,18.2-4.8c34.6-3.9,54.9,19.8,66.3,68.9
				C382.8,403.4,387.6,426.4,390.7,441.7z"/>
			<g id="XMLID_122_">
				<path id="XMLID_513_" fill="#C0CFFF" d="M393.7,318.4c-1.2,0-2.2-0.8-2.4-2l-23-117.8c-0.6-3.4-3.8-5.7-7.2-5.3l-111.8,12.3
					c-1.3,0.1-2.6-0.8-2.7-2.2c-0.1-1.3,0.8-2.6,2.2-2.7l111.8-12.3c5.9-0.7,11.4,3.4,12.5,9.3l23,117.8c0.3,1.3-0.6,2.6-1.9,2.9
					C394,318.3,393.9,318.4,393.7,318.4z"/>
			</g>
		</g>
	</g>
</g>
<g id="FINGERPRINT_2">
	<g id="XMLID_30_">
		
			<ellipse id="XMLID_144_" transform="matrix(0.9855 -0.1696 0.1696 0.9855 -58.8379 59.9759)" fill="#FEC272" cx="321.7" cy="374.5" rx="41.8" ry="56.4"/>
	</g>
</g>
<g id="FINGERPRINT_1_1_">
	<g id="XMLID_498_">
		<g id="XMLID_147_">
			<path id="XMLID_65_" fill="#FFFFFF" d="M291.8,349c-0.2,0-0.4,0-0.6-0.1c-1.1-0.3-1.7-1.4-1.4-2.5c0.1-0.2,6.4-21.9,26.8-22.5
				c0.4,0,0.7,0,1.1,0c19.4,0,27.2,13.7,27.5,14.3c0.5,1,0.2,2.2-0.8,2.8c-1,0.5-2.2,0.2-2.8-0.8c-0.3-0.5-7.3-12.7-24.9-12.2
				c-17.5,0.4-22.9,19.3-23,19.5C293.5,348.4,292.7,349,291.8,349z"/>
		</g>
		<g id="XMLID_148_">
			<path id="XMLID_60_" fill="#FFFFFF" d="M301.6,410.4c-0.5,0-1.1-0.2-1.5-0.6c-0.3-0.3-6.8-7.3-11.1-23.9
				c-4.2-16.5-1.5-30.8-1.4-31.4c0.2-1.1,1.3-1.8,2.4-1.6c1.1,0.2,1.8,1.3,1.6,2.4c0,0.1-2.7,14,1.3,29.6c4,15.4,10,22,10.1,22.1
				c0.8,0.8,0.7,2.1-0.1,2.9C302.6,410.2,302.1,410.4,301.6,410.4z"/>
		</g>
		<g id="XMLID_149_">
			<path id="XMLID_37_" fill="#FFFFFF" d="M326.5,423.3C326.4,423.3,326.4,423.3,326.5,423.3c-1.2,0-2.1-1-2.1-2.1c0-1.1,1-2,2.1-2
				c0.7,0,17.4,0.2,23.8-15.9c10.1-25.4-2.3-51.7-2.4-52c-0.5-1-0.1-2.2,1-2.7c1-0.5,2.2-0.1,2.7,1c0.5,1.1,13.3,28.2,2.5,55.3
				C346.9,422.9,328,423.3,326.5,423.3z"/>
		</g>
		<g id="XMLID_150_">
			<path id="XMLID_35_" fill="#FFFFFF" d="M324.7,413c-6.1,0-10.9-2.3-11-2.3c-1-0.5-1.4-1.7-0.9-2.7c0.5-1,1.7-1.4,2.7-1
				c0.6,0.3,13.7,6.4,22.3-4.4c12.7-15.8,3.1-43.3,3-43.6c-0.4-1.1,0.2-2.2,1.2-2.6c1.1-0.4,2.2,0.2,2.6,1.2
				c0.4,1.2,10.5,29.9-3.6,47.5C336,411.3,329.9,413,324.7,413z"/>
		</g>
		<g id="XMLID_151_">
			<path id="XMLID_34_" fill="#FFFFFF" d="M298.2,366c-1.1,0-2-0.8-2-1.9c-0.1-1-1.6-24.8,16.1-29.8c18.1-5.1,27.6,12.5,27.7,12.7
				c0.5,1,0.1,2.2-0.9,2.8c-1,0.5-2.2,0.1-2.8-0.9l0,0c-0.3-0.6-8.1-14.9-23-10.7c-14.5,4.1-13.1,25.3-13.1,25.6
				c0.1,1.1-0.8,2.1-1.9,2.2C298.3,366,298.3,366,298.2,366z"/>
		</g>
		<g id="XMLID_152_">
			<path id="XMLID_33_" fill="#FFFFFF" d="M320.8,403.7c-14.4,0-20.7-16.1-22.1-25.2c-0.2-1.1,0.6-2.2,1.7-2.3
				c1.1-0.2,2.2,0.6,2.3,1.7c0.1,1,3.9,23.8,20.3,21.5c4.2-0.6,7.3-2.4,9.4-5.5c6.2-9.2,1.8-26.3,1.7-26.5c-0.3-1.1,0.4-2.2,1.5-2.5
				c1.1-0.3,2.2,0.4,2.5,1.5c0.2,0.8,4.9,19.1-2.3,29.8c-2.8,4.1-6.9,6.6-12.2,7.3C322.6,403.6,321.7,403.7,320.8,403.7z"/>
		</g>
		<g id="XMLID_154_">
			<path id="XMLID_32_" fill="#FFFFFF" d="M310.2,377.3c-0.8,0-1.6-0.5-1.9-1.2c-0.1-0.2-2.4-5.9-2.6-14.5
				c-0.1-6.3,1.8-11.6,5.4-14.7c2.8-2.4,6.3-3.4,10.1-2.8c9.8,1.5,13.9,13.3,14,13.8c0.4,1.1-0.2,2.2-1.3,2.6
				c-1.1,0.4-2.2-0.2-2.6-1.3c-0.1-0.2-3.4-9.9-10.8-11c-2.6-0.4-4.9,0.2-6.8,1.9c-2.7,2.3-4.1,6.4-4,11.5c0.2,7.9,2.3,12.9,2.3,13
				c0.4,1,0,2.2-1.1,2.7C310.7,377.3,310.4,377.3,310.2,377.3z"/>
		</g>
		<g id="XMLID_155_">
			<path id="XMLID_31_" fill="#FFFFFF" d="M321.9,392.7c-5.8,0-9.6-5.4-10.9-8.7c-0.4-1.1,0.1-2.2,1.2-2.6c1.1-0.4,2.2,0.1,2.6,1.2
				c0.1,0.3,3,7.4,8.6,5.9c1.4-0.4,2.3-1.2,3-2.5c2-4,0.8-10.8-0.7-14.5c-0.8-2.1-1.9-3.4-2.8-3.6c-0.9-0.2-1.8,0.6-1.9,0.6
				c-0.8,0.8-2.1,0.7-2.9-0.1c-0.8-0.8-0.7-2.1,0.1-2.9c0.2-0.2,2.5-2.3,5.5-1.6c2.4,0.5,4.3,2.5,5.8,6c1.7,4.2,3.3,12.4,0.6,17.9
				c-1.2,2.4-3.2,4-5.6,4.7C323.6,392.6,322.7,392.7,321.9,392.7z"/>
		</g>
	</g>
</g>
<g id="LIGHT_1_">
	<g id="XMLID_111_">
		<g id="XMLID_87_">
			<circle id="XMLID_89_" fill="#1C3177" cx="297.3" cy="215.2" r="10.9"/>
			<circle id="XMLID_88_" fill="#FEC272" cx="297.3" cy="214.4" r="6.1"/>
		</g>
	</g>
</g>
<g id="LIGHT">
	<g id="XMLID_141_">
		<path id="XMLID_25_" fill="#1C3177" d="M303.7,268.6c-2.2,0-4.2-0.6-6-1.9c-4.4-3.1-5.3-9.1-5.3-9.4c-0.2-1.4,0.8-2.7,2.2-2.9
			c1.4-0.2,2.7,0.8,2.9,2.2l0,0c0,0,0.6,4.1,3.2,5.9c1.2,0.9,2.7,1.1,4.6,0.8c1.7-0.3,2.9-1,3.6-2.2c1.3-2.1,0.8-5.4,0.6-6.4
			c-0.4-1.4,0.4-2.8,1.8-3.1c1.4-0.4,2.8,0.4,3.1,1.8c0.2,0.6,1.6,6.1-1.1,10.5c-1.5,2.3-3.9,3.9-6.9,4.5
			C305.4,268.5,304.5,268.6,303.7,268.6z"/>
	</g>
</g>
<g id="EYE">
	<g id="XMLID_23_">
		<g id="XMLID_139_">
			<path id="XMLID_27_" fill="#1C3177" d="M321.1,247.5c-1.1,0-2.1-0.7-2.5-1.8c-0.1-0.4-3-10.7,1.1-17c1.7-2.6,4.4-4.3,7.8-4.8
				c10.8-1.5,15.6,10.9,16.6,17.8c0.2,1.4-0.8,2.7-2.2,2.9c-1.4,0.2-2.7-0.8-2.9-2.2c0-0.1-2.3-14.6-10.8-13.4
				c-1.9,0.3-3.3,1.1-4.2,2.5c-2.4,3.7-1.1,10.5-0.5,12.8c0.4,1.4-0.4,2.8-1.7,3.2C321.6,247.4,321.4,247.5,321.1,247.5z"/>
		</g>
		<g id="XMLID_142_">
			<path id="XMLID_26_" fill="#1C3177" d="M261.4,255.3c-1.1,0-2.1-0.7-2.5-1.8c-0.1-0.4-3-10.7,1.1-17c1.7-2.6,4.4-4.3,7.8-4.8
				c3.1-0.4,6,0.3,8.5,2.2c6.3,4.9,7.7,15.9,7.7,16.4c0.2,1.4-0.8,2.7-2.2,2.8c-1.4,0.2-2.7-0.8-2.8-2.2c-0.3-2.6-1.9-10-5.8-12.9
				c-1.3-1-2.8-1.4-4.6-1.2c-1.9,0.3-3.3,1.1-4.2,2.5c-2.4,3.7-1.1,10.5-0.5,12.8c0.4,1.4-0.4,2.8-1.7,3.2
				C261.9,255.3,261.7,255.3,261.4,255.3z"/>
		</g>
	</g>
</g>
<g id="CHEEK">
	<g id="XMLID_502_">
		
			<ellipse id="XMLID_143_" transform="matrix(0.9897 -0.143 0.143 0.9897 -33.4589 51.001)" fill="#FF97C9" cx="338.1" cy="258.3" rx="11.5" ry="6"/>
		
			<ellipse id="XMLID_145_" transform="matrix(0.9759 -0.2182 0.2182 0.9759 -51.9986 64.765)" fill="#FF97C9" cx="267.2" cy="267.8" rx="11.5" ry="6"/>
	</g>
</g>
<g id="SPARKLING_1">
	<g id="XMLID_426_">
		<g id="XMLID_138_">
			<path id="XMLID_514_" fill="#FFFFFF" d="M375.9,270c-0.8,0.9-2.3,2-3.3,4.2c-0.8,1.5-1.2,3.9-1.8,5.4c-0.2,0.5-0.6,0.7-1.1,0.8
				c-0.4,0-0.8-0.1-1-0.4c-1-1.1-1.9-3-3.5-4.4c-1.6-1.5-3.6-2.1-4.6-2.8c-0.6-0.4-0.8-1.2-0.4-1.8c0.7-1,2.2-2.2,3.4-4.5
				c0.9-1.9,1.1-4.1,1.6-5.4c0.2-0.4,0.5-0.7,0.9-0.8c0.4-0.1,0.9,0,1.2,0.4c1,1.2,2,3.3,3.6,4.7c1.6,1.4,3.6,2.1,4.6,2.8
				C376.3,268.5,376.4,269.4,375.9,270z"/>
			<path id="XMLID_511_" fill="#FFFFFF" d="M369.7,280.3c-0.4,0-0.8-0.1-1-0.4c-1-1.1-1.9-3-3.5-4.4c-1.6-1.5-3.6-2.1-4.6-2.8
				c-0.6-0.4-0.8-1.2-0.4-1.8c0.7-1,2.2-2.2,3.4-4.5c0.9-1.9,1.1-4.1,1.6-5.4c0.2-0.4,0.5-0.7,0.9-0.8L369.7,280.3z"/>
		</g>
		<g id="XMLID_117_">
			<path id="XMLID_399_" fill="#FFFFFF" d="M252.3,227.1c-0.8,0.9-2.3,2-3.3,4.2c-0.8,1.5-1.2,3.9-1.8,5.4c-0.2,0.5-0.6,0.7-1.1,0.8
				c-0.4,0-0.8-0.1-1-0.4c-1-1.1-1.9-3-3.5-4.4c-1.6-1.5-3.6-2.1-4.6-2.8c-0.6-0.4-0.8-1.2-0.4-1.8c0.7-1,2.2-2.2,3.4-4.5
				c0.9-1.9,1.1-4.1,1.6-5.4c0.2-0.4,0.5-0.7,0.9-0.8c0.4-0.1,0.9,0,1.2,0.4c1,1.2,2,3.3,3.6,4.7c1.6,1.4,3.6,2.1,4.6,2.8
				C252.6,225.7,252.7,226.6,252.3,227.1z"/>
			<path id="XMLID_140_" fill="#FFFFFF" d="M246.1,237.5c-0.4,0-0.8-0.1-1-0.4c-1-1.1-1.9-3-3.5-4.4c-1.6-1.5-3.6-2.1-4.6-2.8
				c-0.6-0.4-0.8-1.2-0.4-1.8c0.7-1,2.2-2.2,3.4-4.5c0.9-1.9,1.1-4.1,1.6-5.4c0.2-0.4,0.5-0.7,0.9-0.8L246.1,237.5z"/>
		</g>
	</g>
</g>
<g id="SPARKLING_2">
	<g id="XMLID_2_">
		<g id="XMLID_134_">
			<path id="XMLID_598_" fill="#FF97C9" d="M384.6,123.3c-0.6,0.5-1.5,1.4-2.5,2.7c-0.7,0.9-1.5,2.2-2.1,3.1
				c-0.2,0.3-0.4,0.4-0.7,0.4c-0.3,0-0.6-0.1-0.8-0.4c-0.5-0.8-1.3-2-2.1-3.2c-0.9-1.2-1.8-2.1-2.4-2.6c-0.4-0.3-0.4-0.9,0-1.2
				c0.6-0.6,1.5-1.6,2.6-3c0.9-1.1,1.5-2.2,2-3c0.2-0.3,0.5-0.5,0.8-0.4c0.3,0,0.6,0.2,0.7,0.4c0.5,1,1.3,2.2,2.2,3.4
				c0.9,1.2,1.8,2.1,2.4,2.6C385,122.4,384.9,123,384.6,123.3z"/>
			<path id="XMLID_593_" fill="#F47AB5" d="M379.2,115.6v13.9c-0.3,0-0.6-0.1-0.8-0.4c-0.5-0.8-1.3-2-2.1-3.2
				c-0.9-1.2-1.8-2.1-2.4-2.6c-0.4-0.3-0.4-0.9,0-1.2c0.6-0.6,1.5-1.6,2.6-3c0.9-1.1,1.5-2.2,2-3
				C378.6,115.7,378.9,115.5,379.2,115.6z"/>
		</g>
		<g id="XMLID_136_">
			<path id="XMLID_603_" fill="#FF97C9" d="M447.9,425.3c-0.6,0.5-1.5,1.4-2.5,2.7c-0.7,0.9-1.5,2.2-2.1,3.1
				c-0.2,0.3-0.5,0.4-0.8,0.4c-0.3,0-0.5-0.1-0.7-0.4c-0.5-0.8-1.3-2-2.1-3.2c-0.9-1.2-1.8-2.1-2.4-2.6c-0.4-0.3-0.4-0.9,0-1.2
				c0.6-0.6,1.5-1.6,2.6-3c0.9-1.1,1.5-2.2,2-3c0.2-0.3,0.4-0.4,0.7-0.4c0.3,0,0.6,0.1,0.8,0.4c0.5,1,1.3,2.2,2.2,3.4
				c0.9,1.2,1.8,2.1,2.4,2.6C448.3,424.3,448.3,424.9,447.9,425.3z"/>
			<path id="XMLID_599_" fill="#F47AB5" d="M442.5,417.5v13.9c-0.3,0-0.5-0.1-0.7-0.4c-0.5-0.8-1.3-2-2.1-3.2
				c-0.9-1.2-1.8-2.1-2.4-2.6c-0.4-0.3-0.4-0.9,0-1.2c0.6-0.6,1.5-1.6,2.6-3c0.9-1.1,1.5-2.2,2-3C442,417.7,442.2,417.5,442.5,417.5
				z"/>
		</g>
		<g id="XMLID_135_">
			<path id="XMLID_601_" fill="#FF97C9" d="M475.8,334.4c-1,0.9-2.6,2.4-4.2,4.6c-1.2,1.6-2.6,3.7-3.5,5.3c-0.3,0.5-0.8,0.7-1.3,0.7
				c-0.5,0-0.9-0.3-1.2-0.7c-0.9-1.4-2.1-3.4-3.6-5.4c-1.5-2-3-3.5-4.1-4.4c-0.6-0.6-0.6-1.5-0.1-2.1c1-1,2.5-2.7,4.3-5.1
				c1.5-1.9,2.6-3.8,3.4-5.1c0.3-0.5,0.8-0.7,1.3-0.7c0.5,0,1,0.3,1.3,0.8c0.9,1.6,2.2,3.8,3.7,5.7c1.6,2,3.1,3.5,4.1,4.4
				C476.5,332.8,476.5,333.8,475.8,334.4z"/>
			<path id="XMLID_597_" fill="#F47AB5" d="M466.8,321.3v23.6c-0.5,0-0.9-0.3-1.2-0.7c-0.9-1.4-2.1-3.4-3.6-5.4
				c-1.5-2-3-3.5-4.1-4.4c-0.6-0.6-0.6-1.5-0.1-2.1c1-1,2.5-2.7,4.3-5.1c1.5-1.9,2.6-3.8,3.4-5.1
				C465.8,321.5,466.3,321.3,466.8,321.3z"/>
		</g>
	</g>
</g>
<g id="SPARKLING_3">
	<g id="XMLID_505_">
		<g id="XMLID_133_">
			<path id="XMLID_594_" fill="#FF97C9" d="M255.8,144.1c-0.7,0.6-1.8,1.7-3,3.2c-0.8,1.1-1.8,2.6-2.5,3.7c-0.2,0.4-0.6,0.5-1,0.5
				c-0.3,0-0.5-0.2-0.7-0.5c-0.6-1-1.5-2.4-2.5-3.8c-1-1.4-2.1-2.4-2.8-3.1c-0.4-0.4-0.5-1.1,0-1.5c0.7-0.7,1.8-1.9,3-3.6
				c1-1.3,1.8-2.6,2.3-3.6c0.2-0.3,0.5-0.5,0.8-0.5c0.4,0,0.8,0.1,1,0.5c0.6,1.1,1.5,2.6,2.6,4c1.1,1.4,2.2,2.4,2.9,3.1
				C256.3,143,256.3,143.7,255.8,144.1z"/>
			<path id="XMLID_585_" fill="#F47AB5" d="M249.3,135v16.4c-0.3,0-0.5-0.2-0.7-0.5c-0.6-1-1.5-2.4-2.5-3.8c-1-1.4-2.1-2.4-2.8-3.1
				c-0.4-0.4-0.5-1.1,0-1.5c0.7-0.7,1.8-1.9,3-3.6c1-1.3,1.8-2.6,2.3-3.6C248.8,135.2,249,135,249.3,135z"/>
		</g>
		<g id="XMLID_124_">
			<path id="XMLID_591_" fill="#FF97C9" d="M149.7,295.3c-1.5,1.3-3.8,3.4-6.2,6.7c-1.7,2.3-3.8,5.4-5.2,7.7c-0.5,0.8-1.3,1.1-2.1,1
				c-0.6-0.1-1.2-0.4-1.5-1c-1.3-2.1-3.1-5-5.3-7.9c-2.1-2.9-4.4-5.1-5.9-6.5c-0.9-0.8-0.9-2.2-0.1-3.1c1.4-1.5,3.7-4,6.3-7.5
				c2.1-2.8,3.8-5.5,4.9-7.5c0.4-0.6,1-1,1.6-1.1c0.8-0.1,1.6,0.3,2.1,1.1c1.3,2.4,3.2,5.5,5.4,8.3c2.3,2.9,4.5,5.1,6,6.5
				C150.7,293,150.6,294.5,149.7,295.3z"/>
			<path id="XMLID_565_" fill="#F47AB5" d="M136.2,276.2v34.4c-0.6-0.1-1.2-0.4-1.5-1c-1.3-2.1-3.1-5-5.3-7.9
				c-2.1-2.9-4.4-5.1-5.9-6.5c-0.9-0.8-0.9-2.2-0.1-3.1c1.4-1.5,3.7-4,6.3-7.5c2.1-2.8,3.8-5.5,4.9-7.5
				C134.9,276.6,135.5,276.3,136.2,276.2z"/>
		</g>
		<g id="XMLID_137_">
			<path id="XMLID_602_" fill="#FF97C9" d="M199.3,431.1c-0.5,0.5-1.3,1.2-2.2,2.3c-0.6,0.8-1.3,1.9-1.8,2.7
				c-0.2,0.3-0.4,0.4-0.7,0.3c-0.2,0-0.4-0.1-0.6-0.3c-0.5-0.7-1.1-1.8-1.9-2.8c-0.8-1-1.6-1.8-2.1-2.3c-0.3-0.3-0.3-0.8,0-1.1
				c0.5-0.5,1.3-1.4,2.2-2.6c0.7-1,1.3-1.9,1.7-2.6c0.1-0.2,0.4-0.4,0.6-0.4c0.3,0,0.6,0.1,0.7,0.4c0.5,0.8,1.1,2,1.9,2.9
				c0.8,1,1.6,1.8,2.1,2.3C199.6,430.3,199.6,430.8,199.3,431.1z"/>
			<path id="XMLID_600_" fill="#F47AB5" d="M194.6,424.4v12.1c-0.2,0-0.4-0.1-0.6-0.3c-0.5-0.7-1.1-1.8-1.9-2.8
				c-0.8-1-1.6-1.8-2.1-2.3c-0.3-0.3-0.3-0.8,0-1.1c0.5-0.5,1.3-1.4,2.2-2.6c0.7-1,1.3-1.9,1.7-2.6
				C194.1,424.6,194.3,424.4,194.6,424.4z"/>
		</g>
	</g>
</g>
<g id="ORNAMENT_3">
	<g id="XMLID_123_">
		<circle id="XMLID_105_" fill="#E1EAF6" cx="421.1" cy="337.9" r="5.3"/>
		<circle id="XMLID_107_" fill="#E1EAF6" cx="426.9" cy="256" r="7.1"/>
		<circle id="XMLID_108_" fill="#E1EAF6" cx="444.3" cy="231.9" r="3.4"/>
		<circle id="XMLID_109_" fill="#E1EAF6" cx="399" cy="188.5" r="6.8"/>
		<circle id="XMLID_110_" fill="#E1EAF6" cx="318.2" cy="150" r="3.6"/>
		<circle id="XMLID_114_" fill="#E1EAF6" cx="199.9" cy="191.4" r="7.5"/>
		<circle id="XMLID_118_" fill="#E1EAF6" cx="181.7" cy="215.3" r="4.2"/>
		<circle id="XMLID_120_" fill="#E1EAF6" cx="174.9" cy="284.7" r="3.3"/>
		<circle id="XMLID_121_" fill="#E1EAF6" cx="188" cy="307.3" r="5.9"/>
		<circle id="XMLID_478_" fill="#E1EAF6" cx="159.8" cy="381.2" r="8.6"/>
		<circle id="XMLID_20_" fill="#E1EAF6" cx="461" cy="415.9" r="2.8"/>
		<circle id="XMLID_11_" fill="#E1EAF6" cx="192.5" cy="455.3" r="3"/>
	</g>
</g>
<g id="ORNAMENT_2">
	<g id="XMLID_132_">
		<path id="XMLID_127_" fill="#FEC272" d="M219.8,154.6c5.5,5.6,9.1,9.9,7.6,11.4c-1.3,1.2-7.9-3.5-11.6-6.6
			c-3.7-3.1-8.7-7.8-7.1-10.6S215.7,150.3,219.8,154.6z"/>
		<path id="XMLID_128_" fill="#FEC272" d="M161.8,244.9c8.7,4.8,25.5,14.6,24.2,16.9c-1.1,1.9-21.8-7.3-27.4-9.7
			s-13.3-6.4-12.4-10.3C147.1,237.9,155.2,241.2,161.8,244.9z"/>
		<path id="XMLID_129_" fill="#FEC272" d="M148.1,347.5c9.9,0.4,29.5,0.7,29.4,3.3c-0.1,2.2-22.9,4.2-29,4.5
			c-6.1,0.3-14.7,0.3-15.7-3.6C131.8,347.9,140.6,347.2,148.1,347.5z"/>
		<path id="XMLID_130_" fill="#FEC272" d="M170.2,418.4c7.2-6.9,18.2-16,20.1-14.1c1.5,1.6-10.2,14.5-14.1,19.2
			c-4,4.7-9.9,10.9-13.4,8.9C159.2,430.4,164.7,423.6,170.2,418.4z"/>
	</g>
</g>
<g id="ORNAMENT_1">
	<g id="XMLID_1_">
		<path id="XMLID_106_" fill="#FEC272" d="M430.6,215.4c-7.8,5.8-23.6,18.1-25.2,16c-1.3-1.8,15.6-17.6,20-21.7
			c4.5-4.1,11.1-9.4,14.2-7C442.8,205,436.5,211,430.6,215.4z"/>
		<path id="XMLID_126_" fill="#FEC272" d="M353.6,143.3c-2.6,6.5-4.7,11-6.5,10.3c-1.5-0.6,0-7.7,1.2-11.9c1.2-4.2,3.2-9.9,6.1-9.7
			C357.1,132.3,355.5,138.3,353.6,143.3z"/>
		<path id="XMLID_125_" fill="#FEC272" d="M453.1,303.6c-9.7,1-24.8,3.1-25.1,0.5c-0.2-2.2,17.6-6.8,23.5-8.1
			c5.9-1.2,14.3-2.5,15.8,1.2C468.9,300.8,460.5,302.8,453.1,303.6z"/>
		<path id="XMLID_131_" fill="#FEC272" d="M455.4,393c-8.8-4.3-21.1-11-20-13.4c1-2,17,4.1,22.7,6.2c5.6,2.1,13.4,5.5,12.8,9.4
			C470.2,399.1,462.1,396.3,455.4,393z"/>
	</g>
</g>
</svg>
