<?xml version="1.0" encoding="utf-8"?>
<!-- Generator: Adobe Illustrator 19.0.0, SVG Export Plug-In . SVG Version: 6.00 Build 0)  -->
<svg version="1.1" xmlns="http://www.w3.org/2000/svg" xmlns:xlink="http://www.w3.org/1999/xlink" x="0px" y="0px"
	 viewBox="0 0 600 600" enable-background="new 0 0 600 600" xml:space="preserve">
<g id="FLOOR">
	
		<ellipse id="XMLID_71_" transform="matrix(0.9995 -3.229038e-002 3.229038e-002 0.9995 -14.6661 6.9496)" fill="#E1ECFF" cx="207.8" cy="457.6" rx="99.1" ry="23"/>
</g>
<g id="MAIL_BOX">
	<g id="XMLID_586_">
		<path id="XMLID_61_" fill="#F396BF" d="M300.8,396.5l-11.3,5.4L203,443.2l-81.5-14.8c0,0-12.4-43.9-18.3-108
			c-4.6-50.3,10.1-64.6,26.1-72.8c16-8.2,45.7-20.8,66.8-24.5c1.8-0.3,3.7-0.5,5.6-0.6h0.1c21-0.8,50.2,13.4,71.9,71.5
			C297.5,357.5,300.8,396.5,300.8,396.5z"/>
		<path id="XMLID_27_" fill="#F9AAD0" d="M203,443.2l5.4,28.4l9.7-4.6c2.6-1.4,4-4.3,3.5-7.2l-4.1-23.6L203,443.2z"/>
		<path id="XMLID_28_" fill="#F47AB5" d="M187.8,440.5l3.8,23.4c0.3,2,1.8,3.6,3.7,4.1l13.2,3.7l-5.4-28.4L187.8,440.5z"/>
		<path id="XMLID_29_" fill="#EA62A3" d="M292.3,423.7l-8.8-1.3c-1.9-0.3-3.5-1.8-3.7-3.8l-1.5-11.3l11.3-5.4L292.3,423.7z"/>
		<path id="XMLID_30_" fill="#F47AB5" d="M121.5,428.4l7.6,28.7c0.6,2.3,2.4,4.2,4.7,4.9l11.3,3.6l-7.6-34.3L121.5,428.4z"/>
		<path id="XMLID_31_" fill="#EA62A3" d="M150.3,433.6l4.8,22.1c0.4,1.9-0.4,4-2.1,5l-7.9,4.9l-7.6-34.3L150.3,433.6z"/>
		<path id="XMLID_33_" fill="#F47AB5" d="M203,443.2c0,0-15.2-82-32.4-132.9s-51.1-64.2-61.3-43.7c-9.7,19.5-8.7,53.1-1,96
			s13.2,65.8,13.2,65.8L203,443.2z"/>
		<path id="XMLID_34_" fill="#EA62A3" d="M187.8,440.5c0,0-14.2-74.7-26.2-115c-11.2-37.5-22.3-54.7-35.6-53.9s-13.2,30.4-6.9,68.3
			c6.3,37.9,18.4,91.4,18.4,91.4L187.8,440.5z"/>
		<path id="XMLID_59_" fill="#F9AAD0" d="M300.8,396.5l-11.3,5.4c0,0-5.8-55.5-29.5-116.8c-22.6-58.4-55.2-62.3-58.2-62.6
			c21-0.8,50.2,13.4,71.9,71.5C297.5,357.5,300.8,396.5,300.8,396.5z"/>
		<path id="XMLID_25_" fill="#F9AAD0" d="M289.5,401.9l2.8,21.8l8.1-4.4c2-1.1,3.1-3.2,2.8-5.4l-2.4-17.4L289.5,401.9z"/>
		<path id="XMLID_26_" fill="#F9AAD0" d="M129.3,247.6c0,0,27.5,0,46.4,38.2c20.6,41.7,41.8,150.5,41.8,150.5l-14.5,6.9
			c0,0-12.7-59.9-22.8-101c-10.2-41.1-20.7-60.4-32.4-72c-11.7-11.7-18-11.9-24.1-12.8c-6-1-11.5,4.9-11.5,4.9
			S117.1,253.7,129.3,247.6z"/>
		<polygon id="XMLID_38_" fill="#F9AAD0" points="190.6,325.8 263.2,293.7 264.2,296.5 191.6,329.1 		"/>
		<path id="XMLID_60_" fill="#192859" d="M206.9,330.6c-2,0.9-3,3.2-2.3,5.2c1.5,4.6,4.1,13,6.6,22.4c2.2,8.3,4,15,5.1,19.2
			c0.7,2.6,3.6,4,6,2.8c5.3-2.5,14.6-7,26.2-13.2c12.5-6.7,19-10.4,22.2-12.3c1.6-0.9,2.4-2.7,2-4.5c-1-5.3-3.2-16.6-5.6-24.1
			c-1.9-5.9-3.8-11.8-5.1-15.7c-0.8-2.5-3.6-3.6-5.9-2.6L206.9,330.6z"/>
		<path id="XMLID_58_" fill="#F396BF" d="M206.7,330.3c-2.1,1-2.8,3.5-1.5,5.4c2.8,4,7.7,10.8,12.9,16.6c3.4,3.8,6.5,7,8.9,9.3
			c3,2.9,7.5,3.5,11.2,1.5l37.7-20.3c3.9-2.1,4.5-6.9,2.1-10.5c-4.9-7.4-15.3-22.1-16.5-23.8c-1.1-1.5-3-2.1-4.6-1.4L206.7,330.3z"
			/>
		<path id="XMLID_490_" fill="#F9AAD0" d="M207.7,328.4c-2.1,1-2.8,3.5-1.5,5.4c2.8,4,7.7,10.8,12.9,16.6c3.4,3.8,6.5,7,8.9,9.3
			c3,2.9,7.5,3.5,11.2,1.5l37.7-20.3c3.9-2.1,4.5-6.9,2.1-10.5c-4.9-7.4-15.3-22.1-16.5-23.8c-1.1-1.5-3-2.1-4.6-1.4L207.7,328.4z"
			/>
		<g id="XMLID_489_">
			<path id="XMLID_584_" fill="#FFC7E2" d="M297,393.4c-1,0-1.8-0.7-2-1.6c-0.1-0.6-12.6-60-28.1-100.1
				c-14-36.2-31.2-50.4-31.3-50.5c-0.9-0.7-1-2-0.3-2.9c0.7-0.9,2-1,2.9-0.3c0.7,0.6,18.2,14.9,32.6,52.2
				c15.6,40.4,28.2,100.2,28.3,100.8c0.2,1.1-0.5,2.2-1.6,2.4C297.3,393.4,297.1,393.4,297,393.4z"/>
		</g>
		<g id="XMLID_520_">
			<path id="XMLID_582_" fill="#FFC7E2" d="M206.2,436.9c-0.9,0-1.8-0.7-2-1.6c-0.2-1-22-100.6-35.2-135.7
				c-16.4-43.7-42.7-44.2-42.9-44.2c-1.1,0-2.1-0.9-2.1-2c0-1.1,0.9-2.1,2-2.1c1.2,0,29.3,0.3,46.8,46.9
				c13.3,35.3,35.1,135.2,35.4,136.2c0.2,1.1-0.5,2.2-1.6,2.4C206.5,436.9,206.4,436.9,206.2,436.9z"/>
		</g>
		<g id="XMLID_519_">
			<path id="XMLID_554_" fill="#FFC7E2" d="M141.2,248.7c-0.8,0-1.5-0.4-1.9-1.2c-0.5-1,0-2.3,1-2.7c0.2-0.1,22.4-10.4,38.8-15.7
				c16.5-5.3,23.5-5.9,23.8-5.9c1.1-0.1,2.1,0.8,2.2,1.9c0.1,1.1-0.8,2.1-1.9,2.2c-0.1,0-6.9,0.6-22.8,5.7
				c-16.1,5.2-38.1,15.4-38.3,15.5C141.7,248.7,141.5,248.7,141.2,248.7z"/>
		</g>
		<g id="XMLID_553_">
			<path id="XMLID_551_" fill="#FFC7E2" d="M236.4,360.5c-0.7,0-1.5-0.4-1.8-1.1c-0.5-1-0.1-2.2,0.9-2.8l37.4-19.5
				c0.9-0.5,1.5-1.3,1.8-2.3c0.2-1,0-2-0.5-2.8l-16.4-23.2c-0.7-0.9-0.4-2.2,0.5-2.9c0.9-0.7,2.2-0.4,2.9,0.5l16.4,23.2
				c1.3,1.8,1.7,4,1.2,6.1c-0.5,2.1-1.9,3.9-3.9,4.9l-37.4,19.5C237,360.5,236.7,360.5,236.4,360.5z"/>
		</g>
	</g>
</g>
<g id="MOUTH">
	<g id="XMLID_35_">
		<g id="XMLID_105_">
			<path id="XMLID_106_" fill="#1C3177" d="M222.1,292.3c-3.7,0.1-6.3-2.9-7.2-4.9c-0.4-0.9,0-2,0.9-2.5c0.9-0.4,2,0,2.4,0.9
				c0.3,0.7,2.1,3.9,5.4,2.4c0.7-0.3,1.1-0.7,1.3-1.3c0.5-1.2-0.1-3-0.4-3.6c-0.4-0.9,0-2,0.9-2.5c0.9-0.4,2-0.1,2.5,0.9
				c0.2,0.3,1.6,3.5,0.6,6.4c-0.5,1.5-1.7,2.7-3.3,3.4C224,292,223,292.2,222.1,292.3z"/>
		</g>
	</g>
</g>
<g id="CHEEK">
	<g id="XMLID_158_">
		
			<ellipse id="XMLID_37_" transform="matrix(0.9291 -0.37 0.37 0.9291 -86.367 109.1875)" fill="#EA62A3" cx="241.5" cy="279.8" rx="8.6" ry="3.6"/>
		
			<ellipse id="XMLID_57_" transform="matrix(0.9291 -0.37 0.37 0.9291 -95.2462 96.2598)" fill="#EA62A3" cx="203.3" cy="296.5" rx="8.6" ry="3.6"/>
	</g>
</g>
<g id="EYE">
	<g id="XMLID_550_">
		
			<ellipse id="XMLID_32_" transform="matrix(0.9254 -0.379 0.379 0.9254 -90.1428 96.455)" fill="#1C3177" cx="200" cy="277.2" rx="5.7" ry="9.5"/>
		
			<ellipse id="XMLID_36_" transform="matrix(0.9254 -0.379 0.379 0.9254 -83.5673 106.2754)" fill="#1C3177" cx="228.2" cy="265.4" rx="5.3" ry="8.7"/>
	</g>
</g>
<g id="ORNAMENT_2">
	<g id="XMLID_1_">
		<circle id="XMLID_355_" fill="#E1EAF6" cx="312.8" cy="177.2" r="5.8"/>
		<circle id="XMLID_596_" fill="#E1EAF6" cx="409.7" cy="340.9" r="5.8"/>
		<circle id="XMLID_604_" fill="#E1EAF6" cx="491.2" cy="292" r="3.8"/>
		<circle id="XMLID_361_" fill="#E1EAF6" cx="428.9" cy="171.1" r="8.6"/>
		<circle id="XMLID_365_" fill="#E1EAF6" cx="288.6" cy="293.2" r="4.3"/>
		<circle id="XMLID_592_" fill="#E1EAF6" cx="315.5" cy="314.9" r="2.6"/>
	</g>
</g>
<g id="ORNAMENT_1">
	<g id="XMLID_590_">
		<path id="XMLID_64_" fill="#E1EAF6" d="M372.5,179.9c-0.7,0.8,0.4,1.9,1.2,1.2c6.7-5.4,16.6-13.5,20.1-17.2
			c5.1-5.4,1.1-10.2-7-0.7C383.4,167.3,377.1,174.6,372.5,179.9z"/>
		<path id="XMLID_65_" fill="#E1EAF6" d="M314.5,298.8c-0.9,0.5-0.4,1.9,0.6,1.6c8.3-2.2,20.6-5.6,25.3-7.6c6.9-2.9,5.1-8.9-6.1-3.5
			C329.6,291.7,320.9,295.8,314.5,298.8z"/>
		<path id="XMLID_66_" fill="#E1EAF6" d="M316.5,351.6c-1.8,0-2.1,2.6-0.3,3c14.9,3,40.7,8.6,49.7,9.4c10.9,0.9,13.3-9-9.3-10.3
			C347.4,353.1,329,351.7,316.5,351.6z"/>
		<path id="XMLID_67_" fill="#E1EAF6" d="M432.7,314.7c-1.5,0.3-1.3,2.4,0.1,2.3c12.3-0.4,33.7-0.8,41-1.8c8.8-1.3,9.5-9.3-8.8-6.2
			C457.5,310.3,442.6,312.5,432.7,314.7z"/>
		<path id="XMLID_63_" fill="#E1EAF6" d="M278.2,244.4c-0.8,1.1,0.7,2.4,1.7,1.4c8.1-7.8,20-19.5,24.1-24.7c6-7.7,3-16.7-6.3-3.4
			C293.8,223.4,283.5,236.9,278.2,244.4z"/>
	</g>
</g>
<g id="MAIL_4">
	<g id="XMLID_97_">
		<g id="XMLID_70_">
			<path id="XMLID_89_" fill="#FBB76C" d="M412.8,295.4c-1.9,7-19.6,29.9-23.3,33.6c-0.2,0.2-0.3,0.3-0.4,0.4
				c-3,2.4-53.6,2.5-61.1,2.8c-3.7,0.1-6.7,0.2-8.5-0.1c-1.7-0.3-2.1-1.1-0.4-2.8c3-3.1,20.4-17.1,23.4-19.6
				c0.3-0.2,0.5-0.4,0.5-0.4s2.7-2,6.3-3.1s58.2-13.7,63.1-12.8C413,293.6,413.2,294.3,412.8,295.4z"/>
			<path id="XMLID_86_" fill="#FEC272" d="M412.8,295.4c-11.9,5.7-46.2,21.9-53,22.4c-3.7,0.3-12.6-5.2-17.2-8.1
				c0.3-0.2,0.5-0.4,0.5-0.4s2.7-2,6.3-3.1s58.2-13.7,63.1-12.8C413,293.6,413.2,294.3,412.8,295.4z"/>
			<path id="XMLID_88_" fill="#FEC272" d="M389.5,329c-0.2,0.2-0.3,0.3-0.4,0.4c-3,2.4-53.6,2.5-61.1,2.8c-3.7,0.1-6.7,0.2-8.5-0.1
				c9.5-5.8,35.9-21.5,43.4-22C369.7,309.7,382.4,321.6,389.5,329z"/>
		</g>
		<g id="XMLID_609_">
			<path id="XMLID_100_" fill="#FFD7A6" d="M359.8,316.7c-1.6,0-3.3-0.4-4.7-1.2l-9.3-5.3c-0.5-0.3-0.6-0.9-0.4-1.4
				c0.3-0.5,0.9-0.6,1.4-0.4l9.3,5.3c2,1.2,4.5,1.3,6.7,0.4l46-19.5c0.5-0.2,1.1,0,1.3,0.5c0.2,0.5,0,1.1-0.5,1.3l-46,19.5
				C362.3,316.4,361,316.7,359.8,316.7z"/>
		</g>
		<g id="XMLID_622_">
			<path id="XMLID_99_" fill="#FFD7A6" d="M323.8,331.3c-0.4,0-0.7-0.2-0.9-0.5c-0.3-0.5-0.1-1.1,0.4-1.4l26.7-14.5
				c0.5-0.3,1.1-0.1,1.4,0.4s0.1,1.1-0.4,1.4l-26.7,14.5C324.1,331.3,324,331.3,323.8,331.3z"/>
		</g>
		<g id="XMLID_623_">
			<path id="XMLID_98_" fill="#FFD7A6" d="M386.3,328.2c-0.2,0-0.5-0.1-0.6-0.2l-15.2-12.6c-0.4-0.4-0.5-1-0.1-1.4
				c0.3-0.4,1-0.5,1.4-0.1l15.2,12.6c0.4,0.4,0.5,1,0.1,1.4C386.8,328.1,386.6,328.2,386.3,328.2z"/>
		</g>
	</g>
</g>
<g id="MAIL_3">
	<g id="XMLID_21_">
		<g id="XMLID_360_">
			<g id="XMLID_69_">
				<path id="XMLID_85_" fill="#7097ED" d="M492.2,259.2c-0.8,2.3-2,3.9-3.8,4.8c-4.8,2.5-37.3,15.2-47.6,18.1
					c-10.4,2.9-13.5,3.3-14.4,0.6c-0.1-0.3-0.3-0.9-0.4-1.7c-1-5.6-2.7-21.3-2.9-27.9c0-2-0.1-3.7-0.1-5.2c0-4,0.7-6.3,3.9-8.3
					c4.4-2.7,51.1-35.4,56.5-36.3c2.4-0.4,4.3,2.3,5.7,6.5c2.6,8.1,3.6,21.9,4.1,30.9C493.7,249.4,493.6,255.4,492.2,259.2z"/>
				<path id="XMLID_84_" fill="#99ADF9" d="M492.2,259.2c-0.8,2.3-2,3.9-3.8,4.8c-4.8,2.5-37.3,15.2-47.6,18.1
					c-10.4,2.9-13.5,3.3-14.4,0.6c-0.1-0.3-0.3-0.9-0.4-1.7c5.8-12.3,16.4-34.5,19.6-38.5c4.4-5.6,8.3-6.7,15.6-2.5
					C466.1,242.9,482.3,253,492.2,259.2z"/>
				<path id="XMLID_82_" fill="#99ADF9" d="M489.1,209.9c-7.4,10-20.6,27.8-25.1,32.6c-6.3,6.9-9.2,11.9-18.6,10.2
					c-6.1-1.1-16.1-3.3-22.4-4.8c0-4,0.7-6.3,3.9-8.3c4.4-2.7,51.1-35.4,56.5-36.3C485.8,203,487.7,205.7,489.1,209.9z"/>
			</g>
		</g>
		<g id="XMLID_610_">
			<path id="XMLID_2_" fill="#B9C8F9" d="M446.1,251c-1.2,0-2.5-0.1-3.8-0.4l-17.1-3.3c-0.5-0.1-0.9-0.6-0.8-1.2
				c0.1-0.5,0.6-0.9,1.2-0.8l17.1,3.3c6.5,1.3,13.1-1.2,17.2-6.5l25-32.1c0.3-0.4,1-0.5,1.4-0.2c0.4,0.3,0.5,1,0.2,1.4l-25,32.1
				C457.8,248.2,452.1,251,446.1,251z"/>
		</g>
		<g id="XMLID_615_">
			<path id="XMLID_12_" fill="#B9C8F9" d="M488.3,260.3c-0.2,0-0.3,0-0.5-0.1l-24.5-14.6c-0.5-0.3-0.6-0.9-0.3-1.4
				c0.3-0.5,0.9-0.6,1.4-0.3l24.5,14.6c0.5,0.3,0.6,0.9,0.3,1.4C488.9,260.2,488.6,260.3,488.3,260.3z"/>
		</g>
		<g id="XMLID_616_">
			<path id="XMLID_3_" fill="#B9C8F9" d="M428.8,280.4c-0.2,0-0.3,0-0.4-0.1c-0.5-0.2-0.7-0.8-0.4-1.3l12.8-25.5
				c0.2-0.5,0.9-0.7,1.3-0.4c0.5,0.2,0.7,0.8,0.4,1.3l-12.8,25.5C429.6,280.2,429.2,280.4,428.8,280.4z"/>
		</g>
	</g>
</g>
<g id="MAI_2">
	<g id="XMLID_24_">
		<g id="XMLID_68_">
			<path id="XMLID_80_" fill="#FBB76C" d="M422.2,216c-8,13.2-35.1,50.1-42.4,58.5c-0.2,0.3-0.4,0.5-0.6,0.7
				c-4.2,4.6-9.8,4-26.4,2.3c-16.1-1.7-27-1-23.1-8.4c0.1-0.2,0.3-0.5,0.4-0.7c0,0,31.2-47.6,36-53.1c1.6-1.8,3.6-4.7,5.6-6.6
				c0.5-0.4,0.9-0.8,1.4-1.1c3.4-2.2,10-1.7,17.3-1.2c13.7,1.1,29.6,1.3,32.3,6.2C423.1,213.5,423,214.6,422.2,216z"/>
			<path id="XMLID_78_" fill="#FEC272" d="M394,238.6l-13.1,17.4L329.7,269c0.1-0.2,0.3-0.5,0.4-0.7c0,0,31.2-47.6,36-53.1
				c1.6-1.8,3.6-4.7,5.6-6.6L394,238.6z"/>
			<path id="XMLID_81_" fill="#FEC272" d="M422.2,216c-8,13.2-35.1,50.1-42.4,58.5l-4.2-17l-3-12.1c-1-4.1,1-8.3,4.7-10.2l10.3-5.1
				l35-17.4C423.1,213.5,423,214.6,422.2,216z"/>
		</g>
		<g id="XMLID_605_">
			<path id="XMLID_94_" fill="#FFD7A6" d="M380.6,271.5c-0.6,0-1.2-0.4-1.3-1l-5.9-24c-1.2-4.6,1-9.4,5.2-11.6l40.7-20.4
				c0.7-0.3,1.5-0.1,1.8,0.6c0.3,0.7,0.1,1.5-0.6,1.8l-40.7,20.4c-3.1,1.6-4.7,5.1-3.8,8.5l5.9,24.1c0.2,0.7-0.3,1.5-1,1.6
				C380.8,271.4,380.7,271.5,380.6,271.5z"/>
		</g>
		<g id="XMLID_618_">
			<path id="XMLID_73_" fill="#FFD7A6" d="M335.3,266.7c-0.6,0-1.2-0.4-1.3-1c-0.2-0.7,0.3-1.5,1-1.6l37.1-9.5
				c0.7-0.2,1.5,0.3,1.6,1s-0.3,1.5-1,1.6l-37.1,9.5C335.5,266.7,335.4,266.7,335.3,266.7z"/>
		</g>
		<g id="XMLID_619_">
			<path id="XMLID_72_" fill="#FFD7A6" d="M384,230.6c-0.4,0-0.9-0.2-1.1-0.6l-12.2-17.7c-0.4-0.6-0.3-1.5,0.4-1.9
				c0.6-0.4,1.5-0.3,1.9,0.4l12.2,17.7c0.4,0.6,0.3,1.5-0.4,1.9C384.5,230.5,384.2,230.6,384,230.6z"/>
		</g>
	</g>
</g>
<g id="MAIL_1">
	<g id="XMLID_101_">
		<g id="XMLID_62_">
			<path id="XMLID_77_" fill="#7097ED" d="M359.1,228c-7.9,21.2-14.7,35.2-19.9,36.9c-0.5,0.2-1.4,0.4-2.6,0.7
				c-10.7,2.8-44.8,10.1-40.6-0.7c0,0,0-0.1,0-0.1c4.7-12.2,20.7-51.5,23.9-61.3c1.1-3.5,2.2-5.8,3.7-7.3c2.5-2.7,6.1-3.3,12.7-5.1
				c10.4-2.9,28.1-6.6,30.5-6.8c0.2,0,0.4,0,0.6,0C373.1,185.5,366.1,209.3,359.1,228z"/>
			<path id="XMLID_74_" fill="#99ADF9" d="M359.1,228c-7.9,21.2-14.7,35.2-19.9,36.9c-0.5,0.2-1.4,0.4-2.6,0.7
				c-4.1-10.1-9.5-23.8-11.4-32.7c-2.5-11.6,2.7-14.6,17.3-27.8c10.6-9.6,19.6-16.3,24.9-20.7C373.1,185.5,366.1,209.3,359.1,228z"
				/>
			<path id="XMLID_76_" fill="#99ADF9" d="M350.1,216.2l-7.8,21.3L296,264.8c4.7-12.2,20.7-51.5,23.9-61.3c1.1-3.5,2.2-5.8,3.7-7.3
				L350.1,216.2z"/>
		</g>
		<g id="XMLID_611_">
			<path id="XMLID_107_" fill="#B9C8F9" d="M338,262.6c-0.4,0-0.8-0.3-1-0.7l-8.7-23.2c-3.6-11.9-2.1-15.9,5.1-23.3l31.4-26.8
				c0.4-0.4,1.1-0.3,1.5,0.1c0.4,0.4,0.3,1.1-0.1,1.5L334.8,217c-6.3,6.5-8,9.6-4.5,21.1l8.7,23.2c0.2,0.5-0.1,1.1-0.6,1.3
				C338.2,262.6,338.1,262.6,338,262.6z"/>
		</g>
		<g id="XMLID_613_">
			<path id="XMLID_104_" fill="#B9C8F9" d="M300.5,260.5c-0.4,0-0.7-0.2-0.9-0.5c-0.3-0.5-0.1-1.1,0.4-1.4l25.5-14.9
				c0.5-0.3,1.1-0.1,1.4,0.4c0.3,0.5,0.1,1.1-0.4,1.4L301,260.4C300.8,260.5,300.6,260.5,300.5,260.5z"/>
		</g>
		<g id="XMLID_614_">
			<path id="XMLID_103_" fill="#B9C8F9" d="M336,209.6c-0.2,0-0.4-0.1-0.6-0.2l-11.9-9.1c-0.5-0.3-0.5-1-0.2-1.5
				c0.3-0.5,1-0.5,1.5-0.2l11.9,9.1c0.5,0.3,0.5,1,0.2,1.5C336.7,209.4,336.3,209.6,336,209.6z"/>
		</g>
	</g>
</g>
</svg>
