<?xml version="1.0" encoding="utf-8"?>
<!-- Generator: Adobe Illustrator 19.0.0, SVG Export Plug-In . SVG Version: 6.00 Build 0)  -->
<svg version="1.1" xmlns="http://www.w3.org/2000/svg" xmlns:xlink="http://www.w3.org/1999/xlink" x="0px" y="0px"
	 viewBox="0 0 600 600" enable-background="new 0 0 600 600" xml:space="preserve">
<g id="BACKGROUND">
	<path id="XMLID_194_" fill="#E1ECFF" d="M244.1,218.8c-15.9,62.4-80.1,65.2-90,127.2s31.4,108.2,152,95S449,330.4,451.4,264.2
		C455.5,152.7,285.4,56.9,244.1,218.8z"/>
</g>
<g id="FLOOR">
	<ellipse id="XMLID_224_" fill="#283575" cx="312.8" cy="504.3" rx="123.1" ry="14.4"/>
</g>
<g id="HAND">
	<g id="XMLID_167_">
		<path id="XMLID_13_" fill="#FFB255" d="M273.6,195.9c-5.3,3.5-7.6,9.2-11,23s-8.3,42.2-8.6,49.5s-1,12.8,8.9,17.2
			c9.9,4.4,28.1,7.6,34.6-3.6c6.5-11.2,13.5-54.4,12-67.2C307.9,202,287.1,187.1,273.6,195.9z"/>
		<g id="XMLID_161_">
			<rect id="XMLID_73_" x="259" y="386.2" fill="#FEC272" width="107.8" height="102.1"/>
			<rect id="XMLID_65_" x="259" y="432.6" fill="#FFB255" width="107.8" height="55.7"/>
		</g>
		<g id="XMLID_160_">
			<path id="XMLID_71_" fill="#FEC272" d="M381.7,395.4c-6.7,10.6-15,17.9-23.5,20.7c-13.6,4.5-90.5,6.5-107.3-7.1
				c-4.2-3.4-7.8-10.9-10.8-21c-12.8-41.7-16.8-125.7-16.8-125.7h174c0,0-0.9,37.6,0.2,66.6C398.4,356.2,391.7,379.5,381.7,395.4z"
				/>
			<path id="XMLID_67_" fill="#FFB255" d="M381.7,395.4c-6.7,10.6-15,17.9-23.5,20.7c-13.6,4.5-90.5,6.5-107.3-7.1
				c-4.2-3.4-7.8-10.9-10.8-21c15.9,8.9,37.2,15.8,65.4,16.7C344,405.7,367.6,400.9,381.7,395.4z"/>
		</g>
		<path id="XMLID_7_" fill="#FFB255" d="M251.3,277.2c-3.5,0-5.6,4-3.4,6.8c11.6,14.9,38.6,50.1,50.2,69.5
			c5.1,8.5,8.8,15.5,11.6,20.9c1.9,3.7,7.4,2.8,8-1.3c2-12.9,7-31.8,19.7-51.6c12.2-19,22.4-30.2,29.3-36.4c2.9-2.6,1-7.4-2.8-7.4
			L251.3,277.2z"/>
		<g id="XMLID_10_">
			<path id="XMLID_172_" fill="#FEC272" d="M273.1,271.9l-13.8,3.9l-23.5,6.7l-10.1,2.9c0,0-11.5-70.6-17.5-97.2s-14.6-64.9-8.6-74
				c0.4-0.6,0.8-1.2,1.3-1.7c2.8-3.1,7.3-5.5,12.3-6c7.4-0.8,15.8,2.6,20.8,13.7c8.9,19.8,19.7,80.5,23.5,97.2
				C261.2,234.1,273.1,271.9,273.1,271.9z"/>
			<path id="XMLID_17_" fill="#FFB255" d="M235.7,282.5l-10.1,2.9c0,0-11.5-70.6-17.5-97.2s-14.6-64.9-8.6-74
				c0.4-0.6,0.8-1.2,1.3-1.7c3.5,15.2,22.3,98.1,31.2,148.1C233.4,268.2,234.6,275.5,235.7,282.5z"/>
		</g>
		<g id="XMLID_12_">
			<path id="XMLID_21_" fill="#FEC272" d="M400.9,216.9c-1.6,19.3-3.6,59.1-3.6,59.1l-36.4,0.8l-13.6,0.3c0,0,12.5-27.4,18.8-69.6
				c6.3-42.2,6.3-55,11.3-57.8c0.5-0.3,1-0.5,1.6-0.7c5.6-2,15.7-0.8,18.7,12.9C400.9,176.9,402.4,197.6,400.9,216.9z"/>
			<path id="XMLID_19_" fill="#FFB255" d="M376.7,202.3c-4.1,27-10.7,54.7-15.8,74.5l-13.6,0.3c0,0,12.5-27.4,18.8-69.6
				c6.3-42.2,6.3-55,11.3-57.8c0.5-0.3,1-0.5,1.6-0.7C380.2,158.2,380.8,174.8,376.7,202.3z"/>
		</g>
		<g id="XMLID_6_">
			<path id="XMLID_25_" fill="#FEC272" d="M355.8,266.1c-4.7,21.9-10.7,34.9-18.2,40.9c-5.8,4.6-16,4.3-21.7,1.1
				c-1.8-1-3.1-2.2-3.8-3.7c-2.9-6.3-3.9-15.6-4.4-35.7c-0.5-20.1,0.5-37.3,3.1-48.2c0,0,4.7-14.4,13.7-15.8c0.2,0,0.4-0.1,0.6-0.1
				c9.4-0.8,25.3,5.5,29.2,12.2S360.5,244.2,355.8,266.1z"/>
			<path id="XMLID_22_" fill="#FFB255" d="M324.6,253.1c-1.7,24.1-5,45.6-8.7,55c-1.8-1-3.1-2.2-3.8-3.7c-2.9-6.3-3.9-15.6-4.4-35.7
				c-0.5-20.1,0.5-37.3,3.1-48.2c0,0,4.7-14.4,13.7-15.8C325.1,212.9,326.1,231.3,324.6,253.1z"/>
		</g>
		<g id="XMLID_162_">
			<path id="XMLID_143_" fill="#F46CB4" d="M377,450.3v46.9c0,4-3.3,7.3-7.3,7.3H256.1c-4,0-7.3-3.3-7.3-7.3v-46.9
				c0-4,3.3-7.3,7.3-7.3h113.6C373.8,443,377,446.2,377,450.3z"/>
			<path id="XMLID_141_" fill="#F396BF" d="M377,450.3v46.9c0,4-3.3,7.3-7.3,7.3h-54.7V443h54.7C373.8,443,377,446.2,377,450.3z"/>
			<circle id="XMLID_9_" fill="#F46CB4" cx="357.5" cy="474.4" r="13.9"/>
			<g id="XMLID_4_">
				<circle id="XMLID_11_" fill="#283575" cx="359" cy="474.1" r="12.3"/>
				<circle id="XMLID_131_" fill="#455388" cx="361.5" cy="470.4" r="5.9"/>
			</g>
		</g>
		<g id="XMLID_8_">
			<path id="XMLID_23_" fill="#FEC272" d="M315.8,255.2c-1.4,24.7-8.3,48.6-17.4,52.8c-6.8,3.2-16.7,2.1-23.5-3.3
				c-2.2-1.7-4-3.9-5.4-6.5c-5.6-10.8-1.7-48.1-2.1-66.2c-0.3-16-0.3-31.1,6.1-36.2c0.8-0.7,1.7-1.2,2.8-1.5
				c16.5-5,30.7,3.1,34.6,10.1C314.7,211.5,317.2,230.6,315.8,255.2z"/>
			<path id="XMLID_18_" fill="#FFB255" d="M278.2,236.1c0,25.7-1.1,53.9-3.2,68.6c-2.2-1.7-4-3.9-5.4-6.5
				c-5.6-10.8-1.7-48.1-2.1-66.2c-0.3-16-0.3-31.1,6.1-36.2C275.1,200.9,278.2,213.6,278.2,236.1z"/>
		</g>
		<path id="XMLID_59_" fill="#FEC272" d="M205.2,349c-2.9-17.2,4-38.4,17.2-52.3c13.2-13.9,26.1-14.8,30.7-11.8
			c4.7,3,9.2,26.1,0.5,49.1C244.9,357.2,210.4,379.9,205.2,349z"/>
		<g id="XMLID_130_">
			<path id="XMLID_70_" fill="#FEC272" d="M308.5,322.3c-0.6,3.5-2.9,6.3-6.3,8.2c-8.7,5-24.4,4.7-36.9-2
				c-13.7-7.3-19.4-14.2-22.2-24.6c-0.4-1.5-0.7-3.1-1-4.7c-2.9-16.5,4.5-18.6,21.9-12.5C281.3,292.8,310.7,309.8,308.5,322.3z"/>
			<path id="XMLID_68_" fill="#FFB255" d="M302.1,330.5c-8.7,5-24.4,4.7-36.9-2c-13.7-7.3-19.4-14.2-22.2-24.6
				c4.6,4.3,15.4,13.7,28.4,19.2C283.5,328.2,295.7,329.9,302.1,330.5z"/>
		</g>
		<g id="XMLID_159_">
			<path id="XMLID_72_" fill="#FEC272" d="M312.9,404.8c-1.6,5-4.7,8.6-9.3,9.9c-41.3,12.2-65.3-6.9-83.7-34.4
				c-4.3-6.4-7.6-12-9.9-16.9c-8.5-17.6-5.7-27.1,5.4-33.1c14.2-7.6,39.3-9.7,69.8,12.9C308.4,360.2,317.9,389.2,312.9,404.8z"/>
			<path id="XMLID_66_" fill="#FFB255" d="M312.9,404.8c-1.6,5-4.7,8.6-9.3,9.9c-41.3,12.2-65.3-6.9-83.7-34.4
				c-4.3-6.4-7.6-12-9.9-16.9c14.1,16.8,42.8,39.7,95.4,41.3C307.9,404.7,310.5,404.7,312.9,404.8z"/>
			<g id="XMLID_166_">
				<path id="XMLID_173_" fill="#FFD199" d="M311.1,394.6c-1.3,0-2.5-1-2.6-2.4c0-0.2-1.9-17.9-19-36.6
					c-20.2-22.1-38.3-23.2-38.5-23.2c-1.4-0.1-2.5-1.3-2.5-2.7c0.1-1.4,1.2-2.6,2.7-2.5c0.8,0,20.3,1,42.2,24.9
					c18.4,20.1,20.3,38.9,20.3,39.7c0.1,1.4-0.9,2.7-2.4,2.8C311.3,394.6,311.2,394.6,311.1,394.6z"/>
			</g>
			<g id="XMLID_192_">
				<path id="XMLID_193_" fill="#FFD199" d="M370.4,400.7c-0.8-1.1-0.7-2.6,0.3-3.5c0.1-0.1,12.3-11.5,17-36.4
					c5.6-29.4,0.3-43.8-0.2-46.1c-0.5-2.5,0.9-3.7,2.1-4.5c1.2-0.8,2.8-0.5,3.6,0.7c0.5,0.7,6.4,18.4,0.4,50.2
					c-5,26.7-18.9,39.6-19.5,40.1c-1.1,1-2.7,0.9-3.7-0.2C370.5,400.8,370.4,400.8,370.4,400.7z"/>
			</g>
		</g>
		<g id="XMLID_20_">
			<path id="XMLID_171_" fill="#FFD199" d="M241.7,173.6c-1.2,0-2.3-0.8-2.5-2.1c-0.1-0.3-7.3-35.1-12.1-47.2
				c-4.1-10.4-13.3-9.6-13.7-9.6c-1.4,0.1-2.7-0.9-2.9-2.3c-0.2-1.4,0.9-2.7,2.3-2.9c4.7-0.5,14.6,1.5,19.1,12.8
				c5,12.6,12.1,46.7,12.4,48.1c0.3,1.4-0.6,2.8-2,3.1C242.1,173.6,241.9,173.6,241.7,173.6z"/>
		</g>
		<g id="XMLID_164_">
			<path id="XMLID_170_" fill="#FFD199" d="M311,263.6c-0.1,0-0.1,0-0.2,0c-1.4-0.1-2.5-1.4-2.4-2.8c0-0.1,1-13.6,1.3-22.8
				c0.3-9.2-0.3-25.6-6.7-32.5c-5-5.4-14.7-6.2-14.8-6.2c-1.4-0.1-2.5-1.4-2.4-2.8c0.1-1.4,1.4-2.5,2.8-2.4c0.5,0,11.8,1,18.3,7.9
				c7.3,7.9,8.5,24,8.1,36.2c-0.3,9.3-1.3,22.9-1.3,23.1C313.5,262.6,312.4,263.6,311,263.6z"/>
		</g>
		<g id="XMLID_165_">
			<path id="XMLID_169_" fill="#FFD199" d="M350.2,277.1c-0.2,0-0.4,0-0.5-0.1c-1.4-0.3-2.3-1.7-2-3.1c0-0.2,4.2-19.8,4.5-28.9
				c0-1,0.1-1.9,0.1-2.9c0.3-8.4,0.6-17-5-23.1c-5.2-5.6-15.8-8.1-15.9-8.1c-1.4-0.3-2.3-1.7-2-3.1c0.3-1.4,1.7-2.3,3.1-2
				c0.5,0.1,12.2,2.9,18.5,9.6c7.2,7.7,6.8,17.9,6.4,26.9c0,1-0.1,1.9-0.1,2.9c-0.3,9.5-4.4,29-4.6,29.8
				C352.5,276.3,351.4,277.1,350.2,277.1z"/>
		</g>
		<g id="XMLID_163_">
			<path id="XMLID_168_" fill="#FFD199" d="M394.9,243.7c-0.1,0-0.2,0-0.3,0c-1.4-0.2-2.5-1.4-2.3-2.9c0-0.2,1.7-16.2,2.2-36.7
				c0.5-24.9-3.4-43.1-3.4-43.2c-0.3-1.4,0.6-2.8,2-3.1c1.4-0.3,2.8,0.6,3.1,2c0.2,0.8,4.1,18.9,3.5,44.5c-0.4,20.7-2.2,37-2.2,37.1
				C397.3,242.7,396.2,243.7,394.9,243.7z"/>
		</g>
		<g id="XMLID_2_">
			<path id="XMLID_3_" fill="#FFD199" d="M305.6,322.1c-0.9,0-1.8-0.5-2.2-1.3l0,0c-0.1-0.1-5.6-10.5-21.6-19.5
				c-24.3-13.7-40.3-14.9-51.7-4.1c-7.6,7.2-10.8,13.9-10.8,14c-0.6,1.3-2.1,1.8-3.3,1.2c-1.3-0.6-1.8-2.1-1.2-3.3
				c0.1-0.3,3.5-7.6,11.9-15.5c13.3-12.6,31-11.6,57.6,3.3c17.4,9.8,23.4,21.1,23.6,21.5c0.6,1.2,0.2,2.7-1.1,3.4
				C306.4,322,306,322.1,305.6,322.1z"/>
		</g>
	</g>
</g>
<g id="ORNAMENT_5">
	<g id="XMLID_96_">
		<g id="XMLID_110_">
			<path id="XMLID_113_" fill="#EA6EA9" d="M439.8,369c0,0.4,0,0.8-0.1,1.2c-0.6,5.1-4.9,9-10.2,9c-5.7,0-10.2-4.6-10.2-10.2
				c0-2.8,1.1-5.4,3-7.2c1.9-1.9,4.4-3,7.3-3C435.2,358.8,439.8,363.3,439.8,369z"/>
			<path id="XMLID_112_" fill="#F396BF" d="M439.8,369c0,0.4,0,0.8-0.1,1.2c-1.6,3.1-4.9,5.3-8.6,5.3c-5.3,0-9.7-4.3-9.7-9.7
				c0-1.4,0.3-2.8,0.9-4.1c1.9-1.9,4.4-3,7.3-3C435.2,358.8,439.8,363.3,439.8,369z"/>
			<path id="XMLID_111_" fill="#F6B6D2" d="M434.5,365.2c0,0.1,0,0.2,0,0.4c-0.2,1.5-1.4,2.6-2.9,2.6c-1.6,0-3-1.3-3-3
				c0-0.8,0.3-1.5,0.9-2.1c0.5-0.5,1.3-0.9,2.1-0.9C433.2,362.3,434.5,363.6,434.5,365.2z"/>
		</g>
		<g id="XMLID_97_">
			<path id="XMLID_109_" fill="#EA6EA9" d="M503.2,342.8c0,0.2,0,0.4,0,0.6c-0.3,2.5-2.4,4.5-5,4.5c-2.8,0-5.1-2.3-5.1-5.1
				c0-1.4,0.6-2.7,1.5-3.6c0.9-0.9,2.2-1.5,3.6-1.5C500.9,337.8,503.2,340,503.2,342.8z"/>
			<path id="XMLID_108_" fill="#F396BF" d="M503.2,342.8c0,0.2,0,0.4,0,0.6c-0.8,1.6-2.4,2.6-4.3,2.6c-2.6,0-4.8-2.1-4.8-4.8
				c0-0.7,0.2-1.4,0.4-2c0.9-0.9,2.2-1.5,3.6-1.5C500.9,337.8,503.2,340,503.2,342.8z"/>
			<path id="XMLID_98_" fill="#F6B6D2" d="M500.6,341c0,0.1,0,0.1,0,0.2c-0.1,0.7-0.7,1.3-1.5,1.3c-0.8,0-1.5-0.7-1.5-1.5
				c0-0.4,0.2-0.8,0.4-1c0.3-0.3,0.6-0.4,1-0.4C499.9,339.5,500.6,340.2,500.6,341z"/>
		</g>
	</g>
</g>
<g id="ORNAMENT_4">
	<g id="XMLID_198_">
		<g id="XMLID_51_">
			<path id="XMLID_54_" fill="#EA6EA9" d="M130.4,163.2c0,0.6,0,1.2-0.1,1.7c-0.9,7-6.8,12.5-14.1,12.5c-7.8,0-14.2-6.4-14.2-14.2
				c0-3.9,1.6-7.4,4.1-10c2.6-2.6,6.1-4.2,10.1-4.2C124,149,130.4,155.3,130.4,163.2z"/>
			<path id="XMLID_53_" fill="#F396BF" d="M130.4,163.2c0,0.6,0,1.2-0.1,1.7c-2.2,4.4-6.8,7.3-12,7.3c-7.4,0-13.4-6-13.4-13.4
				c0-2,0.4-3.9,1.2-5.6c2.6-2.6,6.1-4.2,10.1-4.2C124,149,130.4,155.3,130.4,163.2z"/>
			<path id="XMLID_52_" fill="#F6B6D2" d="M123,158c0,0.2,0,0.3,0,0.5c-0.2,2-2,3.6-4.1,3.6c-2.3,0-4.1-1.8-4.1-4.1
				c0-1.1,0.5-2.1,1.2-2.9c0.7-0.7,1.8-1.2,2.9-1.2C121.2,153.9,123,155.7,123,158z"/>
		</g>
		<g id="XMLID_55_">
			<path id="XMLID_58_" fill="#EA6EA9" d="M169.6,378.3c0,0.4,0,0.8-0.1,1.1c-0.6,4.6-4.5,8.2-9.2,8.2c-5.1,0-9.3-4.2-9.3-9.3
				c0-2.6,1-4.9,2.7-6.6c1.7-1.7,4-2.7,6.6-2.7C165.4,369,169.6,373.2,169.6,378.3z"/>
			<path id="XMLID_57_" fill="#F396BF" d="M169.6,378.3c0,0.4,0,0.8-0.1,1.1c-1.5,2.8-4.4,4.8-7.8,4.8c-4.9,0-8.8-3.9-8.8-8.8
				c0-1.3,0.3-2.6,0.8-3.7c1.7-1.7,4-2.7,6.6-2.7C165.4,369,169.6,373.2,169.6,378.3z"/>
			<path id="XMLID_56_" fill="#F6B6D2" d="M164.8,374.9c0,0.1,0,0.2,0,0.3c-0.2,1.3-1.3,2.4-2.7,2.4c-1.5,0-2.7-1.2-2.7-2.7
				c0-0.7,0.3-1.4,0.8-1.9c0.5-0.5,1.2-0.8,1.9-0.8C163.6,372.2,164.8,373.4,164.8,374.9z"/>
		</g>
	</g>
</g>
<g id="ORNAMENT_3">
	<g id="XMLID_46_">
		<g id="XMLID_74_">
			<path id="XMLID_77_" fill="#EA6EA9" d="M474,194.5c0,0.6,0,1.1-0.1,1.7c-0.8,6.9-6.8,12.3-13.9,12.3c-7.8,0-14-6.3-14-14
				c0-3.9,1.6-7.4,4.1-9.9c2.5-2.6,6.1-4.1,10-4.1C467.8,180.4,474,186.7,474,194.5z"/>
			<path id="XMLID_76_" fill="#F396BF" d="M474,194.5c0,0.6,0,1.1-0.1,1.7c-2.2,4.3-6.7,7.3-11.9,7.3c-7.3,0-13.3-5.9-13.3-13.3
				c0-2,0.4-3.9,1.2-5.6c2.5-2.6,6.1-4.1,10-4.1C467.8,180.4,474,186.7,474,194.5z"/>
			<path id="XMLID_75_" fill="#F6B6D2" d="M466.8,189.3c0,0.2,0,0.3,0,0.5c-0.2,2-2,3.6-4,3.6c-2.2,0-4.1-1.8-4.1-4.1
				c0-1.1,0.4-2.1,1.2-2.9c0.7-0.7,1.8-1.2,2.9-1.2C465,185.3,466.8,187.1,466.8,189.3z"/>
		</g>
		<g id="XMLID_47_">
			<path id="XMLID_50_" fill="#EA6EA9" d="M427.1,105.6c0,0.4,0,0.8-0.1,1.2c-0.6,4.7-4.6,8.4-9.5,8.4c-5.3,0-9.6-4.3-9.6-9.6
				c0-2.6,1.1-5,2.8-6.8c1.7-1.7,4.2-2.8,6.8-2.8C422.8,96,427.1,100.3,427.1,105.6z"/>
			<path id="XMLID_49_" fill="#F396BF" d="M427.1,105.6c0,0.4,0,0.8-0.1,1.2c-1.5,2.9-4.6,5-8.1,5c-5,0-9.1-4.1-9.1-9.1
				c0-1.4,0.3-2.7,0.8-3.8c1.7-1.7,4.2-2.8,6.8-2.8C422.8,96,427.1,100.3,427.1,105.6z"/>
			<path id="XMLID_48_" fill="#F6B6D2" d="M422.1,102.1c0,0.1,0,0.2,0,0.3c-0.2,1.4-1.3,2.4-2.7,2.4c-1.5,0-2.8-1.2-2.8-2.8
				c0-0.8,0.3-1.5,0.8-2c0.5-0.5,1.2-0.8,2-0.8C420.9,99.3,422.1,100.6,422.1,102.1z"/>
		</g>
	</g>
</g>
<g id="ORNAMENT_2">
	<g id="XMLID_195_">
		<g id="XMLID_27_">
			<path id="XMLID_29_" fill="#283575" d="M193.3,230.5l-30,30c-0.9,0.9-2,1.3-3.1,1.3s-2.2-0.4-3.1-1.3l-30-30
				c-1.7-1.7-1.7-4.5,0-6.2l30-30c0.9-0.9,2-1.3,3.1-1.3s2.2,0.4,3.1,1.3l30,30C195.1,226.1,195.1,228.8,193.3,230.5z"/>
			<path id="XMLID_28_" fill="#455388" d="M160.3,193.1v68.7c-1.1,0-2.2-0.4-3.1-1.3l-30-30c-1.7-1.7-1.7-4.5,0-6.2l30-30
				C158,193.5,159.1,193.1,160.3,193.1z"/>
		</g>
		<g id="XMLID_31_">
			<path id="XMLID_34_" fill="#283575" d="M204.2,438.3l-10.5,10.5c-0.3,0.3-0.7,0.4-1.1,0.4s-0.8-0.1-1.1-0.4l-10.5-10.5
				c-0.6-0.6-0.6-1.6,0-2.2l10.5-10.5c0.3-0.3,0.7-0.4,1.1-0.4s0.8,0.1,1.1,0.4l10.5,10.5C204.8,436.8,204.8,437.7,204.2,438.3z"/>
			<path id="XMLID_33_" fill="#455388" d="M192.6,425.3v24c-0.4,0-0.8-0.1-1.1-0.4l-10.5-10.5c-0.6-0.6-0.6-1.6,0-2.2l10.5-10.5
				C191.9,425.4,192.3,425.3,192.6,425.3z"/>
		</g>
	</g>
</g>
<g id="ORNAMENT_1">
	<g id="XMLID_14_">
		<g id="XMLID_35_">
			<path id="XMLID_38_" fill="#455388" d="M316.7,118.7l16.8-16.8c0.5-0.5,1.1-0.7,1.7-0.7c0.6,0,1.3,0.2,1.7,0.7l16.8,16.8
				c1,1,1,2.5,0,3.5L337,139.1c-0.5,0.5-1.1,0.7-1.7,0.7c-0.6,0-1.3-0.2-1.7-0.7l-16.8-16.8C315.7,121.3,315.7,119.7,316.7,118.7z"
				/>
			<path id="XMLID_37_" fill="#283575" d="M335.2,139.8v-38.6c0.6,0,1.3,0.2,1.7,0.7l16.8,16.8c1,1,1,2.5,0,3.5L337,139.1
				C336.5,139.5,335.9,139.8,335.2,139.8z"/>
		</g>
		<g id="XMLID_26_">
			<path id="XMLID_32_" fill="#455388" d="M434.1,293.3l16.8-16.8c0.5-0.5,1.1-0.7,1.7-0.7s1.3,0.2,1.7,0.7l16.8,16.8
				c1,1,1,2.5,0,3.5l-16.8,16.8c-0.5,0.5-1.1,0.7-1.7,0.7s-1.3-0.2-1.7-0.7l-16.8-16.8C433.1,295.8,433.1,294.2,434.1,293.3z"/>
			<path id="XMLID_30_" fill="#283575" d="M452.6,314.3v-38.6c0.6,0,1.3,0.2,1.7,0.7l16.8,16.8c1,1,1,2.5,0,3.5l-16.8,16.8
				C453.9,314.1,453.3,314.3,452.6,314.3z"/>
		</g>
		<g id="XMLID_15_">
			<path id="XMLID_24_" fill="#455388" d="M445.6,398.5l6.8-6.8c0.2-0.2,0.5-0.3,0.7-0.3s0.5,0.1,0.7,0.3l6.8,6.8
				c0.4,0.4,0.4,1,0,1.4l-6.8,6.8c-0.2,0.2-0.5,0.3-0.7,0.3s-0.5-0.1-0.7-0.3l-6.8-6.8C445.2,399.5,445.2,398.9,445.6,398.5z"/>
			<path id="XMLID_16_" fill="#283575" d="M453.1,407v-15.6c0.3,0,0.5,0.1,0.7,0.3l6.8,6.8c0.4,0.4,0.4,1,0,1.4l-6.8,6.8
				C453.7,406.9,453.4,407,453.1,407z"/>
		</g>
	</g>
</g>
</svg>
