<?xml version="1.0" encoding="UTF-8" standalone="no"?>
<!-- Generator: Adobe Illustrator 19.0.0, SVG Export Plug-In . SVG Version: 6.00 Build 0)  -->

<svg
   version="1.1"
   x="0px"
   y="0px"
   viewBox="0 0 289.43365 394.30066"
   enable-background="new 0 0 600 600"
   xml:space="preserve"
   id="svg94"
   sodipodi:docname="Light.svg"
   width="289.43365"
   height="394.30066"
   inkscape:version="1.2.1 (9c6d41e, 2022-07-14)"
   xmlns:inkscape="http://www.inkscape.org/namespaces/inkscape"
   xmlns:sodipodi="http://sodipodi.sourceforge.net/DTD/sodipodi-0.dtd"
   xmlns="http://www.w3.org/2000/svg"
   xmlns:svg="http://www.w3.org/2000/svg"><defs
   id="defs98" /><sodipodi:namedview
   id="namedview96"
   pagecolor="#ffffff"
   bordercolor="#000000"
   borderopacity="0.25"
   inkscape:showpageshadow="2"
   inkscape:pageopacity="0.0"
   inkscape:pagecheckerboard="0"
   inkscape:deskcolor="#d1d1d1"
   showgrid="false"
   inkscape:zoom="1.365"
   inkscape:cx="299.2674"
   inkscape:cy="182.05128"
   inkscape:window-width="1390"
   inkscape:window-height="969"
   inkscape:window-x="0"
   inkscape:window-y="25"
   inkscape:window-maximized="0"
   inkscape:current-layer="svg94" />
<g
   id="FLOOR"
   transform="translate(-160.28259,-104.69934)">
	<path
   id="XMLID_296_"
   fill="#99adf9"
   d="M 384.4,499 H 224.5 c -3.2,0 -5.8,-2.6 -5.8,-5.8 v 0 c 0,-3.2 2.6,-5.8 5.8,-5.8 h 159.8 c 3.2,0 5.8,2.6 5.8,5.8 v 0 c 0.1,3.2 -2.5,5.8 -5.7,5.8 z" />
</g>
<g
   id="RIGHT_ARM"
   transform="translate(-160.28259,-104.69934)">
	<g
   id="XMLID_302_">
		<path
   id="XMLID_303_"
   fill="#c5dfff"
   d="M 209.2,421.2 H 169 c -4.5,0 -8.2,-3.7 -8.2,-8.2 v -43 c 0,-4.5 3.7,-8.2 8.2,-8.2 h 40.2 c 4.5,0 8.2,3.7 8.2,8.2 v 43 c 0,4.5 -3.7,8.2 -8.2,8.2 z" />
		<path
   id="XMLID_3_"
   fill="#e1ecff"
   d="m 211.1,419 h -40.2 c -4.5,0 -8.2,-3.7 -8.2,-8.2 v -42.9 c 0,-4.5 3.7,-8.2 8.2,-8.2 h 40.2 c 4.5,0 8.2,3.7 8.2,8.2 v 42.9 c 0,4.5 -3.6,8.2 -8.2,8.2 z" />
		<circle
   id="XMLID_8_"
   fill="#c5dfff"
   cx="189.8"
   cy="390.10001"
   r="19.1" />
	</g>
	<g
   id="XMLID_304_">
		<g
   id="XMLID_12_">
			<circle
   id="XMLID_11_"
   fill="#384d89"
   cx="189.8"
   cy="390.10001"
   r="16.5" />
			<path
   id="XMLID_34_"
   fill="#1c3177"
   d="m 205.2,395.9 c -2.3,6.2 -8.4,10.6 -15.4,10.6 -9.1,0 -16.5,-7.4 -16.5,-16.5 0,-2.9 0.8,-5.7 2.1,-8.1 0.6,9.8 8.7,17.5 18.7,17.5 4.2,0.1 8,-1.2 11.1,-3.5 z" />
		</g>
		<g
   id="XMLID_7_">
			<path
   id="XMLID_287_"
   fill="#1c3177"
   d="m 250.1,423.1 c -5.1,0 -10.8,-0.4 -17,-1.3 -33,-5 -46.5,-30.4 -47,-31.5 -1.1,-2 -0.3,-4.5 1.8,-5.6 2,-1.1 4.5,-0.3 5.6,1.8 0.5,1 12.3,22.8 40.9,27.1 29.2,4.4 45.2,-4.6 45.4,-4.7 2,-1.1 4.5,-0.5 5.7,1.5 1.2,2 0.5,4.5 -1.5,5.7 -0.6,0.3 -12.3,7 -33.9,7 z" />
		</g>
	</g>
</g>
<g
   id="BODY"
   transform="translate(-160.28259,-104.69934)">
	<g
   id="XMLID_6_">
		<g
   id="XMLID_284_">
			<polygon
   id="XMLID_25_"
   fill="#f774b9"
   points="289.4,387 287.1,374.2 282.8,350.5 326.2,350.5 323.3,366.3 319.6,387 " />
			<polygon
   id="XMLID_15_"
   fill="#f261b4"
   points="282.8,350.5 326.2,350.5 323.3,366.3 287.1,374.2 " />
		</g>
		<g
   id="XMLID_297_">
			<path
   id="XMLID_24_"
   fill="#738de0"
   d="m 337.8,486.5 c 0,2.5 -1,4.7 -2.6,6.3 -1.6,1.6 -3.8,2.6 -6.3,2.6 h -48.7 c -4.9,0 -8.9,-4 -8.9,-8.9 0,-2.5 1,-4.7 2.6,-6.3 1.6,-1.6 3.8,-2.6 6.3,-2.6 h 48.7 c 4.9,-0.1 8.9,3.9 8.9,8.9 z" />
			<g
   id="XMLID_22_">
				<path
   id="XMLID_300_"
   fill="#f774b9"
   d="m 353.6,469.8 c -3.7,5.1 -10.5,8.6 -18.6,8.6 h -61 c -8.2,0 -14.9,-3.5 -18.6,-8.6 -3.2,-4.3 -4.2,-9.9 -2.2,-15.4 l 5.6,-15.3 13.4,-36.8 c 1.4,-3.8 6,-6.5 11.2,-6.5 h 42.3 c 5.1,0 9.8,2.7 11.2,6.5 l 2.8,7.8 16.2,44.4 c 2,5.5 0.9,11 -2.3,15.3 z" />
				<path
   id="XMLID_298_"
   fill="#f261b4"
   d="m 353.6,469.8 c -3.7,5.1 -10.5,8.6 -18.6,8.6 h -61 c -8.2,0 -14.9,-3.5 -18.6,-8.6 z" />
				<path
   id="XMLID_20_"
   fill="#f261b4"
   d="m 339.6,410 c -25.9,7.2 -61.7,21.2 -80.9,29.1 l 13.4,-36.8 c 1.4,-3.8 6,-6.5 11.2,-6.5 h 42.3 c 5.1,0 9.8,2.7 11.2,6.5 z" />
			</g>
			<path
   id="XMLID_16_"
   fill="#5a7fdb"
   d="m 337.8,486.5 c 0,2.5 -1,4.7 -2.6,6.3 -1.6,1.6 -3.8,2.6 -6.3,2.6 h -48.7 c -4.9,0 -8.9,-4 -8.9,-8.9 z" />
			<g
   id="XMLID_288_">
				<path
   id="XMLID_23_"
   fill="#738de0"
   d="m 342.7,392 c 0,0.9 -0.1,1.8 -0.4,2.7 -0.5,1.7 -1.4,3.3 -2.6,4.5 -1.8,1.8 -4.4,3 -7.2,3 h -55.9 c -4.7,0 -8.7,-3.2 -9.9,-7.5 -0.2,-0.9 -0.4,-1.8 -0.4,-2.7 0,-2.8 1.1,-5.4 3,-7.2 1.8,-1.8 4.4,-3 7.2,-3 h 55.9 c 5.7,0 10.3,4.5 10.3,10.2 z" />
				<path
   id="XMLID_18_"
   fill="#5a7fdb"
   d="m 342.3,394.7 c -0.5,1.7 -1.4,3.3 -2.6,4.5 -1.8,1.8 -4.4,3 -7.2,3 h -55.9 c -4.7,0 -8.7,-3.2 -9.9,-7.5 z" />
			</g>
			<g
   id="XMLID_290_">
				<path
   id="XMLID_295_"
   fill="#ffbde0"
   d="m 351.2,460.2 c -1.2,0 -2.3,-0.7 -2.7,-1.9 l -14.7,-40.4 c -0.5,-1.5 0.2,-3.2 1.7,-3.7 1.5,-0.5 3.2,0.2 3.7,1.7 l 14.7,40.4 c 0.5,1.5 -0.2,3.2 -1.7,3.7 -0.4,0.1 -0.7,0.2 -1,0.2 z" />
			</g>
		</g>
	</g>
</g>
<g
   id="LEFT_ARM"
   transform="translate(-160.28259,-104.69934)">
	<g
   id="XMLID_305_">
		<g
   id="XMLID_5_">
			<path
   id="XMLID_286_"
   fill="#1c3177"
   d="m 397.9,398.3 c -8.3,0 -18.1,-2.9 -25.8,-12.8 -12.5,-16.1 -14.3,-36.7 -14.4,-37.6 -0.2,-2.3 1.5,-4.3 3.8,-4.5 2.3,-0.2 4.3,1.5 4.5,3.8 0,0.3 1.8,19.1 12.7,33.2 11.4,14.8 27.9,8.1 28.6,7.8 2.1,-0.9 4.5,0.1 5.4,2.2 0.9,2.1 -0.1,4.5 -2.2,5.4 -3,1.4 -7.5,2.5 -12.6,2.5 z" />
		</g>
		<g
   id="XMLID_301_">
			<circle
   id="XMLID_9_"
   fill="#738de0"
   cx="403.10001"
   cy="391.29999"
   r="10.7" />
			<path
   id="XMLID_309_"
   fill="#5a7fdb"
   d="m 413.9,391.3 c 0,5.9 -4.8,10.7 -10.7,10.7 -5.4,0 -9.9,-4 -10.6,-9.2 2.1,2 5,3.2 8.1,3.2 6,0 10.9,-4.3 11.8,-10 0.9,1.6 1.4,3.4 1.4,5.3 z" />
		</g>
		<g
   id="XMLID_299_">
			<path
   id="XMLID_31_"
   fill="#738de0"
   d="m 439.6,393.9 c 0,0 -5.6,3.5 -15.9,5.3 -9.5,1.7 -15.4,-0.4 -18.1,-5.8 -0.2,-0.5 -0.5,-1 -0.7,-1.5 -0.5,-1.4 -0.7,-2.8 -0.7,-4.3 0.1,-5.5 3.7,-11.3 9.4,-15.3 8.3,-5.7 15.2,-7.8 15.2,-7.8 l 2.8,7.7 5.3,14.5 z" />
			<path
   id="XMLID_27_"
   fill="#5a7fdb"
   d="m 437,386.8 c -5.7,1.8 -12.3,3.6 -18.5,4.9 -5.4,1.1 -9.7,1.6 -12.9,1.8 -0.2,-0.5 -0.5,-1 -0.7,-1.5 -0.5,-1.4 -0.7,-2.8 -0.7,-4.3 4.6,-3.3 11.3,-7.6 19.6,-11.7 2.9,-1.4 5.5,-2.6 7.8,-3.7 z" />
			
				<ellipse
   id="XMLID_10_"
   transform="matrix(0.9374,-0.3481,0.3481,0.9374,-104.9229,174.7549)"
   fill="#5a7fdb"
   cx="433.79999"
   cy="379.29999"
   rx="6.5999999"
   ry="15.6" />
		</g>
	</g>
</g>
<g
   id="HEAD"
   transform="translate(-160.28259,-104.69934)">
	<g
   id="XMLID_289_">
		<path
   id="XMLID_37_"
   fill="#ffdbb3"
   d="m 385.2,342.5 c -7.1,8.7 -17.8,14.4 -30.2,14.4 H 254 c -12.9,0 -24,-6.2 -31,-15.4 -6.7,-8.8 -9.6,-20.4 -6.9,-32.3 l 27.6,-117.9 c 0,-0.1 0.1,-0.3 0.1,-0.4 2.4,-9.3 10.8,-15.9 20.4,-15.9 h 80.5 c 9.7,0 18.1,6.6 20.4,15.9 0,0.1 0.1,0.3 0.1,0.4 l 27.6,117.9 c 3,12.3 -0.3,24.3 -7.6,33.3 z" />
		<path
   id="XMLID_28_"
   fill="#fec272"
   d="m 345.8,346.2 c -3.7,6.6 -8.7,10.7 -14.3,10.7 h -53.9 c -5.7,0 -10.7,-4.2 -14.4,-10.9 -5,-9.1 -7.6,-22.8 -5.8,-36.9 L 272,191.2 c 0,-0.1 0,-0.3 0.1,-0.4 1.3,-9.3 5.8,-15.9 10.9,-15.9 h 43 c 5.2,0 9.7,6.6 10.9,15.9 0,0.1 0,0.3 0.1,0.4 l 14.7,117.9 c 1.8,14.2 -0.8,28 -5.9,37.1 z" />
		<path
   id="XMLID_17_"
   fill="#fcad4f"
   d="M 365.2,190.8 H 243.8 c 2.4,-9.3 10.8,-15.9 20.4,-15.9 h 80.5 c 9.7,0 18.1,6.6 20.5,15.9 z" />
		<path
   id="XMLID_32_"
   fill="#fec272"
   d="m 385.2,342.5 c -7.1,8.7 -17.8,14.4 -30.2,14.4 H 254 c -12.9,0 -24,-6.2 -31,-15.4 9.8,1.8 22.8,3.5 40.1,4.5 12.2,0.8 26.4,1.2 43.1,1.2 14.9,0 28,-0.4 39.5,-1 16.2,-0.9 29.1,-2.2 39.5,-3.7 z" />
		<path
   id="XMLID_21_"
   fill="#fcad4f"
   d="m 345.8,346.2 c -3.7,6.6 -8.7,10.7 -14.3,10.7 h -53.9 c -5.7,0 -10.7,-4.2 -14.4,-10.9 12.2,0.8 26.4,1.2 43.1,1.2 14.8,0 28,-0.4 39.5,-1 z" />
		<g
   id="XMLID_4_">
			<path
   id="XMLID_294_"
   fill="#738de0"
   d="m 370.1,178.6 c 0,0.3 0,0.7 -0.1,1 -0.2,1.7 -1.1,3.2 -2.3,4.4 -1.5,1.4 -3.5,2.2 -5.7,2.2 H 247 c -4.1,0 -7.5,-2.9 -8,-6.6 -0.1,-0.3 -0.1,-0.7 -0.1,-1 0,-2.1 0.9,-4 2.4,-5.4 1.5,-1.4 3.5,-2.2 5.7,-2.2 h 115.1 c 4.4,-0.1 8,3.3 8,7.6 z" />
			<path
   id="XMLID_292_"
   fill="#5a7fdb"
   d="m 370,179.6 c -0.2,1.7 -1.1,3.2 -2.3,4.4 -1.5,1.4 -3.5,2.2 -5.7,2.2 H 247 c -4.1,0 -7.5,-2.9 -8,-6.6 z" />
		</g>
		<g
   id="XMLID_291_">
			<path
   id="XMLID_293_"
   fill="#ffecd9"
   d="m 385.2,306.7 c -1.3,0 -2.5,-0.9 -2.8,-2.2 l -24.3,-104 c -0.4,-1.6 0.6,-3.1 2.2,-3.5 1.6,-0.4 3.1,0.6 3.5,2.2 l 24.3,104 c 0.4,1.6 -0.6,3.1 -2.2,3.5 -0.3,0 -0.5,0 -0.7,0 z" />
		</g>
	</g>
</g>
<g
   id="MOUTH"
   transform="translate(-160.28259,-104.69934)">
	<g
   id="XMLID_78_">
		<g
   id="XMLID_1_">
			<g
   id="XMLID_56_">
				<path
   id="XMLID_57_"
   fill="#283475"
   d="m 303.9,287.2 c -7.8,-0.2 -11.7,-6.2 -12.6,-9.5 -0.3,-1.1 0.3,-2.3 1.4,-2.6 1.1,-0.3 2.3,0.3 2.6,1.4 0.1,0.3 2.2,6.8 9.6,6.5 7.6,-0.3 9.8,-6.4 9.8,-6.4 0.4,-1.1 1.6,-1.7 2.7,-1.3 1.1,0.4 1.7,1.6 1.3,2.7 -0.1,0.4 -3.1,8.8 -13.6,9.3 -0.4,-0.1 -0.8,-0.1 -1.2,-0.1 z" />
			</g>
		</g>
	</g>
</g>
<g
   id="CHEEK_1"
   transform="translate(-160.28259,-104.69934)">
	<ellipse
   id="XMLID_75_"
   fill="#ffecd9"
   cx="357.89999"
   cy="281.70001"
   rx="12"
   ry="6.5" />
</g>
<g
   id="CHEEK_2"
   transform="translate(-160.28259,-104.69934)">
	<ellipse
   id="XMLID_79_"
   fill="#ffecd9"
   cx="253.7"
   cy="281.70001"
   rx="12"
   ry="6.5" />
</g>
<g
   id="EYE_1"
   transform="translate(-160.28259,-104.69934)">
	<g
   id="XMLID_54_">
		<path
   id="XMLID_80_"
   fill="#283475"
   d="m 260.5,264.2 c 0,0 0,0 0,0 -1.3,0 -2.2,-1 -2.2,-2.3 0.1,-4.3 2.7,-12.5 12,-12.5 8.8,0 11.9,7.8 12.4,11.9 0.1,1.2 -0.8,2.3 -2,2.4 -1.2,0.1 -2.3,-0.8 -2.4,-2 -0.1,-0.8 -1.1,-8 -8,-8 -7.3,0 -7.6,7.9 -7.6,8.2 0,1.3 -1,2.3 -2.2,2.3 z" />
	</g>
</g>
<g
   id="EYE_2"
   transform="translate(-160.28259,-104.69934)">
	<g
   id="XMLID_66_">
		<path
   id="XMLID_81_"
   fill="#283475"
   d="m 329.7,264.2 c -0.1,0 -0.1,0 0,0 -1.3,0 -2.2,-1 -2.2,-2.3 0.1,-4.3 2.7,-12.5 12,-12.5 8.8,0 11.9,7.8 12.4,11.9 0.1,1.2 -0.8,2.3 -2,2.4 -1.2,0.1 -2.3,-0.8 -2.4,-2 -0.1,-0.8 -1.1,-8 -8,-8 -7.3,0 -7.6,7.9 -7.6,8.2 -0.1,1.3 -1,2.3 -2.2,2.3 z" />
	</g>
</g>
<g
   id="ORNAMENT_2"
   transform="translate(-160.28259,-104.69934)">
	<g
   id="XMLID_42_">
		<circle
   id="XMLID_41_"
   fill="#e1ecff"
   cx="401.60001"
   cy="210.7"
   r="7.5" />
		<circle
   id="XMLID_43_"
   fill="#e1ecff"
   cx="428.20001"
   cy="255.89999"
   r="4.4000001" />
		<circle
   id="XMLID_44_"
   fill="#e1ecff"
   cx="407.29999"
   cy="338.60001"
   r="4.4000001" />
		<circle
   id="XMLID_45_"
   fill="#e1ecff"
   cx="280.39999"
   cy="137.60001"
   r="5.8000002" />
		<circle
   id="XMLID_46_"
   fill="#e1ecff"
   cx="392.5"
   cy="148.5"
   r="4.5999999" />
		<circle
   id="XMLID_49_"
   fill="#e1ecff"
   cx="204.8"
   cy="222.8"
   r="4.5999999" />
		<circle
   id="XMLID_50_"
   fill="#e1ecff"
   cx="205.89999"
   cy="277.20001"
   r="4" />
		<circle
   id="XMLID_55_"
   fill="#e1ecff"
   cx="197.60001"
   cy="331.5"
   r="4" />
		<circle
   id="XMLID_48_"
   fill="#e1ecff"
   cx="197.60001"
   cy="153.60001"
   r="7.0999999" />
	</g>
</g>
<g
   id="ORNAMENT_1"
   transform="translate(-160.28259,-104.69934)">
	<g
   id="XMLID_14_">
		<path
   id="XMLID_13_"
   fill="#ff8d76"
   d="m 426,235.9 c -12.8,1.8 -25.3,3.4 -25.7,0.8 -0.5,-2.5 13.1,-6.6 23.8,-9.3 12.3,-3.1 24,-6.3 25.5,-0.6 1.5,6.4 -11.8,7.4 -23.6,9.1 z" />
		<path
   id="XMLID_29_"
   fill="#ffdbb3"
   d="m 410.7,182.3 c -11.4,6.2 -22.5,12 -23.8,9.8 -1.3,-2.2 10,-10.8 19,-17 10.4,-7.2 20.3,-14.3 23.6,-9.5 3.8,5.5 -8.3,11 -18.8,16.7 z" />
		<path
   id="XMLID_30_"
   fill="#ff8d76"
   d="m 355.6,143.8 c -4.4,6.7 -8.7,13.2 -10.1,12.3 -1.4,-0.8 2.2,-8.8 5.3,-14.9 3.5,-7 6.8,-13.8 10,-12.1 3.7,1.8 -1.2,8.4 -5.2,14.7 z" />
		<path
   id="XMLID_35_"
   fill="#ff8d76"
   d="m 258,140.3 c 3.5,7.2 6.8,14.2 5.5,15 -1.4,0.8 -6.4,-6.4 -10.1,-12.2 -4.2,-6.6 -8.3,-12.9 -5.3,-14.8 3.4,-2.2 6.6,5.4 9.9,12 z" />
		<path
   id="XMLID_36_"
   fill="#ffdbb3"
   d="m 200.7,191.3 c 8.1,7.2 15.8,14.3 14.4,15.9 -1.4,1.7 -11.3,-4.7 -18.8,-10 -8.6,-6.1 -17,-11.9 -14.1,-15.9 3.2,-4.6 11,3.3 18.5,10 z" />
		<path
   id="XMLID_38_"
   fill="#ff8d76"
   d="m 177.7,235.7 c 8.3,3.5 16.2,7 15.6,8.6 -0.7,1.7 -10.2,-0.7 -17.5,-2.8 -8.4,-2.5 -16.6,-4.7 -15.4,-8.7 1.4,-4.5 9.6,-0.4 17.3,2.9 z" />
		<path
   id="XMLID_39_"
   fill="#ffdbb3"
   d="m 177.3,269.1 c 8.3,0.4 16.4,1 16.3,2.7 0,1.7 -9.1,2.6 -16.2,3 -8.1,0.5 -16,1.1 -16.2,-2.7 -0.1,-4.4 8.4,-3.4 16.1,-3 z" />
		<path
   id="XMLID_40_"
   fill="#ff8d76"
   d="m 182.2,307 c 7.4,-3.7 14.7,-7.3 15.5,-5.8 0.8,1.5 -6.6,6.8 -12.6,10.7 -6.8,4.5 -13.4,8.8 -15.4,5.6 -2.2,-3.7 5.7,-7 12.5,-10.5 z" />
		<path
   id="XMLID_33_"
   fill="#ffdbb3"
   d="m 314.9,127.8 c -1.6,11.8 -3.3,23.2 -5.7,23 -2.4,-0.2 -2.6,-13.2 -2.3,-23.4 0.3,-11.6 0.4,-22.8 5.8,-22.7 6.1,0.2 3.7,12.2 2.2,23.1 z" />
		<path
   id="XMLID_19_"
   fill="#ffdbb3"
   d="m 428,281.9 c -9.2,-2.5 -18.1,-5 -17.7,-6.9 0.4,-1.9 10.8,-0.7 18.8,0.6 9.2,1.4 18.1,2.7 17.4,6.9 -0.7,4.8 -9.9,1.7 -18.5,-0.6 z" />
		<path
   id="XMLID_26_"
   fill="#ff8d76"
   d="m 422,319.3 c -8,-5.2 -15.7,-10.3 -14.7,-11.9 1,-1.6 10.5,2.6 17.7,6.3 8.4,4.2 16.4,8.1 14.5,11.9 -2.2,4.4 -10.1,-1.5 -17.5,-6.3 z" />
	</g>
</g>
</svg>
