<?xml version="1.0" encoding="utf-8"?>
<!-- Generator: Adobe Illustrator 19.0.0, SVG Export Plug-In . SVG Version: 6.00 Build 0)  -->
<svg version="1.1" xmlns="http://www.w3.org/2000/svg" xmlns:xlink="http://www.w3.org/1999/xlink" x="0px" y="0px"
	 viewBox="0 0 600 600" enable-background="new 0 0 600 600" xml:space="preserve">
<g id="FLOOR">
	<ellipse id="XMLID_208_" fill="#99ADF9" cx="305.1" cy="503" rx="87" ry="4.2"/>
</g>
<g id="ROPE">
	<g id="XMLID_173_">
		<g id="XMLID_176_">
			<g id="XMLID_182_">
				<path id="XMLID_185_" fill="#99ADF9" d="M403.1,123.8c0,0-1.3,8.9-7.2,24.2c-4.8,12.6-12.7,29.6-25.4,49.4
					c-13.3,20.7-24.9,37-33.4,48.4c-9.6,12.7-15.3,19.4-15.3,19.4l-29.1-3.2c0,0,6.4-9.5,17.2-25.7c8.4-12.6,19.4-29.2,32.1-48.6
					c12.4-18.8,19.4-35.6,23.3-48.1c4.4-13.7,5-22.1,5-22.1L403.1,123.8z"/>
				<path id="XMLID_184_" fill="#809DF9" d="M403.1,123.8c0,0-1.3,8.9-7.2,24.2c-10.6-3.8-21.5-6.5-30.6-8.3c4.4-13.7,5-22.1,5-22.1
					L403.1,123.8z"/>
				<path id="XMLID_183_" fill="#809DF9" d="M337,245.9c-9.6,12.7-15.3,19.4-15.3,19.4l-29.1-3.2c0,0,6.4-9.5,17.2-25.7
					C317.5,239,328.5,242.7,337,245.9z"/>
			</g>
			<g id="XMLID_178_">
				<path id="XMLID_181_" fill="#99ADF9" d="M301.9,257l-21.8,13.3c0,0-3.9-6.6-12.1-19.6c-3.4-5.4-7.5-11.9-12.4-19.4
					c-9.5-14.5-28.8-33.2-43.8-46.7c-11.5-10.3-20.4-17.5-20.4-17.5l22.2-38.3c0,0,6.2,4.4,23.6,26.6c3.6,4.6,7.6,9.9,12.2,16.1
					c17.1,23.3,30.4,45,39.4,60.7C297.4,247.4,301.9,257,301.9,257z"/>
				<path id="XMLID_180_" fill="#809DF9" d="M237.2,155.5l-25.4,29.2c-11.5-10.3-20.4-17.5-20.4-17.5l22.2-38.3
					C213.6,128.8,219.8,133.2,237.2,155.5z"/>
				<path id="XMLID_179_" fill="#809DF9" d="M301.9,257l-21.8,13.3c0,0-3.9-6.6-12.1-19.6c7.4-6.6,16.1-14.4,20.7-18.5
					C297.4,247.4,301.9,257,301.9,257z"/>
			</g>
			<path id="XMLID_177_" fill="#99ADF9" d="M189.3,165.4c0.2,2.1,2.4,3.3,4.2,2.3c9.3-5.2,38.8-19.3,99.8-30
				c59.4-10.4,94.7-11.5,107.4-11.4c2.4,0,3.8-2.6,2.6-4.6c-3.1-4.9-8.6-12.4-15.5-16.7c-10.8-6.7-16.9-12-77.5-2.3
				s-106.6,29.1-111.8,32.2C190.5,139.5,188.6,156.9,189.3,165.4z"/>
		</g>
		<g id="XMLID_174_">
			<path id="XMLID_175_" fill="#C7D4FF" d="M204.5,139.3c-1,0-1.9-0.6-2.3-1.5c-0.5-1.3,0.1-2.7,1.3-3.3
				c0.4-0.2,44.1-18.2,90.8-26.7c46.7-8.4,68-8.7,68.9-8.7c0,0,0,0,0,0c1.4,0,2.5,1.1,2.5,2.5c0,1.4-1.1,2.5-2.5,2.5
				c-0.2,0-21.9,0.3-68.1,8.6c-46.2,8.4-89.4,26.2-89.8,26.3C205.1,139.2,204.8,139.3,204.5,139.3z"/>
		</g>
	</g>
</g>
<g id="MEDAL">
	<g id="XMLID_147_">
		<path id="XMLID_168_" fill="#F9B462" d="M399.2,343.6c0,25.8-10.7,49.1-28,65.7l0,0c-4.1,3.9-8.6,7.5-13.4,10.6
			c-10.8,7-23.1,11.8-36.3,13.8c-3,0.5-6.1,0.7-9.2,0.9c-1.4,0.1-2.8,0.1-4.2,0.1c-17.3,0-33.5-4.8-47.2-13.2
			c-2.1-1.3-4.2-2.6-6.2-4.1c-13.4-9.7-24.1-23-30.6-38.5c-0.9-2.2-1.8-4.4-2.5-6.7c-3-9-4.6-18.7-4.6-28.7c0-8.3,1.1-16.3,3.2-24
			c1-3.6,2.2-7.2,3.6-10.6c13.6-33.2,46.2-56.5,84.3-56.5C358.5,252.5,399.2,293.3,399.2,343.6z"/>
		<g id="XMLID_157_">
			<g id="XMLID_166_">
				<path id="XMLID_167_" fill="#F9A243" d="M248.4,301.8l-28.1,17.9c1-3.6,2.2-7.2,3.6-10.6l20.8-13.2c1.6-1,3.8-0.6,4.8,1.1
					C250.5,298.6,250,300.7,248.4,301.8z"/>
			</g>
			<g id="XMLID_164_">
				<path id="XMLID_165_" fill="#F9A243" d="M250.2,363.7l-26,15.2c-0.9-2.2-1.8-4.4-2.5-6.7l24.9-14.6c1.7-1,3.8-0.4,4.8,1.3
					C252.4,360.6,251.8,362.7,250.2,363.7z"/>
			</g>
			<g id="XMLID_162_">
				<path id="XMLID_163_" fill="#F9A243" d="M283.9,403.8l-23,17.7c-2.1-1.3-4.2-2.6-6.2-4.1l24.8-19.2c1.5-1.2,3.7-0.9,4.9,0.6
					C285.7,400.4,285.4,402.6,283.9,403.8z"/>
			</g>
			<g id="XMLID_160_">
				<path id="XMLID_161_" fill="#F9A243" d="M338.1,409.8l-16.6,23.8c-3,0.5-6.1,0.7-9.2,0.9l20-28.7c1.1-1.6,3.3-2,4.9-0.9
					C338.9,406.1,339.2,408.3,338.1,409.8z"/>
			</g>
			<g id="XMLID_158_">
				<path id="XMLID_159_" fill="#F9A243" d="M382.1,389.9l-10.9,19.3l0,0c-4.1,3.9-8.6,7.5-13.4,10.6c0-0.7,0.1-1.3,0.4-1.9
					l17.7-31.5c1-1.7,3.1-2.3,4.8-1.3C382.5,386.1,383.1,388.3,382.1,389.9z"/>
			</g>
		</g>
		<path id="XMLID_156_" fill="#FEC272" d="M401.1,333.5c0,45.6-36.6,82.7-82,83.5c-0.5,0-1,0-1.5,0c-1.8,0-3.6-0.1-5.4-0.2
			c-7.5-0.5-14.7-1.9-21.5-4.3c-2.7-0.9-5.3-2-7.8-3.1c-23-10.5-40.4-31.3-46.4-56.4c-1.5-6.3-2.3-12.8-2.3-19.5
			c0-2.8,0.1-5.5,0.4-8.3c4-41.1,37.8-73.4,79.5-75.2c1.2-0.1,2.3-0.1,3.5-0.1c8,0,15.8,1.1,23.1,3.2c22.1,6.4,40.5,21.6,51,41.7
			c1.3,2.5,2.5,5,3.5,7.6c2.2,5.5,3.8,11.3,4.8,17.3c0.4,2.3,0.7,4.6,0.8,6.9C401,329,401.1,331.3,401.1,333.5z"/>
		<circle id="XMLID_155_" fill="#F9B462" cx="319.8" cy="331.3" r="69.8"/>
		<path id="XMLID_154_" fill="#FEC272" d="M377.6,331.3c0,5.5-0.8,10.8-2.2,15.8c-2.1,7.6-5.8,14.5-10.6,20.5
			c-1.4,1.7-2.9,3.4-4.4,4.9l-0.1,0.1c-5.5,5.4-12,9.7-19.3,12.6c-6.5,2.6-13.7,4-21.2,4c-3,0-5.9-0.2-8.8-0.7
			c-2.3-0.3-4.6-0.8-6.8-1.5c-24.3-6.8-42.2-29.1-42.2-55.6c0-1,0-1.9,0.1-2.9c1.5-30.4,26.6-54.7,57.3-54.8h0.3
			c25.5,0,47.1,16.5,54.8,39.4c0.7,2.2,1.3,4.4,1.8,6.7C377.2,323.4,377.6,327.3,377.6,331.3z"/>
		<path id="XMLID_153_" fill="#FFD7A6" d="M319.5,273.5l-57.3,54.8C263.7,297.9,288.7,273.7,319.5,273.5z"/>
		<path id="XMLID_152_" fill="#FFD7A6" d="M377.6,331.3c0,5.5-0.8,10.8-2.2,15.8c-2.1,7.6-5.8,14.5-10.6,20.5l-4.4,4.9l-0.1,0.1
			c-5.5,5.4-12,9.7-19.3,12.6c-6.5,2.6-13.7,4-21.2,4c-3,0-5.9-0.2-8.8-0.7l65.3-68.7C377.2,323.4,377.6,327.3,377.6,331.3z"/>
		<path id="XMLID_151_" fill="#FFD7A6" d="M254.8,306.1c-3,7.8-4.7,16.3-4.7,25.2c0,2.8,0.2,5.5,0.5,8.2L236.4,353
			c-1.5-6.3-2.3-12.8-2.3-19.5c0-2.8,0.1-5.5,0.4-8.3L254.8,306.1z"/>
		<path id="XMLID_150_" fill="#FFD7A6" d="M340.7,253.2l-9.6,9.2c-3.7-0.6-7.4-0.9-11.3-0.9c-7.5,0-14.7,1.2-21.5,3.4l15.7-14.8
			c1.2-0.1,2.3-0.1,3.5-0.1C325.6,250,333.4,251.1,340.7,253.2z"/>
		<path id="XMLID_149_" fill="#FFD7A6" d="M319.8,401c2.4,0,4.7-0.1,7-0.4l-14.7,16.2c-7.5-0.5-14.7-1.9-21.5-4.3
			c-2.7-0.9-5.3-2-7.8-3.1l12.3-12.9C302.8,399.4,311.1,401,319.8,401z"/>
		<path id="XMLID_148_" fill="#FFD7A6" d="M389.6,331.4v-0.1c0-10-2.1-19.4-5.8-28l7.9-8.3c1.3,2.5,2.5,5,3.5,7.6
			c2.2,5.5,3.8,11.3,4.8,17.3L389.6,331.4z"/>
	</g>
</g>
<g id="ORNAMENT_1">
	<g id="XMLID_123_">
		<circle id="XMLID_126_" fill="#CDE0FC" cx="205.8" cy="275.3" r="8.3"/>
		<circle id="XMLID_125_" fill="#CDE0FC" cx="200.8" cy="310.3" r="5.7"/>
		<circle id="XMLID_124_" fill="#CDE0FC" cx="193.4" cy="392.3" r="5.7"/>
	</g>
</g>
<g id="ORNAMENT_2">
	<g id="XMLID_111_">
		<circle id="XMLID_120_" fill="#CDE0FC" cx="393.8" cy="417.3" r="8.3"/>
		<circle id="XMLID_114_" fill="#CDE0FC" cx="309.8" cy="459.3" r="5.2"/>
		<circle id="XMLID_113_" fill="#CDE0FC" cx="442.1" cy="308.3" r="9.7"/>
		<circle id="XMLID_24_" fill="#CDE0FC" cx="426.8" cy="379.5" r="5"/>
		<circle id="XMLID_26_" fill="#CDE0FC" cx="410.3" cy="291" r="4"/>
		<circle id="XMLID_112_" fill="#CDE0FC" cx="402" cy="226.7" r="7.6"/>
	</g>
</g>
<g id="SPARKLING_1">
	<g id="XMLID_96_">
		<g id="XMLID_100_">
			<g id="XMLID_104_">
				<path id="XMLID_106_" fill="#FF8AC7" d="M195.6,363c-1.9,1.5-5,4.2-7.4,7.5c-2.3,3.1-4.1,6.4-5.3,8.5c-0.3,0.5-0.7,0.7-1.2,0.8
					c-0.5,0.1-1.1-0.1-1.5-0.6c-1.4-2-3.9-5.2-7.1-8.2c-3-2.7-5.6-4.5-7.3-5.5c-1-0.6-1-1.9-0.2-2.6c1.8-1.4,4.5-3.9,6.9-7.2
					c2.3-3.2,4.1-6.7,5.2-9c0.2-0.5,0.7-0.8,1.1-0.9c0.6-0.1,1.2,0.1,1.6,0.7c1.5,2.4,4,6,7.3,8.5c3.2,2.5,6,4.3,7.7,5.4
					C196.3,361,196.4,362.3,195.6,363z"/>
				<path id="XMLID_105_" fill="#F774B9" d="M181.7,379.8c-0.5,0.1-1.1-0.1-1.5-0.6c-1.4-2-3.9-5.2-7.1-8.2c-3-2.7-5.6-4.5-7.3-5.5
					c-1-0.6-1-1.9-0.2-2.6c1.8-1.4,4.5-3.9,6.9-7.2c2.3-3.2,4.1-6.7,5.2-9c0.2-0.5,0.7-0.8,1.1-0.9L181.7,379.8z"/>
			</g>
			<g id="XMLID_101_">
				<path id="XMLID_103_" fill="#FF8AC7" d="M240.7,436.5c-1.3,1-3.4,2.9-5,5.1c-1.5,2.1-2.8,4.3-3.6,5.8c-0.2,0.3-0.5,0.5-0.8,0.5
					c-0.4,0-0.8-0.1-1-0.4c-1-1.4-2.6-3.5-4.8-5.5c-2-1.9-3.8-3-5-3.7c-0.6-0.4-0.7-1.3-0.1-1.7c1.2-1,3.1-2.6,4.6-4.9
					c1.5-2.2,2.7-4.5,3.5-6.1c0.2-0.3,0.4-0.5,0.8-0.6c0.4-0.1,0.8,0.1,1.1,0.5c1,1.6,2.7,4,4.9,5.8c2.2,1.7,4,2.9,5.2,3.6
					C241.2,435.1,241.3,436,240.7,436.5z"/>
				<path id="XMLID_102_" fill="#F774B9" d="M231.3,447.8c-0.4,0-0.8-0.1-1-0.4c-1-1.4-2.6-3.5-4.8-5.5c-2-1.9-3.8-3-5-3.7
					c-0.6-0.4-0.7-1.3-0.1-1.7c1.2-1,3.1-2.6,4.6-4.9c1.5-2.2,2.7-4.5,3.5-6.1c0.2-0.3,0.4-0.5,0.8-0.6L231.3,447.8z"/>
			</g>
		</g>
		<g id="XMLID_97_">
			<path id="XMLID_99_" fill="#FF8AC7" d="M237.4,252.8c-0.9,0.7-2.3,2-3.4,3.5c-1,1.4-1.9,3-2.5,4c-0.1,0.2-0.3,0.3-0.5,0.4
				c-0.3,0-0.5-0.1-0.7-0.3c-0.7-1-1.8-2.4-3.3-3.8c-1.4-1.3-2.6-2.1-3.4-2.6c-0.4-0.3-0.5-0.9-0.1-1.2c0.8-0.7,2.1-1.8,3.2-3.3
				c1-1.5,1.9-3.1,2.4-4.2c0.1-0.2,0.3-0.4,0.5-0.4c0.3,0,0.6,0.1,0.7,0.3c0.7,1.1,1.9,2.8,3.4,4c1.5,1.2,2.8,2,3.6,2.5
				C237.7,251.9,237.7,252.5,237.4,252.8z"/>
			<path id="XMLID_98_" fill="#F774B9" d="M230.9,260.6c-0.3,0-0.5-0.1-0.7-0.3c-0.7-1-1.8-2.4-3.3-3.8c-1.4-1.3-2.6-2.1-3.4-2.6
				c-0.4-0.3-0.5-0.9-0.1-1.2c0.8-0.7,2.1-1.8,3.2-3.3c1-1.5,1.9-3.1,2.4-4.2c0.1-0.2,0.3-0.4,0.5-0.4L230.9,260.6z"/>
		</g>
	</g>
</g>
<g id="SPARKLING_2">
	<g id="XMLID_72_">
		<g id="XMLID_84_">
			<path id="XMLID_86_" fill="#FF8AC7" d="M375.1,455.2c-1.8,1.4-4.5,3.8-6.7,6.8c-2,2.8-3.8,5.8-4.8,7.7c-0.2,0.4-0.6,0.7-1.1,0.7
				c-0.5,0.1-1-0.1-1.3-0.6c-1.3-1.9-3.5-4.7-6.4-7.4c-2.7-2.5-5.1-4.1-6.6-5c-0.9-0.5-0.9-1.7-0.2-2.3c1.6-1.3,4.1-3.5,6.2-6.5
				c2-2.9,3.7-6,4.7-8.2c0.2-0.4,0.6-0.7,1-0.8c0.5-0.1,1.1,0.1,1.4,0.6c1.4,2.2,3.7,5.4,6.6,7.7c2.9,2.3,5.4,3.9,7,4.9
				C375.8,453.4,375.9,454.6,375.1,455.2z"/>
			<path id="XMLID_85_" fill="#F774B9" d="M362.6,470.4c-0.5,0.1-1-0.1-1.3-0.6c-1.3-1.9-3.5-4.7-6.4-7.4c-2.7-2.5-5.1-4.1-6.6-5
				c-0.9-0.5-0.9-1.7-0.2-2.3c1.6-1.3,4.1-3.5,6.2-6.5c2-2.9,3.7-6,4.7-8.2c0.2-0.4,0.6-0.7,1-0.8L362.6,470.4z"/>
		</g>
		<g id="XMLID_79_">
			<path id="XMLID_83_" fill="#FF8AC7" d="M391,250.1c-1.2,1-3.2,2.7-4.7,4.8c-1.4,2-2.7,4.1-3.4,5.5c-0.2,0.3-0.4,0.5-0.7,0.5
				c-0.3,0-0.7-0.1-0.9-0.4c-0.9-1.3-2.5-3.4-4.5-5.3c-1.9-1.8-3.6-2.9-4.7-3.5c-0.6-0.4-0.7-1.2-0.1-1.6c1.2-0.9,2.9-2.5,4.4-4.6
				c1.4-2.1,2.6-4.3,3.3-5.8c0.1-0.3,0.4-0.5,0.7-0.6c0.4-0.1,0.8,0.1,1,0.5c1,1.5,2.6,3.8,4.7,5.5c2,1.6,3.8,2.8,4.9,3.4
				C391.5,248.8,391.6,249.7,391,250.1z"/>
			<path id="XMLID_82_" fill="#F774B9" d="M382.2,260.9c-0.3,0-0.7-0.1-0.9-0.4c-0.9-1.3-2.5-3.4-4.5-5.3c-1.9-1.8-3.6-2.9-4.7-3.5
				c-0.6-0.4-0.7-1.2-0.1-1.6c1.2-0.9,2.9-2.5,4.4-4.6c1.4-2.1,2.6-4.3,3.3-5.8c0.1-0.3,0.4-0.5,0.7-0.6L382.2,260.9z"/>
		</g>
		<g id="XMLID_73_">
			<path id="XMLID_75_" fill="#FF8AC7" d="M421.1,348.7c-0.8,0.6-2,1.7-3,3.1c-0.9,1.3-1.7,2.6-2.2,3.5c-0.1,0.2-0.3,0.3-0.5,0.3
				c-0.2,0-0.5-0.1-0.6-0.3c-0.6-0.8-1.6-2.1-2.9-3.3c-1.2-1.1-2.3-1.8-3-2.2c-0.4-0.2-0.4-0.8-0.1-1c0.7-0.6,1.9-1.6,2.8-2.9
				c0.9-1.3,1.7-2.7,2.1-3.7c0.1-0.2,0.3-0.3,0.5-0.4c0.2,0,0.5,0.1,0.6,0.3c0.6,1,1.6,2.4,3,3.5c1.3,1,2.4,1.8,3.1,2.2
				C421.4,347.9,421.5,348.5,421.1,348.7z"/>
			<path id="XMLID_74_" fill="#F774B9" d="M415.5,355.6c-0.2,0-0.5-0.1-0.6-0.3c-0.6-0.8-1.6-2.1-2.9-3.3c-1.2-1.1-2.3-1.8-3-2.2
				c-0.4-0.2-0.4-0.8-0.1-1c0.7-0.6,1.9-1.6,2.8-2.9c0.9-1.3,1.7-2.7,2.1-3.7c0.1-0.2,0.3-0.3,0.5-0.4L415.5,355.6z"/>
		</g>
	</g>
</g>
<g id="MOUTH">
	<g id="XMLID_61_">
		<g id="XMLID_63_">
			<path id="XMLID_64_" fill="#132968" d="M321.2,348.6c-8.1,0-12-6.6-13-10.3c-0.3-1.3,0.5-2.7,1.8-3c1.3-0.3,2.7,0.4,3,1.8
				c0.2,0.7,2.1,7,8.9,6.6c6.6-0.5,6.4-6.9,6.4-7.6c-0.1-1.4,1-2.6,2.3-2.6c1.4-0.1,2.6,1,2.6,2.3c0.3,4.2-1.7,12.2-11,12.9
				C321.9,348.6,321.5,348.6,321.2,348.6z"/>
		</g>
	</g>
</g>
<g id="CHEEK">
	<g id="XMLID_56_">
		
			<ellipse id="XMLID_62_" transform="matrix(0.9741 -0.226 0.226 0.9741 -69.6947 74.0038)" fill="#F774B9" cx="288.4" cy="341.4" rx="9.6" ry="5.6"/>
		
			<ellipse id="XMLID_57_" transform="matrix(0.9741 -0.226 0.226 0.9741 -65.639 87.7586)" fill="#F774B9" cx="350.5" cy="330.6" rx="9.6" ry="5.6"/>
	</g>
</g>
<g id="EYES">
	<g id="XMLID_30_">
		<g id="XMLID_33_">
			
				<ellipse id="XMLID_34_" transform="matrix(0.9825 -0.1864 0.1864 0.9825 -53.8759 60.0334)" fill="#132968" cx="292.4" cy="316.6" rx="7.4" ry="10.5"/>
		</g>
		<g id="XMLID_31_">
			
				<ellipse id="XMLID_32_" transform="matrix(0.9825 -0.1864 0.1864 0.9825 -51.7422 68.7315)" fill="#132968" cx="339.7" cy="309.6" rx="7.4" ry="10.5"/>
		</g>
	</g>
</g>
</svg>
