<?xml version="1.0" encoding="utf-8"?>
<!-- Generator: Adobe Illustrator 19.0.0, SVG Export Plug-In . SVG Version: 6.00 Build 0)  -->
<svg version="1.1" xmlns="http://www.w3.org/2000/svg" xmlns:xlink="http://www.w3.org/1999/xlink" x="0px" y="0px"
	 viewBox="0 0 600 600" enable-background="new 0 0 600 600" xml:space="preserve">
<g id="BACKGROUND">
	<path id="XMLID_1_" fill="#FDC172" d="M305.5,171.3c-20-13.3-61.6-14.6-83.1,31s-40,89.2-57.4,112.7s-16.9,69,6.2,90.6
		c23.1,21.6,61.6,29.6,81.6,38c20,8.5,23.6,30.1,51.8,36.2c28.2,6.1,69.2-27.2,87.7-58.2c18.5-31,29.8-43.7,48.7-62
		c19-18.3,13.3-95.4-33.3-104.7C345.5,242.5,333,189.6,305.5,171.3z"/>
</g>
<g id="PAPER_2">
	<path id="XMLID_3_" fill="#C7DCF9" d="M167,242.7c-4.3,1.3-6.6,6.1-4.7,10.2c11.1,24.5,46.5,101.1,74.9,149.1
		c28.2,47.6,70.5,75.4,84.5,83.7c2.8,1.6,6.2,1.3,8.7-0.8L445,385.7c3.8-3.3,3.3-9.2-0.9-11.9c-11.6-7.4-32.6-25.3-53.5-67
		c-25-49.7-43.7-92.4-50.2-107.7c-1.5-3.5-5.3-5.3-8.9-4.2L167,242.7z"/>
</g>
<g id="PAPER_1">
	<g id="XMLID_179_">
		<path id="XMLID_273_" fill="#F8FBFF" d="M456.5,381L341.4,485.7c-1.4,1.2-3.3,1.6-5,0.8c-5-2.2-15.8-7.3-24.3-13.4
			c-5.1-3.7-14.6-10.3-25.8-21.1c-13.7-13.2-30.1-32.8-44.8-61.2C218,345.3,182.8,253,174.4,231c-1-2.6,0.5-5.4,3.1-6.1l162.7-43.6
			c2.4-0.6,4.8,0.7,5.6,3c5.3,16.1,25.6,76,52.2,128.9c5,10,10.1,18.4,15,25.5c17.9,25.8,34.2,34.3,42.3,37
			C457.6,376.6,458.3,379.4,456.5,381z"/>
		<path id="XMLID_263_" fill="#E6F1FF" d="M456.5,381L341.4,485.7c-1.4,1.2-3.3,1.6-5,0.8c-5-2.2-15.8-7.3-24.3-13.4
			c-5.1-3.7-14.6-10.3-25.8-21.1l126.8-113.1c17.9,25.8,34.2,34.3,42.3,37C457.6,376.6,458.3,379.4,456.5,381z"/>
	</g>
</g>
<g id="CIRCLE">
	<path id="XMLID_40_" fill="#C7DCF9" d="M372.9,312.3c-5.2-36.7-38.2-66.1-73.7-65.6c-35.5,0.5-60.2,30.6-55,67.4
		c5.2,36.7,38.2,66.1,73.7,65.6C353.4,379.2,378.1,349,372.9,312.3z M318,369.9c-31.1,0.4-59.9-25.2-64.4-57.3
		c-4.5-32.1,17-58.4,48.1-58.9c31.1-0.4,59.9,25.2,64.4,57.3C370.6,343.1,349.1,369.5,318,369.9z"/>
</g>
<g id="CHECKLIST">
	<path id="XMLID_7_" fill="#F46CB4" d="M271.4,325.9l31.7,22.3c2.1,1.4,4.9,0.6,5.9-1.7l40.8-92.8c0.8-1.9,0.1-4.1-1.7-5.1l-3.1-1.8
		c-2-1.2-4.6-0.3-5.6,1.8l-37,78.9c-0.6,1.3-2.2,1.7-3.3,0.9l-20.4-14.6c-2-1.4-4.8-0.7-5.9,1.5l-2.8,5.6
		C269.2,322.6,269.8,324.8,271.4,325.9z"/>
</g>
<g id="ORNAMENT_3">
	<g id="XMLID_51_">
		<g id="XMLID_4_">
			<path id="XMLID_15_" fill="#99ADF9" d="M408.8,216.5l-7.5,25.3c-0.2,0.7-0.8,1.2-1.5,1.3c-0.6,0.1-1.2-0.1-1.7-0.6l-18.3-20.2
				c-1.7-1.8-2.2-4.5-1.3-6.8l10-26.5c0.2-0.4,0.5-0.7,0.9-0.8c0.4-0.1,0.9,0.1,1.2,0.5l16.9,21.8
				C409,212.3,409.4,214.5,408.8,216.5z"/>
			<path id="XMLID_13_" fill="#546ED3" d="M399.8,243.2c-0.6,0.1-1.2-0.1-1.7-0.6l-18.3-20.2c-1.7-1.8-2.2-4.5-1.3-6.8l10-26.5
				c0.2-0.4,0.5-0.7,0.9-0.8L399.8,243.2z"/>
		</g>
		<g id="XMLID_23_">
			<path id="XMLID_25_" fill="#99ADF9" d="M437.9,447.8l-5.4,18.3c-0.2,0.5-0.6,0.9-1.1,0.9c-0.4,0.1-0.9-0.1-1.2-0.4L417,452.1
				c-1.2-1.3-1.6-3.2-0.9-4.9l7.2-19.2c0.1-0.3,0.4-0.5,0.7-0.6c0.3-0.1,0.7,0,0.9,0.3l12.2,15.8C438,444.7,438.3,446.3,437.9,447.8
				z"/>
			<path id="XMLID_24_" fill="#546ED3" d="M431.4,467.1c-0.4,0.1-0.9-0.1-1.2-0.4L417,452.1c-1.2-1.3-1.6-3.2-0.9-4.9l7.2-19.2
				c0.1-0.3,0.4-0.5,0.7-0.6L431.4,467.1z"/>
		</g>
		<g id="XMLID_26_">
			<path id="XMLID_28_" fill="#99ADF9" d="M227.6,417.9l-5.4,18.3c-0.2,0.5-0.6,0.9-1.1,0.9c-0.4,0.1-0.9-0.1-1.2-0.4l-13.2-14.6
				c-1.2-1.3-1.6-3.2-0.9-4.9L213,398c0.1-0.3,0.4-0.5,0.7-0.6c0.3-0.1,0.7,0,0.9,0.3l12.2,15.8
				C227.8,414.8,228.1,416.4,227.6,417.9z"/>
			<path id="XMLID_27_" fill="#546ED3" d="M221.1,437.1c-0.4,0.1-0.9-0.1-1.2-0.4l-13.2-14.6c-1.2-1.3-1.6-3.2-0.9-4.9L213,398
				c0.1-0.3,0.4-0.5,0.7-0.6L221.1,437.1z"/>
		</g>
		<g id="XMLID_17_">
			<path id="XMLID_19_" fill="#99ADF9" d="M258.9,164l-4.6,15.4c-0.1,0.4-0.5,0.7-0.9,0.8c-0.4,0.1-0.7,0-1-0.4l-11.1-12.3
				c-1-1.1-1.3-2.7-0.8-4.1l6.1-16.1c0.1-0.3,0.3-0.4,0.6-0.5c0.3-0.1,0.6,0,0.8,0.3l10.3,13.2C259.1,161.5,259.3,162.8,258.9,164z"
				/>
			<path id="XMLID_18_" fill="#546ED3" d="M253.5,180.2c-0.4,0.1-0.7,0-1-0.4l-11.1-12.3c-1-1.1-1.3-2.7-0.8-4.1l6.1-16.1
				c0.1-0.3,0.3-0.4,0.6-0.5L253.5,180.2z"/>
		</g>
		<g id="XMLID_20_">
			<path id="XMLID_22_" fill="#99ADF9" d="M159.2,199.5l-9.8,33.1c-0.3,1-1.1,1.5-1.9,1.7c-0.8,0.1-1.6-0.1-2.2-0.8l-23.9-26.3
				c-2.2-2.4-2.8-5.8-1.7-8.9l13.1-34.6c0.2-0.6,0.7-0.9,1.2-1c0.6-0.1,1.2,0.1,1.6,0.6l22.1,28.5C159.5,194,160,196.9,159.2,199.5z
				"/>
			<path id="XMLID_21_" fill="#546ED3" d="M147.5,234.3c-0.8,0.1-1.6-0.1-2.2-0.8l-23.9-26.3c-2.2-2.4-2.8-5.8-1.7-8.9l13.1-34.6
				c0.2-0.6,0.7-0.9,1.2-1L147.5,234.3z"/>
		</g>
	</g>
</g>
<g id="ORNAMENT_2">
	<g id="XMLID_5_">
		<g id="XMLID_256_">
			<g id="XMLID_117_">
				<circle id="XMLID_121_" fill="#E6F1FF" cx="437.8" cy="315.6" r="7.5"/>
				<circle id="XMLID_120_" fill="#E6F1FF" cx="393.4" cy="481.8" r="11"/>
				<circle id="XMLID_119_" fill="#E6F1FF" cx="118.9" cy="299.8" r="9.5"/>
				<circle id="XMLID_118_" fill="#E6F1FF" cx="354.8" cy="145.2" r="10.5"/>
			</g>
		</g>
		<g id="XMLID_97_">
			<g id="XMLID_105_">
				<path id="XMLID_178_" fill="#E6F1FF" d="M194.9,376.4c0,0.2,0,0.5,0,0.7c-0.4,2.9-2.9,5.2-5.9,5.2c-3.3,0-6-2.7-6-6
					c0-1.6,0.7-3.1,1.7-4.2c1.1-1.1,2.6-1.8,4.2-1.8C192.2,370.4,194.9,373.1,194.9,376.4z"/>
				<path id="XMLID_107_" fill="#E6F1FF" d="M194.9,376.4c0,0.2,0,0.5,0,0.7c-0.9,1.8-2.8,3.1-5,3.1c-3.1,0-5.6-2.5-5.6-5.6
					c0-0.8,0.2-1.6,0.5-2.4c1.1-1.1,2.6-1.8,4.2-1.8C192.2,370.4,194.9,373.1,194.9,376.4z"/>
			</g>
		</g>
	</g>
</g>
<g id="ORNAMENT_1">
	<g id="XMLID_8_">
		<g id="XMLID_177_">
			<g id="XMLID_189_">
				<path id="XMLID_192_" fill="#F396BF" d="M212.5,137.1c0,0.4,0,0.9-0.1,1.3c-0.7,5.4-5.3,9.6-10.9,9.6c-6.1,0-10.9-4.9-10.9-10.9
					c0-3,1.2-5.7,3.2-7.7c2-2,4.7-3.2,7.8-3.2C207.6,126.1,212.5,131,212.5,137.1z"/>
				<path id="XMLID_191_" fill="#F6B6D2" d="M212.5,137.1c0,0.4,0,0.9-0.1,1.3c-1.7,3.4-5.2,5.7-9.2,5.7c-5.7,0-10.4-4.6-10.4-10.4
					c0-1.5,0.3-3,1-4.3c2-2,4.7-3.2,7.8-3.2C207.6,126.1,212.5,131,212.5,137.1z"/>
			</g>
		</g>
		<g id="XMLID_62_">
			<g id="XMLID_64_">
				<path id="XMLID_90_" fill="#F396BF" d="M501.6,340.7c0,0.5,0,1.1-0.1,1.6c-0.8,6.5-6.3,11.5-13,11.5c-7.2,0-13.1-5.9-13.1-13.1
					c0-3.6,1.5-6.9,3.8-9.2c2.4-2.4,5.7-3.9,9.3-3.9C495.8,327.6,501.6,333.5,501.6,340.7z"/>
				<path id="XMLID_87_" fill="#F6B6D2" d="M501.6,340.7c0,0.5,0,1.1-0.1,1.6c-2.1,4-6.2,6.8-11,6.8c-6.8,0-12.4-5.5-12.4-12.4
					c0-1.9,0.4-3.6,1.1-5.2c2.4-2.4,5.7-3.9,9.3-3.9C495.8,327.6,501.6,333.5,501.6,340.7z"/>
			</g>
		</g>
		<g id="XMLID_10_">
			<g id="XMLID_11_">
				<path id="XMLID_93_" fill="#F396BF" d="M250.5,463.8c0,0.3,0,0.7-0.1,1c-0.5,4.2-4.1,7.4-8.4,7.4c-4.7,0-8.5-3.8-8.5-8.5
					c0-2.3,0.9-4.4,2.5-6c1.5-1.5,3.7-2.5,6-2.5C246.7,455.3,250.5,459.1,250.5,463.8z"/>
				<path id="XMLID_14_" fill="#F6B6D2" d="M250.5,463.8c0,0.3,0,0.7-0.1,1c-1.3,2.6-4,4.4-7.1,4.4c-4.4,0-8-3.6-8-8
					c0-1.2,0.3-2.3,0.7-3.4c1.5-1.5,3.7-2.5,6-2.5C246.7,455.3,250.5,459.1,250.5,463.8z"/>
			</g>
		</g>
	</g>
</g>
</svg>
