<?xml version="1.0" encoding="utf-8"?>
<!-- Generator: Adobe Illustrator 19.0.0, SVG Export Plug-In . SVG Version: 6.00 Build 0)  -->
<svg version="1.1" xmlns="http://www.w3.org/2000/svg" xmlns:xlink="http://www.w3.org/1999/xlink" x="0px" y="0px"
	 viewBox="0 0 600 600" enable-background="new 0 0 600 600" xml:space="preserve">
<g id="SHADOW">
	<path id="XMLID_42_" fill="#E1EAF6" d="M176.9,506.4l183.8-72.7c0.4-0.1,0.9-0.2,1.4-0.2l127,6.5c3.2,0.2,4.5,3.7,2,5.5L398,513.8
		c-8.1,5.8-13.6,8.9-24,8.2l-196.2-9.5C174,512.2,173.3,507.6,176.9,506.4z"/>
</g>
<g id="PUZZLE_BOX">
	<g id="XMLID_41_">
		<g id="XMLID_175_">
			<path id="XMLID_181_" fill="#FEC272" d="M189.1,328.5l116.2-49c9-3.8,18.7-5.4,28.4-4.8l126.7,8.4c6,0.4,10.7,5.4,10.7,11.4
				v141.9c0,4.3-2,8.4-5.4,11l-81.4,62.8c-2.6,2-5.9,3-9.2,2.9L227.2,506c-6.3-0.3-11.6-4.8-12.9-10.9L181,344.3
				C179.5,337.8,183,331.1,189.1,328.5z"/>
			<path id="XMLID_180_" fill="#FEC272" d="M213.3,491.6l-32.5-147.3c-1.2-5.4,3.1-10.4,8.6-10l168,10.7c4.1,0.3,7.3,3.4,7.7,7.5
				l13.7,149.7c0.5,5.8-4.2,10.8-10.1,10.5l-139-7.1C221.8,505.1,215,499.4,213.3,491.6z"/>
			<path id="XMLID_179_" fill="#FFAD5C" d="M367.5,343.7l95.5-55.1c3.6-2.1,8.2,0.5,8.2,4.7v147.3c0,1.7-0.8,3.3-2.1,4.3l-81.3,62.3
				c-3.4,2.6-8.3,0.4-8.7-3.8l-14.2-154.6C364.6,346.8,365.6,344.7,367.5,343.7z"/>
			<path id="XMLID_178_" fill="#FFCB8D" d="M186.7,330l117.5-50c8-3.4,16.7-4.9,25.4-4.4l132.1,7.8c2.8,0.2,3.6,3.8,1.2,5.2
				l-92,53.1c-4.3,2.5-9.2,3.6-14.1,3.3l-169.5-10.8C185.2,333.9,184.7,330.9,186.7,330z"/>
		</g>
		<g id="XMLID_142_">
			<g id="XMLID_172_">
				<path id="XMLID_174_" fill="#F774B9" d="M427.5,398.6l-16,11.3c-1-4.2-4.5-6.1-8-4.4c-3.7,1.8-6.1,7.2-5.3,11.9
					c0.1,0.6,0.2,1.1,0.4,1.6l-16.9,12l-6.7-73.8c-0.4-4.6,1.8-9,5.8-11.4l42.9-25.6L427.5,398.6z"/>
				<path id="XMLID_173_" fill="#F774B9" d="M418.6,363.1c-0.8-4.7,1.6-10.1,5.3-11.9c3.7-1.8,7.4,0.5,8.2,5.3
					c0.8,4.7-1.6,10.1-5.3,11.9C423,370.2,419.4,367.8,418.6,363.1z"/>
			</g>
			<g id="XMLID_166_">
				<path id="XMLID_170_" fill="#CEDEF1" d="M430.6,463.2l-36.8,29c-2.6,2.1-6.5,0.4-6.8-2.9l-5.3-58.3l45.8-32.4l1.3,26.2
					c-0.3,0.1-0.6,0.2-1,0.4c-3.7,1.8-6.1,7.2-5.3,11.9c0.7,4.3,3.8,6.7,7.2,5.6L430.6,463.2z"/>
				<path id="XMLID_169_" fill="#CEDEF1" d="M398.1,417.5c-0.8-4.7,1.6-10.1,5.3-11.9c3.7-1.8,7.4,0.5,8.2,5.3s-1.6,10.1-5.3,11.9
					C402.6,424.6,398.9,422.2,398.1,417.5z"/>
				<g id="XMLID_167_">
					<path id="XMLID_168_" fill="#B9D2EA" d="M383.2,433c-0.3,0-0.6-0.2-0.9-0.4c-0.3-0.5-0.2-1.1,0.2-1.5l16.3-11.7
						c-0.4-2.3-1.3-9.4,3.9-12.8c1.9-1.2,3.6-1.5,5.1-0.8c2,0.9,3,3.3,3.5,5l14.4-10.4c0.5-0.3,1.1-0.2,1.5,0.2
						c0.3,0.5,0.2,1.1-0.2,1.5l-15.7,11.4c-0.3,0.2-0.7,0.3-1,0.1c-0.3-0.1-0.6-0.5-0.6-0.8c-0.2-1.1-0.9-4.3-2.6-5
						c-0.8-0.4-1.9-0.2-3.1,0.6c-4.9,3.2-2.9,11.2-2.9,11.2c0.1,0.4-0.1,0.9-0.4,1.1l-16.9,12.2C383.6,432.9,383.4,433,383.2,433z"
						/>
				</g>
			</g>
			<g id="XMLID_159_">
				<path id="XMLID_165_" fill="#F774B9" d="M467.2,370.7v58.7c0,3.2-1.5,6.2-4,8.2l-32.6,25.7l-3.1-64.6l13.3-9.4
					c1.1,4,4.5,5.9,8,4.2c3.7-1.8,6.1-7.2,5.3-11.9c-0.1-0.5-0.2-1-0.3-1.4L467.2,370.7z"/>
				<path id="XMLID_164_" fill="#F774B9" d="M422.4,437.2c-0.8-4.7,1.6-10.1,5.3-11.9c3.7-1.8,7.4,0.5,8.2,5.3s-1.6,10.1-5.3,11.9
					C426.9,444.3,423.2,441.9,422.4,437.2z"/>
				<g id="XMLID_162_">
					<path id="XMLID_163_" fill="#FC5EB9" d="M428.9,400.7c-0.3,0-0.7-0.2-0.9-0.5c-0.3-0.5-0.2-1.1,0.3-1.5l11.5-7.9
						c0.3-0.2,0.6-0.2,0.9-0.1s0.5,0.3,0.7,0.6c0,0,1.3,2.8,3.6,3.6c1.3,0.4,2.7,0.1,4.2-0.8c7.4-4.4,5.6-13.2,5.6-13.3
						c-0.1-0.4,0.1-0.8,0.4-1.1l10-7.3c0.5-0.3,1.1-0.2,1.5,0.2c0.3,0.5,0.2,1.1-0.2,1.5l-9.5,6.9c0.3,2.4,0.7,10.4-6.7,14.8
						c-2.1,1.2-4.1,1.6-5.9,1c-2.2-0.7-3.6-2.5-4.3-3.7l-10.5,7.3C429.3,400.6,429.1,400.7,428.9,400.7z"/>
				</g>
			</g>
			<g id="XMLID_143_">
				<path id="XMLID_158_" fill="#CEDEF1" d="M467.2,299.4v71.3l-39.7,27.9l-1.5-30c0.3-0.1,0.5-0.2,0.8-0.3
					c3.7-1.8,6.1-7.2,5.3-11.9c-0.7-4.2-3.7-6.6-7-5.7l-1.5-30.4l39.2-23.3C464.8,295.9,467.2,297.2,467.2,299.4z"/>
				<path id="XMLID_152_" fill="#CEDEF1" d="M440.6,388.2c-0.8-4.7,1.6-10.1,5.3-11.9c3.7-1.8,7.4,0.5,8.2,5.3
					c0.8,4.7-1.6,10.1-5.3,11.9C445,395.3,441.4,393,440.6,388.2z"/>
				<g id="XMLID_145_">
					<path id="XMLID_146_" fill="#B9D2EA" d="M429.1,396.1c-0.6,0-1-0.4-1-1l-1.2-25.3c0-0.4,0.2-0.7,0.5-0.9
						c0.3-0.2,6.2-3.9,5.6-11.7c-0.6-7.5-6.1-7.6-6.3-7.6c-0.6,0-1-0.4-1-1l-1.5-26.8c0-0.6,0.4-1.1,1-1.1c0.6,0,1.1,0.4,1.1,1
						l1.4,26c2.1,0.4,6.8,2.1,7.4,9.4c0.6,7.8-4.4,12.1-6.1,13.3l1.2,24.8C430.1,395.6,429.7,396.1,429.1,396.1
						C429.1,396.1,429.1,396.1,429.1,396.1z"/>
				</g>
			</g>
		</g>
		<g id="XMLID_119_">
			<g id="XMLID_135_">
				<path id="XMLID_140_" fill="#FF8D76" d="M414.3,311.2l-43.5,25.1c-5.2,3-11.1,4.4-17,4l-78.5-5l61.9-29.1l25.9,1.7
					c-0.4,0.3-0.7,0.5-0.9,0.8c-1.9,2.2,0.7,4,5.9,4c4.9,0,10.3-1.6,12.5-3.7L414.3,311.2z"/>
				<path id="XMLID_139_" fill="#FF8D76" d="M322.3,318.6c-0.4,2.5-5.8,4.6-12.1,4.8c-6.3,0.2-11.1-1.6-10.8-4.1
					c0.4-2.5,5.8-4.6,12.1-4.8S322.7,316.2,322.3,318.6z"/>
				<g id="XMLID_137_">
					<path id="XMLID_138_" fill="#FC796B" d="M280.9,335.4c-0.4,0-0.8-0.2-0.9-0.6c-0.2-0.5,0-1.1,0.5-1.4l22.7-10.8
						c-1.5-0.6-2.9-1.4-3-2.7c-0.2-1.7,1.8-2.7,3.3-3.3c5.7-2.4,13-1.3,14.7-1l19.3-8.8c0.5-0.2,1.2,0,1.4,0.5
						c0.2,0.5,0,1.1-0.5,1.4l-19.6,9c-0.2,0.1-0.4,0.1-0.6,0.1c-0.1,0-8.1-1.6-13.8,0.8c-1.8,0.8-2,1.3-2,1.3
						c0.2,0.4,2.2,1.2,4.1,1.6c0.4,0.1,0.8,0.5,0.8,0.9s-0.2,0.9-0.6,1.1l-25.2,12C281.2,335.4,281.1,335.4,280.9,335.4z"/>
				</g>
			</g>
			<g id="XMLID_130_">
				<path id="XMLID_134_" fill="#FF8D76" d="M386.9,282.2l-49.8,24l-27.6-1.2c0.2-0.2,0.4-0.3,0.6-0.5c2.1-2.1-0.8-3.8-6.5-3.8
					c-5.4,0-11.3,1.5-13.7,3.4l-28.6-1.3l45.2-19.8c6.9-3,14.4-4.4,21.9-4L386.9,282.2z"/>
				<path id="XMLID_133_" fill="#FF8D76" d="M371.8,293.1c-0.3,1.9-4.4,3.6-9.3,3.7c-4.8,0.2-8.6-1.2-8.3-3.1s4.4-3.6,9.3-3.7
					C368.4,289.8,372.1,291.2,371.8,293.1z"/>
				<g id="XMLID_131_">
					<path id="XMLID_132_" fill="#FC796B" d="M268.7,302.2c-0.4,0-0.8-0.2-1-0.6c-0.2-0.5,0-1.1,0.6-1.4c0.4-0.2,38-15.8,43.5-18.3
						c6.1-2.7,16.2-2.6,24.3-2.1c8.9,0.5,43.4,2.5,43.4,2.5l-0.1,2.1c0,0-34.4-2-43.4-2.5c-7.9-0.4-17.6-0.6-23.3,1.9
						c-5.5,2.5-43.2,18.1-43.6,18.3C268.9,302.2,268.8,302.2,268.7,302.2z"/>
				</g>
			</g>
			<g id="XMLID_125_">
				<path id="XMLID_129_" fill="#E1EAF6" d="M454.1,288.8l-39.8,22.4l-77.1-5l20.3-9.8c1.4,0.4,3.1,0.5,5,0.5c4.8-0.2,9-1.8,9.3-3.7
					c0.1-1-0.8-1.9-2.5-2.4l17.6-8.5l66.5,3.9C454.9,286.1,455.3,288,454.1,288.8z"/>
				<path id="XMLID_128_" fill="#E1EAF6" d="M380.8,308.7c-1.9,2.2-7.6,4-12.8,4s-7.8-1.8-5.9-4c1.9-2.2,7.6-4,12.8-4
					S382.7,306.5,380.8,308.7z"/>
				<g id="XMLID_126_">
					<path id="XMLID_127_" fill="#CEDEF1" d="M342.4,306.3c-0.4,0-0.8-0.2-0.9-0.6c-0.2-0.5,0-1.1,0.5-1.4l15.7-7.4
						c0.2-0.1,0.5-0.1,0.7-0.1c0.1,0,5.8,1.4,11.2-1.2c1.7-0.8,2.6-1.6,2.7-2.4c0.1-0.8-0.6-1.4-0.6-1.4c-0.3-0.2-0.4-0.6-0.4-0.9
						c0-0.3,0.3-0.7,0.6-0.8l15-7.4c0.2-0.1,0.3-0.1,0.5-0.1l64,3.4c0.6,0,1,0.5,1,1.1c0,0.6-0.6,1-1.1,1l-63.7-3.4l-13.6,6.7
						c0.3,0.6,0.5,1.3,0.4,2.1c-0.2,1.6-1.5,2.9-3.9,4.1c-5.3,2.5-10.7,1.7-12.2,1.4l-15.4,7.3C342.7,306.3,342.5,306.3,342.4,306.3
						z"/>
				</g>
			</g>
			<g id="XMLID_120_">
				<path id="XMLID_124_" fill="#E1EAF6" d="M337.2,306.2l-19.1,9c-1.8-0.4-4-0.7-6.5-0.6c-6.3,0.2-11.7,2.4-12.1,4.8
					c-0.2,1.2,1,2.3,3,3.1l-27.2,12.8l-71.5-4.6c-1.2-0.1-1.5-1.8-0.4-2.3l57.9-25.6L337.2,306.2z"/>
				<path id="XMLID_123_" fill="#E1EAF6" d="M310.1,304.4c-2.1,2.1-8.4,3.8-14.1,3.8c-5.7,0-8.6-1.7-6.5-3.8s8.4-3.8,14.1-3.8
					C309.3,300.7,312.2,302.4,310.1,304.4z"/>
				<g id="XMLID_121_">
					<path id="XMLID_122_" fill="#CEDEF1" d="M205.6,330c-0.4,0-0.8-0.2-1-0.6c-0.2-0.5,0-1.1,0.5-1.4l55.8-25
						c0.2-0.1,0.3-0.1,0.5-0.1l29.1,1.7c1.4-1,6.7-4.6,14.1-4c2.1,0.2,4.6,0.6,5,2.3c0.2,0.8-0.2,1.6-0.8,2.3l23.1,1.2
						c0.6,0,1,0.5,1,1.1c0,0.6-0.5,1-1.1,1l-25.9-1.3c-0.5,0-0.9-0.4-1-0.8c-0.1-0.5,0.1-0.9,0.5-1.2c1-0.6,2-1.5,2.1-1.8
						c0,0-0.5-0.5-3.1-0.7c-7.7-0.6-12.9,3.7-13,3.8c-0.2,0.2-0.5,0.3-0.7,0.2l-29.2-1.7L206,329.9C205.8,330,205.7,330,205.6,330z"
						/>
				</g>
			</g>
		</g>
		<g id="XMLID_43_">
			<g id="XMLID_100_">
				<g id="XMLID_102_">
					<path id="XMLID_104_" fill="#1C3177" d="M362.5,433.3l-20.4-1.2l-60.8-3.6l-7.4-60.1l-2.6-20.9l75,4.6c5.1,0.3,9.1,4.3,9.6,9.3
						L362.5,433.3z"/>
					<path id="XMLID_103_" fill="#1C3177" d="M309.9,431.1c-1.4-6.6,3.1-12,10-12c6.9,0,13.6,5.4,15,12s-3.1,12-10,12
						S311.3,437.7,309.9,431.1z"/>
				</g>
			</g>
			<g id="XMLID_95_">
				<path id="XMLID_99_" fill="#E1EAF6" d="M359.5,503.7l-69.4-3.4l-8.8-71.8l28.4,1.7c0,0.3,0.1,0.6,0.2,0.9c1.4,6.6,8.1,12,15,12
					c6.7,0,11.1-5.1,10.1-11.4l27.6,1.6l5.6,61.4C368.6,499.7,364.5,503.9,359.5,503.7z"/>
				<path id="XMLID_98_" fill="#E1EAF6" d="M272.9,466.3c-1.4-6.6,3.1-12,10-12s13.6,5.4,15,12c1.4,6.6-3.1,12-10,12
					C281,478.3,274.3,472.9,272.9,466.3z"/>
				<g id="XMLID_96_">
					<path id="XMLID_97_" fill="#CEDEF1" d="M325.2,445.8c-0.2,0-0.5,0-0.7,0c-13.6-0.5-16.5-10.1-17.1-13.2l-24.4-1.2
						c-0.6,0-1-0.5-1-1.1c0-0.6,0.5-1,1.1-1l25.2,1.3c0.5,0,1,0.4,1,1c0,0.5,1,11.7,15.2,12.2c3.4,0.1,6.1-0.7,8-2.6
						c3.1-3,3.1-7.6,3.1-7.6c0-0.3,0.1-0.6,0.3-0.8c0.2-0.2,0.5-0.3,0.8-0.3l24.5,1c0.6,0,1,0.5,1,1.1c0,0.6-0.5,1-1.1,1l-23.5-0.9
						c-0.2,1.8-0.9,5.4-3.7,8C331.8,444.8,328.8,445.8,325.2,445.8z"/>
				</g>
			</g>
			<g id="XMLID_85_">
				<path id="XMLID_94_" fill="#99ADF9" d="M290.1,500.3l-55.9-2.8c-5.7-0.3-10.6-4.3-11.8-9.9l-14.1-62.7l73.1,3.6l3.2,26
					c-0.5-0.1-1-0.1-1.6-0.1c-6.9,0-11.3,5.4-10,12c1.3,6.5,7.7,11.7,14.4,12L290.1,500.3z"/>
				<path id="XMLID_93_" fill="#99ADF9" d="M231.1,427.1c-1.4-6.6,3.1-12,10-12c6.9,0,13.6,5.4,15,12c1.4,6.6-3.1,12-10,12
					C239.2,439.1,232.5,433.7,231.1,427.1z"/>
				<g id="XMLID_91_">
					<path id="XMLID_92_" fill="#8EA6F4" d="M288.4,499.6c-0.5,0-1-0.4-1-0.9l-1.8-17.7c-3.2-0.5-14.3-3.3-15.4-16.1
						c-0.3-3.6,0.5-6.5,2.5-8.7c2.8-3.1,7-4,9-4.2l-2.5-21.7c-0.1-0.6,0.3-1.1,0.9-1.2c0.6-0.1,1.1,0.3,1.2,0.9l2.7,22.8
						c0,0.3-0.1,0.6-0.2,0.8c-0.2,0.2-0.5,0.4-0.8,0.4c-0.1,0-5.6,0.2-8.6,3.6c-1.6,1.8-2.3,4.2-2,7.2c1.2,13.1,13.8,14.3,14.4,14.3
						c0.5,0,0.9,0.4,1,0.9l1.9,18.5c0.1,0.6-0.4,1.1-0.9,1.1C288.5,499.6,288.4,499.6,288.4,499.6z"/>
				</g>
				<g id="XMLID_89_">
					<path id="XMLID_90_" fill="#8EA6F4" d="M279.2,431.4C279.2,431.4,279.2,431.4,279.2,431.4l-24.9-1.1c-0.5,0-0.9-0.4-1-0.9
						c-0.1-0.5-1.5-11.7-13-11.1c-2.2,0.1-3.9,0.9-5,2.2c-2.3,2.8-1.6,7.3-1.6,7.4c0,0.3,0,0.6-0.3,0.9c-0.2,0.2-0.5,0.4-0.8,0.3
						l-22.7-1.1c-0.6,0-1-0.5-1-1.1s0.5-1,1.1-1l21.5,1.1c-0.1-1.8,0.1-5.2,2.1-7.8c1.5-1.9,3.7-2.9,6.5-3
						c11.4-0.7,14.4,9.1,15.1,12.1l24,1.1c0.6,0,1,0.5,1,1.1C280.2,431,279.8,431.4,279.2,431.4z"/>
				</g>
			</g>
			<g id="XMLID_44_">
				<path id="XMLID_84_" fill="#E1EAF6" d="M264,390.4c-1.4-6.6,3.1-12,10-12s13.6,5.4,15,12s-3.1,12-10,12
					C272.1,402.3,265.4,397,264,390.4z"/>
				<g id="XMLID_47_">
					<path id="XMLID_83_" fill="#E1EAF6" d="M281.3,428.5l-25.2-1.2c0,0,0-0.1,0-0.1c-1.4-6.6-8.1-12-15-12
						c-6.5,0-10.8,4.8-10.1,10.9l-22.7-1.1l-16.3-74c-0.9-4.2,2.5-8.2,6.8-7.9l72.7,4.5L281.3,428.5z"/>
					<g id="XMLID_80_">
						<path id="XMLID_81_" fill="#F0F6FC" d="M279.1,428c-0.5,0-1-0.4-1-0.9l-3.1-26c0-0.3,0.1-0.7,0.3-0.9c0.2-0.2,0.6-0.3,0.9-0.3
							c0,0,4.9,0.8,7.8-1.6c1.4-1.2,2.2-3.1,2.2-5.7c-0.1-10.3-13.1-11.6-13.2-11.6c-0.5,0-0.9-0.4-0.9-0.9l-3.7-31.1
							c-0.1-0.6,0.3-1.1,0.9-1.2c0.6-0.1,1.1,0.3,1.2,0.9l3.6,30.3c3.2,0.5,14.2,3.1,14.3,13.6c0,3.2-1,5.6-2.9,7.3
							c-2.6,2.2-6.2,2.3-8.1,2.2l2.9,24.7c0.1,0.6-0.3,1.1-0.9,1.2C279.2,428,279.1,428,279.1,428z"/>
					</g>
					<g id="XMLID_69_">
						<path id="XMLID_79_" fill="#CEDEF1" d="M209.2,424.7c-0.5,0-0.9-0.3-1-0.8l-15.9-73c-0.4-2,0.1-4,1.4-5.6
							c1.3-1.5,3.3-2.3,5.3-2.2l67.3,5.1c0.6,0,1,0.5,1,1.1c0,0.6-0.6,1-1.1,1l-67.3-5.1c-1.4-0.1-2.7,0.4-3.6,1.5
							c-0.9,1-1.3,2.4-1,3.8l15.9,73c0.1,0.6-0.2,1.1-0.8,1.2C209.4,424.7,209.3,424.7,209.2,424.7z"/>
					</g>
				</g>
			</g>
		</g>
	</g>
</g>
<g id="PUZZLE_1">
	<g id="XMLID_60_">
		<g id="XMLID_108_">
			<path id="XMLID_72_" fill="#99ADF9" d="M240.9,250.4l-27.6-1.6l-0.5,0l-2.1-0.1l-19.7-1.2l-2.3-0.1l-0.5,0l-28.5-1.7l-3.2-26.1
				c0.3,0,0.6,0,0.9,0c6.9,0,11.3-5.4,10-12c-1.3-6.2-7.3-11.4-13.8-11.9l-3.8-31l75.9,4.7c4.6,0.3,8.3,3.9,8.7,8.4L240.9,250.4z"/>
			<path id="XMLID_31_" fill="#99ADF9" d="M188.3,248.2c-1.4-6.6,3.1-12,10-12c6.9,0,13.6,5.4,15,12c1.4,6.6-3.1,12-10,12
				C196.4,260.2,189.7,254.8,188.3,248.2z"/>
		</g>
		<g id="XMLID_359_">
			<path id="XMLID_59_" fill="#8EA6F4" d="M202.7,259.2c-9.6,0-13.5-10-14.4-12.9L161,245c-0.6,0-1-0.5-1-1.1c0-0.6,0.5-1,1.1-1
				l28.1,1.4c0.5,0,0.9,0.3,1,0.8c0,0.1,3,12.1,12.6,12.1c3.2,0,5.5-0.9,6.8-2.6c2.2-2.9,0.9-7.3,0.9-7.4c-0.1-0.3,0-0.7,0.2-0.9
				c0.2-0.3,0.5-0.4,0.9-0.4l27.7,1.6c0.6,0,1,0.5,1,1.1c0,0.6-0.5,1-1.1,1l-26.4-1.6c0.3,1.9,0.4,5.2-1.5,7.8
				C209.5,258.1,206.6,259.2,202.7,259.2z"/>
		</g>
	</g>
</g>
<g id="ORNAMENT_4">
	<g id="XMLID_23_">
		<circle id="XMLID_26_" fill="#FEC272" cx="195.8" cy="285.9" r="4.5"/>
		<circle id="XMLID_25_" fill="#FEC272" cx="121.4" cy="225.6" r="5.8"/>
		<circle id="XMLID_24_" fill="#FEC272" cx="140.7" cy="271.5" r="2.6"/>
	</g>
</g>
<g id="ORNAMENT_5">
	<g id="XMLID_64_">
		<circle id="XMLID_45_" fill="#FEC272" cx="249" cy="141.3" r="5.8"/>
		<circle id="XMLID_285_" fill="#FEC272" cx="232.5" cy="105.7" r="2.6"/>
		<circle id="XMLID_46_" fill="#FEC272" cx="180.2" cy="121.8" r="10.3"/>
	</g>
</g>
<g id="ORNAMENT_1">
	<g id="XMLID_11_">
		<g id="XMLID_12_">
			<polygon id="XMLID_14_" fill="#273D7A" points="136.7,156.5 122.1,184.1 122.1,184.2 105.2,156.5 122.1,128.9 122.1,129 			"/>
			<polygon id="XMLID_13_" fill="#072359" points="122.1,129 122.1,184.1 122.1,184.2 105.2,156.5 122.1,128.9 			"/>
		</g>
	</g>
</g>
<g id="ORNAMENT_3">
	<g id="XMLID_38_">
		<polygon id="XMLID_40_" fill="#273D7A" points="178.6,283.6 171.4,297.3 171.3,297.3 163,283.6 171.3,269.8 171.4,269.9 		"/>
		<polygon id="XMLID_39_" fill="#072359" points="171.4,269.9 171.4,297.3 171.3,297.3 163,283.6 171.3,269.8 		"/>
	</g>
</g>
<g id="ORNAMENT_2_1_">
	<g id="XMLID_3_">
		<polygon id="XMLID_5_" fill="#273D7A" points="272.5,196.6 263.4,213.9 263.4,214 252.8,196.6 263.4,179.3 263.4,179.3 		"/>
		<polygon id="XMLID_4_" fill="#072359" points="263.4,179.3 263.4,213.9 263.4,214 252.8,196.6 263.4,179.3 		"/>
	</g>
</g>
</svg>
