<?xml version="1.0" encoding="utf-8"?>
<!-- Generator: Adobe Illustrator 19.0.0, SVG Export Plug-In . SVG Version: 6.00 Build 0)  -->
<svg version="1.1" xmlns="http://www.w3.org/2000/svg" xmlns:xlink="http://www.w3.org/1999/xlink" x="0px" y="0px"
	 viewBox="0 0 600 600" enable-background="new 0 0 600 600" xml:space="preserve">
<g id="FLOOR">
	
		<ellipse id="XMLID_320_" transform="matrix(0.9998 -2.073861e-002 2.073861e-002 0.9998 -10.2252 7.3729)" fill="#E1ECFF" cx="350.4" cy="496.7" rx="86.5" ry="13.7"/>
</g>
<g id="LEFT_ARM">
	<g id="XMLID_276_">
		<g id="XMLID_284_">
			<path id="XMLID_286_" fill="#E1ECFF" d="M412.7,393c0,0-19.5,3.2-38-1.7c-17.6-4.6-35-25.2-35-25.2l9.4-12.1
				c0,0,4.9,8.8,15.2,16.4c2.9,2.1,6.3,4.2,10.1,5.9c17.2,7.6,37.2,4.9,37.2,4.9l0.7,8.2L412.7,393z"/>
			<path id="XMLID_285_" fill="#D0E0F1" d="M412.7,393c0,0-19.5,3.2-38-1.7c-17.6-4.6-35-25.2-35-25.2l9.4-12.1
				c0,0,4.9,8.8,15.2,16.4c0,4.2,4.1,12.3,10.5,15.2c11.1,5,28.4,3.8,37.5,3.8L412.7,393z"/>
		</g>
		<g id="XMLID_277_">
			<path id="XMLID_283_" fill="#F26F59" d="M407.4,402.7c2-1.3,4.8-5.2,4.8-5.2s3.9,7.2,14.2,7.1c10.3-0.1,25.8-5.5,31.3-9.6
				c2.4-1.8,2.9-3.8,2.5-5.4c-0.5-2.1-2.5-3.7-4-4c-2.2-0.5-10.3,1.1-13,1.7c-0.5,0.1-1.1-0.1-1.4-0.6c-0.1-0.1-0.1-0.2-0.2-0.3
				c-0.2-0.4-0.1-0.8,0.1-1.2c0.2-0.3,0.5-0.5,0.9-0.6c3.4-0.6,10.4-2.1,15.7-4.8c4.4-2.2,5.3-5.8,4.2-8.3c-0.7-1.8-2.4-3-4.4-2.9
				c-4.1,0.2-15,4.8-18.3,6.2c-0.5,0.2-1.1,0-1.3-0.6c-0.1-0.3-0.1-0.6,0.1-0.8c0.1-0.2,0.3-0.3,0.5-0.4c2.9-1.1,12.1-4.5,14.5-6.2
				c1.5-1.1,2.3-3.1,2.1-4.8c-0.2-1.6-1.1-3-3-3.5c-4-1.1-16.7,5.7-21.1,7.7s-4.4,2-4.4,2s1.4-10.6-4.5-14.5l-0.3-0.2
				c-5.5-3.5-4.8,1.7-6.7,10.6c-2,9-7,13.5-7,13.5s-8-3.3-10.1-0.7c-2.2,2.6-4.9,11.5-1.3,18c0.4,0.7,0.7,1.3,1.1,1.9l0,0
				C401.8,401.9,405.6,403.9,407.4,402.7z"/>
			<path id="XMLID_282_" fill="#E55441" d="M431.2,376l3.5,16.7c0.3,1.3-1.2,2.4-2.3,1.7c-1.8-1.1-4.3-2.5-7.3-3.9
				c-2.6-1.2-4.5-1.9-5.8-2.3c-1.1-0.4-1.4-1.8-0.6-2.6c2.6-2.4,6.9-6.7,9.8-10.2C429.3,374.3,430.9,374.7,431.2,376z"/>
			<path id="XMLID_281_" fill="#E55441" d="M407.4,402.7c2-1.3,4.8-5.2,4.8-5.2s3.9,7.2,14.2,7.1c10.3-0.1,25.8-5.5,31.3-9.6
				c2.4-1.8,2.9-3.8,2.5-5.4c-0.4,0.2-0.8,0.3-1.1,0.5c-2.9,1.2-10.6,6-24.4,7.6c-13.7,1.6-23.8-6.2-23.8-6.2s-1.9,3.2-6.8,4.6
				c-2.3,0.6-4.3,0.7-5.7,0.7C401.8,401.9,405.6,403.9,407.4,402.7z"/>
			<path id="XMLID_280_" fill="#E55441" d="M441.7,386.5c-0.2-0.4-0.1-0.8,0.1-1.2c0.2-0.3,0.5-0.5,0.9-0.6
				c3.4-0.6,10.4-2.1,15.7-4.8c4.4-2.2,5.3-5.8,4.2-8.3c-1,1-3.7,3.2-8.5,5c-6.4,2.4-12.9,4.7-13.3,5.9
				C440.3,383.6,439.9,386.4,441.7,386.5z"/>
			<path id="XMLID_279_" fill="#E55441" d="M420.9,372l6.4-3.7c0,0,1.4-10.6-4.5-14.5l-0.3-0.2c0.3,1.7,0.4,4.3-0.1,7.7
				C421.2,368.7,420.9,372,420.9,372z"/>
			<path id="XMLID_278_" fill="#E55441" d="M438.7,374.3c-0.1-0.3-0.1-0.6,0.1-0.8c0.1-0.2,0.3-0.3,0.5-0.4
				c2.9-1.1,12.1-4.5,14.5-6.2c1.5-1.1,2.3-3.1,2.1-4.8l-17.5,7.7c-1.4,0.6-2,2.3-1.2,3.5C437.4,373.8,437.9,374.2,438.7,374.3z"/>
		</g>
	</g>
</g>
<g id="RIGHT_ARM">
	<g id="XMLID_24_">
		<g id="XMLID_130_">
			<g id="XMLID_161_">
				<path id="XMLID_163_" fill="#E1ECFF" d="M300.9,376.7c0,0-8.3,25-23.8,41.8c-15.5,16.8-24.5,19.5-24.5,19.5l-2.2-3.4l-3.1-5
					c0,0,6.7-2.3,22-19.5c5-5.6,8.7-11.3,11.5-16.5c5.8-10.7,7.4-19.1,7.4-19.1L300.9,376.7z"/>
				<path id="XMLID_162_" fill="#D0E0F1" d="M300.9,376.7c0,0-8.3,25-23.8,41.8c-15.5,16.8-24.5,19.5-24.5,19.5l-2.2-3.4
					c4.3-2.2,10.1-5.6,15.7-10.5c10.6-9.4,17.7-20.8,16.7-26.3c-0.3-1.5-1-2.9-1.9-4.1c5.8-10.7,7.4-19.1,7.4-19.1L300.9,376.7z"/>
			</g>
		</g>
		<g id="XMLID_133_">
			<path id="XMLID_157_" fill="#F26F59" d="M264.4,442c-2.3,0.5-7-0.4-7-0.4s2.1,7.9-5.3,15c-7.4,7.1-22.4,14-29.2,14.8
				c-3,0.3-4.7-0.7-5.5-2.2c-1.1-1.9-0.7-4.4,0.1-5.6c1.2-1.9,8.2-6.3,10.5-7.8c0.5-0.3,0.7-0.8,0.6-1.4c0-0.1-0.1-0.2-0.1-0.3
				c-0.2-0.4-0.5-0.7-0.9-0.8c-0.4-0.1-0.7,0-1.1,0.2c-2.9,1.9-8.9,5.7-14.7,7.5c-4.7,1.5-7.8-0.5-8.8-3.1c-0.7-1.8-0.4-3.8,1.2-5.1
				c3.1-2.7,14.1-6.9,17.5-8.2c0.5-0.2,0.8-0.8,0.5-1.3c-0.1-0.3-0.4-0.5-0.6-0.5c-0.2,0-0.4,0-0.6,0.1c-2.8,1.3-11.8,5.2-14.7,5.6
				c-1.9,0.3-3.8-0.6-4.9-2c-1-1.3-1.2-2.9-0.3-4.6c2.1-3.6,16-7.4,20.5-9.1c4.6-1.6,4.6-1.6,4.6-1.6s-8.3-6.7-6.8-13.5l0.1-0.4
				c1.6-6.3,4.7-2.1,12.2,2.9c7.6,5.1,14.4,4.8,14.4,4.8s3.5-7.9,6.8-7.5s11.5,4.9,13.4,12.1c0.2,0.7,0.4,1.4,0.5,2.1l0,0
				C267.8,437.5,266.5,441.6,264.4,442z"/>
			<path id="XMLID_134_" fill="#E55441" d="M227.3,438.5l9,14.5c0.7,1.2,2.5,0.9,2.8-0.4c0.5-2,1.3-4.8,2.6-7.9
				c1.1-2.7,1.9-4.5,2.6-5.7c0.5-1.1-0.2-2.3-1.4-2.3c-3.5,0-9.6,0-14.2-0.5C227.5,435.9,226.6,437.4,227.3,438.5z"/>
			<path id="XMLID_152_" fill="#E55441" d="M264.4,442c-2.3,0.5-7-0.4-7-0.4s2.1,7.9-5.3,15c-7.4,7.1-22.4,14-29.2,14.8
				c-3,0.3-4.7-0.7-5.5-2.2c0.4-0.2,0.8-0.3,1.1-0.5c2.9-1.1,11.8-3.1,22.8-11.4c11-8.4,12.9-20.9,12.9-20.9s3.6,1,8-1.4
				c2.1-1.2,3.6-2.4,4.6-3.4C267.8,437.5,266.5,441.6,264.4,442z"/>
			<path id="XMLID_151_" fill="#E55441" d="M228.5,454.1c-0.2-0.4-0.5-0.7-0.9-0.8c-0.4-0.1-0.7,0-1.1,0.2
				c-2.9,1.9-8.9,5.7-14.7,7.5c-4.7,1.5-7.8-0.5-8.8-3.1c1.4,0,4.9-0.3,9.6-2.3c6.3-2.7,12.6-5.5,13.7-5
				C227.4,451,229.6,452.7,228.5,454.1z"/>
			<path id="XMLID_153_" fill="#E55441" d="M233.3,429.2l-7.2,1.8c0,0-8.3-6.7-6.8-13.5l0.1-0.4c1,1.4,2.7,3.3,5.4,5.4
				C230.8,427,233.3,429.2,233.3,429.2z"/>
			<path id="XMLID_154_" fill="#E55441" d="M222.1,443.2c-0.1-0.3-0.4-0.5-0.6-0.5c-0.2,0-0.4,0-0.6,0.1c-2.8,1.3-11.8,5.2-14.7,5.6
				c-1.9,0.3-3.8-0.6-4.9-2l18-6.6c1.4-0.5,3,0.3,3.3,1.7C222.7,442,222.6,442.6,222.1,443.2z"/>
		</g>
	</g>
</g>
<g id="BODY">
	<g id="XMLID_246_">
		<g id="XMLID_253_">
			<polygon id="XMLID_258_" fill="#1C3177" points="399,453.9 308.7,479.8 291.8,484.6 291.4,415.3 291.1,370.7 299,369.3 
				348.3,360.8 362,386 			"/>
			<polygon id="XMLID_257_" fill="#192859" points="308.7,479.8 291.8,484.6 291.4,415.3 291.1,370.7 299,369.3 303.1,415.9 			"/>
			<path id="XMLID_256_" fill="#212E60" d="M362,386c-9.6,9.8-24.9,21.7-46,27.5c-10.5,2.9-18.5,3.1-24.6,1.7l-0.3-44.6l7.9-1.4
				l49.2-8.5L362,386z"/>
			<path id="XMLID_255_" fill="#192859" d="M303.1,415.9c-4.5,0.4-8.4,0.1-11.7-0.7l-0.3-44.6l7.9-1.4L303.1,415.9z"/>
			<path id="XMLID_254_" fill="#485B95" d="M375.3,429.8l-15.4-29.7c-0.8-1.5-0.2-3.3,1.3-4l0.4-0.2c1.5-0.8,3.3-0.2,4,1.3
				l15.4,29.7c0.8,1.5,0.2,3.3-1.3,4l-0.4,0.2C377.8,431.8,376,431.3,375.3,429.8z"/>
		</g>
		<g id="XMLID_247_">
			<path id="XMLID_250_" fill="#1C3177" d="M415.3,448.1c2.3,5-0.3,10.9-5.5,12.7L295.6,500l-1,0.4l-5.1,1.5
				c-6.8,2-13.8-2.4-14.9-9.4c-0.7-4.6-1.3-9.3-1-12.3c0.7-7.4,6.5-14.1,13.7-17.4c1.2-0.5,4.6-1.7,9.4-3.3
				c24.5-8.2,86.6-27.5,93-29.2c7.6-2,15.5,0.8,20.7,8.6C412.2,441.7,413.9,445,415.3,448.1z"/>
			<path id="XMLID_249_" fill="#192859" d="M295.6,500l-1,0.4l-5.1,1.5c-6.8,2-13.8-2.4-14.9-9.4c-0.7-4.6-1.3-9.3-1-12.3
				c0.7-7.4,6.5-14.1,13.7-17.4c1.2-0.5,4.6-1.7,9.4-3.3c-3.3,3.8-7.4,10.4-5.9,18.5C291.8,484.1,293.8,492.7,295.6,500z"/>
			<path id="XMLID_248_" fill="#485B95" d="M397,439.6l-57.5,18.2c-1.7,0.5-3.5-0.4-4.1-2.1l0,0c-0.5-1.7,0.4-3.5,2.1-4.1l57.5-18.2
				c1.7-0.5,3.5,0.4,4.1,2.1l0,0C399.6,437.2,398.7,439.1,397,439.6z"/>
		</g>
	</g>
</g>
<g id="HEAD">
	<g id="XMLID_26_">
		<g id="XMLID_25_">
			
				<ellipse id="XMLID_79_" transform="matrix(0.9708 0.24 -0.24 0.9708 74.3346 -62.7657)" fill="#192859" cx="294.9" cy="273.9" rx="114.5" ry="116.3"/>
			<g id="XMLID_126_">
				<g id="XMLID_179_">
					<path id="XMLID_340_" fill="#1C3177" d="M409.1,298.2c-0.4,1.7-0.9,3.4-1.4,5c-4.6,15.4-12.2,29.2-22.1,40.8
						c-3.3,3.8-6.8,7.4-10.5,10.8c-24.5,22-58.3,32.9-92.6,27.5c-3.2-0.5-6.4-1.1-9.5-1.9c-21.8-5.4-40.5-16.8-54.8-32
						c-24.6-26.2-36.2-63.6-28-101.1c0.2-1,0.5-2,0.7-3c6-24.3,19.5-44.8,37.4-59.6c4-3.4,8.3-6.4,12.8-9.1l0,0
						c24.8-15.2,55.4-20.9,85.9-13.4c1,0.3,2.1,0.5,3.1,0.8c25.7,7.1,46.9,22.7,61.4,43C409.9,231.7,417.3,265.1,409.1,298.2z"/>
					<path id="XMLID_114_" fill="#F26F59" d="M323.6,221.3l-54,11.9l-41.3-48.4c26.5-21.9,62.7-31.4,98.6-22.5
						c1,0.3,2.1,0.5,3.1,0.8L323.6,221.3z"/>
					<path id="XMLID_119_" fill="#F26F59" d="M409.1,298.2c-0.4,1.7-0.9,3.4-1.4,5l-52.8-7.2l-10.1-51.1l46.7-39
						C409.9,231.7,417.3,265.1,409.1,298.2z"/>
					<path id="XMLID_115_" fill="#F26F59" d="M276.9,299.7l-58.7,48.6c-24.6-26.2-36.2-63.6-28-101.1l79.9,11.2L276.9,299.7z"/>
					<path id="XMLID_117_" fill="#F26F59" d="M375.2,354.8c-24.5,22-58.3,32.9-92.6,27.5l18.2-61.3l43.7-10L375.2,354.8z"/>
				</g>
				<g id="XMLID_316_">
					<g id="XMLID_99_">
						<path id="XMLID_116_" fill="#FEC272" d="M299.1,191.9c-0.5,0.6-1.4,1-2.3,0.6l-8.2-3c-0.7-0.3-1.5-0.1-2,0.4l-5.8,5.2
							c-0.7,0.7-1.7,0.6-2.4,0.2c-0.6-0.4-1-1-0.9-1.8l0.5-5.6c0-0.1,0-0.3,0-0.4c-0.1-0.6-0.5-1.2-1-1.5l-4.7-2.4
							c-1.1-0.6-1.3-1.8-0.8-2.7c0.2-0.5,0.7-0.9,1.3-1l6-1.3c0.4-0.1,0.7-0.3,0.9-0.5c0.3-0.3,0.5-0.6,0.6-1l1.3-6.2
							c0.2-1.1,1.2-1.7,2.1-1.6c0.6,0,1.1,0.3,1.5,0.8l3.5,4.9c0.4,0.6,1.2,0.9,1.9,0.8l7.3-1.2c0.4-0.1,0.8,0,1.1,0.2
							c1.1,0.5,1.6,2,0.7,3.1l-2.9,4.5c-0.4,0.5-0.5,1-0.4,1.6c0,0.2,0.1,0.4,0.2,0.6l2.8,5.3C299.7,190.5,299.6,191.3,299.1,191.9z
							"/>
						<path id="XMLID_111_" fill="#FBB76C" d="M277.9,187.4c-0.1-0.6-0.5-1.2-1-1.5l-4.7-2.4c-1.1-0.6-1.3-1.8-0.8-2.7
							c2,0.7,6,2.1,6.6,3.1C278.5,184.5,278.2,186.1,277.9,187.4z"/>
						<path id="XMLID_109_" fill="#FBB76C" d="M279.3,178.2c0.3-0.3,0.8-0.9,0.9-1.4l1.3-6.2c0.2-1.1,1.2-1.7,2.1-1.6
							c-0.2,1.6-0.5,4.9-0.7,6.5C282.7,176.9,280.7,177.9,279.3,178.2z"/>
						<path id="XMLID_112_" fill="#FBB76C" d="M299.6,177.7l-2.9,4.5c-0.4,0.5-0.5,1-0.4,1.6c-0.9-1.1-1.7-2.6-1.1-3.7
							c0.8-1.5,2.7-4.2,3.7-5.5C300,175.1,300.5,176.6,299.6,177.7z"/>
						<path id="XMLID_113_" fill="#FBB76C" d="M299.1,191.9c-0.5,0.6-1.4,1-2.3,0.6l-8.2-3c-0.7-0.3-1.5-0.1-2,0.4l-5.8,5.2
							c-0.7,0.7-1.7,0.6-2.4,0.2c0-0.1,0.1-0.1,0.2-0.2c0.6-0.7,4.8-5.2,6.1-6.6c1.4-1.4,3-1.7,4.3-1.1
							C290.2,187.9,298.1,191.4,299.1,191.9z"/>
					</g>
					<circle id="XMLID_315_" fill="#FEC272" cx="390.9" cy="259.6" r="8.5"/>
					<circle id="XMLID_318_" fill="#FEC272" cx="331.2" cy="357.2" r="8.5"/>
					<circle id="XMLID_319_" fill="#FEC272" cx="217.3" cy="294.3" r="8.5"/>
				</g>
			</g>
		</g>
		<g id="XMLID_168_">
			<circle id="XMLID_83_" fill="#F9AB5D" cx="306.8" cy="271.7" r="67"/>
			<circle id="XMLID_90_" fill="#FEC272" cx="308.5" cy="270.5" r="64.4"/>
		</g>
	</g>
</g>
<g id="EYE">
	<g id="XMLID_206_">
		<g id="XMLID_208_">
			
				<ellipse id="XMLID_210_" transform="matrix(0.9685 -0.2491 0.2491 0.9685 -62.1028 75.3352)" fill="#1C3177" cx="266.6" cy="283.1" rx="6.9" ry="10.7"/>
			
				<ellipse id="XMLID_209_" transform="matrix(0.9685 -0.2491 0.2491 0.9685 -53.2692 95.9387)" fill="#1C3177" cx="352.5" cy="258.5" rx="6.2" ry="9.6"/>
		</g>
	</g>
</g>
<g id="MOUTH">
	<g id="XMLID_216_">
		<path id="XMLID_218_" fill="#1C3177" d="M333.1,313.2c-1.3,3.6-3.7,6.9-7.5,8c-4.8,1.4-9.9-0.4-13.6-3.3c-3.8-2.8-6.2-6.6-5.8-9
			c0.5-3.5,1.9-2.7,10.6-2.8s10-4.2,12.7-6.1C333.6,297.2,335.6,306,333.1,313.2z"/>
		<path id="XMLID_217_" fill="#FF97C9" d="M333.1,313.2c-1.3,3.6-3.7,6.9-7.5,8c-4.8,1.4-9.9-0.4-13.6-3.3c0.9-1.4,3.5-4.4,9.4-6
			C326.7,310.6,330.6,311.7,333.1,313.2z"/>
	</g>
</g>
<g id="CHEEK">
	<g id="XMLID_213_">
		
			<ellipse id="XMLID_215_" transform="matrix(0.9453 -0.3262 0.3262 0.9453 -70.9495 131.298)" fill="#FFFFFF" cx="356.1" cy="277.2" rx="7.6" ry="3.5"/>
		
			<ellipse id="XMLID_214_" transform="matrix(0.9453 -0.3262 0.3262 0.9453 -83.8803 105.8471)" fill="#FFFFFF" cx="273.7" cy="303.1" rx="9" ry="4.2"/>
	</g>
</g>
<g id="ARROW">
	<g id="XMLID_178_">
		<g id="XMLID_196_">
			<g id="XMLID_198_">
				<path id="XMLID_201_" fill="#1C3177" d="M319.2,241.2l-22.2,4.9l-9.3,2.1c0,0-2.9-39.9-3-52.1c-0.1-5.6,1.4-8.7,3.2-9.9
					c1.9-1.3,4.2-0.5,5.4,1.4C296.9,193.3,319.2,241.2,319.2,241.2z"/>
				<g id="XMLID_199_">
					<path id="XMLID_200_" fill="#0E225B" d="M297,246.1l-9.3,2.1c0,0-2.9-39.9-3-52.1c-0.1-5.6,1.4-8.7,3.2-9.9
						c0.1,3.8,0.6,10.1,2,20.5C291.7,219.4,294.9,235.7,297,246.1z"/>
				</g>
			</g>
		</g>
		<g id="XMLID_185_">
			<circle id="XMLID_193_" fill="#0E225B" cx="308" cy="266.6" r="31.3"/>
			<circle id="XMLID_190_" fill="#1C3177" cx="309.6" cy="264" r="30.5"/>
			<circle id="XMLID_187_" fill="#0E225B" cx="309.3" cy="264.6" r="16.2"/>
		</g>
	</g>
</g>
<g id="ORNAMENT_2">
	<g id="XMLID_184_">
		<path id="XMLID_87_" fill="#E1EAF6" d="M273,138c2-0.3,2.5,2.6,0.6,3.1c-13.5,3.2-32.2,9.6-49.8,21.7
			c-32.8,22.7-37.6,44.5-44.6,43.6s15.8-33,38.1-48.1C232.7,147.9,255.2,140.5,273,138z"/>
		<path id="XMLID_100_" fill="#E1EAF6" d="M416.1,332c-0.8,1.2-2.6,0.2-2-1.1c2.6-5.6,5.4-13.2,7.5-22.2c4.9-21.4,2.4-30.8,5-34.1
			c2.6-3.3,6.8,1.3,4.6,14.7C428.4,306.3,423.1,320.9,416.1,332z"/>
		<path id="XMLID_102_" fill="#E1EAF6" d="M174.1,337.7c-0.5-1.6,1.8-2.6,2.6-1.1c4.1,7.9,11.2,18.5,22.8,28.8
			c22.5,20,33.8,21,33.7,26.1c-0.3,8-13.2,2.9-28.2-9.5C193.3,372.5,179.8,354.5,174.1,337.7z"/>
		<path id="XMLID_105_" fill="#E1EAF6" d="M402.2,186.3c-5.6-7.7-9.4-11.8-12.6-10.1c-3.1,1.8,3.8,8.3,8.6,13.9
			c5.7,6.6,9.4,13.1,11.1,11.4C411,199.9,407.1,193,402.2,186.3z"/>
	</g>
</g>
<g id="ORNAMENT_1">
	<g id="XMLID_123_">
		<circle id="XMLID_171_" fill="#E1EAF6" cx="456.8" cy="296.9" r="5.4"/>
		<circle id="XMLID_160_" fill="#E1EAF6" cx="386.2" cy="156.4" r="4.3"/>
		<circle id="XMLID_159_" fill="#E1EAF6" cx="298.3" cy="115.4" r="6.4"/>
		<circle id="XMLID_158_" fill="#E1EAF6" cx="152.9" cy="280" r="7.5"/>
		<circle id="XMLID_129_" fill="#E1EAF6" cx="192.4" cy="393.6" r="4.3"/>
		<circle id="XMLID_124_" fill="#E1EAF6" cx="152.4" cy="186.1" r="4.7"/>
	</g>
</g>
<g id="SPARKLING">
	<g id="XMLID_30_">
		<g id="XMLID_73_">
			<path id="XMLID_75_" fill="#F396BF" d="M161.2,350.6c-1.5,2.2-3.2,5.2-4.4,8.8c-0.8,2.6-1.4,5.1-1.8,7.2c-0.2,1.2-1,2.1-2,2.5
				c-1.1,0.5-2.4,0.3-3.5-0.6c-2.4-2.1-5.5-4.4-8.7-6c-2.3-1.2-4.1-2-5.4-2.6c-1.8-0.8-2.5-3.1-1.4-4.8c1-1.6,2.1-3.9,3.2-7.2
				c1.1-3.2,1.8-6.6,2.3-9.4c0.2-1.3,1.1-2.2,2.1-2.6c1.1-0.4,2.4-0.3,3.4,0.6c2,1.8,4.5,3.8,7,5.2c2.8,1.5,5.6,2.9,7.8,3.8
				C161.7,346.5,162.4,348.9,161.2,350.6z"/>
			<path id="XMLID_74_" fill="#F47AB5" d="M153,369.2c-1.1,0.5-2.4,0.3-3.5-0.6c-2.4-2.1-5.5-4.4-8.7-6c-2.3-1.2-4.1-2-5.4-2.6
				c-1.8-0.8-2.5-3.1-1.4-4.8c1-1.6,2.1-3.9,3.2-7.2c1.1-3.2,1.8-6.6,2.3-9.4c0.2-1.3,1.1-2.2,2.1-2.6L153,369.2z"/>
		</g>
		<g id="XMLID_61_">
			<path id="XMLID_72_" fill="#F396BF" d="M446.2,331c-0.9,1.3-2,3.1-2.6,5.3c-0.5,1.6-0.8,3.1-1.1,4.4c-0.1,0.7-0.6,1.2-1.2,1.5
				c-0.7,0.3-1.5,0.2-2.1-0.3c-1.5-1.2-3.3-2.7-5.3-3.6c-1.4-0.7-2.4-1.2-3.3-1.6c-1.1-0.5-1.5-1.9-0.9-2.9c0.6-1,1.3-2.4,1.9-4.3
				c0.7-2,1.1-4,1.4-5.7c0.1-0.8,0.6-1.3,1.3-1.5c0.7-0.3,1.5-0.2,2.1,0.4c1.2,1.1,2.7,2.3,4.2,3.1c1.7,0.9,3.4,1.7,4.7,2.3
				C446.5,328.5,446.9,329.9,446.2,331z"/>
			<path id="XMLID_68_" fill="#F47AB5" d="M441.3,342.1c-0.7,0.3-1.5,0.2-2.1-0.3c-1.5-1.2-3.3-2.7-5.3-3.6
				c-1.4-0.7-2.4-1.2-3.3-1.6c-1.1-0.5-1.5-1.9-0.9-2.9c0.6-1,1.3-2.4,1.9-4.3c0.7-2,1.1-4,1.4-5.7c0.1-0.8,0.6-1.3,1.3-1.5
				L441.3,342.1z"/>
		</g>
		<g id="XMLID_34_">
			<path id="XMLID_36_" fill="#F396BF" d="M369.1,126c-1.5,2.2-3.2,5.2-4.4,8.8c-0.8,2.6-1.4,5.1-1.8,7.2c-0.2,1.2-1,2.1-2,2.5
				c-1.1,0.5-2.4,0.3-3.5-0.6c-2.4-2.1-5.5-4.4-8.7-6c-2.3-1.2-4.1-2-5.4-2.6c-1.8-0.8-2.5-3.1-1.4-4.8c1-1.6,2.1-3.9,3.2-7.2
				c1.1-3.2,1.8-6.6,2.3-9.4c0.2-1.3,1.1-2.2,2.1-2.6c1.1-0.4,2.4-0.3,3.4,0.6c2,1.8,4.5,3.8,7,5.2c2.8,1.5,5.6,2.9,7.8,3.8
				C369.6,121.8,370.3,124.2,369.1,126z"/>
			<path id="XMLID_35_" fill="#F47AB5" d="M360.9,144.5c-1.1,0.5-2.4,0.3-3.5-0.6c-2.4-2.1-5.5-4.4-8.7-6c-2.3-1.2-4.1-2-5.4-2.6
				c-1.8-0.8-2.5-3.1-1.4-4.8c1-1.6,2.1-3.9,3.2-7.2c1.1-3.2,1.8-6.6,2.3-9.4c0.2-1.3,1.1-2.2,2.1-2.6L360.9,144.5z"/>
		</g>
		<g id="XMLID_31_">
			<path id="XMLID_33_" fill="#F396BF" d="M178.1,150.6c-0.8,1.2-1.8,2.9-2.4,4.9c-0.5,1.5-0.8,2.9-1,4c-0.1,0.7-0.6,1.1-1.1,1.4
				c-0.6,0.3-1.4,0.2-1.9-0.3c-1.3-1.1-3.1-2.5-4.9-3.4c-1.3-0.6-2.3-1.1-3-1.5c-1-0.5-1.4-1.7-0.8-2.7c0.5-0.9,1.2-2.2,1.8-4
				c0.6-1.8,1-3.7,1.3-5.2c0.1-0.7,0.6-1.2,1.2-1.4c0.6-0.2,1.3-0.2,1.9,0.4c1.1,1,2.5,2.1,3.9,2.9c1.6,0.9,3.1,1.6,4.4,2.1
				C178.4,148.3,178.7,149.7,178.1,150.6z"/>
			<path id="XMLID_32_" fill="#F47AB5" d="M173.5,161c-0.6,0.3-1.4,0.2-1.9-0.3c-1.3-1.1-3.1-2.5-4.9-3.4c-1.3-0.6-2.3-1.1-3-1.5
				c-1-0.5-1.4-1.7-0.8-2.7c0.5-0.9,1.2-2.2,1.8-4c0.6-1.8,1-3.7,1.3-5.2c0.1-0.7,0.6-1.2,1.2-1.4L173.5,161z"/>
		</g>
	</g>
</g>
</svg>
