<?xml version="1.0" encoding="utf-8"?>
<!-- Generator: Adobe Illustrator 19.0.0, SVG Export Plug-In . SVG Version: 6.00 Build 0)  -->
<svg version="1.1" xmlns="http://www.w3.org/2000/svg" xmlns:xlink="http://www.w3.org/1999/xlink" x="0px" y="0px"
	 viewBox="0 0 600 600" enable-background="new 0 0 600 600" xml:space="preserve">
<g id="TAB">
	<g id="XMLID_84_">
		<path id="XMLID_338_" fill="#E1ECFF" d="M430.7,215.7v148.1c0,5.4-4.4,9.8-9.8,9.8H172.9c-5.4,0-9.8-4.4-9.8-9.8V215.7
			c0-5.4,4.4-9.8,9.8-9.8h248.1C426.4,205.9,430.7,210.3,430.7,215.7z"/>
		<g id="XMLID_328_">
			<path id="XMLID_268_" fill="#CDE0FC" d="M351.3,334L351.3,334c0,1.4-1.1,2.5-2.5,2.5h-83.3c-1.4,0-2.5-1.1-2.5-2.5l0,0
				c0-1.4,1.1-2.5,2.5-2.5h83.3C350.2,331.6,351.3,332.7,351.3,334z"/>
			<path id="XMLID_329_" fill="#CDE0FC" d="M351.3,344.8L351.3,344.8c0,1.4-1.1,2.5-2.5,2.5h-83.3c-1.4,0-2.5-1.1-2.5-2.5l0,0
				c0-1.4,1.1-2.5,2.5-2.5h83.3C350.2,342.4,351.3,343.5,351.3,344.8z"/>
			<path id="XMLID_330_" fill="#CDE0FC" d="M351.3,355.7L351.3,355.7c0,1.4-1.1,2.5-2.5,2.5h-83.3c-1.4,0-2.5-1.1-2.5-2.5l0,0
				c0-1.4,1.1-2.5,2.5-2.5h83.3C350.2,353.2,351.3,354.3,351.3,355.7z"/>
		</g>
		<g id="XMLID_135_">
			<path id="XMLID_131_" fill="#CDE0FC" d="M362.1,261.3l7.4,15.1l16.7,2.4c2.8,0.4,4,3.9,1.9,5.9l-12,11.7l2.8,16.6
				c0.5,2.8-2.5,5-5,3.7L359,306l-14.9,10.8c-2.5,1.3-5.5-0.8-5-3.7l2.8-16.6l-12-11.7c-2.1-2-0.9-5.5,1.9-5.9l16.7-2.4l7.4-15.1
				C357.1,258.8,360.8,258.8,362.1,261.3z"/>
			<path id="XMLID_132_" fill="#CDE0FC" d="M297.5,261.3l7.4,15.1l16.7,2.4c2.8,0.4,4,3.9,1.9,5.9l-12,11.7l2.8,16.6
				c0.5,2.8-2.5,5-5,3.7L294.3,306l-14.9,10.8c-2.5,1.3-5.5-0.8-5-3.7l2.8-16.6l-12-11.7c-2.1-2-0.9-5.5,1.9-5.9l16.7-2.4l7.4-15.1
				C292.5,258.8,296.2,258.8,297.5,261.3z"/>
			<path id="XMLID_136_" fill="#CDE0FC" d="M232.8,261.3l7.4,15.1l16.7,2.4c2.8,0.4,4,3.9,1.9,5.9l-12,11.7l2.8,16.6
				c0.5,2.8-2.5,5-5,3.7L229.7,306l-14.9,10.8c-2.5,1.3-5.5-0.8-5-3.7l2.8-16.6l-12-11.7c-2.1-2-0.9-5.5,1.9-5.9l16.7-2.4l7.4-15.1
				C227.9,258.8,231.6,258.8,232.8,261.3z"/>
		</g>
		<g id="XMLID_83_">
			<path id="XMLID_128_" fill="#CDE0FC" d="M430.7,215.8v21.1H163.1v-21.1c0-5.4,4.4-9.8,9.8-9.8h248.1
				C426.4,206,430.7,210.4,430.7,215.8z"/>
			<g id="XMLID_217_">
				<circle id="XMLID_119_" fill="#99ADF9" cx="182.8" cy="221.5" r="4.2"/>
				<circle id="XMLID_122_" fill="#99ADF9" cx="202.3" cy="221.5" r="4.2"/>
				<circle id="XMLID_123_" fill="#99ADF9" cx="221.9" cy="221.5" r="4.2"/>
			</g>
			<g id="XMLID_20_">
				<circle id="XMLID_124_" fill="#99ADF9" cx="407.5" cy="221.5" r="10.3"/>
				<g id="XMLID_126_">
					<path id="XMLID_121_" fill="#FFFFFF" d="M412.4,226.6L412.4,226.6c-0.7,0.7-1.9,0.7-2.7,0l-7.6-7.6c-0.7-0.7-0.7-1.9,0-2.7l0,0
						c0.7-0.7,1.9-0.7,2.7,0l7.6,7.6C413.2,224.7,413.2,225.9,412.4,226.6z"/>
					<path id="XMLID_125_" fill="#FFFFFF" d="M402.2,226.6L402.2,226.6c-0.7-0.7-0.7-1.9,0-2.7l7.6-7.6c0.7-0.7,1.9-0.7,2.7,0l0,0
						c0.7,0.7,0.7,1.9,0,2.7l-7.6,7.6C404.1,227.3,402.9,227.3,402.2,226.6z"/>
				</g>
			</g>
			<rect id="XMLID_334_" x="163.1" y="236.9" fill="#D2E3FC" width="267.7" height="4.9"/>
		</g>
	</g>
</g>
<g id="STAR_1">
	<g id="XMLID_67_">
		<path id="XMLID_82_" fill="#FEC272" d="M388.9,281.2L376.8,293l2.9,16.7c0.2,1.2-0.2,2.4-1,3.1c-1,1-2.6,1.3-4,0.6l-15-10.8
			l-15,10.8c-1.2,0.6-2.6,0.5-3.6-0.2c-1.1-0.7-1.8-2-1.5-3.5l2.9-16.7l-12.1-11.8c-1.2-1.2-1.3-2.9-0.6-4.2
			c0.5-0.9,1.4-1.6,2.6-1.8l16.7-2.4l7.5-15.2c0.7-1.4,2-2,3.3-1.9c1.2,0.1,2.4,0.7,3,1.9l7.5,15.2l16.7,2.4
			c1.1,0.2,1.9,0.8,2.4,1.5C390.2,278.1,390.2,279.9,388.9,281.2z"/>
		<g id="XMLID_80_">
			<path id="XMLID_81_" fill="#FFD29C" d="M367.1,271.7c-0.4,0-0.7-0.2-0.9-0.5l-5.3-11.3c-0.2-0.5,0-1,0.4-1.2c0.5-0.2,1,0,1.2,0.4
				l5.3,11.3c0.2,0.5,0,1-0.4,1.2C367.4,271.6,367.3,271.7,367.1,271.7z"/>
		</g>
		<g id="XMLID_78_">
			<path id="XMLID_79_" fill="#FFD29C" d="M377.3,306.9c-0.4,0-0.8-0.3-0.9-0.7l-2.6-12.2c-0.1-0.5,0.2-1,0.7-1.1
				c0.5-0.1,1,0.2,1.1,0.7l2.6,12.2c0.1,0.5-0.2,1-0.7,1.1C377.5,306.9,377.4,306.9,377.3,306.9z"/>
		</g>
		<g id="XMLID_76_">
			<path id="XMLID_77_" fill="#FFD29C" d="M384.8,277.7c0,0-0.1,0-0.1,0l-12.4-1.7c-0.5-0.1-0.9-0.5-0.8-1.1
				c0.1-0.5,0.5-0.9,1.1-0.8l12.4,1.7c0.5,0.1,0.9,0.5,0.8,1.1C385.7,277.3,385.3,277.7,384.8,277.7z"/>
		</g>
		<g id="XMLID_74_">
			<path id="XMLID_75_" fill="#FFD29C" d="M333.8,278.1c-0.5,0-0.9-0.3-0.9-0.8c-0.1-0.5,0.3-1,0.8-1l6.8-0.9c0.5-0.1,1,0.3,1,0.8
				c0.1,0.5-0.3,1-0.8,1l-6.8,0.9C333.9,278.1,333.8,278.1,333.8,278.1z"/>
		</g>
		<g id="XMLID_72_">
			<path id="XMLID_73_" fill="#FFD29C" d="M341.6,309.8c-0.1,0-0.1,0-0.2,0c-0.5-0.1-0.8-0.6-0.7-1.1l1.2-6.7
				c0.1-0.5,0.6-0.8,1.1-0.7c0.5,0.1,0.8,0.6,0.7,1.1l-1.2,6.7C342.4,309.5,342,309.8,341.6,309.8z"/>
		</g>
		<path id="XMLID_71_" fill="#FFAE55" d="M343,287.6l-0.6,5.4l-12.1-11.8c-1.2-1.2-1.3-2.9-0.6-4.2L343,287.6z"/>
		<path id="XMLID_70_" fill="#FFAE55" d="M378.6,312.8c-1,1-2.6,1.3-4,0.6l-15-10.8l-15,10.8c-1.2,0.6-2.6,0.5-3.6-0.2v0l19-15.6
			L378.6,312.8z"/>
		<path id="XMLID_69_" fill="#FFAE55" d="M388.9,281.2L376.8,293l-1-5.9l13.6-10.3C390.2,278.1,390.2,279.9,388.9,281.2z"/>
		<path id="XMLID_68_" fill="#FFAE55" d="M359.8,255.7l-6.8,16.1l-3.9,1l7.5-15.2C357.1,256.3,358.5,255.6,359.8,255.7z"/>
	</g>
</g>
<g id="STAR_2">
	<g id="XMLID_33_">
		<path id="XMLID_66_" fill="#FEC272" d="M323.1,281.2L311,293l2.9,16.7c0.2,1.2-0.2,2.4-1,3.1c-1,1-2.6,1.3-4,0.6l-15-10.8
			l-15,10.8c-1.2,0.6-2.6,0.5-3.6-0.2c-1.1-0.7-1.8-2-1.5-3.5l2.9-16.7l-12.1-11.8c-1.2-1.2-1.3-2.9-0.6-4.2
			c0.5-0.9,1.4-1.6,2.6-1.8l16.7-2.4l7.5-15.2c0.7-1.4,2-2,3.3-1.9c1.2,0.1,2.4,0.7,3,1.9l7.5,15.2l16.7,2.4
			c1.1,0.2,1.9,0.8,2.4,1.5C324.5,278.1,324.4,279.9,323.1,281.2z"/>
		<g id="XMLID_64_">
			<path id="XMLID_65_" fill="#FFD29C" d="M301.4,271.7c-0.4,0-0.7-0.2-0.9-0.5l-5.3-11.3c-0.2-0.5,0-1,0.4-1.2c0.5-0.2,1,0,1.2,0.4
				l5.3,11.3c0.2,0.5,0,1-0.4,1.2C301.6,271.6,301.5,271.7,301.4,271.7z"/>
		</g>
		<g id="XMLID_62_">
			<path id="XMLID_63_" fill="#FFD29C" d="M311.6,306.9c-0.4,0-0.8-0.3-0.9-0.7L308,294c-0.1-0.5,0.2-1,0.7-1.1
				c0.5-0.1,1,0.2,1.1,0.7l2.6,12.2c0.1,0.5-0.2,1-0.7,1.1C311.7,306.9,311.7,306.9,311.6,306.9z"/>
		</g>
		<g id="XMLID_60_">
			<path id="XMLID_61_" fill="#FFD29C" d="M319,277.7c0,0-0.1,0-0.1,0l-12.4-1.7c-0.5-0.1-0.9-0.5-0.8-1.1c0.1-0.5,0.5-0.9,1.1-0.8
				l12.4,1.7c0.5,0.1,0.9,0.5,0.8,1.1C319.9,277.3,319.5,277.7,319,277.7z"/>
		</g>
		<g id="XMLID_58_">
			<path id="XMLID_59_" fill="#FFD29C" d="M268,278.1c-0.5,0-0.9-0.3-0.9-0.8c-0.1-0.5,0.3-1,0.8-1l6.8-0.9c0.5-0.1,1,0.3,1,0.8
				c0.1,0.5-0.3,1-0.8,1l-6.8,0.9C268.1,278.1,268.1,278.1,268,278.1z"/>
		</g>
		<g id="XMLID_56_">
			<path id="XMLID_57_" fill="#FFD29C" d="M275.8,309.8c-0.1,0-0.1,0-0.2,0c-0.5-0.1-0.8-0.6-0.7-1.1l1.2-6.7
				c0.1-0.5,0.6-0.8,1.1-0.7c0.5,0.1,0.8,0.6,0.7,1.1l-1.2,6.7C276.7,309.5,276.3,309.8,275.8,309.8z"/>
		</g>
		<path id="XMLID_37_" fill="#FFAE55" d="M277.2,287.6l-0.6,5.4l-12.1-11.8c-1.2-1.2-1.3-2.9-0.6-4.2L277.2,287.6z"/>
		<path id="XMLID_36_" fill="#FFAE55" d="M312.9,312.8c-1,1-2.6,1.3-4,0.6l-15-10.8l-15,10.8c-1.2,0.6-2.6,0.5-3.6-0.2v0l19-15.6
			L312.9,312.8z"/>
		<path id="XMLID_35_" fill="#FFAE55" d="M323.1,281.2L311,293l-1-5.9l13.6-10.3C324.5,278.1,324.4,279.9,323.1,281.2z"/>
		<path id="XMLID_34_" fill="#FFAE55" d="M294,255.7l-6.8,16.1l-3.9,1l7.5-15.2C291.4,256.3,292.7,255.6,294,255.7z"/>
	</g>
</g>
<g id="HAND_1">
	<g id="XMLID_266_">
		<g id="XMLID_260_">
			<path id="XMLID_155_" fill="#FEA691" d="M260.4,422.2l2.7,17h-28.4v-30.6c0,0-2-5.7-1.4-16c0.2-3.3,0.6-7.1,1.4-11.3
				c0.3-1.6,0.8-3.5,1.3-5.6c1.5-6,3.4-13.3,4.1-19.1c1-7.8-6.9-28.4-6.1-33.1c0.3-1.9,1-3.1,2-3.6c1.3-0.7,3.1-0.2,4.6,1.4
				c2.7,2.7,14.2,27.5,16.7,32.8c2.5,5.4,7.1,17.2,7.4,22.3c0.2,5.1-6.6,30.1-6.6,30.1L260.4,422.2z"/>
			<path id="XMLID_146_" fill="#FF8D76" d="M241.1,382.8c-2.9,0.7-5.2,3.5-5.2-7.1c1.5-6,3.4-13.3,4.1-19.1c1-7.8-6.9-28.4-6.1-33.1
				c0.3-1.9,1-3.1,2-3.6c2.3,5.5,8.2,20.2,10.3,34.7C248.8,372.8,244.5,382,241.1,382.8z"/>
		</g>
		<path id="XMLID_148_" fill="#FF8D76" d="M234.6,439.2v-30.6c0,0-2-5.7-1.4-16c2.6,7.6,5,10.9,7.8,26.7c1.3,7.5,1.9,14.3,2.1,19.9
			H234.6z"/>
		<path id="XMLID_150_" fill="#FF8D76" d="M263.1,439.2h-28.4V423c2.6,0.7,6.5,1.4,11.7,1.4c5.4,0,10.5-1.1,14.1-2.1L263.1,439.2z"
			/>
		<g id="XMLID_133_">
			<path id="XMLID_157_" fill="#1C3177" d="M268.9,442.4c-2.4,2.1-8.9,6.8-20.3,6.8c-10.8,0-17.3-2.8-20-4.2
				c-0.9-0.5-1.4-1.5-1.2-2.5l2.3-14.2c0.2-1.4,1.6-2.3,2.9-2c1.8,0.4,4.5,1,7.7,1.4c2.6,0.3,5.5,0.6,8.5,0.6
				c6.4,0,11.6-1.8,14.6-3.1c1.4-0.6,3,0.2,3.3,1.7l2.7,12.2l0.2,1.1C269.8,440.9,269.5,441.8,268.9,442.4z"/>
			<path id="XMLID_158_" fill="#132968" d="M268.9,442.4c-2.4,2.1-8.9,6.8-20.3,6.8c-10.8,0-17.3-2.8-20-4.2
				c-0.9-0.5-1.4-1.5-1.2-2.5l0.1-0.5l2.2-13.7c0.2-1.4,1.6-2.3,2.9-2c1.8,0.4,4.5,1,7.7,1.4c3.5,5.8,10.1,13.7,20.1,12.6
				c3.7-0.4,6.6-0.9,9-1.3l0,0l0.2,1C269.8,440.9,269.5,441.8,268.9,442.4z"/>
			<path id="XMLID_153_" fill="#0B1F51" d="M268.9,442.4c-2.4,2.1-8.9,6.8-20.3,6.8c-10.8,0-17.3-2.8-20-4.2
				c-0.9-0.5-1.4-1.5-1.2-2.5l0.1-0.5c4.7,1.8,12.9,4.4,21.7,4.3c9.8-0.1,16.4-4,20.2-7.2l0.2,1
				C269.8,440.9,269.5,441.8,268.9,442.4z"/>
		</g>
		<circle id="XMLID_137_" fill="#0B1F51" cx="259.9" cy="437.1" r="5.6"/>
		<circle id="XMLID_143_" fill="#FEC272" cx="260.4" cy="436.2" r="5.3"/>
	</g>
</g>
<g id="STAR_3">
	<g id="XMLID_134_">
		<path id="XMLID_290_" fill="#FEC272" d="M282,318.6l-20.5,20l4.9,28.3c0.4,2.1-0.4,4-1.7,5.3c-1.7,1.6-4.4,2.2-6.8,1l-25.4-18.4
			l-25.4,18.4c-2.1,1.1-4.3,0.8-6-0.3c-1.8-1.2-3-3.4-2.5-5.9l4.8-28.3l-20.5-20c-2.1-2-2.2-4.9-1.1-7.1c0.8-1.5,2.3-2.7,4.3-3
			l28.4-4.1l12.7-25.7c1.1-2.3,3.4-3.4,5.6-3.3c2,0.1,4,1.2,5,3.3l12.7,25.7l28.4,4.1c1.8,0.3,3.2,1.3,4.1,2.6
			C284.2,313.4,284.2,316.5,282,318.6z"/>
		<g id="XMLID_23_">
			<path id="XMLID_32_" fill="#FFD29C" d="M245.1,302.5c-0.6,0-1.2-0.3-1.5-0.9l-9-19.2c-0.4-0.8,0-1.7,0.8-2.1
				c0.8-0.4,1.7,0,2.1,0.8l9,19.2c0.4,0.8,0,1.7-0.8,2.1C245.5,302.4,245.3,302.5,245.1,302.5z"/>
		</g>
		<g id="XMLID_24_">
			<path id="XMLID_31_" fill="#FFD29C" d="M262.4,362.2c-0.7,0-1.4-0.5-1.5-1.2l-4.5-20.7c-0.2-0.9,0.4-1.7,1.2-1.9
				c0.9-0.2,1.7,0.4,1.9,1.2l4.5,20.7c0.2,0.9-0.4,1.7-1.2,1.9C262.6,362.2,262.5,362.2,262.4,362.2z"/>
		</g>
		<g id="XMLID_25_">
			<path id="XMLID_30_" fill="#FFD29C" d="M275,312.7c-0.1,0-0.1,0-0.2,0l-21-2.9c-0.9-0.1-1.5-0.9-1.4-1.8c0.1-0.9,0.9-1.5,1.8-1.4
				l21,2.9c0.9,0.1,1.5,0.9,1.4,1.8C276.5,312.1,275.8,312.7,275,312.7z"/>
		</g>
		<g id="XMLID_26_">
			<path id="XMLID_29_" fill="#FFD29C" d="M188.5,313.4c-0.8,0-1.5-0.6-1.6-1.4c-0.1-0.9,0.5-1.7,1.4-1.8l11.5-1.5
				c0.9-0.1,1.7,0.5,1.8,1.4s-0.5,1.7-1.4,1.8l-11.5,1.5C188.7,313.4,188.6,313.4,188.5,313.4z"/>
		</g>
		<g id="XMLID_27_">
			<path id="XMLID_28_" fill="#FFD29C" d="M201.8,367.2c-0.1,0-0.2,0-0.3,0c-0.9-0.2-1.4-1-1.3-1.8l2.1-11.4c0.2-0.9,1-1.4,1.8-1.3
				c0.9,0.2,1.4,1,1.3,1.8l-2.1,11.4C203.2,366.7,202.5,367.2,201.8,367.2z"/>
		</g>
		<path id="XMLID_277_" fill="#FFAE55" d="M204.2,329.4l-0.9,9.2l-20.5-20c-2.1-2-2.2-4.9-1.1-7.1L204.2,329.4z"/>
		<path id="XMLID_286_" fill="#FFAE55" d="M264.5,372.2c-1.7,1.6-4.4,2.2-6.8,1l-25.4-18.4l-25.4,18.4c-2.1,1.1-4.3,0.8-6-0.3v0
			l32.2-26.5L264.5,372.2z"/>
		<path id="XMLID_285_" fill="#FFAE55" d="M282,318.6l-20.5,20l-1.7-10l23-17.5C284.2,313.4,284.2,316.5,282,318.6z"/>
		<path id="XMLID_287_" fill="#FFAE55" d="M232.6,275.4L221,302.7l-6.7,1.7l12.7-25.7C228.2,276.4,230.4,275.3,232.6,275.4z"/>
	</g>
</g>
<g id="HAND_2">
	<g id="XMLID_129_">
		<path id="XMLID_152_" fill="#FEA691" d="M246.5,403.1c-1.6,5.2-4.6,7.2-7.2,7.8c-2.5,0.6-4.6,0-4.6,0s-2.6-9.7-6.1-14.5
			c-3.5-4.8-5.5-15-4.1-22.3c1.4-7.3,3.7-26.5,3.8-29.4c0.1-1.6,1.4-3,3-3c1.4,0,2.9,0.9,4.3,3.5c3,5.6,4.5,16.3,4.3,19.5
			c-0.2,3.2,5.6,18.4,5.6,18.4C246.9,387.1,249.7,392.9,246.5,403.1z"/>
		<path id="XMLID_147_" fill="#FF8D76" d="M239.3,411c-2.5,0.6-4.6,0-4.6,0s-2.6-9.7-6.1-14.5c-3.5-4.8-5.5-15-4.1-22.3
			c1.4-7.3,3.7-26.5,3.8-29.4c0.1-1.6,1.4-3,3-3c-0.9,7.4-3.3,30.7-0.4,42.9C233.8,397,236.5,398.7,239.3,411z"/>
	</g>
</g>
<g id="SPARKLING_1">
	<g id="XMLID_269_">
		<path id="XMLID_139_" fill="#F76F59" d="M197.6,399c-5,2.5-9.1,6.6-11.6,11.6c-1.1,2.2-4.1,2.2-5.2,0c-2.5-5-6.6-9.1-11.6-11.6
			c-2.2-1.1-2.2-4.1,0-5.2c5-2.5,9.1-6.6,11.6-11.6c1.1-2.2,4.1-2.2,5.2,0c2.5,5,6.6,9.1,11.6,11.6
			C199.8,394.9,199.8,397.9,197.6,399z"/>
		<path id="XMLID_140_" fill="#F76F59" d="M142.3,244.8c-3.6,1.7-6.4,4.6-8.2,8.2c-0.8,1.5-2.9,1.5-3.7,0c-1.7-3.6-4.6-6.4-8.2-8.2
			c-1.5-0.8-1.5-2.9,0-3.7c3.6-1.7,6.4-4.6,8.2-8.2c0.8-1.5,2.9-1.5,3.7,0c1.7,3.6,4.6,6.4,8.2,8.2
			C143.9,241.9,143.9,244,142.3,244.8z"/>
	</g>
</g>
<g id="SPARKLING_2">
	<g id="XMLID_267_">
		<path id="XMLID_151_" fill="#F76F59" d="M346.1,189.5c-2.6,1.3-4.8,3.5-6.1,6.1c-0.6,1.1-2.2,1.1-2.7,0c-1.3-2.6-3.5-4.8-6.1-6.1
			c-1.1-0.6-1.1-2.2,0-2.7c2.6-1.3,4.8-3.5,6.1-6.1c0.6-1.1,2.2-1.1,2.7,0c1.3,2.6,3.5,4.8,6.1,6.1
			C347.2,187.3,347.2,188.9,346.1,189.5z"/>
		<path id="XMLID_138_" fill="#F76F59" d="M468.2,322.8c-3.4,1.7-6.2,4.4-7.9,7.9c-0.7,1.5-2.8,1.5-3.5,0c-1.7-3.4-4.4-6.2-7.9-7.9
			c-1.5-0.7-1.5-2.8,0-3.5c3.4-1.7,6.2-4.4,7.9-7.9c0.7-1.5,2.8-1.5,3.5,0c1.7,3.4,4.4,6.2,7.9,7.9
			C469.6,320,469.6,322.1,468.2,322.8z"/>
		<path id="XMLID_141_" fill="#F76F59" d="M252.5,169.3c-1.3,0.7-2.4,1.7-3.1,3.1c-0.3,0.6-1.1,0.6-1.4,0c-0.7-1.3-1.7-2.4-3.1-3.1
			c-0.6-0.3-0.6-1.1,0-1.4c1.3-0.7,2.4-1.7,3.1-3.1c0.3-0.6,1.1-0.6,1.4,0c0.7,1.3,1.7,2.4,3.1,3.1
			C253.1,168.2,253.1,169,252.5,169.3z"/>
	</g>
</g>
<g id="SPARKLING_3">
	<g id="XMLID_271_">
		<path id="XMLID_145_" fill="#FFFFFF" d="M380.2,351.2c-1.9,1-3.5,2.5-4.5,4.5c-0.4,0.8-1.6,0.8-2,0c-1-1.9-2.5-3.5-4.5-4.5
			c-0.8-0.4-0.8-1.6,0-2c1.9-1,3.5-2.5,4.5-4.5c0.4-0.8,1.6-0.8,2,0c1,1.9,2.5,3.5,4.5,4.5C381,349.7,381,350.8,380.2,351.2z"/>
		<path id="XMLID_228_" fill="#FFFFFF" d="M415.2,262.1c-1.4,0.7-2.6,1.9-3.3,3.3c-0.3,0.6-1.2,0.6-1.5,0c-0.7-1.4-1.9-2.6-3.3-3.3
			c-0.6-0.3-0.6-1.2,0-1.5c1.4-0.7,2.6-1.9,3.3-3.3c0.3-0.6,1.2-0.6,1.5,0c0.7,1.4,1.9,2.6,3.3,3.3
			C415.9,260.9,415.9,261.8,415.2,262.1z"/>
		<path id="XMLID_144_" fill="#FFFFFF" d="M216.8,259.5c-3.4,1.7-6.1,4.4-7.8,7.8c-0.7,1.5-2.8,1.5-3.5,0c-1.7-3.4-4.4-6.1-7.8-7.8
			c-1.5-0.7-1.5-2.8,0-3.5c3.4-1.7,6.1-4.4,7.8-7.8c0.7-1.5,2.8-1.5,3.5,0c1.7,3.4,4.4,6.1,7.8,7.8
			C218.3,256.8,218.3,258.8,216.8,259.5z"/>
	</g>
</g>
<g id="ORNAMENT_1">
	<g id="XMLID_273_">
		<circle id="XMLID_262_" fill="#E1ECFF" cx="474.1" cy="250.3" r="12.7"/>
		<circle id="XMLID_275_" fill="#E1ECFF" cx="177.3" cy="169.9" r="9.4"/>
		<circle id="XMLID_276_" fill="#E1ECFF" cx="121.1" cy="305.9" r="10"/>
		<circle id="XMLID_289_" fill="#E1ECFF" cx="441.4" cy="180.4" r="6.1"/>
		<path id="XMLID_291_" fill="#E1ECFF" d="M460.6,360.2c-0.4,2.9-2,4.7-3.5,3.5c-1.5-1.2-3.5-1.6-3.5-3.5s1.6-3.5,3.5-3.5
			S460.9,358.2,460.6,360.2z"/>
		<circle id="XMLID_292_" fill="#E1ECFF" cx="326" cy="396.2" r="3.5"/>
		<circle id="XMLID_288_" fill="#E1ECFF" cx="137.5" cy="347.7" r="6.1"/>
		<circle id="XMLID_272_" fill="#E1ECFF" cx="392" cy="398.4" r="6.9"/>
		<circle id="XMLID_274_" fill="#E1ECFF" cx="294.3" cy="181.5" r="4.9"/>
	</g>
</g>
</svg>
