<?xml version="1.0" encoding="utf-8"?>
<!-- Generator: Adobe Illustrator 19.0.0, SVG Export Plug-In . SVG Version: 6.00 Build 0)  -->
<svg version="1.1" xmlns="http://www.w3.org/2000/svg" xmlns:xlink="http://www.w3.org/1999/xlink" x="0px" y="0px"
	 viewBox="0 0 600 600" enable-background="new 0 0 600 600" xml:space="preserve">
<g id="SHADOW_1">
	<ellipse id="XMLID_173_" fill="#E1ECFF" cx="286.5" cy="439.9" rx="70" ry="7.6"/>
</g>
<g id="SHADOW_2">
	<ellipse id="XMLID_199_" fill="#E1ECFF" cx="185.1" cy="428.2" rx="38.6" ry="4.2"/>
</g>
<g id="SHADOW_3">
	<ellipse id="XMLID_198_" fill="#E1ECFF" cx="417.6" cy="425.6" rx="45.2" ry="4.9"/>
</g>
<g id="SHADOW_4">
	<ellipse id="XMLID_200_" fill="#E1ECFF" cx="358.7" cy="409.1" rx="31.2" ry="3.4"/>
</g>
<g id="ORNAMENT_1">
	<g id="XMLID_1_">
		<path id="XMLID_137_" fill="#FFDBB3" d="M163.6,292.8c4.9,4.9,9.7,9.7,8.7,10.7c-0.9,1-7.1-3.5-11.7-7.1
			c-5.3-4.2-10.5-8.2-8.6-10.7C154.3,282.9,159,288.3,163.6,292.8z"/>
		<path id="XMLID_202_" fill="#FFDBB3" d="M175.8,273.6c2.8,7.7,5.3,15.1,3.8,15.7c-1.5,0.6-5.8-7.2-8.8-13.4
			c-3.5-7.2-10.4-21.5-7.1-23.1C167.5,251,173.2,266.5,175.8,273.6z"/>
		<path id="XMLID_203_" fill="#FFDBB3" d="M192,263.9c-0.3,5.4-0.6,10.6-1.7,10.6c-1.1,0-1.7-5.9-2-10.5c-0.3-5.3-0.7-10.4,1.7-10.5
			C192.9,253.4,192.3,258.9,192,263.9z"/>
	</g>
</g>
<g id="ORNAMENT_2">
	<g id="XMLID_3_">
		<path id="XMLID_7_" fill="#FFDBB3" d="M324.5,173.2c-1,6.9-1.8,13.6-0.4,13.8c1.4,0.2,3.5-7,5-12.8c1.7-6.6,3.4-12.9,0.3-13.7
			C326,159.6,325.4,166.8,324.5,173.2z"/>
		<path id="XMLID_5_" fill="#FFDBB3" d="M301.5,170.5c1.9,6.1,3.8,11.9,5,11.6c1.2-0.3,0.2-7.2-0.9-12.5c-1.2-6.1-3.7-18.3-6.5-17.7
			C296,152.5,299.8,164.9,301.5,170.5z"/>
		<path id="XMLID_4_" fill="#FFDBB3" d="M280,177.8c3.5,4.1,6.9,8.1,7.8,7.4c0.8-0.7-2.2-5.7-4.8-9.5c-2.9-4.4-5.7-8.7-7.7-7.3
			C272.9,170,276.8,174,280,177.8z"/>
	</g>
</g>
<g id="ORNAMENT_3">
	<g id="XMLID_6_">
		<path id="XMLID_63_" fill="#FFDBB3" d="M422,292.8c-4.9,4.9-9.7,9.7-8.7,10.7c0.9,1,7.1-3.5,11.7-7.1c5.3-4.2,10.5-8.2,8.6-10.7
			C431.4,282.9,426.6,288.3,422,292.8z"/>
		<path id="XMLID_62_" fill="#FFDBB3" d="M412.5,270.8c-2.3,6.3-4.4,12.4-3.1,12.9c1.2,0.5,4.7-5.9,7.2-11
			c2.9-5.9,8.5-17.6,5.8-18.9C419.3,252.3,414.6,265,412.5,270.8z"/>
		<path id="XMLID_44_" fill="#FFDBB3" d="M391.5,261.1c0.3,5.4,0.6,10.6,1.7,10.6c1.1,0,1.7-5.9,2-10.5c0.3-5.3,0.7-10.4-1.7-10.5
			C390.6,250.6,391.3,256.1,391.5,261.1z"/>
	</g>
</g>
<g id="BOWLING_PINS_1">
	<g id="XMLID_138_">
		<path id="XMLID_644_" fill="#E1ECFF" d="M199.1,358.2c18,28.2,18.1,39.1,17.3,53c-0.4,6.7-6.8,14.2-15.7,17.6
			c-3.4,1.3-7.3,2-11.2,1.8c-14.2-0.9-37.5-21.7-53-49.4c-9.4-16.8-11.7-30.1-13.6-40.7c-1.2-6.8-2.2-12.5-4.8-17.3
			c-2.4-4.4-5.2-7.6-8.1-10.5c-5.1-5.1-10.9-9.1-16.5-16.9c-8.1-11.3-5.5-18.5-1.3-23.1c0.4-0.4,0.8-0.8,1.2-1.2
			c5.5-5.2,19.2-7.9,28.5,7.8c4.6,7.8,6.7,13.9,9.1,19.3c2.5,5.5,5.4,10.4,11.7,15.6c2.7,2.3,6.1,4.3,9.9,6.4
			C166.2,327.9,185.1,336.2,199.1,358.2z"/>
		<path id="XMLID_643_" fill="#F76F59" d="M152.7,320.4c-3.1,3.4-7.9,7.8-15.3,12.5c-2.5,1.6-4.8,2.9-7.1,4.1
			c-2.6,1.4-5.1,2.5-7.4,3.5c-1.2-6.8-2.2-12.5-4.8-17.3c-2.4-4.4-5.2-7.6-8.1-10.5c1.9-0.9,4.1-1.9,6.4-3.2c1-0.5,2-1.1,3-1.8
			c4.6-2.8,8.7-6.5,11.6-9.3c2.5,5.5,5.4,10.4,11.7,15.6C145.5,316.3,148.9,318.3,152.7,320.4z"/>
		<path id="XMLID_642_" fill="#CDE0FC" d="M200.7,428.8c-3.4,1.3-7.3,2-11.2,1.8c-14.2-0.9-37.5-21.7-53-49.4
			c-9.4-16.8-11.7-30.1-13.6-40.7c-1.2-6.8-2.2-12.5-4.8-17.3c-2.4-4.4-5.2-7.6-8.1-10.5c-5.1-5.1-10.9-9.1-16.5-16.9
			c-8.1-11.3-5.5-18.5-1.3-23.1c1.5,5.2,4.9,13.6,12.1,22.4c11.7,14.3,18.9,19.8,26.3,43c7.4,23.2,33.3,61.2,53.4,78.5
			C190.4,422.1,196,426,200.7,428.8z"/>
		<path id="XMLID_641_" fill="#F74F3E" d="M130.3,337c-2.6,1.4-5.1,2.5-7.4,3.5c-1.2-6.8-2.2-12.5-4.8-17.3
			c-2.4-4.4-5.2-7.6-8.1-10.5c1.9-0.9,4.1-1.9,6.4-3.2C121.6,316.2,125.9,323.6,130.3,337z"/>
		<g id="XMLID_639_">
			<path id="XMLID_640_" fill="#FFFFFF" d="M125.4,295.7c-0.1,0-0.1,0.1-0.2,0.1c-1.2,0.3-2.4-0.3-2.7-1.5c0-0.1-3.4-11.2-10.7-17.2
				c-6.6-5.5-11.7-3.3-11.7-3.3c-1.1,0.5-2.4,0.1-2.9-1c-0.5-1.1-0.1-2.4,1-2.9c0.3-0.2,7.5-3.5,16.4,3.8c8.3,6.9,12,18.8,12.1,19.3
				C127,294.1,126.4,295.2,125.4,295.7z"/>
		</g>
		<g id="XMLID_637_">
			<path id="XMLID_638_" fill="#FFA399" d="M147.2,323.2c-0.6,0.2-1.3,0.2-1.9-0.1c-0.2-0.1-4.1-2.2-8.8-7.1
				c-4.7-4.8-8.1-11.1-8.3-11.4c-0.6-1.1-0.2-2.4,0.9-3c1.1-0.6,2.4-0.2,3,0.9c0,0.1,3.3,6.1,7.6,10.5c4.2,4.3,7.7,6.2,7.7,6.3
				c1.1,0.6,1.5,1.9,0.9,2.9C148.1,322.7,147.7,323,147.2,323.2z"/>
		</g>
		<g id="XMLID_631_">
			<path id="XMLID_636_" fill="#FFFFFF" d="M211.8,402.4c-0.1,0-0.2,0.1-0.3,0.1c-1.2,0.3-2.4-0.4-2.7-1.5
				c-0.1-0.2-6.5-23.9-20.9-43.2c-14.2-19.2-33.2-27.1-33.4-27.2c-1.1-0.5-1.6-1.7-1.2-2.8c0.5-1.1,1.7-1.6,2.8-1.2
				c0.8,0.3,20.3,8.5,35.2,28.6c14.8,20,21.3,43.7,21.6,44.7C213.3,400.9,212.8,402,211.8,402.4z"/>
		</g>
	</g>
</g>
<g id="BOWLING_PINS_2">
	<g id="XMLID_167_">
		<path id="XMLID_186_" fill="#E1ECFF" d="M317.3,261.8c10.7,26.5,11,38.3,8.7,49.6c-0.4,2.1-0.9,4.1-1.4,6.2
			c-1.6,6.5-9.4,12.9-18.8,14.6c-3.7,0.7-7.6,0.6-11.5-0.3c-2.3-0.6-4.8-1.7-7.3-3.4c-12.8-8.5-27.6-30.1-36.1-55.5
			c-6.2-18.5-6-32.1-5.9-42.9c0-2.4,0.1-4.7,0-6.9c-0.1-4.1-0.4-7.8-1.6-11.2c-1.6-4.8-3.7-8.5-6.1-11.9c-0.5-0.7-0.9-1.3-1.4-2
			c-3.8-5.2-8.1-10.1-11.8-17.9c-5.9-12.7-2-19.4,3-23.2c0.5-0.4,0.9-0.7,1.4-1c6.4-4.2,20.5-4.3,26.8,13c2.7,7.5,3.8,13.3,5,18.6
			c0.2,0.8,0.3,1.5,0.5,2.3c1.4,6,3.4,11.3,8.7,17.7c1,1.2,2.1,2.4,3.4,3.6c1.6,1.5,3.4,3.1,5.3,4.6
			C290.3,225.7,307.5,237.4,317.3,261.8z"/>
		<path id="XMLID_181_" fill="#F76F59" d="M273,211.1c-3.4,1-7.5,2.4-11.8,4.1c-5.4,2.2-11.4,5.4-16.2,8.1
			c-0.1-4.1-0.4-7.8-1.6-11.2c-1.6-4.8-3.7-8.5-6.1-11.9c-0.5-0.7-0.9-1.3-1.4-2c3.8-2.1,8.4-4.3,14-6.6c3.7-1.5,7.2-2.8,10.4-3.9
			c0.2,0.8,0.3,1.5,0.5,2.3c1.4,6,3.4,11.3,8.7,17.7C270.6,208.7,271.7,209.9,273,211.1z"/>
		<path id="XMLID_187_" fill="#CDE0FC" d="M305.8,332.2c-3.7,0.7-7.6,0.6-11.5-0.3c-13.9-3.5-33.2-28.5-43.4-58.9
			c-6.2-18.5-6-32.1-5.9-42.9c0-2.4,0.1-4.7,0-6.9c-0.1-4.1-0.4-7.8-1.6-11.2c-1.6-4.8-3.7-8.5-6.1-11.9c-0.5-0.7-0.9-1.3-1.4-2
			c-3.8-5.2-8.1-10.1-11.8-17.9c-5.9-12.7-2-19.4,3-23.2c0.6,5.4,2.4,14.4,7.9,24.4c2.8,5.1,5.3,9.2,7.5,13.3
			c3.9,7.1,7,13.9,9.1,24.9c0.6,2.8,1,5.9,1.5,9.4c3,24.4,21.7,66.9,38.4,87.8C296.9,323.6,301.7,328.5,305.8,332.2z"/>
		<g id="XMLID_171_">
			<path id="XMLID_179_" fill="#FFFFFF" d="M255.3,186c-1,0-1.9-0.8-2.1-1.8c0-0.1-1.3-11.8-7.5-19.1c-5.6-6.7-11-5.5-11.2-5.5
				c-1.1,0.3-2.2-0.4-2.5-1.5c-0.3-1.1,0.4-2.2,1.5-2.5c0.3-0.1,8-2,15.4,6.8c6.9,8.3,8.3,20.8,8.4,21.3c0.1,1.1-0.7,2.2-1.8,2.3
				C255.5,186,255.4,186,255.3,186z"/>
		</g>
		<g id="XMLID_170_">
			<path id="XMLID_178_" fill="#FFA399" d="M266.3,211.2c-0.5,0-1-0.2-1.4-0.5c-0.1-0.1-3-2.8-5.6-8.1c-2.2-4.4-3.1-8.3-3.2-8.5
				c-0.3-1.1,0.4-2.2,1.5-2.5c1.1-0.3,2.2,0.4,2.5,1.5l0,0c0,0,0.9,3.6,2.9,7.6c2.3,4.6,4.7,6.8,4.7,6.9c0.8,0.8,0.9,2.1,0.1,2.9
				C267.5,211,266.9,211.2,266.3,211.2z"/>
		</g>
		<g id="XMLID_169_">
			<path id="XMLID_177_" fill="#FFFFFF" d="M321.4,299.8c-1,0-1.9-0.8-2.1-1.8c0-0.2-2.6-22.1-14-43.5
				c-11.4-21.3-32.6-34.2-32.8-34.3c-1-0.6-1.3-1.9-0.7-2.8c0.6-1,1.9-1.3,2.8-0.7c0.9,0.5,22.4,13.6,34.3,35.9
				c11.8,22.2,14.4,44.1,14.5,45c0.1,1.1-0.7,2.2-1.8,2.3C321.5,299.8,321.4,299.8,321.4,299.8z"/>
		</g>
		<path id="XMLID_184_" fill="#CDE0FC" d="M326.1,311.4c-0.4,2.1-0.9,4.1-1.4,6.2c-1.6,6.5-9.4,12.9-18.8,14.6
			c-3.7,0.7-7.6,0.6-11.5-0.3c-2.3-0.6-4.8-1.7-7.3-3.4c3.7-4.2,10.1-8.6,17.9-12.1C312.9,312.9,320.5,311.2,326.1,311.4z"/>
		<path id="XMLID_180_" fill="#F74F3E" d="M251.6,219.6c-2.3,1.2-4.6,2.4-6.6,3.6c-0.1-4.1-0.4-7.8-1.6-11.2
			c-1.6-4.8-3.7-8.5-6.1-11.9c-0.5-0.7-0.9-1.3-1.4-2c1.9-1.1,4.1-2.2,6.6-3.3C246.5,201.9,249.5,208.7,251.6,219.6z"/>
	</g>
</g>
<g id="BOWLING_PINS_3">
	<g id="XMLID_182_">
		<path id="XMLID_654_" fill="#E1ECFF" d="M400.5,359c-13.4,23.3-15.2,34.4-14.6,45.2c0.1,2,0.3,3.9,0.5,6
			c0.7,6.3,7.1,13.2,15.7,16.1c3.3,1.1,7,1.6,10.7,1.2c2.2-0.2,4.7-1,7.3-2.3c13-6.3,29.7-24.5,41-47.1c8.2-16.4,9.8-29.2,11.1-39.3
			c0.3-2.3,0.6-4.4,0.9-6.4c0.6-3.8,1.4-7.2,2.9-10.2c2.1-4.3,4.6-7.5,7.2-10.4c0.5-0.6,1.1-1.1,1.6-1.7c4.3-4.3,8.9-8.3,13.3-15.1
			c7.2-11,4.4-17.8,0.3-22c-0.4-0.4-0.8-0.8-1.2-1.1c-5.5-4.7-18.6-6.7-26.8,8.6c-3.5,6.6-5.3,11.9-7.1,16.7c-0.3,0.7-0.5,1.4-0.8,2
			c-2.1,5.4-4.6,10.1-10.4,15.4c-1.1,1-2.3,1.9-3.6,2.9c-1.7,1.2-3.6,2.4-5.6,3.6C430.5,328.8,412.9,337.5,400.5,359z"/>
		<path id="XMLID_653_" fill="#F76F59" d="M448.6,317.4c3,1.4,6.7,3.2,10.4,5.3c4.8,2.7,10,6.5,14.1,9.6c0.6-3.8,1.4-7.2,2.9-10.2
			c2.1-4.3,4.6-7.5,7.2-10.4c0.5-0.6,1.1-1.1,1.6-1.7c-3.2-2.4-7.3-5.1-12.2-8c-3.3-1.9-6.3-3.6-9.2-5c-0.3,0.7-0.5,1.4-0.8,2
			c-2.1,5.4-4.6,10.1-10.4,15.4C451.1,315.5,449.9,316.5,448.6,317.4z"/>
		<path id="XMLID_652_" fill="#CDE0FC" d="M402.1,426.3c3.3,1.1,7,1.6,10.7,1.2c13.4-1.4,34.7-22.3,48.3-49.3
			c8.2-16.4,9.8-29.2,11.1-39.3c0.3-2.3,0.6-4.4,0.9-6.4c0.6-3.8,1.4-7.2,2.9-10.2c2.1-4.3,4.6-7.5,7.2-10.4
			c0.5-0.6,1.1-1.1,1.6-1.7c4.3-4.3,8.9-8.3,13.3-15.1c7.2-11,4.4-17.8,0.3-22c-1.2,5-4.1,13.1-10.5,21.8c-3.3,4.4-6.1,7.9-8.8,11.4
			c-4.6,6.2-8.3,12.1-11.8,22c-0.9,2.6-1.7,5.4-2.6,8.6c-6,22.4-29,59.6-47.3,77C411.6,419.4,406.4,423.4,402.1,426.3z"/>
		<g id="XMLID_650_">
			<path id="XMLID_651_" fill="#FFFFFF" d="M468.3,296.3c1,0.1,1.9-0.5,2.2-1.5c0-0.1,2.8-10.8,9.5-16.9c6.1-5.5,11-3.7,11.2-3.6
				c1,0.4,2.1-0.1,2.5-1.1c0.4-1,0-2.1-1-2.5c-0.3-0.1-7.2-2.9-15.3,4.4c-7.6,6.9-10.5,18.3-10.6,18.8c-0.3,1,0.4,2.1,1.4,2.4
				C468.2,296.3,468.2,296.3,468.3,296.3z"/>
		</g>
		<g id="XMLID_648_">
			<path id="XMLID_649_" fill="#FFA399" d="M454.7,318.5c0.5,0.1,1,0,1.4-0.3c0.1-0.1,3.2-2.2,6.3-6.8c2.6-3.9,4-7.3,4.1-7.5
				c0.4-1-0.1-2.1-1.1-2.5c-1-0.4-2.1,0.1-2.5,1.1l0,0c0,0-1.3,3.2-3.7,6.7c-2.7,4-5.3,5.8-5.3,5.8c-0.9,0.6-1.1,1.8-0.5,2.7
				C453.7,318.1,454.2,318.4,454.7,318.5z"/>
		</g>
		<g id="XMLID_188_">
			<path id="XMLID_189_" fill="#FFFFFF" d="M391.8,394c1,0.1,1.9-0.5,2.2-1.4c0.1-0.2,5.3-20.3,18.8-38.8
				c13.4-18.4,34.9-27.7,35.1-27.7c1-0.4,1.5-1.6,1-2.6c-0.4-1-1.6-1.5-2.6-1c-0.9,0.4-22.7,9.7-36.7,29
				c-13.9,19.2-19.2,39.3-19.4,40.2c-0.3,1,0.4,2.1,1.4,2.4C391.7,394,391.7,394,391.8,394z"/>
		</g>
		<path id="XMLID_185_" fill="#CDE0FC" d="M385.9,404.2c0.1,2,0.3,3.9,0.5,6c0.7,6.3,7.1,13.2,15.7,16.1c3.3,1.1,7,1.6,10.7,1.2
			c2.2-0.2,4.7-1,7.3-2.3c-2.9-4.4-8.3-9.4-15.2-13.6C398,407.3,391.1,404.8,385.9,404.2z"/>
		<path id="XMLID_183_" fill="#F74F3E" d="M467.4,328.2c2,1.4,4,2.9,5.7,4.2c0.6-3.8,1.4-7.2,2.9-10.2c2.1-4.3,4.6-7.5,7.2-10.4
			c0.5-0.6,1.1-1.1,1.6-1.7c-1.7-1.3-3.6-2.6-5.7-4C474.5,312.3,470.8,318.3,467.4,328.2z"/>
	</g>
</g>
<g id="BOWLING_PINS_4">
	<g id="XMLID_163_">
		<path id="XMLID_647_" fill="#E1ECFF" d="M203.4,294.7c-7.4,27.6-4.7,36.5-0.4,47.6c2,5.3,9.2,9.8,17.3,10.3
			c3.1,0.2,6.4-0.2,9.6-1.5c11.3-4.4,24.9-27.3,30.4-53.9c3.3-16.1,1.8-27.5,0.5-36.6c-0.8-5.9-1.5-10.8-0.6-15.3
			c0.8-4.2,2.2-7.5,3.9-10.7c2.9-5.4,6.5-10.2,9-18c3.7-11.2-0.3-16.5-4.9-19.2c-0.4-0.2-0.9-0.5-1.3-0.7
			c-5.8-2.8-17.7-1.5-21.2,13.7c-1.7,7.5-1.9,13-2.5,18c-0.6,5.2-1.7,9.8-5.5,15.7c-1.6,2.6-3.9,5.1-6.4,7.8
			C222.4,261.6,209.2,273.2,203.4,294.7z"/>
		<path id="XMLID_646_" fill="#F76F59" d="M231.5,252c3.4,2,8.5,4.3,15.7,6.2c2.4,0.6,4.7,1.1,6.8,1.5c2.5,0.5,4.8,0.7,6.9,0.9
			c-0.8-5.9-1.5-10.8-0.6-15.3c0.8-4.2,2.2-7.5,3.9-10.7c-1.8-0.2-3.8-0.5-6-1c-1-0.2-1.9-0.4-2.9-0.7c-4.5-1.1-8.8-3-11.9-4.5
			c-0.6,5.2-1.7,9.8-5.5,15.7C236.3,246.8,234,249.3,231.5,252z"/>
		<path id="XMLID_645_" fill="#CDE0FC" d="M220.3,352.6c3.1,0.2,6.4-0.2,9.6-1.5c11.3-4.4,24.9-27.3,30.4-53.9
			c3.3-16.1,1.8-27.5,0.5-36.6c-0.8-5.9-1.5-10.8-0.6-15.3c0.8-4.2,2.2-7.5,3.9-10.7c2.9-5.4,6.5-10.2,9-18
			c3.7-11.2-0.3-16.5-4.9-19.2c0.1,4.6-0.5,12.3-4.1,21.3c-5.8,14.7-10.3,21-10.3,41.8c0,20.8-11.4,58.4-23.2,77.7
			C227,344.4,223.5,349.1,220.3,352.6z"/>
		<path id="XMLID_176_" fill="#F74F3E" d="M254,259.7c2.5,0.5,4.8,0.7,6.9,0.9c-0.8-5.9-1.5-10.8-0.6-15.3c0.8-4.2,2.2-7.5,3.9-10.7
			c-1.8-0.2-3.8-0.5-6-1C255.7,240.6,254.1,247.7,254,259.7z"/>
		<g id="XMLID_174_">
			<path id="XMLID_175_" fill="#FFFFFF" d="M247.3,224.8c0.1,0,0.1,0,0.2,0c1,0,1.8-0.9,1.8-1.9c0-0.1-0.1-10,4.3-16.7
				c4-6.2,8.7-5.7,8.7-5.7c1,0.2,2-0.6,2.1-1.6c0.1-1-0.6-2-1.6-2.1c-0.3,0-7-0.9-12.3,7.4c-5,7.7-4.9,18.4-4.9,18.8
				C245.6,223.9,246.4,224.7,247.3,224.8z"/>
		</g>
		<g id="XMLID_168_">
			<path id="XMLID_172_" fill="#FFA399" d="M236.6,252.8c0.5,0,1.1-0.1,1.5-0.6c0.1-0.1,2.7-2.8,5.3-8c2.6-5.1,3.7-11.2,3.8-11.4
				c0.2-1-0.5-2-1.5-2.2c-1-0.2-2,0.5-2.2,1.5c0,0.1-1.1,5.8-3.5,10.5c-2.3,4.6-4.6,7.1-4.7,7.1c-0.7,0.7-0.7,1.9,0,2.6
				C235.8,252.6,236.2,252.8,236.6,252.8z"/>
		</g>
		<g id="XMLID_165_">
			<path id="XMLID_166_" fill="#FFFFFF" d="M204.5,334c0.1,0,0.2,0,0.2,0c1,0,1.8-0.9,1.8-1.9c0-0.2-0.8-21.2,5.8-40.6
				c6.6-19.3,20-30.6,20.2-30.7c0.8-0.7,0.9-1.8,0.2-2.6c-0.7-0.8-1.8-0.9-2.6-0.2c-0.6,0.5-14.3,12.1-21.3,32.4
				c-6.9,20.1-6.1,41.1-6,41.9C202.9,333.1,203.6,333.9,204.5,334z"/>
		</g>
	</g>
</g>
<g id="BOWLING_PINS_5">
	<g id="XMLID_190_">
		<path id="XMLID_197_" fill="#E1ECFF" d="M393.3,324c5.5,31.2,1.7,40.8-4.1,52.7c-2.8,5.7-11.1,10-20.1,9.8
			c-3.5-0.1-7.1-0.9-10.5-2.5c-12.1-5.9-25-32.6-28.6-62.6c-2.2-18.2,0.6-30.7,2.9-40.6c1.4-6.4,2.6-11.8,2.1-16.9
			c-0.5-4.8-1.7-8.6-3.3-12.2c-2.7-6.3-6.2-11.9-8.3-20.8c-3-12.8,1.9-18.2,7.2-20.8c0.5-0.2,1-0.5,1.5-0.6
			c6.7-2.6,19.7,0,22.2,17.1c1.2,8.5,0.8,14.6,1,20.2c0.2,5.8,0.9,11.1,4.6,17.9c1.6,3,3.8,6,6.4,9.2
			C375.5,285.6,389,299.7,393.3,324z"/>
		<path id="XMLID_196_" fill="#F76F59" d="M366.3,274.1c-4,1.9-9.8,3.9-17.9,5.4c-2.7,0.5-5.3,0.8-7.7,1c-2.8,0.3-5.4,0.4-7.7,0.4
			c1.4-6.4,2.6-11.8,2.1-16.9c-0.5-4.8-1.7-8.6-3.3-12.2c2-0.1,4.3-0.2,6.7-0.5c1.1-0.1,2.2-0.3,3.3-0.5c5-0.8,10-2.5,13.6-3.9
			c0.2,5.8,0.9,11.1,4.6,17.9C361.5,267.9,363.8,270.9,366.3,274.1z"/>
		<path id="XMLID_195_" fill="#CDE0FC" d="M369.1,386.6c-3.5-0.1-7.1-0.9-10.5-2.5c-12.1-5.9-25-32.6-28.6-62.6
			c-2.2-18.2,0.6-30.7,2.9-40.6c1.4-6.4,2.6-11.8,2.1-16.9c-0.5-4.8-1.7-8.6-3.3-12.2c-2.7-6.3-6.2-11.9-8.3-20.8
			c-3-12.8,1.9-18.2,7.2-20.8c-0.5,5.1-0.6,13.7,2.5,24c5.1,16.8,9.4,24.2,7.4,47.2c-2,23,7,65.7,18.3,88.2
			C362.6,376.9,366,382.4,369.1,386.6z"/>
		<path id="XMLID_194_" fill="#F74F3E" d="M340.7,280.5c-2.8,0.3-5.4,0.4-7.7,0.4c1.4-6.4,2.6-11.8,2.1-16.9
			c-0.5-4.8-1.7-8.6-3.3-12.2c2-0.1,4.3-0.2,6.7-0.5C340.7,259.2,341.8,267.2,340.7,280.5z"/>
		<g id="XMLID_193_">
			<path id="XMLID_635_" fill="#FFFFFF" d="M351.4,242.5c-0.1,0-0.1,0-0.2,0c-1.1-0.1-2-1.1-1.8-2.3c0-0.1,1-11-3.2-18.9
				c-3.8-7.2-9-7.1-9.1-7.1c-1.2,0.1-2.1-0.8-2.2-2c-0.1-1.1,0.8-2.1,1.9-2.2c0.3,0,7.8-0.3,13,9.3c4.8,9,3.7,20.8,3.6,21.3
				C353.3,241.7,352.5,242.5,351.4,242.5z"/>
		</g>
		<g id="XMLID_192_">
			<path id="XMLID_634_" fill="#FFA399" d="M360.6,274.6c-0.6,0-1.2-0.3-1.6-0.8c-0.1-0.1-2.8-3.4-5.1-9.4c-2.4-5.9-3.1-12.7-3.1-13
				c-0.1-1.1,0.7-2.2,1.8-2.3c1.1-0.1,2.2,0.7,2.3,1.8c0,0.1,0.7,6.5,2.9,11.9c2.1,5.3,4.5,8.3,4.5,8.3c0.7,0.9,0.6,2.2-0.3,2.9
				C361.5,274.4,361,274.6,360.6,274.6z"/>
		</g>
		<g id="XMLID_191_">
			<path id="XMLID_633_" fill="#FFFFFF" d="M388.4,367.4c-0.1,0-0.2,0-0.3,0c-1.1-0.1-1.9-1.2-1.8-2.3c0-0.2,2.9-23.3-2.6-45.5
				c-5.5-22-19.3-35.8-19.4-35.9c-0.8-0.8-0.8-2.1,0-2.9c0.8-0.8,2.1-0.8,2.9,0c0.6,0.6,14.7,14.8,20.5,37.9c5.8,22.9,2.8,46,2.7,47
				C390.3,366.6,389.4,367.4,388.4,367.4z"/>
		</g>
	</g>
</g>
<g id="BOWLING_BALL">
	<g id="XMLID_162_">
		<circle id="XMLID_152_" fill="#99ADF9" cx="287.9" cy="381.4" r="61.4"/>
		<path id="XMLID_164_" fill="#85A0F9" d="M349,386.6c-2.6,31.4-29,56.1-61.1,56.1c-33.9,0-61.4-27.5-61.4-61.4c0-9,2-17.6,5.5-25.3
			c-0.1,1.7-0.2,3.5-0.2,5.2c0,33.9,27.5,61.4,61.4,61.4C317.9,422.6,339.4,407.9,349,386.6z"/>
		
			<ellipse id="XMLID_155_" transform="matrix(0.8631 0.5051 -0.5051 0.8631 219.3541 -88.7743)" fill="#283475" cx="273.4" cy="360.1" rx="6.9" ry="9.5"/>
		
			<ellipse id="XMLID_157_" transform="matrix(0.8631 0.5051 -0.5051 0.8631 233.5 -106.1023)" fill="#283475" cx="312.4" cy="377.6" rx="6.9" ry="9.5"/>
		<g id="XMLID_629_">
			
				<ellipse id="XMLID_159_" transform="matrix(-0.5358 0.8444 -0.8444 -0.5358 816.2047 351.5568)" fill="#CDE0FC" cx="311.5" cy="400.2" rx="5" ry="6.9"/>
			
				<ellipse id="XMLID_161_" transform="matrix(-0.5358 0.8444 -0.8444 -0.5358 711.945 354.3335)" fill="#CDE0FC" cx="258.6" cy="372.9" rx="5" ry="6.9"/>
		</g>
		<g id="XMLID_156_">
			<path id="XMLID_630_" fill="#283475" d="M284.7,397.7c-2,0-4-0.5-6.1-1.9c-7.1-4.7-5.8-11.9-4.1-15.1c0.7-1.2,2.2-1.7,3.4-1
				c1.2,0.6,1.7,2.1,1,3.3c-0.5,0.9-2.5,5.4,2.4,8.6c5,3.3,10.4-2.4,10.4-2.4c0.9-1,2.5-1.1,3.5-0.1c1,0.9,1.1,2.5,0.1,3.5
				C293.4,394.8,289.3,397.7,284.7,397.7z"/>
		</g>
		<g id="XMLID_158_">
			<path id="XMLID_632_" fill="#CDE0FC" d="M340.1,372.8c-1.3,0-2.4-1-2.5-2.3c0-0.2-1.9-19.8-20.5-33.8
				c-15.9-11.9-36.4-8.9-36.6-8.8c-1.3,0.2-2.6-0.7-2.8-2.1c-0.2-1.4,0.7-2.6,2.1-2.8c0.9-0.1,22.8-3.4,40.3,9.8
				c20.5,15.4,22.4,36.4,22.5,37.3c0.1,1.4-0.9,2.6-2.3,2.7C340.3,372.8,340.2,372.8,340.1,372.8z"/>
		</g>
	</g>
</g>
</svg>
