<?xml version="1.0" encoding="utf-8"?>
<!-- Generator: Adobe Illustrator 19.0.0, SVG Export Plug-In . SVG Version: 6.00 Build 0)  -->
<svg version="1.1" xmlns="http://www.w3.org/2000/svg" xmlns:xlink="http://www.w3.org/1999/xlink" x="0px" y="0px"
	 viewBox="0 0 600 600" enable-background="new 0 0 600 600" xml:space="preserve">
<g id="FLOOR">
	<ellipse id="XMLID_26_" fill="#CDE0FC" cx="360" cy="483.8" rx="112.8" ry="7.5"/>
</g>
<g id="ORNAMENT_3">
	<g id="XMLID_145_">
		<g id="XMLID_152_">
			<circle id="XMLID_155_" fill="#CDE0FC" cx="186.4" cy="180.5" r="8.1"/>
			<circle id="XMLID_153_" fill="#CDE0FC" cx="199.9" cy="147.2" r="4.7"/>
		</g>
		<circle id="XMLID_151_" fill="#CDE0FC" cx="371.7" cy="186.7" r="4.7"/>
		<circle id="XMLID_150_" fill="#CDE0FC" cx="446.6" cy="274.5" r="10.2"/>
		<circle id="XMLID_149_" fill="#CDE0FC" cx="228.1" cy="410.4" r="5.3"/>
		<circle id="XMLID_148_" fill="#CDE0FC" cx="144.9" cy="335" r="5.3"/>
		<circle id="XMLID_147_" fill="#CDE0FC" cx="232.9" cy="455.6" r="8"/>
		<circle id="XMLID_146_" fill="#CDE0FC" cx="450" cy="372.5" r="4.6"/>
	</g>
</g>
<g id="BODY">
	<g id="XMLID_31_">
		<g id="XMLID_154_">
			<path id="XMLID_232_" fill="#CDE0FC" d="M411,425.7l-10,4.4l-87.9,38.4l-11.3,4.9c0,0-17.9-29.2-20.9-62
				c-2-21.2,4.2-40.6,9.1-52.3c1.8-4.4-0.4-9.4-4.8-11c-12.4-4.4-32.3-13.4-48.7-30.3c-16.7-17.2-28.8-39-35.7-53.3
				c-4.3-8.9-6.5-14.8-6.5-14.8l11.1-4.8l100.7-44l13.6-5.9c0,0,3,6,6.8,15.6c5.8,14.7,13.3,38.1,14.6,61.6
				c1.3,23.6-5.5,44.3-10.7,56.4c-1.9,4.4,0.3,9.4,4.8,11c11.9,4.3,30.3,13,44.6,28.8C401.6,392.8,411,425.7,411,425.7z"/>
			<path id="XMLID_230_" fill="#B7D4F7" d="M326.4,210.6l-125.6,54c-4.3-8.9-6.5-14.8-6.5-14.8l11.1-4.8l100.7-44l13.6-5.9
				C319.6,195,322.6,201,326.4,210.6z"/>
			<linearGradient id="XMLID_33_" gradientUnits="userSpaceOnUse" x1="377.4436" y1="413.7752" x2="336.4015" y2="294.5845">
				<stop  offset="0" style="stop-color:#FFFFFF;stop-opacity:0"/>
				<stop  offset="1" style="stop-color:#E1ECFF"/>
			</linearGradient>
			<path id="XMLID_180_" fill="url(#XMLID_33_)" d="M411,425.7l-10,4.4c-3.2-6.7-7.4-15.4-13-26.8c-22.8-46.4-63.7-56.4-65.9-64.5
				c-2.2-8.1,11.2-24.7,2.2-78.7c-4.5-26.8-11.9-46.3-18.2-59.1l13.6-5.9c0,0,19.2,38.3,21.4,77.2c1.3,23.6-5.5,44.3-10.8,56.4
				c-1.9,4.3,0.3,9.4,4.8,11c11.9,4.3,30.3,13,44.6,28.8C401.6,392.8,411,425.7,411,425.7z"/>
			<g id="XMLID_2_">
				<path id="XMLID_24_" fill="#FFFFFF" d="M331.2,272C331.2,272,331.2,272,331.2,272c-1.6,0-2.8-1.3-2.8-2.9
					c0-0.1,0.3-11.4-1.4-21.7c-1.6-10.2-5.7-20.7-5.7-20.8c-0.6-1.4,0.1-3.1,1.6-3.6c1.4-0.6,3.1,0.1,3.6,1.6
					c0.2,0.4,4.4,11.1,6.1,22c1.7,10.8,1.5,22.2,1.4,22.7C334,270.8,332.8,272,331.2,272z"/>
			</g>
			<g id="XMLID_11_">
				<path id="XMLID_23_" fill="#FFFFFF" d="M383.8,385c-0.9,0-1.8-0.4-2.3-1.3c0,0-2.8-4.1-7.1-9c-4.2-4.8-12.1-10.5-12.2-10.6
					c-1.3-0.9-1.5-2.7-0.6-3.9c0.9-1.3,2.7-1.5,3.9-0.6c0.3,0.2,8.5,6.1,13.1,11.4c4.6,5.1,7.4,9.4,7.5,9.6c0.9,1.3,0.5,3-0.8,3.9
					C384.9,384.8,384.3,385,383.8,385z"/>
			</g>
			<path id="XMLID_181_" fill="#B7D4F7" d="M313.1,468.5l-11.3,4.9c0,0-17.9-29.2-20.9-62c-2-21.2,4.2-40.6,9.1-52.3
				c1.8-4.4-0.4-9.4-4.8-11c-12.4-4.4-32.3-13.4-48.7-30.3c-27.1-27.9-42.2-68.1-42.2-68.1l11.1-4.8c7.4,19,21.3,47.8,43.1,67.9
				c35.2,32.6,48,26,51.4,34.2c4.5,10.8-10.2,30.6-4.9,65.5C298.5,435.9,307.5,457.1,313.1,468.5z"/>
		</g>
		<g id="XMLID_160_">
			<path id="XMLID_162_" fill="#132968" d="M284.5,476.4l-0.1-0.2c-0.6-1.4-0.9-2.8-0.8-4.2c0.2-3.2,2.1-6.1,5.2-7.4l62.8-27.5
				l62.8-27.5c2.3-1,4.7-1,6.7-0.1c0.8,0.3,1.6,0.8,2.2,1.4c1.1,0.9,1.9,2,2.5,3.4c1.8,4.2,0.2,9.2-3.7,11.6
				c-7.6,4.8-18.8,10.9-30.8,17.3c-16.3,8.6-44.9,21.2-62.3,27.3c-12.9,4.5-25,8.6-33.6,10.9C291.1,482.5,286.5,480.4,284.5,476.4z"
				/>
			<path id="XMLID_161_" fill="#274187" d="M283.6,472c0.2-3.2,2.1-6.1,5.2-7.4l62.8-27.5l62.8-27.5c2.3-1,4.7-1,6.7-0.1
				c0.8,0.3,1.6,0.8,2.2,1.4c-6.7,3.3-13.7,6.8-21,10.3c-25.7,12.5-70.3,32.1-96.9,42.4C297.9,466.5,290.5,469.4,283.6,472z"/>
			<path id="XMLID_173_" fill="#0B1F51" d="M426.3,420.2c-0.6,2.3-2,4.4-4.1,5.7c-7.6,4.8-18.8,10.9-30.8,17.3
				c-16.3,8.6-44.9,21.2-62.3,27.3c-12.9,4.5-25,8.6-33.6,10.9c-2.4,0.6-4.9,0.3-7-0.9c9-3,19.4-6.8,30.3-10.8
				c21.9-8,58.2-24,79-34.5C408.1,429.9,418,424.8,426.3,420.2z"/>
		</g>
		<g id="XMLID_28_">
			<g id="XMLID_156_">
				<path id="XMLID_169_" fill="#132968" d="M337.6,184.2l0.1,0.3c0.7,1.9,0.9,3.8,0.8,5.6c-0.3,4.1-2.5,7.8-6,9.3l-71.2,31.1
					L190,261.7c-2.6,1.1-5.4,1-8.1-0.1c-1-0.4-2-1-2.9-1.8c-1.4-1.1-2.7-2.6-3.6-4.3c-2.8-5.4-1.7-11.6,2.7-14.5
					c8.6-5.8,21.5-13,35.4-20.6c18.8-10.3,52.3-24.9,72.6-31.8c15-5.1,29.1-9.6,39.1-12C330.3,175.4,335.5,178.7,337.6,184.2z"/>
				<path id="XMLID_167_" fill="#0B1F51" d="M338.5,190.1c-0.3,4.1-2.5,7.8-6,9.3l-71.2,31.1L190,261.7c-2.6,1.1-5.4,1-8.1-0.1
					c-1-0.4-2-1-2.9-1.8c7.5-3.8,15.6-7.8,23.8-11.9c29.2-14.5,80.3-36.8,110.7-48.4C322.2,196.2,330.6,193,338.5,190.1z"/>
			</g>
			<g id="XMLID_220_">
				<path id="XMLID_225_" fill="#274187" d="M273.6,205.4c-1.1,0-2.2-0.7-2.6-1.8c-0.6-1.4,0.1-3.1,1.6-3.7
					c0.2-0.1,20.5-8.2,34.2-13.2c13.8-5.1,19.5-7.2,19.5-7.2c1.5-0.5,3.1,0.2,3.6,1.7c0.5,1.5-0.2,3.1-1.7,3.6c0,0-5.8,2.1-19.5,7.2
					c-13.6,5-33.8,13.1-34,13.2C274.3,205.4,274,205.4,273.6,205.4z"/>
			</g>
		</g>
		<g id="XMLID_29_">
			<path id="XMLID_164_" fill="#132968" d="M324.7,187.2c2.9-0.7,6,1,7.5,4.1c6.4,13.6,23.7,51.8,45.3,107.7
				c20.7,53.6,34.6,98.7,39,113.2c0.9,2.9-0.6,6-3.2,7.1l-0.4,0.2c-3,1.3-6.4-0.2-7.4-3.4c-5.4-16.5-21.9-66.5-39.8-111.9
				c-18-45.6-36.9-89-44.8-106.9C318.9,193.1,320.8,188.2,324.7,187.2L324.7,187.2z"/>
			<g id="XMLID_221_">
				<path id="XMLID_224_" fill="#274187" d="M402.9,385.4c-1.2,0-2.3-0.7-2.7-1.9c-0.1-0.4-12.5-37.2-25-70.5
					c-12.5-33.3-35.4-86.2-35.6-86.7c-0.6-1.4,0-3.1,1.5-3.7c1.4-0.6,3.1,0,3.7,1.5c0.2,0.5,23.2,53.6,35.8,87
					c12.5,33.4,24.9,70.3,25.1,70.7c0.5,1.5-0.3,3.1-1.8,3.6C403.5,385.4,403.2,385.4,402.9,385.4z"/>
			</g>
		</g>
		<g id="XMLID_30_">
			<path id="XMLID_159_" fill="#132968" d="M184.9,248.3c-2.5,1.7-3.4,5.1-2.1,8.3c5.7,13.9,22,52.6,48.4,106.3
				c25.3,51.6,49.1,92.4,56.8,105.4c1.5,2.6,4.8,3.6,7.4,2.5l0.4-0.2c3-1.3,4.1-4.8,2.5-7.7c-8.5-15.1-34-61.3-55.2-105.2
				c-21.3-44.1-40.4-87.5-48.2-105.4C193.2,248,188.3,246.1,184.9,248.3L184.9,248.3z"/>
			<g id="XMLID_223_">
				<path id="XMLID_222_" fill="#0B1F51" d="M273.4,435.9c-1,0-1.9-0.5-2.5-1.4c-0.3-0.5-28.3-51.1-44-83.1
					c-15.7-32-31.6-67.5-31.8-67.9c-0.6-1.4,0-3.1,1.4-3.7c1.4-0.6,3.1,0,3.7,1.4c0.2,0.4,16,35.8,31.7,67.7
					c15.7,31.9,43.6,82.4,43.9,82.9c0.8,1.4,0.3,3.1-1.1,3.8C274.4,435.8,273.9,435.9,273.4,435.9z"/>
			</g>
		</g>
	</g>
</g>
<g id="MOUTH">
	<g id="XMLID_105_">
		<path id="XMLID_106_" fill="#1C3177" d="M280.8,286.8c-6.4,0-11.8-3.3-12.1-3.4c-1.3-0.8-1.7-2.5-0.9-3.9c0.8-1.3,2.5-1.7,3.9-0.9
			c0.1,0.1,7.9,4.7,14.1,1.5c5.7-3,4.6-9.7,4.6-9.9c-0.3-1.5,0.7-3,2.3-3.3c1.5-0.3,3,0.7,3.3,2.2c0.7,3.8,0.1,12-7.5,15.9
			C285.9,286.3,283.3,286.8,280.8,286.8z"/>
	</g>
</g>
<g id="EYE">
	<g id="XMLID_165_">
		
			<ellipse id="XMLID_170_" transform="matrix(0.9033 -0.429 0.429 0.9033 -90.717 132.4789)" fill="#1C3177" cx="248.5" cy="267.5" rx="9.2" ry="10.7"/>
		
			<ellipse id="XMLID_172_" transform="matrix(0.9033 -0.429 0.429 0.9033 -77.0375 151.0021)" fill="#1C3177" cx="296.4" cy="246.4" rx="9.2" ry="10.7"/>
	</g>
</g>
<g id="CHEEK">
	<g id="XMLID_97_">
		
			<ellipse id="XMLID_99_" transform="matrix(0.8884 -0.4591 0.4591 0.8884 -106.2896 145.5744)" fill="#FF8AC7" cx="246.2" cy="291.4" rx="9.8" ry="5.8"/>
		
			<ellipse id="XMLID_98_" transform="matrix(0.8884 -0.4591 0.4591 0.8884 -84.9517 173.7402)" fill="#FF8AC7" cx="314.8" cy="261.6" rx="9.8" ry="5.8"/>
	</g>
</g>
<g id="SAND_1">
	<g id="XMLID_27_">
		<path id="XMLID_215_" fill="#FEC272" d="M352.6,426.3c-37.7,18.8-54.3,11.1-55.9-0.2c-3.1-21.4,13.2-38.3,13.2-54.6
			c0-17.4-2.2-27-13.5-34.3c-9.2-6-24.1-7.4-30.3-13.6c-1.7-1.7-2.6-3.3-2.8-4.8c-0.4-3.8,4-6.7,11.8-8.4
			c10.7-2.2,16.5-1.7,28.3-11.8c9.3-8,16-11.8,19.1-7c0.8,1.3,1.4,3.2,1.7,5.8c1.4,12.4-6.4,25.8-5.9,36.5
			c0.6,13.2,4.5,23.9,26.7,35.1c12.5,6.3,33.4,10.2,37.9,19.8C387.4,398.6,390.3,407.5,352.6,426.3z"/>
		<path id="XMLID_213_" fill="#FFD29C" d="M322.5,291.7c-1,1.8-2.5,3.7-4.5,5.8c-10.5,11.2-19.7,17.1-36.5,20.8
			c-10.9,2.4-16,1.5-18.1,0.5c-0.4-3.8,4-6.7,11.8-8.4c10.7-2.2,16.5-1.7,28.3-11.8C312.7,290.7,319.4,286.9,322.5,291.7z"/>
	</g>
</g>
<g id="SAND_2">
	<g id="XMLID_86_">
		<circle id="XMLID_92_" fill="#FF8D76" cx="334.5" cy="377.4" r="4.5"/>
		<circle id="XMLID_91_" fill="#FF8D76" cx="300" cy="325.7" r="4.5"/>
		<circle id="XMLID_88_" fill="#FF8D76" cx="321" cy="404" r="6.7"/>
		<circle id="XMLID_87_" fill="#FF8D76" cx="359.3" cy="398" r="5.2"/>
	</g>
</g>
<g id="ORNAMENT_2">
	<g id="XMLID_218_">
		<g id="XMLID_212_">
			<path id="XMLID_178_" fill="#FEC272" d="M158.8,235.7c1.6-1.3-1.5-5.3-6.7-9.6c-5.2-4.3-14.5-9.8-18.3-7.9c-4,2-3.5,6.8,1.9,10.4
				C141,232.2,154.4,239.4,158.8,235.7z"/>
			<path id="XMLID_183_" fill="#FEC272" d="M151.2,261.6c0.6-2-4.2-3.6-10.9-4.3s-33.8-0.8-35.9,2.9c-2.2,3.9,0.8,7.6,7.3,7.6
				S149.6,267.1,151.2,261.6z"/>
		</g>
		<path id="XMLID_185_" fill="#FEC272" d="M166.6,281.2c-0.7-1.4-4.1,0.2-8.1,3.2s-9.6,8.8-8.9,11.8c0.8,3.2,4.3,3.7,7.8,0.5
			C160.9,293.4,168.5,285,166.6,281.2z"/>
	</g>
</g>
<g id="ORNAMENT_1">
	<g id="XMLID_73_">
		<path id="XMLID_75_" fill="#FEC272" d="M334.7,158.5c-3.4-0.3-4-7.3-2.6-23.3c1.3-14.9,0.5-23.4,8.5-23.4c6.5,0,3.4,16.9,2,25.3
			C341.2,145.4,338.4,158.9,334.7,158.5z"/>
		<path id="XMLID_74_" fill="#FEC272" d="M352.8,164.5c-2-1.1,0.4-7.1,10.2-19.8c9.1-11.8,13.7-19,18.9-15c5.2,4-7,15.9-12.6,22.2
			C363.7,158.1,356,166.4,352.8,164.5z"/>
	</g>
</g>
<g id="SPARKLING_1">
	<g id="XMLID_25_">
		<g id="XMLID_174_">
			<path id="XMLID_240_" fill="#FF8AC7" d="M261.5,160.3l-3.4,12c-0.1,0.5-0.4,0.8-0.8,1.1c-0.5,0.4-1.2,0.5-1.9,0.3L244,170
				c-1.1-0.3-1.7-1.5-1.4-2.5l3.8-14c0.2-0.7,0.8-1.2,1.4-1.4c0.5-0.2,1.1-0.1,1.6,0.1l11,5.7C261.3,158.4,261.8,159.4,261.5,160.3z
				"/>
			<path id="XMLID_231_" fill="#F774B9" d="M257.3,173.4c-0.5,0.4-1.2,0.5-1.9,0.3L244,170c-1.1-0.3-1.7-1.5-1.4-2.5l3.8-14
				c0.2-0.7,0.8-1.2,1.4-1.4L257.3,173.4z"/>
		</g>
		<g id="XMLID_176_">
			<path id="XMLID_259_" fill="#FF8AC7" d="M211.6,379.4l-6,17.5c-0.2,0.5-0.6,0.9-1,1.1c-0.6,0.3-1.2,0.3-1.8-0.1l-16.3-9.4
				c-0.9-0.5-1.2-1.6-0.8-2.5l7.1-15.4c0.2-0.4,0.5-0.7,0.8-0.9c0.5-0.3,1.2-0.3,1.8-0.1l15.2,7.2
				C211.5,377.4,211.9,378.5,211.6,379.4z"/>
			<path id="XMLID_257_" fill="#F774B9" d="M204.6,398c-0.6,0.3-1.2,0.3-1.8-0.1l-16.3-9.4c-0.9-0.5-1.2-1.6-0.8-2.5l7.1-15.4
				c0.2-0.4,0.5-0.7,0.8-0.9L204.6,398z"/>
		</g>
	</g>
</g>
<g id="SPARKLING_2">
	<g id="XMLID_20_">
		<g id="XMLID_60_">
			<path id="XMLID_62_" fill="#FF8AC7" d="M410.9,240.1l-6.6,19.2c-0.3,0.9-1,1.5-1.7,1.9c-0.7,0.3-1.6,0.4-2.4,0.1l-15.8-5.9
				c-1.6-0.6-2.4-2.3-1.9-3.9l5.8-19.4c0.2-0.8,0.8-1.5,1.5-1.9c0.8-0.5,1.8-0.6,2.7-0.2L409,236
				C410.6,236.6,411.5,238.4,410.9,240.1z"/>
			<path id="XMLID_61_" fill="#F774B9" d="M402.5,261.2c-0.7,0.3-1.6,0.4-2.4,0.1l-15.8-5.9c-1.6-0.6-2.4-2.3-1.9-3.9l5.8-19.4
				c0.2-0.8,0.8-1.5,1.5-1.9L402.5,261.2z"/>
		</g>
		<g id="XMLID_32_">
			<path id="XMLID_59_" fill="#FF8AC7" d="M436.6,331l-2.4,9.8c-0.1,0.3-0.3,0.6-0.5,0.8c-0.4,0.3-0.9,0.4-1.3,0.2l-10.7-4
				c-0.7-0.3-1.1-1.1-0.8-1.8l4-9.8c0.1-0.3,0.4-0.6,0.7-0.7c0.3-0.2,0.8-0.2,1.1,0l9.2,4C436.5,329.7,436.8,330.4,436.6,331z"/>
			<path id="XMLID_58_" fill="#F774B9" d="M433.7,341.5c-0.4,0.3-0.9,0.4-1.3,0.2l-10.7-4c-0.7-0.3-1.1-1.1-0.8-1.8l4-9.8
				c0.1-0.3,0.4-0.6,0.7-0.7L433.7,341.5z"/>
		</g>
	</g>
</g>
</svg>
