<svg width="210" height="71" viewBox="0 0 210 71" fill="none" xmlns="http://www.w3.org/2000/svg">
<g clip-path="url(#clip0_69_1999)">
<path d="M36.7452 1.26562L30.2642 22.1489H44.4912L51.9648 1.26562H36.7452Z" fill="#252654"/>
<path d="M0 1.26562L17.1659 49.1628H34.8184L42.3698 28.046H28.4347L26.177 35.286L15.6089 1.26562H0Z" fill="#252654"/>
<path d="M86.569 28.0449C86.1577 30.5721 84.8363 32.8616 82.8538 34.4819C80.8714 36.1023 78.3648 36.9417 75.8063 36.842C73.2675 36.9128 70.7893 36.0602 68.8315 34.4424C66.8737 32.8246 65.5693 30.5515 65.1603 28.0449H50.1742C51.4782 41.1237 61.696 50.4073 75.8258 50.4073C89.9555 50.4073 100.193 41.1237 101.477 28.0449H86.569Z" fill="#252654"/>
<path d="M50.2131 22.1483H65.1603C65.6208 19.6691 66.9574 17.4382 68.926 15.8625C70.8947 14.2869 73.3643 13.4716 75.8841 13.5653C78.3974 13.4811 80.8576 14.3007 82.8181 15.8756C84.7785 17.4504 86.1094 19.676 86.569 22.1483H101.458C100.076 9.20574 89.8776 0 75.8452 0C61.8127 0 51.5366 9.20574 50.2131 22.1483Z" fill="#252654"/>
<path d="M103.54 22.1483H118.429C118.89 19.6691 120.226 17.4382 122.195 15.8625C124.163 14.2869 126.633 13.4716 129.153 13.5653C131.673 13.4716 134.142 14.2869 136.111 15.8625C138.08 17.4382 139.416 19.6691 139.877 22.1483H154.532C153.072 8.52455 143.107 0 129.231 0C115.354 0 105 9.20574 103.618 22.1483" fill="#252654"/>
<path d="M139.877 28.0446C138.806 33.1632 134.758 36.0631 129.153 36.0631C123.548 36.0631 119.422 33.1632 118.41 28.0446H103.482C104.786 43.6145 116.716 49.6479 126.331 49.6479C129.001 49.7944 131.665 49.2774 134.087 48.1431C136.508 47.0088 138.611 45.2925 140.208 43.1474V45.95C140.208 55.2726 136.315 58.2698 129.25 58.2698C124.404 58.2698 120.901 56.8101 119.519 53.8129H104.786C107.705 65.4904 117.203 70.8815 129.425 70.8815C143.283 70.8815 154.727 63.7971 154.727 45.4635V27.9473L139.877 28.0446Z" fill="#252654"/>
<path d="M158.58 22.1479H173.469C173.93 19.6687 175.266 17.4378 177.235 15.8621C179.203 14.2865 181.673 13.4712 184.193 13.5649C190.791 13.5649 195.247 18.3138 195.247 25.2424C195.247 32.1711 190.791 36.9199 184.193 36.9199C181.635 37.0154 179.131 36.1745 177.149 34.5548C175.168 32.9352 173.845 30.6482 173.43 28.1229H158.58C159.865 41.2016 170.102 50.4852 184.212 50.4852C199.335 50.4852 210 39.8198 210 25.184C210 10.5482 199.335 -0.117188 184.212 -0.117188C170.18 -0.117188 159.982 9.08857 158.6 22.0311" fill="#252654"/>
</g>
<defs>
<clipPath id="clip0_69_1999">
<rect width="210" height="70.8823" fill="white"/>
</clipPath>
</defs>
</svg>
