<svg xmlns="http://www.w3.org/2000/svg" xmlns:xlink="http://www.w3.org/1999/xlink" viewBox="0 0 181.52 126.06"><defs><style>.cls-1{fill:#fbb03b;}.cls-2,.cls-3{fill:none;stroke-linecap:round;stroke-linejoin:round;}.cls-2{stroke-width:11px;stroke:url(#New_Gradient_Swatch_copy);}.cls-3{stroke:#fff;stroke-width:8px;}.cls-4{fill:url(#New_Gradient_Swatch_copy);}</style><linearGradient id="New_Gradient_Swatch_copy" x1="5.5" y1="43.7" x2="176.02" y2="43.7" gradientUnits="userSpaceOnUse"><stop offset="0.02" stop-color="#3bedd8"/><stop offset="0.51" stop-color="#00abcb"/><stop offset="0.62" stop-color="#07a5d0"/><stop offset="0.79" stop-color="#1c94df"/><stop offset="0.99" stop-color="#3e79f7"/><stop offset="0.99" stop-color="#3e79f7"/></linearGradient></defs><g id="Layer_2" data-name="Layer 2"><g id="Layer_1-2" data-name="Layer 1"><path class="cls-1" d="M30.87,105.54v15.77a.54.54,0,0,1-.55.55H17.24a.54.54,0,0,1-.55-.55V105.47a.54.54,0,0,1,.55-.56H30.32A.61.61,0,0,1,30.87,105.54ZM19.33,119.29h8.92V107.46H19.33Z"/><path class="cls-1" d="M35.36,105.47a.54.54,0,0,1,.55-.56h1.61a.54.54,0,0,1,.55.56v8.68a.54.54,0,0,1-.55.56H35.91a.54.54,0,0,1-.55-.56Z"/><path class="cls-1" d="M57,121.5a.33.33,0,0,1-.34.36h-2.3c-.27,0-.46-.14-.67-.46l-6-8.33-.46,0a2.31,2.31,0,0,0-1.7.72,2.85,2.85,0,0,0-.58,1.75v5.74a.54.54,0,0,1-.55.55H42.82a.54.54,0,0,1-.55-.55v-5.79A4.33,4.33,0,0,1,46.11,111l-4-5.25a.75.75,0,0,1-.19-.51c0-.26.12-.36.36-.36h2.28a.75.75,0,0,1,.65.41l6,7.87h.17a2.42,2.42,0,0,0,1.85-.84,3.22,3.22,0,0,0,.58-1.92v-5a.56.56,0,0,1,.55-.56h1.53a.55.55,0,0,1,.56.56v5a4.59,4.59,0,0,1-3.87,4.72l4.27,5.89A.52.52,0,0,1,57,121.5Z"/><path class="cls-1" d="M60.29,105.47a.57.57,0,0,1,.58-.56h6.82c3.45,0,5.18,2.36,5.18,5.81v10.59a.54.54,0,0,1-.55.55H70.73a.52.52,0,0,1-.52-.55V111c0-2.16-1.18-3.51-2.81-3.51H60.89a.6.6,0,0,1-.6-.57Z"/><path class="cls-1" d="M77.38,105.47a.54.54,0,0,1,.55-.56h1.59a.54.54,0,0,1,.55.56v15.84a.54.54,0,0,1-.55.55H77.93a.54.54,0,0,1-.55-.55Z"/><path class="cls-1" d="M84.29,105.47a.55.55,0,0,1,.56-.56H96.27c1.73,0,2.88.87,2.88,2.6a7.68,7.68,0,0,1-.34,1.56l-3.93,12.29a.66.66,0,0,1-.58.5H92.57a.45.45,0,0,1-.48-.5v-.1l4.11-12.6c.24-.7,0-1.2-.82-1.2H84.85a.54.54,0,0,1-.56-.55Zm.22,7.13a.54.54,0,0,1,.55-.56h1.58a.55.55,0,0,1,.56.56v12.91a.54.54,0,0,1-.56.55H85.06a.54.54,0,0,1-.55-.55Z"/><path class="cls-1" d="M110.84,105.47a.54.54,0,0,1,.55-.56h1.53a.55.55,0,0,1,.56.56v20a.54.54,0,0,1-.56.55h-1.53a.54.54,0,0,1-.55-.55Z"/><path class="cls-1" d="M118.06,105.47a.54.54,0,0,1,.55-.56h1.59a.54.54,0,0,1,.55.56v15.84a.54.54,0,0,1-.55.55h-1.59a.54.54,0,0,1-.55-.55Z"/><path class="cls-1" d="M125,105.47a.54.54,0,0,1,.55-.56H137c1.73,0,2.88.87,2.88,2.6a7.68,7.68,0,0,1-.34,1.56l-3.93,12.29a.67.67,0,0,1-.58.5h-1.73a.45.45,0,0,1-.48-.5v-.1l4.11-12.6c.24-.7,0-1.2-.82-1.2H125.52a.54.54,0,0,1-.55-.55Zm.22,7.13a.54.54,0,0,1,.55-.56h1.58a.55.55,0,0,1,.56.56v12.91a.54.54,0,0,1-.56.55h-1.58a.54.54,0,0,1-.55-.55Z"/><path class="cls-1" d="M143.6,105.47a.54.54,0,0,1,.55-.56h1.61a.54.54,0,0,1,.55.56v8.68a.54.54,0,0,1-.55.56h-1.61a.54.54,0,0,1-.55-.56Z"/><path class="cls-1" d="M164.81,105.49v15.82a.54.54,0,0,1-.55.55h-1.58a.54.54,0,0,1-.56-.55V107.48h-8.18l.07,9.44c0,3.28-1.75,4.94-4.27,4.94h-1.3a.54.54,0,0,1-.55-.55v-1.44a.54.54,0,0,1,.55-.55h.84c1.16,0,2.07-.65,2-2.79l-.12-11.06a.55.55,0,0,1,.56-.56h12.5A.57.57,0,0,1,164.81,105.49Z"/><circle cx="57.73" cy="10.06" r="3.38"/><circle cx="57.73" cy="22.01" r="3.38"/><path d="M51.37,25.33a26.09,26.09,0,0,1,0-18.46L48.39,5.5c-.17.37-4.26,9.3,0,20.93Z"/><path d="M40.51,69.46a67,67,0,0,0-8.69-11.57l3.46-6.22a3.34,3.34,0,0,1,2.26-1.45l1,0,1.92.06L41.7,39.68l-4.48-.62q-5.65-.69-6.51-2.51L29.1,37l.37,6.26a41.48,41.48,0,0,1,0,5.23,41.62,41.62,0,0,1-.7,5.4,1,1,0,0,1-.33.33.94.94,0,0,1-.41,0q-.83-.82-2.88-2.76l-5.4-5.07c-1.15-1.07-2.09-2-2.8-2.72a11.92,11.92,0,0,1-1.48-1.77,20.34,20.34,0,0,0-5.23-5.31H8.88l-3.38,11q5.9,3.7,5.89,8.28A26.58,26.58,0,0,1,9.54,63.9C9,65.22,8.51,66.52,8,67.81s-.95,2.6-1.42,3.92a7.78,7.78,0,0,0-.45,2.43q0,4.4,5.56,7.24l2.88-.08,4.49-9.43C15.71,70.65,14,68.77,14,66.25a6,6,0,0,1,.24-1.69,24.33,24.33,0,0,1,1.44-3.38A33,33,0,0,1,17.65,58a68.73,68.73,0,0,1,9.43,9.8q6.8,8.9,8.36,13.63H36.8l6.22-7a6.59,6.59,0,0,0-1-2.43Z"/><path d="M64,56.61c0-.85,0-1.85.1-3s.17-2.48.31-4c.22-1.68.38-3,.49-4l.21-1.85q.16-3.63-3.71-4.2l-4.9-.7C54,38.62,52.54,37.79,52,36.39H50.6l-2.84,11a5.06,5.06,0,0,0,3.46,2.1l5.23.7q2.76.3,2.51,3.22-.49,5.76-.49,7.41v8.07q-7.12-.28-10.13.87L45.82,81.07l1.07.83q2.27-1.58,9.4-1.57l2.34,0,4.58.13,2.67-8.77A3.26,3.26,0,0,0,66,70.12,45.81,45.81,0,0,1,64,56.61Z"/><path d="M104.27,39.68a16.28,16.28,0,0,0-7.41-1.44,24.87,24.87,0,0,0-4.82.49,2,2,0,0,0-1.61,1.36q-2.55,6.79-5.15,9.64l-.41-.29a16,16,0,0,1-.16-3A36.76,36.76,0,0,1,85,42.52c.22-1.4-.65-2.35-2.63-2.84L79.8,39q-3.49-1-4.2-2.43H74.24L71,47.34c.3,1.07,1.35,1.9,3.13,2.47l2.27.74q2.05.66,2.88,3.71a5.69,5.69,0,0,1-.78,4.24Q75.07,64.8,75.07,74a29.62,29.62,0,0,0,.7,7.25h1.6l5.48-3.34a57.42,57.42,0,0,1-.53-13.59A24,24,0,0,1,85,55q3-5.31,9.89-5.31,6.35,0,8.77,2.68,3,3.42,3,9.1c0,2.91-.59,4.92-1.77,6q-2.19,2-11.62,1.94h-3l-2.56,11v.49a6.66,6.66,0,0,0,1,.06c.49,0,1.17,0,2,0,8,0,12.87-.81,14.58-2.43a7.64,7.64,0,0,0,1-1.23c.31-.5.62-1,.92-1.65s.6-1.24.89-1.9.58-1.31.88-2A31.74,31.74,0,0,0,110.49,48Q108.39,41.83,104.27,39.68Z"/><path d="M128.12,39.76,125,39.19c-2.5-.44-4-1.32-4.57-2.64H119.1l-3,11.2q.95,1.48,4.29,2.15l1.93.32a2.93,2.93,0,0,1,2.56,3.22,11.52,11.52,0,0,1-1.69,4.61,25,25,0,0,1-2.72,4.16l.86.82,4.74-3.54a25.18,25.18,0,0,0,2.31-3,29.87,29.87,0,0,0,2.06-3.69,18.68,18.68,0,0,0,2-7.74Q132.48,40.55,128.12,39.76Z"/><path d="M172.31,42.52q-3.12-3.87-9.43-3.87H146.74a12.8,12.8,0,0,1-3.26-.25,3.53,3.53,0,0,1-1.69-1.85h-1.27l-3,10.71q1.6,2.55,6.1,2.55c.66,0,.76.33.33,1l-1.28,1.94a13,13,0,0,0-2.18,6.92,35.27,35.27,0,0,0,1.93,10.66,43.24,43.24,0,0,0,5.07,10.59l1.77.06c.58,0,1.14,0,1.69,0q10.46,0,14.46-3.5a32.5,32.5,0,0,0,3.66-3.77,31.77,31.77,0,0,0,3-4.26A28.87,28.87,0,0,0,176,55Q176,47.1,172.31,42.52ZM168.9,64.68a10.8,10.8,0,0,1-5.36,3.83,25.91,25.91,0,0,1-9.88,1.77c-.5,0-1,0-1.49,0s-1-.07-1.44-.12q-4.74-5.28-4.74-14a9.85,9.85,0,0,1,1.2-4.36,3.42,3.42,0,0,1,3.29-1.94h11a8.64,8.64,0,0,1,6.39,2.43,8.54,8.54,0,0,1,2.47,6.35A11.06,11.06,0,0,1,168.9,64.68Z"/><circle class="cls-2" cx="57.73" cy="10.06" r="3.38"/><circle class="cls-2" cx="57.73" cy="22.01" r="3.38"/><path class="cls-2" d="M51.37,25.33a26.09,26.09,0,0,1,0-18.46L48.39,5.5c-.17.37-4.26,9.3,0,20.93Z"/><path class="cls-2" d="M40.51,69.46a67,67,0,0,0-8.69-11.57l3.46-6.22a3.34,3.34,0,0,1,2.26-1.45l1,0,1.92.06L41.7,39.68l-4.48-.62q-5.65-.69-6.51-2.51L29.1,37l.37,6.26a41.48,41.48,0,0,1,0,5.23,41.62,41.62,0,0,1-.7,5.4,1,1,0,0,1-.33.33.94.94,0,0,1-.41,0q-.83-.82-2.88-2.76l-5.4-5.07c-1.15-1.07-2.09-2-2.8-2.72a11.92,11.92,0,0,1-1.48-1.77,20.34,20.34,0,0,0-5.23-5.31H8.88l-3.38,11q5.9,3.7,5.89,8.28A26.58,26.58,0,0,1,9.54,63.9C9,65.22,8.51,66.52,8,67.81s-.95,2.6-1.42,3.92a7.78,7.78,0,0,0-.45,2.43q0,4.4,5.56,7.24l2.88-.08,4.49-9.43C15.71,70.65,14,68.77,14,66.25a6,6,0,0,1,.24-1.69,24.33,24.33,0,0,1,1.44-3.38A33,33,0,0,1,17.65,58a68.73,68.73,0,0,1,9.43,9.8q6.8,8.9,8.36,13.63H36.8l6.22-7a6.59,6.59,0,0,0-1-2.43Z"/><path class="cls-2" d="M64,56.61c0-.85,0-1.85.1-3s.17-2.48.31-4c.22-1.68.38-3,.49-4l.21-1.85q.16-3.63-3.71-4.2l-4.9-.7C54,38.62,52.54,37.79,52,36.39H50.6l-2.84,11a5.06,5.06,0,0,0,3.46,2.1l5.23.7q2.76.3,2.51,3.22-.49,5.76-.49,7.41v8.07q-7.12-.28-10.13.87L45.82,81.07l1.07.83q2.27-1.58,9.4-1.57l2.34,0,4.58.13,2.67-8.77A3.26,3.26,0,0,0,66,70.12,45.81,45.81,0,0,1,64,56.61Z"/><path class="cls-2" d="M104.27,39.68a16.28,16.28,0,0,0-7.41-1.44,24.87,24.87,0,0,0-4.82.49,2,2,0,0,0-1.61,1.36q-2.55,6.79-5.15,9.64l-.41-.29a16,16,0,0,1-.16-3A36.76,36.76,0,0,1,85,42.52c.22-1.4-.65-2.35-2.63-2.84L79.8,39q-3.49-1-4.2-2.43H74.24L71,47.34c.3,1.07,1.35,1.9,3.13,2.47l2.27.74q2.05.66,2.88,3.71a5.69,5.69,0,0,1-.78,4.24Q75.07,64.8,75.07,74a29.62,29.62,0,0,0,.7,7.25h1.6l5.48-3.34a57.42,57.42,0,0,1-.53-13.59A24,24,0,0,1,85,55q3-5.31,9.89-5.31,6.35,0,8.77,2.68,3,3.42,3,9.1c0,2.91-.59,4.92-1.77,6q-2.19,2-11.62,1.94h-3l-2.56,11v.49a6.66,6.66,0,0,0,1,.06c.49,0,1.17,0,2,0,8,0,12.87-.81,14.58-2.43a7.64,7.64,0,0,0,1-1.23c.31-.5.62-1,.92-1.65s.6-1.24.89-1.9.58-1.31.88-2A31.74,31.74,0,0,0,110.49,48Q108.39,41.83,104.27,39.68Z"/><path class="cls-2" d="M128.12,39.76,125,39.19c-2.5-.44-4-1.32-4.57-2.64H119.1l-3,11.2q.95,1.48,4.29,2.15l1.93.32a2.93,2.93,0,0,1,2.56,3.22,11.52,11.52,0,0,1-1.69,4.61,25,25,0,0,1-2.72,4.16l.86.82,4.74-3.54a25.18,25.18,0,0,0,2.31-3,29.87,29.87,0,0,0,2.06-3.69,18.68,18.68,0,0,0,2-7.74Q132.48,40.55,128.12,39.76Z"/><path class="cls-2" d="M172.31,42.52q-3.12-3.87-9.43-3.87H146.74a12.8,12.8,0,0,1-3.26-.25,3.53,3.53,0,0,1-1.69-1.85h-1.27l-3,10.71q1.6,2.55,6.1,2.55c.66,0,.76.33.33,1l-1.28,1.94a13,13,0,0,0-2.18,6.92,35.27,35.27,0,0,0,1.93,10.66,43.24,43.24,0,0,0,5.07,10.59l1.77.06c.58,0,1.14,0,1.69,0q10.46,0,14.46-3.5a32.5,32.5,0,0,0,3.66-3.77,31.77,31.77,0,0,0,3-4.26A28.87,28.87,0,0,0,176,55Q176,47.1,172.31,42.52ZM168.9,64.68a10.8,10.8,0,0,1-5.36,3.83,25.91,25.91,0,0,1-9.88,1.77c-.5,0-1,0-1.49,0s-1-.07-1.44-.12q-4.74-5.28-4.74-14a9.85,9.85,0,0,1,1.2-4.36,3.42,3.42,0,0,1,3.29-1.94h11a8.64,8.64,0,0,1,6.39,2.43,8.54,8.54,0,0,1,2.47,6.35A11.06,11.06,0,0,1,168.9,64.68Z"/><circle class="cls-3" cx="57.73" cy="10.06" r="3.38"/><circle class="cls-3" cx="57.73" cy="22.01" r="3.38"/><path class="cls-3" d="M51.37,25.33a26.09,26.09,0,0,1,0-18.46L48.39,5.5c-.17.37-4.26,9.3,0,20.93Z"/><path class="cls-3" d="M40.51,69.46a67,67,0,0,0-8.69-11.57l3.46-6.22a3.34,3.34,0,0,1,2.26-1.45l1,0,1.92.06L41.7,39.68l-4.48-.62q-5.65-.69-6.51-2.51L29.1,37l.37,6.26a41.48,41.48,0,0,1,0,5.23,41.62,41.62,0,0,1-.7,5.4,1,1,0,0,1-.33.33.94.94,0,0,1-.41,0q-.83-.82-2.88-2.76l-5.4-5.07c-1.15-1.07-2.09-2-2.8-2.72a11.92,11.92,0,0,1-1.48-1.77,20.34,20.34,0,0,0-5.23-5.31H8.88l-3.38,11q5.9,3.7,5.89,8.28A26.58,26.58,0,0,1,9.54,63.9C9,65.22,8.51,66.52,8,67.81s-.95,2.6-1.42,3.92a7.78,7.78,0,0,0-.45,2.43q0,4.4,5.56,7.24l2.88-.08,4.49-9.43C15.71,70.65,14,68.77,14,66.25a6,6,0,0,1,.24-1.69,24.33,24.33,0,0,1,1.44-3.38A33,33,0,0,1,17.65,58a68.73,68.73,0,0,1,9.43,9.8q6.8,8.9,8.36,13.63H36.8l6.22-7a6.59,6.59,0,0,0-1-2.43Z"/><path class="cls-3" d="M64,56.61c0-.85,0-1.85.1-3s.17-2.48.31-4c.22-1.68.38-3,.49-4l.21-1.85q.16-3.63-3.71-4.2l-4.9-.7C54,38.62,52.54,37.79,52,36.39H50.6l-2.84,11a5.06,5.06,0,0,0,3.46,2.1l5.23.7q2.76.3,2.51,3.22-.49,5.76-.49,7.41v8.07q-7.12-.28-10.13.87L45.82,81.07l1.07.83q2.27-1.58,9.4-1.57l2.34,0,4.58.13,2.67-8.77A3.26,3.26,0,0,0,66,70.12,45.81,45.81,0,0,1,64,56.61Z"/><path class="cls-3" d="M104.27,39.68a16.28,16.28,0,0,0-7.41-1.44,24.87,24.87,0,0,0-4.82.49,2,2,0,0,0-1.61,1.36q-2.55,6.79-5.15,9.64l-.41-.29a16,16,0,0,1-.16-3A36.76,36.76,0,0,1,85,42.52c.22-1.4-.65-2.35-2.63-2.84L79.8,39q-3.49-1-4.2-2.43H74.24L71,47.34c.3,1.07,1.35,1.9,3.13,2.47l2.27.74q2.05.66,2.88,3.71a5.69,5.69,0,0,1-.78,4.24Q75.07,64.8,75.07,74a29.62,29.62,0,0,0,.7,7.25h1.6l5.48-3.34a57.42,57.42,0,0,1-.53-13.59A24,24,0,0,1,85,55q3-5.31,9.89-5.31,6.35,0,8.77,2.68,3,3.42,3,9.1c0,2.91-.59,4.92-1.77,6q-2.19,2-11.62,1.94h-3l-2.56,11v.49a6.66,6.66,0,0,0,1,.06c.49,0,1.17,0,2,0,8,0,12.87-.81,14.58-2.43a7.64,7.64,0,0,0,1-1.23c.31-.5.62-1,.92-1.65s.6-1.24.89-1.9.58-1.31.88-2A31.74,31.74,0,0,0,110.49,48Q108.39,41.83,104.27,39.68Z"/><path class="cls-3" d="M128.12,39.76,125,39.19c-2.5-.44-4-1.32-4.57-2.64H119.1l-3,11.2q.95,1.48,4.29,2.15l1.93.32a2.93,2.93,0,0,1,2.56,3.22,11.52,11.52,0,0,1-1.69,4.61,25,25,0,0,1-2.72,4.16l.86.82,4.74-3.54a25.18,25.18,0,0,0,2.31-3,29.87,29.87,0,0,0,2.06-3.69,18.68,18.68,0,0,0,2-7.74Q132.48,40.55,128.12,39.76Z"/><path class="cls-3" d="M172.31,42.52q-3.12-3.87-9.43-3.87H146.74a12.8,12.8,0,0,1-3.26-.25,3.53,3.53,0,0,1-1.69-1.85h-1.27l-3,10.71q1.6,2.55,6.1,2.55c.66,0,.76.33.33,1l-1.28,1.94a13,13,0,0,0-2.18,6.92,35.27,35.27,0,0,0,1.93,10.66,43.24,43.24,0,0,0,5.07,10.59l1.77.06c.58,0,1.14,0,1.69,0q10.46,0,14.46-3.5a32.5,32.5,0,0,0,3.66-3.77,31.77,31.77,0,0,0,3-4.26A28.87,28.87,0,0,0,176,55Q176,47.1,172.31,42.52ZM168.9,64.68a10.8,10.8,0,0,1-5.36,3.83,25.91,25.91,0,0,1-9.88,1.77c-.5,0-1,0-1.49,0s-1-.07-1.44-.12q-4.74-5.28-4.74-14a9.85,9.85,0,0,1,1.2-4.36,3.42,3.42,0,0,1,3.29-1.94h11a8.64,8.64,0,0,1,6.39,2.43,8.54,8.54,0,0,1,2.47,6.35A11.06,11.06,0,0,1,168.9,64.68Z"/><circle class="cls-4" cx="57.73" cy="10.06" r="3.38"/><circle class="cls-4" cx="57.73" cy="22.01" r="3.38"/><path class="cls-4" d="M51.37,25.33a26.09,26.09,0,0,1,0-18.46L48.39,5.5c-.17.37-4.26,9.3,0,20.93Z"/><path class="cls-4" d="M40.51,69.46a67,67,0,0,0-8.69-11.57l3.46-6.22a3.34,3.34,0,0,1,2.26-1.45l1,0,1.92.06L41.7,39.68l-4.48-.62q-5.65-.69-6.51-2.51L29.1,37l.37,6.26a41.48,41.48,0,0,1,0,5.23,41.62,41.62,0,0,1-.7,5.4,1,1,0,0,1-.33.33.94.94,0,0,1-.41,0q-.83-.82-2.88-2.76l-5.4-5.07c-1.15-1.07-2.09-2-2.8-2.72a11.92,11.92,0,0,1-1.48-1.77,20.34,20.34,0,0,0-5.23-5.31H8.88l-3.38,11q5.9,3.7,5.89,8.28A26.58,26.58,0,0,1,9.54,63.9C9,65.22,8.51,66.52,8,67.81s-.95,2.6-1.42,3.92a7.78,7.78,0,0,0-.45,2.43q0,4.4,5.56,7.24l2.88-.08,4.49-9.43C15.71,70.65,14,68.77,14,66.25a6,6,0,0,1,.24-1.69,24.33,24.33,0,0,1,1.44-3.38A33,33,0,0,1,17.65,58a68.73,68.73,0,0,1,9.43,9.8q6.8,8.9,8.36,13.63H36.8l6.22-7a6.59,6.59,0,0,0-1-2.43Z"/><path class="cls-4" d="M64,56.61c0-.85,0-1.85.1-3s.17-2.48.31-4c.22-1.68.38-3,.49-4l.21-1.85q.16-3.63-3.71-4.2l-4.9-.7C54,38.62,52.54,37.79,52,36.39H50.6l-2.84,11a5.06,5.06,0,0,0,3.46,2.1l5.23.7q2.76.3,2.51,3.22-.49,5.76-.49,7.41v8.07q-7.12-.28-10.13.87L45.82,81.07l1.07.83q2.27-1.58,9.4-1.57l2.34,0,4.58.13,2.67-8.77A3.26,3.26,0,0,0,66,70.12,45.81,45.81,0,0,1,64,56.61Z"/><path class="cls-4" d="M104.27,39.68a16.28,16.28,0,0,0-7.41-1.44,24.87,24.87,0,0,0-4.82.49,2,2,0,0,0-1.61,1.36q-2.55,6.79-5.15,9.64l-.41-.29a16,16,0,0,1-.16-3A36.76,36.76,0,0,1,85,42.52c.22-1.4-.65-2.35-2.63-2.84L79.8,39q-3.49-1-4.2-2.43H74.24L71,47.34c.3,1.07,1.35,1.9,3.13,2.47l2.27.74q2.05.66,2.88,3.71a5.69,5.69,0,0,1-.78,4.24Q75.07,64.8,75.07,74a29.62,29.62,0,0,0,.7,7.25h1.6l5.48-3.34a57.42,57.42,0,0,1-.53-13.59A24,24,0,0,1,85,55q3-5.31,9.89-5.31,6.35,0,8.77,2.68,3,3.42,3,9.1c0,2.91-.59,4.92-1.77,6q-2.19,2-11.62,1.94h-3l-2.56,11v.49a6.66,6.66,0,0,0,1,.06c.49,0,1.17,0,2,0,8,0,12.87-.81,14.58-2.43a7.64,7.64,0,0,0,1-1.23c.31-.5.62-1,.92-1.65s.6-1.24.89-1.9.58-1.31.88-2A31.74,31.74,0,0,0,110.49,48Q108.39,41.83,104.27,39.68Z"/><path class="cls-4" d="M128.12,39.76,125,39.19c-2.5-.44-4-1.32-4.57-2.64H119.1l-3,11.2q.95,1.48,4.29,2.15l1.93.32a2.93,2.93,0,0,1,2.56,3.22,11.52,11.52,0,0,1-1.69,4.61,25,25,0,0,1-2.72,4.16l.86.82,4.74-3.54a25.18,25.18,0,0,0,2.31-3,29.87,29.87,0,0,0,2.06-3.69,18.68,18.68,0,0,0,2-7.74Q132.48,40.55,128.12,39.76Z"/><path class="cls-4" d="M172.31,42.52q-3.12-3.87-9.43-3.87H146.74a12.8,12.8,0,0,1-3.26-.25,3.53,3.53,0,0,1-1.69-1.85h-1.27l-3,10.71q1.6,2.55,6.1,2.55c.66,0,.76.33.33,1l-1.28,1.94a13,13,0,0,0-2.18,6.92,35.27,35.27,0,0,0,1.93,10.66,43.24,43.24,0,0,0,5.07,10.59l1.77.06c.58,0,1.14,0,1.69,0q10.46,0,14.46-3.5a32.5,32.5,0,0,0,3.66-3.77,31.77,31.77,0,0,0,3-4.26A28.87,28.87,0,0,0,176,55Q176,47.1,172.31,42.52ZM168.9,64.68a10.8,10.8,0,0,1-5.36,3.83,25.91,25.91,0,0,1-9.88,1.77c-.5,0-1,0-1.49,0s-1-.07-1.44-.12q-4.74-5.28-4.74-14a9.85,9.85,0,0,1,1.2-4.36,3.42,3.42,0,0,1,3.29-1.94h11a8.64,8.64,0,0,1,6.39,2.43,8.54,8.54,0,0,1,2.47,6.35A11.06,11.06,0,0,1,168.9,64.68Z"/></g></g></svg>